<?xml version="1.0" encoding="UTF-8" standalone="no"?>
<!-- Created with Inkscape (http://www.inkscape.org/) -->

<svg
   xmlns:dc="http://purl.org/dc/elements/1.1/"
   xmlns:cc="http://creativecommons.org/ns#"
   xmlns:rdf="http://www.w3.org/1999/02/22-rdf-syntax-ns#"
   xmlns:svg="http://www.w3.org/2000/svg"
   xmlns="http://www.w3.org/2000/svg"
   xmlns:xlink="http://www.w3.org/1999/xlink"
   xmlns:sodipodi="http://sodipodi.sourceforge.net/DTD/sodipodi-0.dtd"
   xmlns:inkscape="http://www.inkscape.org/namespaces/inkscape"
   width="15.6mm"
   height="13.6mm"
   viewBox="0 0 15.6 13.6"
   version="1.1"
   id="svg18095"
   inkscape:version="0.92.4 (5da689c313, 2019-01-14)"
   sodipodi:docname="pink-B.svg">
  <defs
     id="defs18089">
    <linearGradient
       inkscape:collect="always"
       xlink:href="#PianoPink"
       id="linearGradient16920"
       gradientUnits="userSpaceOnUse"
       gradientTransform="translate(42.333335,-28.000011)"
       x1="4.9444861"
       y1="50.056393"
       x2="19.911579"
       y2="50.056393" />
    <linearGradient
       id="PianoPink"
       inkscape:collect="always">
      <stop
         id="stop15694"
         offset="0"
         style="stop-color:#fed4db;stop-opacity:1" />
      <stop
         id="stop15696"
         offset="1"
         style="stop-color:#fcaebb;stop-opacity:1" />
    </linearGradient>
    <linearGradient
       inkscape:collect="always"
       xlink:href="#PianoRimLight"
       id="linearGradient16944"
       gradientUnits="userSpaceOnUse"
       gradientTransform="matrix(0.26458333,0,0,0.26458333,42.333335,-28.000011)"
       x1="17.5"
       y1="187.63358"
       x2="17.678572"
       y2="239.4193" />
    <linearGradient
       inkscape:collect="always"
       id="PianoRimLight">
      <stop
         style="stop-color:#76bfbe;stop-opacity:1"
         offset="0"
         id="stop15552" />
      <stop
         style="stop-color:#76bfbe;stop-opacity:0"
         offset="1"
         id="stop15554" />
    </linearGradient>
    <linearGradient
       inkscape:collect="always"
       xlink:href="#PianoRimDark"
       id="linearGradient16956"
       gradientUnits="userSpaceOnUse"
       gradientTransform="matrix(0.26458333,0,0,0.26458333,42.333335,-28.000011)"
       x1="17.5"
       y1="187.63358"
       x2="17.678572"
       y2="239.4193" />
    <linearGradient
       inkscape:collect="always"
       id="PianoRimDark">
      <stop
         style="stop-color:#083d45;stop-opacity:0"
         offset="0"
         id="stop15418" />
      <stop
         style="stop-color:#083d45;stop-opacity:1"
         offset="1"
         id="stop15420" />
    </linearGradient>
    <linearGradient
       inkscape:collect="always"
       xlink:href="#PianoHighlight"
       id="linearGradient16992"
       gradientUnits="userSpaceOnUse"
       gradientTransform="translate(42.333335,-28.000011)"
       x1="5.7949324"
       y1="50.71785"
       x2="5.7374721"
       y2="62.293373" />
    <linearGradient
       inkscape:collect="always"
       id="PianoHighlight">
      <stop
         style="stop-color:#ffffff;stop-opacity:0.13333334"
         offset="0"
         id="stop15558" />
      <stop
         style="stop-color:#000000;stop-opacity:0.13333334"
         offset="1"
         id="stop15560" />
    </linearGradient>
  </defs>
  <sodipodi:namedview
     id="base"
     pagecolor="#ffffff"
     bordercolor="#666666"
     borderopacity="1.0"
     inkscape:pageopacity="0.0"
     inkscape:pageshadow="2"
     inkscape:zoom="3.959798"
     inkscape:cx="-62.729116"
     inkscape:cy="42.81652"
     inkscape:document-units="mm"
     inkscape:current-layer="layer1"
     showgrid="false"
     inkscape:window-width="1920"
     inkscape:window-height="1019"
     inkscape:window-x="1076"
     inkscape:window-y="442"
     inkscape:window-maximized="1" />
  <metadata
     id="metadata18092">
    <rdf:RDF>
      <cc:Work
         rdf:about="">
        <dc:format>image/svg+xml</dc:format>
        <dc:type
           rdf:resource="http://purl.org/dc/dcmitype/StillImage" />
        <dc:title />
      </cc:Work>
    </rdf:RDF>
  </metadata>
  <g
     inkscape:label="Layer 1"
     inkscape:groupmode="layer"
     id="layer1"
     transform="translate(0,-283.4)">
    <g
       style="display:inline"
       id="g17304"
       transform="translate(-47.033307,261.7)">
      <path
         inkscape:connector-curvature="0"
         id="path16824"
         d="m 49.833136,21.999748 c -1.394491,0 -2.499589,1.105612 -2.499589,2.500106 v 5.499923 h 2.20865 c 0.06699,0 0.114602,0.0057 0.146761,0.0078 0.03324,-0.0022 0.07865,-0.0078 0.144178,-0.0078 h 5.000211 c 1.931022,0 3.500046,1.569019 3.500046,3.500046 v 1.500166 h 1.500166 c 1.394492,0 2.499588,-1.105609 2.499588,-2.500106 v -8.000029 c 0,-1.394494 -1.105096,-2.500106 -2.499588,-2.500106 z"
         style="display:inline;opacity:1;fill:url(#linearGradient16920);fill-opacity:1;stroke:none;stroke-width:0.50006247;stroke-linejoin:round;stroke-miterlimit:4;stroke-dasharray:none;stroke-opacity:1;paint-order:fill markers stroke" />
      <path
         inkscape:connector-curvature="0"
         id="path16848"
         d="m 49.833136,21.700314 c -1.554673,0 -2.799829,1.245153 -2.799829,2.799829 v 5.800164 h 2.508374 c 0.05881,0 0.105718,0.0045 0.145728,0.0067 0.04031,-0.0024 0.08732,-0.0067 0.145727,-0.0067 h 5.000212 c 1.769324,0 3.199805,1.430472 3.199805,3.199804 V 35.3 h 1.800407 c 1.554673,0 2.799829,-1.24515 2.799829,-2.799828 v -8.000029 c 0,-1.554676 -1.245156,-2.799829 -2.799829,-2.799829 z m -5.29e-4,0.39946 h 9.999907 c 1.341096,0 2.40037,1.05927 2.40037,2.400369 v 8.000029 c 0,1.341101 -1.059274,2.400368 -2.40037,2.400371 h -1.400431 v -1.400432 c 0,-1.984928 -1.614345,-3.59978 -3.599264,-3.59978 h -5.0002 c -0.06843,0 -0.114015,0.004 -0.146244,0.0062 -0.03135,-0.0021 -0.07655,-0.0062 -0.144694,-0.0062 h -2.107364 v -5.400188 c 0,-1.341099 1.057206,-2.400369 2.398302,-2.400369 z"
         style="display:inline;opacity:1;fill:url(#linearGradient16944);fill-opacity:1;stroke:none;stroke-width:0.50006247;stroke-linejoin:round;stroke-miterlimit:4;stroke-dasharray:none;stroke-opacity:1;paint-order:fill markers stroke" />
      <path
         inkscape:connector-curvature="0"
         style="display:inline;opacity:1;fill:url(#linearGradient16956);fill-opacity:1;stroke:none;stroke-width:0.50006247;stroke-linejoin:round;stroke-miterlimit:4;stroke-dasharray:none;stroke-opacity:1;paint-order:fill markers stroke"
         d="m 49.833136,21.700314 c -1.554673,0 -2.799829,1.245153 -2.799829,2.799829 v 5.800164 h 2.508374 c 0.05881,0 0.105718,0.0045 0.145728,0.0067 0.04031,-0.0023 0.08732,-0.0067 0.145727,-0.0067 h 5.000212 c 1.769324,0 3.199804,1.430472 3.199804,3.199804 V 35.3 h 1.800407 c 1.554673,0 2.799829,-1.24515 2.799829,-2.799828 v -8.000029 c 0,-1.554676 -1.245156,-2.799829 -2.799829,-2.799829 z m -5.17e-4,0.39946 h 9.999907 c 1.341096,0 2.40037,1.05927 2.40037,2.400369 v 8.000029 c 0,1.341101 -1.059274,2.400368 -2.40037,2.400371 h -1.400432 v -1.400432 c 0,-1.984928 -1.614343,-3.59978 -3.599263,-3.59978 h -5.000212 c -0.06843,0 -0.114015,0.004 -0.146244,0.0062 -0.03135,-0.0022 -0.07655,-0.0062 -0.144694,-0.0062 h -2.107365 v -5.400188 c 0,-1.341099 1.057208,-2.400369 2.398303,-2.400369 z"
         id="path16860" />
      <path
         inkscape:connector-curvature="0"
         id="path16896"
         d="m 49.832618,22.699219 c -1.024498,0 -1.798857,0.776251 -1.798857,1.800924 v 4.798673 h 1.507919 c 0.08084,0 0.118475,0.0053 0.146246,0.0078 0.02748,-0.0025 0.06426,-0.0078 0.144692,-0.0078 h 5.000213 c 2.310204,0 4.200776,1.891086 4.200776,4.201295 v 0.800468 h 0.798917 c 1.024501,0 1.800924,-0.775729 1.800924,-1.800407 v -8.000029 c 0,-1.024673 -0.776425,-1.800924 -1.800924,-1.800924 z"
         style="display:inline;opacity:1;fill:url(#linearGradient16992);fill-opacity:1;stroke:none;stroke-width:0.50006247;stroke-linejoin:round;stroke-miterlimit:4;stroke-dasharray:none;stroke-opacity:1;paint-order:fill markers stroke" />
    </g>
    <circle
       style="fill:#0e6977;fill-opacity:1;stroke-width:0.21341462;paint-order:markers fill stroke"
       id="circle8625"
       r="0.74999994"
       cx="12.75"
       cy="289.14166" />
  </g>
</svg>
