<?xml version="1.0" encoding="UTF-8" standalone="no"?>
<svg
   xmlns:dc="http://purl.org/dc/elements/1.1/"
   xmlns:cc="http://creativecommons.org/ns#"
   xmlns:rdf="http://www.w3.org/1999/02/22-rdf-syntax-ns#"
   xmlns:svg="http://www.w3.org/2000/svg"
   xmlns="http://www.w3.org/2000/svg"
   xmlns:xlink="http://www.w3.org/1999/xlink"
   xmlns:sodipodi="http://sodipodi.sourceforge.net/DTD/sodipodi-0.dtd"
   xmlns:inkscape="http://www.inkscape.org/namespaces/inkscape"
   sodipodi:docname="yellow-light-E.svg"
   inkscape:version="1.0 (4035a4fb49, 2020-05-01)"
   id="svg18095"
   version="1.1"
   viewBox="0 0 15.6 13.6"
   height="13.6mm"
   width="15.6mm">
  <defs
     id="defs18089">
    <linearGradient
       y2="78.052879"
       x2="19.844763"
       y1="78.000275"
       x1="5.0002112"
       gradientTransform="translate(-4.699971,205.70015)"
       gradientUnits="userSpaceOnUse"
       id="linearGradient17120"
       xlink:href="#PianoYellow"
       inkscape:collect="always" />
    <linearGradient
       inkscape:collect="always"
       id="PianoYellow">
      <stop
         style="stop-color:#ffe57e;stop-opacity:1"
         offset="0"
         id="stop15688" />
      <stop
         style="stop-color:#ffcc03;stop-opacity:1"
         offset="1"
         id="stop15690" />
    </linearGradient>
    <linearGradient
       y2="90.289856"
       x2="5.7651496"
       y1="78.701134"
       x1="5.7004251"
       gradientTransform="translate(-4.699971,205.70015)"
       gradientUnits="userSpaceOnUse"
       id="linearGradient17192"
       xlink:href="#PianoHighlight"
       inkscape:collect="always" />
    <linearGradient
       id="PianoHighlight"
       inkscape:collect="always">
      <stop
         id="stop15558"
         offset="0"
         style="stop-color:#ffffff;stop-opacity:0.13333334" />
      <stop
         id="stop15560"
         offset="1"
         style="stop-color:#000000;stop-opacity:0.13333334" />
    </linearGradient>
  </defs>
  <sodipodi:namedview
     inkscape:document-rotation="0"
     inkscape:window-maximized="1"
     inkscape:window-y="442"
     inkscape:window-x="1076"
     inkscape:window-height="1019"
     inkscape:window-width="1920"
     showgrid="false"
     inkscape:current-layer="layer1"
     inkscape:document-units="mm"
     inkscape:cy="39.208222"
     inkscape:cx="14.546145"
     inkscape:zoom="22.4"
     inkscape:pageshadow="2"
     inkscape:pageopacity="0.0"
     borderopacity="1.0"
     bordercolor="#666666"
     pagecolor="#ffffff"
     id="base" />
  <metadata
     id="metadata18092">
    <rdf:RDF>
      <cc:Work
         rdf:about="">
        <dc:format>image/svg+xml</dc:format>
        <dc:type
           rdf:resource="http://purl.org/dc/dcmitype/StillImage" />
        <dc:title></dc:title>
      </cc:Work>
    </rdf:RDF>
  </metadata>
  <g
     transform="translate(0,-283.4)"
     id="layer1"
     inkscape:groupmode="layer"
     inkscape:label="Layer 1">
    <path
       style="display:inline;fill:url(#linearGradient17120);fill-opacity:1;stroke:none;stroke-width:0.500062;stroke-linejoin:round;stroke-miterlimit:4;stroke-dasharray:none;stroke-opacity:1;paint-order:fill markers stroke"
       d="m 0.300241,283.70042 v 2.50011 2.19986 3.30006 h 2.208134 c 0.0664,0 0.11305,0.005 0.14521,0.007 0.03377,-0.002 0.08062,-0.007 0.146245,-0.007 h 5.000211 c 1.931022,0 3.500046,1.56902 3.500046,3.50005 v 1.49965 h 1.500166 c 1.394492,-1e-5 2.499588,-1.10509 2.499588,-2.49959 v -8.00003 c 0,-1.39449 -1.105096,-2.49959 -2.499588,-2.49959 H 5.000212 a 0.30003001,0.30003001 0 0 1 -0.01085,-5.2e-4 z"
       id="path17024"
       inkscape:connector-curvature="0" />
    <path
       style="display:inline;fill:url(#linearGradient17192);fill-opacity:1;stroke:none;stroke-width:0.500062;stroke-linejoin:round;stroke-miterlimit:4;stroke-dasharray:none;stroke-opacity:1;paint-order:fill markers stroke"
       d="m 1.000455,284.40129 v 1.79885 2.20142 2.59932 h 1.507919 c 0.07455,0 0.113025,0.004 0.144695,0.006 0.03396,-0.002 0.07282,-0.006 0.146243,-0.006 h 5.000213 c 2.310201,0 4.200776,1.88902 4.200776,4.19923 v 0.80099 h 0.798917 c 1.024676,-1e-5 1.800924,-0.77625 1.800924,-1.80093 v -8.00003 c 0,-1.02467 -0.776251,-1.79885 -1.800924,-1.79885 h -7.79849 a 0.70006998,0.70006998 0 0 1 -0.01188,0 h -0.0098 z"
       id="path17096"
       inkscape:connector-curvature="0" />
  </g>
</svg>
