<?xml version="1.0" encoding="UTF-8" standalone="no"?>
<!-- Created with Inkscape (http://www.inkscape.org/) -->

<svg
   xmlns:osb="http://www.openswatchbook.org/uri/2009/osb"
   xmlns:dc="http://purl.org/dc/elements/1.1/"
   xmlns:cc="http://creativecommons.org/ns#"
   xmlns:rdf="http://www.w3.org/1999/02/22-rdf-syntax-ns#"
   xmlns:svg="http://www.w3.org/2000/svg"
   xmlns="http://www.w3.org/2000/svg"
   xmlns:xlink="http://www.w3.org/1999/xlink"
   xmlns:sodipodi="http://sodipodi.sourceforge.net/DTD/sodipodi-0.dtd"
   xmlns:inkscape="http://www.inkscape.org/namespaces/inkscape"
   width="71.120003mm"
   height="128.5mm"
   viewBox="0 0 71.120004 128.5"
   version="1.1"
   id="svg888"
   inkscape:version="0.92.4 (5da689c313, 2019-01-14)"
   sodipodi:docname="Aleister.svg">
  <defs
     id="defs882">
    <linearGradient
       id="Pink"
       osb:paint="solid"
       gradientTransform="matrix(4.6666663,0,0,0.8,0.28000593,32.2)">
      <stop
         style="stop-color:#fcaebb;stop-opacity:1;"
         offset="0"
         id="stop7599" />
    </linearGradient>
    <linearGradient
       inkscape:collect="always"
       xlink:href="#YellowYay"
       id="linearGradient7673"
       gradientUnits="userSpaceOnUse"
       gradientTransform="matrix(4.6666665,0,0,1,-113.45469,-15.73531)"
       x1="24.31172"
       y1="194.23528"
       x2="39.55172"
       y2="194.23528" />
    <linearGradient
       id="YellowYay"
       osb:paint="solid"
       gradientTransform="translate(-17.933197,-0.87182918)">
      <stop
         style="stop-color:#ffcc03;stop-opacity:1;"
         offset="0"
         id="stop7643" />
    </linearGradient>
    <linearGradient
       inkscape:collect="always"
       xlink:href="#linearGradient7667"
       id="linearGradient7669"
       x1="2.4786801e-15"
       y1="273.23123"
       x2="3.8719248e-15"
       y2="295.98538"
       gradientUnits="userSpaceOnUse"
       gradientTransform="matrix(10.666667,0,0,1,-8.1333333e-6,3.2424141e-5)" />
    <linearGradient
       inkscape:collect="always"
       id="linearGradient7667">
      <stop
         style="stop-color:#76bfbe;stop-opacity:1;"
         offset="0"
         id="stop7663" />
      <stop
         style="stop-color:#469ca9;stop-opacity:1"
         offset="1"
         id="stop7665" />
    </linearGradient>
  </defs>
  <sodipodi:namedview
     id="base"
     pagecolor="#ffffff"
     bordercolor="#666666"
     borderopacity="1.0"
     inkscape:pageopacity="0.0"
     inkscape:pageshadow="2"
     inkscape:zoom="11.2"
     inkscape:cx="2.6194389"
     inkscape:cy="15.23641"
     inkscape:document-units="mm"
     inkscape:current-layer="layer5"
     showgrid="false"
     inkscape:window-width="1920"
     inkscape:window-height="1019"
     inkscape:window-x="1076"
     inkscape:window-y="442"
     inkscape:window-maximized="1" />
  <metadata
     id="metadata885">
    <rdf:RDF>
      <cc:Work
         rdf:about="">
        <dc:format>image/svg+xml</dc:format>
        <dc:type
           rdf:resource="http://purl.org/dc/dcmitype/StillImage" />
        <dc:title />
      </cc:Work>
    </rdf:RDF>
  </metadata>
  <g
     inkscape:label="BG"
     inkscape:groupmode="layer"
     id="layer1"
     transform="translate(0,-168.5)"
     style="display:inline">
    <g
       id="g1065"
       transform="scale(0.43749999,1)">
      <rect
         y="168.5"
         x="1.5894572e-07"
         height="128.5"
         width="162.56"
         id="rect420"
         style="display:inline;opacity:1;vector-effect:none;fill:url(#linearGradient7669);fill-opacity:1;fill-rule:evenodd;stroke:none;stroke-width:1.16160762;stroke-linecap:butt;stroke-linejoin:miter;stroke-miterlimit:4;stroke-dasharray:none;stroke-dashoffset:0;stroke-opacity:1;paint-order:normal;enable-background:new" />
    </g>
    <rect
       y="173.50002"
       x="0"
       height="10"
       width="71.120003"
       id="rect7671"
       style="display:inline;opacity:0.98000004;fill:url(#linearGradient7673);fill-opacity:1;stroke:none;stroke-width:1.30124116;stroke-miterlimit:4;stroke-dasharray:none;stroke-opacity:1;paint-order:stroke fill markers;enable-background:new" />
    <rect
       style="display:inline;opacity:0.98000004;fill:url(#Pink);fill-opacity:1;stroke:none;stroke-width:0.74833149;stroke-miterlimit:4;stroke-dasharray:none;stroke-opacity:1;paint-order:stroke fill markers;enable-background:new"
       id="rect7491"
       width="71.120003"
       height="8"
       x="0"
       y="174.50002" />
    <g
       aria-label="Aleister"
       style="font-style:normal;font-variant:normal;font-weight:normal;font-stretch:normal;font-size:4.58611107px;line-height:1.25;font-family:'Nova Oval';-inkscape-font-specification:'Nova Oval';letter-spacing:0px;word-spacing:0px;fill:#0e6977;fill-opacity:1;stroke:none;stroke-width:0.26458332"
       id="text2168"
       transform="translate(12.700004)">
      <path
         d="m 16.259628,179.1538 -0.150034,0.73673 h -0.597896 l 0.725537,-3.39927 0.956186,-0.0403 0.743452,3.41271 -0.732255,0.0269 -0.127641,-0.73673 z m 0.696426,-0.55087 -0.315743,-1.6459 -0.25976,1.6459 z"
         style="font-style:normal;font-variant:normal;font-weight:normal;font-stretch:normal;font-family:'Francois One';-inkscape-font-specification:'Francois One';fill:#0e6977;fill-opacity:1;stroke-width:0.26458332"
         id="path2170"
         inkscape:connector-curvature="0" />
      <path
         d="m 18.268291,176.53157 0.644922,-0.0806 v 3.41271 l -0.644922,0.0537 z"
         style="font-style:normal;font-variant:normal;font-weight:normal;font-stretch:normal;font-family:'Francois One';-inkscape-font-specification:'Francois One';fill:#0e6977;fill-opacity:1;stroke-width:0.26458332"
         id="path2172"
         inkscape:connector-curvature="0" />
      <path
         d="m 19.990322,178.69026 q 0,0.12093 0.01568,0.25976 0.01567,0.13884 0.0515,0.25528 0.03807,0.11645 0.09853,0.19482 0.06046,0.0761 0.147795,0.0761 0.07614,0 0.138837,-0.0605 0.0627,-0.0605 0.109726,-0.1366 0.04703,-0.0761 0.0739,-0.14331 0.02911,-0.0672 0.03583,-0.0806 l 0.48817,0.18586 q -0.04479,0.15675 -0.118683,0.28663 -0.0739,0.12988 -0.179145,0.22394 -0.105248,0.0941 -0.244085,0.14555 -0.138837,0.0537 -0.315743,0.0537 -0.235128,0 -0.414273,-0.0985 -0.176905,-0.0985 -0.295589,-0.27544 -0.116444,-0.17691 -0.176906,-0.42323 -0.05822,-0.24632 -0.05822,-0.53967 0,-0.29559 0.06046,-0.54192 0.06046,-0.24632 0.181384,-0.42323 0.120923,-0.1769 0.302307,-0.27319 0.181384,-0.0985 0.42323,-0.0985 0.230649,0 0.403076,0.0985 0.172427,0.0963 0.288872,0.27319 0.116444,0.17691 0.174666,0.42323 0.05822,0.24633 0.05822,0.54192 l -0.009,0.0314 q -0.0045,0.0134 -0.0067,0.0269 -0.0022,0.0112 -0.0022,0.0179 z m 0.615811,-0.37172 q 0,-0.12764 -0.01791,-0.23737 -0.01568,-0.10973 -0.0515,-0.1881 -0.03583,-0.0806 -0.09405,-0.1254 -0.05598,-0.047 -0.138837,-0.047 -0.05822,0 -0.116445,0.047 -0.05598,0.0448 -0.100769,0.1254 -0.04255,0.0784 -0.06942,0.1881 -0.02687,0.10973 -0.02687,0.23737 z"
         style="font-style:normal;font-variant:normal;font-weight:normal;font-stretch:normal;font-family:'Francois One';-inkscape-font-specification:'Francois One';fill:#0e6977;fill-opacity:1;stroke-width:0.26458332"
         id="path2174"
         inkscape:connector-curvature="0" />
      <path
         d="m 21.627259,177.36459 0.644922,-0.0537 v 2.55281 l -0.644922,0.0537 z m 0.644922,-1.05696 v 0.64493 l -0.644922,0.0269 v -0.66732 z"
         style="font-style:normal;font-variant:normal;font-weight:normal;font-stretch:normal;font-family:'Francois One';-inkscape-font-specification:'Francois One';fill:#0e6977;fill-opacity:1;stroke-width:0.26458332"
         id="path2176"
         inkscape:connector-curvature="0" />
      <path
         d="m 23.181342,179.13589 q 0.02015,0.0873 0.06942,0.15451 0.04031,0.0582 0.114205,0.10525 0.0739,0.047 0.192581,0.047 0.04479,0 0.100769,-0.009 0.05822,-0.0112 0.107487,-0.0358 0.04926,-0.0246 0.08285,-0.0627 0.03359,-0.0403 0.03359,-0.10076 0,-0.0829 -0.05822,-0.1366 -0.05822,-0.0538 -0.136598,-0.0851 l -0.539674,-0.21945 q -0.217213,-0.0873 -0.333657,-0.27096 -0.114205,-0.18586 -0.114205,-0.45458 0,-0.19258 0.0739,-0.34037 0.0739,-0.1478 0.19482,-0.24633 0.120923,-0.10077 0.277675,-0.15227 0.156752,-0.0515 0.3247,-0.0515 0.138837,0 0.273196,0.0403 0.136598,0.0403 0.253042,0.12093 0.116445,0.0784 0.201538,0.19482 0.08733,0.11644 0.129881,0.26648 l -0.528478,0.16346 q -0.02463,-0.0851 -0.06718,-0.15451 -0.03807,-0.0582 -0.10077,-0.10525 -0.0627,-0.0493 -0.156751,-0.0493 -0.05151,0 -0.100769,0.0112 -0.04927,0.0112 -0.08957,0.0381 -0.03807,0.0246 -0.0627,0.0649 -0.02463,0.0381 -0.02463,0.0918 0,0.0425 0.02239,0.0784 0.02463,0.0336 0.05822,0.0605 0.03583,0.0269 0.0739,0.047 0.03807,0.0202 0.06942,0.0336 l 0.459059,0.19034 q 0.107487,0.0493 0.201538,0.11421 0.09629,0.0649 0.165709,0.15451 0.07166,0.0896 0.111966,0.21049 0.04031,0.11869 0.04031,0.27544 0,0.20825 -0.07838,0.36277 -0.07838,0.15451 -0.206017,0.25752 -0.127641,0.10301 -0.288871,0.15451 -0.161231,0.0515 -0.32694,0.0515 -0.197059,0 -0.351572,-0.047 -0.154512,-0.0448 -0.268717,-0.12988 -0.114205,-0.0851 -0.188103,-0.20602 -0.0739,-0.12092 -0.107487,-0.27095 z"
         style="font-style:normal;font-variant:normal;font-weight:normal;font-stretch:normal;font-family:'Francois One';-inkscape-font-specification:'Francois One';fill:#0e6977;fill-opacity:1;stroke-width:0.26458332"
         id="path2178"
         inkscape:connector-curvature="0" />
      <path
         d="m 25.069082,177.31085 0.06494,-0.55983 0.559828,-0.0806 v 0.64045 h 0.528477 l -0.02687,0.48369 H 25.69609 v 1.42196 q 0,0.0761 0.03135,0.1254 0.03135,0.047 0.07837,0.0739 0.04927,0.0269 0.107487,0.0358 0.05822,0.009 0.111966,0.009 0.06942,0 0.114205,-0.007 0.02463,-0.004 0.04703,-0.009 v 0.44338 q -0.04927,0.0179 -0.120923,0.0313 -0.06046,0.0112 -0.152274,0.0202 -0.09181,0.0112 -0.219452,0.0112 -0.105248,0 -0.219453,-0.0314 -0.111965,-0.0291 -0.206016,-0.0985 -0.09405,-0.0717 -0.156752,-0.1881 -0.06046,-0.11644 -0.06046,-0.28887 v -1.5496 h -0.360529 l 0.02687,-0.48369 z"
         style="font-style:normal;font-variant:normal;font-weight:normal;font-stretch:normal;font-family:'Francois One';-inkscape-font-specification:'Francois One';fill:#0e6977;fill-opacity:1;stroke-width:0.26458332"
         id="path2180"
         inkscape:connector-curvature="0" />
      <path
         d="m 27.066548,178.69026 q 0,0.12093 0.01567,0.25976 0.01568,0.13884 0.0515,0.25528 0.03807,0.11645 0.09853,0.19482 0.06046,0.0761 0.147795,0.0761 0.07614,0 0.138837,-0.0605 0.0627,-0.0605 0.109726,-0.1366 0.04703,-0.0761 0.0739,-0.14331 0.02911,-0.0672 0.03583,-0.0806 l 0.48817,0.18586 q -0.04479,0.15675 -0.118684,0.28663 -0.0739,0.12988 -0.179145,0.22394 -0.105247,0.0941 -0.244085,0.14555 -0.138837,0.0537 -0.315743,0.0537 -0.235128,0 -0.414273,-0.0985 -0.176905,-0.0985 -0.295589,-0.27544 -0.116444,-0.17691 -0.176905,-0.42323 -0.05822,-0.24632 -0.05822,-0.53967 0,-0.29559 0.06046,-0.54192 0.06046,-0.24632 0.181384,-0.42323 0.120923,-0.1769 0.302307,-0.27319 0.181385,-0.0985 0.42323,-0.0985 0.230649,0 0.403077,0.0985 0.172427,0.0963 0.288871,0.27319 0.116444,0.17691 0.174666,0.42323 0.05822,0.24633 0.05822,0.54192 l -0.009,0.0314 q -0.0045,0.0134 -0.0067,0.0269 -0.0022,0.0112 -0.0022,0.0179 z m 0.615811,-0.37172 q 0,-0.12764 -0.01792,-0.23737 -0.01567,-0.10973 -0.0515,-0.1881 -0.03583,-0.0806 -0.09405,-0.1254 -0.05598,-0.047 -0.138837,-0.047 -0.05822,0 -0.116444,0.047 -0.05598,0.0448 -0.100769,0.1254 -0.04255,0.0784 -0.06942,0.1881 -0.02687,0.10973 -0.02687,0.23737 z"
         style="font-style:normal;font-variant:normal;font-weight:normal;font-stretch:normal;font-family:'Francois One';-inkscape-font-specification:'Francois One';fill:#0e6977;fill-opacity:1;stroke-width:0.26458332"
         id="path2182"
         inkscape:connector-curvature="0" />
      <path
         d="m 28.703486,177.36459 0.644921,-0.0537 v 0.41427 q 0.05598,-0.0739 0.13212,-0.15227 0.07614,-0.0806 0.172427,-0.14556 0.09853,-0.0649 0.217213,-0.10749 0.118684,-0.0425 0.25976,-0.0425 0.0112,0 0.02463,0.002 0.01344,0 0.02463,0.002 0.01344,0.002 0.02911,0.004 v 0.76809 q -0.105247,-0.0314 -0.212734,-0.0649 -0.107487,-0.0336 -0.217214,-0.0336 -0.107487,0 -0.212734,0.047 -0.105248,0.047 -0.217214,0.16795 v 1.69292 l -0.644921,0.0537 z"
         style="font-style:normal;font-variant:normal;font-weight:normal;font-stretch:normal;font-family:'Francois One';-inkscape-font-specification:'Francois One';fill:#0e6977;fill-opacity:1;stroke-width:0.26458332"
         id="path2184"
         inkscape:connector-curvature="0" />
    </g>
  </g>
  <g
     inkscape:groupmode="layer"
     id="layer5"
     inkscape:label="UI"
     style="display:inline">
    <rect
       style="display:inline;fill:#0e6977;fill-opacity:1;stroke:none;stroke-width:0.2924397;stroke-miterlimit:4;stroke-dasharray:none;stroke-opacity:1"
       id="rect5039"
       width="8"
       height="3.1738257"
       x="-4.033"
       y="124.72617"
       rx="2"
       ry="2" />
  </g>
  <g
     aria-label="Épées"
     style="font-style:normal;font-variant:normal;font-weight:normal;font-stretch:normal;font-size:4.58611107px;line-height:1.25;font-family:'Nova Oval';-inkscape-font-specification:'Nova Oval';letter-spacing:0px;word-spacing:0px;fill:#0e6977;fill-opacity:1;stroke:none;stroke-width:0.26458332"
     id="text9112">
    <path
       d="m 3.8574241,105.79011 h 0.015503 l 0.2728515,0.13023 -0.3426147,0.48989 H 3.787661 l -0.1813843,-0.0853 z m -0.7503417,3.04788 v -2.26343 l 0.164331,-0.0775 h 0.9828857 v 0.0155 L 4.1287254,106.7792 H 3.417141 v 0.74724 h 0.8371581 v 0.0155 L 4.1287254,107.8086 H 3.417141 v 0.74724 h 1.0960571 v 0.0155 l -0.1255738,0.26665 z"
       style="font-style:normal;font-variant:normal;font-weight:normal;font-stretch:normal;font-size:3.17499995px;font-family:'Nova Flat';-inkscape-font-specification:'Nova Flat';letter-spacing:-0.13229167px;fill:#0e6977;fill-opacity:1;stroke-width:0.26458332"
       id="path9167" />
    <path
       d="m 5.9792584,107.48148 q 0,0 0,1.00769 0,0.20774 -0.2899048,0.31936 -0.1565796,0.0605 -0.3534668,0.0605 -0.1844848,0 -0.333313,-0.0527 v 0.57981 l -0.2945556,0.13952 h -0.015503 v -2.05414 q 0,-0.20774 0.2899048,-0.31936 0.1565796,-0.0605 0.3534668,-0.0605 0.1968872,0 0.3534668,0.0605 0.2899048,0.11472 0.2899048,0.31936 z m -0.3100586,0.0543 q 0,-0.0775 -0.097669,-0.11627 -0.096118,-0.0388 -0.2356445,-0.0388 -0.1395263,0 -0.2371948,0.0388 -0.096118,0.0388 -0.096118,0.11627 v 0.89917 q 0,0.0775 0.096118,0.11628 0.097669,0.0387 0.2371948,0.0387 0.1395264,0 0.2356445,-0.0387 0.097669,-0.0388 0.097669,-0.11628 z"
       style="font-style:normal;font-variant:normal;font-weight:normal;font-stretch:normal;font-size:3.17499995px;font-family:'Nova Flat';-inkscape-font-specification:'Nova Flat';letter-spacing:-0.13229167px;fill:#0e6977;fill-opacity:1;stroke-width:0.26458332"
       id="path9169" />
    <path
       d="m 7.5987978,108.15121 v 0.33796 q 0,0.20464 -0.2899048,0.31936 -0.1565796,0.0605 -0.3534668,0.0605 -0.1968872,0 -0.3534668,-0.0605 -0.2899048,-0.11472 -0.2899048,-0.31936 v -1.00769 q 0,-0.20464 0.2899048,-0.31936 0.1565796,-0.0605 0.3534668,-0.0605 0.1968872,0 0.3534668,0.0605 0.2899048,0.11472 0.2899048,0.31936 v 0.19844 l -0.9766846,0.75499 q 0,0.0775 0.096118,0.11628 0.097668,0.0387 0.2371948,0.0387 0.1395264,0 0.2356445,-0.0387 0.097669,-0.0388 0.097669,-0.11628 v -0.14417 l 0.2945556,-0.13953 z m -0.9766846,-0.0434 0.666626,-0.5364 v -0.0357 q 0,-0.0775 -0.097669,-0.11627 -0.096118,-0.0388 -0.2356445,-0.0388 -0.1395264,0 -0.2371948,0.0388 -0.096118,0.0388 -0.096118,0.11627 z m 0.5162476,-1.69757 h 0.015503 l 0.2728516,0.13023 -0.3426148,0.48989 h -0.015503 l -0.1813843,-0.0853 z"
       style="font-style:normal;font-variant:normal;font-weight:normal;font-stretch:normal;font-size:3.17499995px;font-family:'Nova Flat';-inkscape-font-specification:'Nova Flat';letter-spacing:-0.13229167px;fill:#0e6977;fill-opacity:1;stroke-width:0.26458332"
       id="path9171" />
    <path
       d="m 9.2214374,108.15121 v 0.33796 q 0,0.20464 -0.2899047,0.31936 -0.1565796,0.0605 -0.3534668,0.0605 -0.1968872,0 -0.3534668,-0.0605 -0.2899048,-0.11472 -0.2899048,-0.31936 v -1.00769 q 0,-0.20464 0.2899048,-0.31936 0.1565796,-0.0605 0.3534668,-0.0605 0.1968872,0 0.3534668,0.0605 0.2899047,0.11472 0.2899047,0.31936 v 0.19844 l -0.9766845,0.75499 q 0,0.0775 0.096118,0.11628 0.097668,0.0387 0.2371949,0.0387 0.1395263,0 0.2356445,-0.0387 0.097668,-0.0388 0.097668,-0.11628 v -0.14417 l 0.2945557,-0.13953 z m -0.9766845,-0.0434 0.6666259,-0.5364 v -0.0357 q 0,-0.0775 -0.097668,-0.11627 -0.096118,-0.0388 -0.2356445,-0.0388 -0.1395264,0 -0.2371949,0.0388 -0.096118,0.0388 -0.096118,0.11627 z"
       style="font-style:normal;font-variant:normal;font-weight:normal;font-stretch:normal;font-size:3.17499995px;font-family:'Nova Flat';-inkscape-font-specification:'Nova Flat';letter-spacing:-0.13229167px;fill:#0e6977;fill-opacity:1;stroke-width:0.26458332"
       id="path9173" />
    <path
       d="m 9.5108256,108.29074 0.2945557,-0.13953 h 0.015503 v 0.2837 q 0,0.0775 0.096118,0.11628 0.097669,0.0387 0.2371946,0.0387 0.144177,0 0.237195,-0.0387 0.09612,-0.0403 0.09612,-0.11628 v -0.24184 q 0,-0.076 -0.09922,-0.11627 -0.09612,-0.0388 -0.235644,-0.0388 -0.1534791,0 -0.3054078,-0.0605 -0.2713013,-0.11007 -0.2713013,-0.31936 v -0.17674 q 0,-0.19843 0.2573487,-0.31006 0.1596801,-0.0698 0.3209104,-0.0698 0.153479,0 0.2651,0.0465 0.268201,0.11472 0.268201,0.33331 l -0.294556,0.13953 h -0.0155 v -0.0853 q 0,-0.0899 -0.06356,-0.12247 -0.06356,-0.0326 -0.15968,-0.0326 -0.133325,0 -0.2015379,0.0388 -0.066663,0.0388 -0.066663,0.11627 v 0.0682 q 0,0.0775 0.063562,0.11627 0.063562,0.0388 0.2030885,0.0388 0.196887,0 0.353467,0.0605 0.291455,0.11162 0.291455,0.31936 v 0.35036 q 0,0.20619 -0.289905,0.31936 -0.15658,0.0605 -0.353467,0.0605 -0.196887,0 -0.3534666,-0.0605 -0.2899048,-0.11472 -0.2899048,-0.31936 z"
       style="font-style:normal;font-variant:normal;font-weight:normal;font-stretch:normal;font-size:3.17499995px;font-family:'Nova Flat';-inkscape-font-specification:'Nova Flat';letter-spacing:-0.13229167px;fill:#0e6977;fill-opacity:1;stroke-width:0.26458332"
       id="path9175" />
  </g>
  <g
     aria-label="Deniers"
     style="font-style:normal;font-variant:normal;font-weight:normal;font-stretch:normal;font-size:4.58611107px;line-height:1.25;font-family:'Nova Oval';-inkscape-font-specification:'Nova Oval';letter-spacing:0px;word-spacing:0px;fill:#0e6977;fill-opacity:1;stroke:none;stroke-width:0.26458332"
     id="text9116">
    <path
       d="m 3.417141,84.558937 h 0.4418334 q 0.1550293,0 0.2852539,-0.05116 0.1875855,-0.07441 0.1875855,-0.181384 v -1.317749 q 0,-0.10697 -0.1875855,-0.181384 Q 4.015554,82.7761 3.8589744,82.7761 H 3.417141 Z M 3.1070824,84.83799 v -2.263428 l 0.164331,-0.07752 h 0.587561 q 0.2340943,0 0.4309815,0.08217 0.3519165,0.145728 0.3519165,0.429431 v 1.317749 q 0,0.283704 -0.3519165,0.429431 -0.1968872,0.08217 -0.4309815,0.08217 z"
       style="font-style:normal;font-variant:normal;font-weight:normal;font-stretch:normal;font-size:3.17499995px;font-family:'Nova Flat';-inkscape-font-specification:'Nova Flat';letter-spacing:-0.13229167px;fill:#0e6977;fill-opacity:1;stroke-width:0.26458332"
       id="path9152" />
    <path
       d="m 6.3420272,84.15121 v 0.337964 q 0,0.204639 -0.2899048,0.31936 -0.1565796,0.06046 -0.3534668,0.06046 -0.1968872,0 -0.3534668,-0.06046 Q 5.055284,84.693813 5.055284,84.489174 v -1.007691 q 0,-0.204638 0.2899048,-0.31936 0.1565796,-0.06046 0.3534668,-0.06046 0.1968872,0 0.3534668,0.06046 0.2899048,0.114722 0.2899048,0.31936 v 0.198438 l -0.9766846,0.754993 q 0,0.07751 0.096118,0.116272 0.097668,0.03876 0.2371948,0.03876 0.1395264,0 0.2356445,-0.03876 0.097669,-0.03876 0.097669,-0.116272 V 84.290736 L 6.3265242,84.15121 Z M 5.3653426,84.107802 6.0319686,83.5714 v -0.03566 q 0,-0.07751 -0.097669,-0.116272 -0.096118,-0.03876 -0.2356445,-0.03876 -0.1395264,0 -0.2371948,0.03876 -0.096118,0.03876 -0.096118,0.116272 z"
       style="font-style:normal;font-variant:normal;font-weight:normal;font-stretch:normal;font-size:3.17499995px;font-family:'Nova Flat';-inkscape-font-specification:'Nova Flat';letter-spacing:-0.13229167px;fill:#0e6977;fill-opacity:1;stroke-width:0.26458332"
       id="path9154" />
    <path
       d="m 6.6779237,84.900002 v -1.418519 q 0,-0.207739 0.2899048,-0.31936 0.1565795,-0.06046 0.3534667,-0.06046 0.1968873,0 0.3534668,0.06046 0.2899048,0.111621 0.2899048,0.31936 v 1.278992 l -0.2945556,0.139527 h -0.015503 v -1.364258 q 0,-0.07751 -0.097668,-0.116272 -0.096118,-0.03876 -0.2356446,-0.03876 -0.1395263,0 -0.2371948,0.03876 -0.096118,0.03876 -0.096118,0.116272 v 1.224731 l -0.2945557,0.139527 z"
       style="font-style:normal;font-variant:normal;font-weight:normal;font-stretch:normal;font-size:3.17499995px;font-family:'Nova Flat';-inkscape-font-specification:'Nova Flat';letter-spacing:-0.13229167px;fill:#0e6977;fill-opacity:1;stroke-width:0.26458332"
       id="path9156" />
    <path
       d="m 8.4013329,82.790053 q -0.05426,-0.05581 -0.05426,-0.133325 0,-0.07906 0.05426,-0.134876 0.05426,-0.05581 0.1317749,-0.05581 0.077515,0 0.1317749,0.05581 0.05426,0.05581 0.05426,0.134876 0,0.07751 -0.05426,0.133325 -0.05426,0.05581 -0.1317749,0.05581 -0.077515,0 -0.1317749,-0.05581 z m -0.023254,2.109949 v -1.68982 l 0.2945556,-0.139526 h 0.015503 v 1.689819 l -0.2945556,0.139527 z"
       style="font-style:normal;font-variant:normal;font-weight:normal;font-stretch:normal;font-size:3.17499995px;font-family:'Nova Flat';-inkscape-font-specification:'Nova Flat';letter-spacing:-0.13229167px;fill:#0e6977;fill-opacity:1;stroke-width:0.26458332"
       id="path9158" />
    <path
       d="m 10.385191,84.15121 v 0.337964 q 0,0.204639 -0.289905,0.31936 -0.1565794,0.06046 -0.3534666,0.06046 -0.1968872,0 -0.3534668,-0.06046 -0.2899048,-0.114721 -0.2899048,-0.31936 v -1.007691 q 0,-0.204638 0.2899048,-0.31936 0.1565796,-0.06046 0.3534668,-0.06046 0.1968872,0 0.3534666,0.06046 0.289905,0.114722 0.289905,0.31936 v 0.198438 l -0.9766846,0.754993 q 0,0.07751 0.096118,0.116272 0.097668,0.03876 0.2371949,0.03876 0.1395263,0 0.2356445,-0.03876 0.097668,-0.03876 0.097668,-0.116272 V 84.290736 L 10.369688,84.15121 Z M 9.4085064,84.107802 10.075132,83.5714 v -0.03566 q 0,-0.07751 -0.097668,-0.116272 -0.096118,-0.03876 -0.2356445,-0.03876 -0.1395264,0 -0.2371949,0.03876 -0.096118,0.03876 -0.096118,0.116272 z"
       style="font-style:normal;font-variant:normal;font-weight:normal;font-stretch:normal;font-size:3.17499995px;font-family:'Nova Flat';-inkscape-font-specification:'Nova Flat';letter-spacing:-0.13229167px;fill:#0e6977;fill-opacity:1;stroke-width:0.26458332"
       id="path9160" />
    <path
       d="m 10.721087,84.900002 v -1.418519 q 0,-0.207739 0.289905,-0.31936 0.15658,-0.06046 0.353467,-0.06046 h 0.20929 v 0.0155 l -0.124024,0.263549 h -0.08527 q -0.139526,0 -0.237195,0.03876 -0.09612,0.03876 -0.09612,0.116272 v 1.224731 l -0.294556,0.139527 z"
       style="font-style:normal;font-variant:normal;font-weight:normal;font-stretch:normal;font-size:3.17499995px;font-family:'Nova Flat';-inkscape-font-specification:'Nova Flat';letter-spacing:-0.13229167px;fill:#0e6977;fill-opacity:1;stroke-width:0.26458332"
       id="path9162" />
    <path
       d="m 11.658498,84.290736 0.294555,-0.139526 h 0.0155 v 0.283704 q 0,0.07751 0.09612,0.116272 0.09767,0.03876 0.237194,0.03876 0.144178,0 0.237195,-0.03876 0.09612,-0.04031 0.09612,-0.116272 v -0.241846 q 0,-0.07596 -0.09922,-0.116272 -0.09612,-0.03876 -0.235645,-0.03876 -0.153479,0 -0.305408,-0.06046 -0.271301,-0.110071 -0.271301,-0.31936 v -0.176734 q 0,-0.198437 0.257349,-0.310058 0.15968,-0.06976 0.32091,-0.06976 0.153479,0 0.2651,0.04651 0.268201,0.114722 0.268201,0.333313 l -0.294556,0.139527 h -0.0155 v -0.08527 q 0,-0.08992 -0.06356,-0.122473 -0.06356,-0.03256 -0.159681,-0.03256 -0.133325,0 -0.201538,0.03876 -0.06666,0.03876 -0.06666,0.116272 v 0.06821 q 0,0.07751 0.06356,0.116272 0.06356,0.03876 0.203088,0.03876 0.196887,0 0.353467,0.06046 0.291455,0.111621 0.291455,0.319361 v 0.350366 q 0,0.206189 -0.289905,0.31936 -0.156579,0.06046 -0.353467,0.06046 -0.196887,0 -0.353466,-0.06046 -0.289905,-0.114721 -0.289905,-0.31936 z"
       style="font-style:normal;font-variant:normal;font-weight:normal;font-stretch:normal;font-size:3.17499995px;font-family:'Nova Flat';-inkscape-font-specification:'Nova Flat';letter-spacing:-0.13229167px;fill:#0e6977;fill-opacity:1;stroke-width:0.26458332"
       id="path9164" />
  </g>
  <g
     aria-label="Coupes"
     style="font-style:normal;font-variant:normal;font-weight:normal;font-stretch:normal;font-size:4.58611107px;line-height:1.25;font-family:'Nova Oval';-inkscape-font-specification:'Nova Oval';letter-spacing:0px;word-spacing:0px;fill:#0e6977;fill-opacity:1;stroke:none;stroke-width:0.26458332"
     id="text9120">
    <path
       d="m 4.6728782,59.985329 v 0.37207 q 0,0.283704 -0.3519165,0.429431 -0.1968872,0.08217 -0.4309814,0.08217 -0.2340942,0 -0.4309814,-0.08217 -0.3519165,-0.145727 -0.3519165,-0.429431 v -1.379761 q 0,-0.283703 0.3519165,-0.429431 0.1968872,-0.08216 0.4309814,-0.08216 0.2340942,0 0.4309814,0.08216 0.3519165,0.145728 0.3519165,0.429431 v 0.232544 l -0.2945556,0.139527 h -0.015503 v -0.372071 q 0,-0.10542 -0.1875854,-0.181384 -0.1302246,-0.05116 -0.2852539,-0.05116 -0.1550293,0 -0.2852539,0.05116 -0.1875854,0.07441 -0.1875854,0.181384 v 1.379761 q 0,0.10542 0.1875854,0.181384 0.1302246,0.05116 0.2852539,0.05116 0.1550293,0 0.2852539,-0.05116 0.1875854,-0.07441 0.1875854,-0.181384 v -0.232544 l 0.2945557,-0.139526 z"
       style="font-style:normal;font-variant:normal;font-weight:normal;font-stretch:normal;font-size:3.17499995px;font-family:'Nova Flat';-inkscape-font-specification:'Nova Flat';letter-spacing:-0.13229167px;fill:#0e6977;fill-opacity:1;stroke-width:0.26458332"
       id="path9139" />
    <path
       d="m 5.3963485,60.434914 q 0,0.07751 0.096118,0.116272 0.097669,0.03876 0.2371949,0.03876 0.1395263,0 0.2356445,-0.03876 0.097668,-0.03876 0.097668,-0.116272 v -0.89917 q 0,-0.07751 -0.097668,-0.116272 -0.096118,-0.03876 -0.2356445,-0.03876 -0.1395264,0 -0.2371949,0.03876 -0.096118,0.03876 -0.096118,0.116272 z m -0.3100586,0.05426 v -1.007691 q 0,-0.204638 0.2899048,-0.31936 0.1565795,-0.06046 0.3534668,-0.06046 0.1968872,0 0.3534667,0.06046 0.2899048,0.114722 0.2899048,0.31936 v 1.007691 q 0,0.204639 -0.2899048,0.31936 -0.1565795,0.06046 -0.3534667,0.06046 -0.1968873,0 -0.3534668,-0.06046 -0.2899048,-0.114721 -0.2899048,-0.31936 z"
       style="font-style:normal;font-variant:normal;font-weight:normal;font-stretch:normal;font-size:3.17499995px;font-family:'Nova Flat';-inkscape-font-specification:'Nova Flat';letter-spacing:-0.13229167px;fill:#0e6977;fill-opacity:1;stroke-width:0.26458332"
       id="path9141" />
    <path
       d="m 6.7089295,59.210182 0.2945557,-0.139526 h 0.015503 v 1.364258 q 0,0.07751 0.096118,0.116272 0.097668,0.03876 0.2371948,0.03876 0.1395264,0 0.2356445,-0.03876 0.097668,-0.03876 0.097668,-0.116272 v -1.224732 l 0.2945557,-0.139526 h 0.015503 v 1.418518 q 0,0.207739 -0.2899048,0.31936 -0.1565796,0.06046 -0.3534668,0.06046 -0.1968872,0 -0.3534668,-0.06046 -0.2899048,-0.111621 -0.2899048,-0.31936 z"
       style="font-style:normal;font-variant:normal;font-weight:normal;font-stretch:normal;font-size:3.17499995px;font-family:'Nova Flat';-inkscape-font-specification:'Nova Flat';letter-spacing:-0.13229167px;fill:#0e6977;fill-opacity:1;stroke-width:0.26458332"
       id="path9143" />
    <path
       d="m 9.6958275,59.481483 q 0,0 0,1.007691 0,0.207739 -0.2899048,0.31936 -0.1565796,0.06046 -0.3534668,0.06046 -0.1844849,0 -0.333313,-0.05271 v 0.579809 l -0.2945557,0.139527 h -0.015503 v -2.054139 q 0,-0.207739 0.2899048,-0.31936 0.1565796,-0.06046 0.3534668,-0.06046 0.1968872,0 0.3534668,0.06046 0.2899048,0.114722 0.2899048,0.31936 z m -0.3100586,0.05426 q 0,-0.07751 -0.097669,-0.116272 -0.096118,-0.03876 -0.2356445,-0.03876 -0.1395264,0 -0.2371948,0.03876 -0.096118,0.03876 -0.096118,0.116272 v 0.89917 q 0,0.07751 0.096118,0.116272 0.097668,0.03876 0.2371948,0.03876 0.1395264,0 0.2356445,-0.03876 0.097669,-0.03876 0.097669,-0.116272 z"
       style="font-style:normal;font-variant:normal;font-weight:normal;font-stretch:normal;font-size:3.17499995px;font-family:'Nova Flat';-inkscape-font-specification:'Nova Flat';letter-spacing:-0.13229167px;fill:#0e6977;fill-opacity:1;stroke-width:0.26458332"
       id="path9145" />
    <path
       d="m 11.315367,60.15121 v 0.337964 q 0,0.204639 -0.289905,0.31936 -0.15658,0.06046 -0.353467,0.06046 -0.196887,0 -0.353467,-0.06046 -0.289904,-0.114721 -0.289904,-0.31936 v -1.007691 q 0,-0.204638 0.289904,-0.31936 0.15658,-0.06046 0.353467,-0.06046 0.196887,0 0.353467,0.06046 0.289905,0.114722 0.289905,0.31936 v 0.198438 l -0.976685,0.754993 q 0,0.07751 0.09612,0.116272 0.09767,0.03876 0.237195,0.03876 0.139527,0 0.235645,-0.03876 0.09767,-0.03876 0.09767,-0.116272 v -0.144178 l 0.294556,-0.139526 z m -0.976685,-0.04341 0.666626,-0.536402 v -0.03566 q 0,-0.07751 -0.09767,-0.116272 -0.09612,-0.03876 -0.235645,-0.03876 -0.139526,0 -0.237195,0.03876 -0.09612,0.03876 -0.09612,0.116272 z"
       style="font-style:normal;font-variant:normal;font-weight:normal;font-stretch:normal;font-size:3.17499995px;font-family:'Nova Flat';-inkscape-font-specification:'Nova Flat';letter-spacing:-0.13229167px;fill:#0e6977;fill-opacity:1;stroke-width:0.26458332"
       id="path9147" />
    <path
       d="M 11.604754,60.290736 11.89931,60.15121 h 0.0155 v 0.283704 q 0,0.07751 0.09612,0.116272 0.09767,0.03876 0.237195,0.03876 0.144177,0 0.237195,-0.03876 0.09612,-0.04031 0.09612,-0.116272 v -0.241846 q 0,-0.07596 -0.09922,-0.116272 -0.09612,-0.03876 -0.235644,-0.03876 -0.153479,0 -0.305408,-0.06046 -0.271301,-0.110071 -0.271301,-0.31936 v -0.176734 q 0,-0.198437 0.257348,-0.310058 0.159681,-0.06976 0.320911,-0.06976 0.153479,0 0.2651,0.04651 0.268201,0.114722 0.268201,0.333313 l -0.294556,0.139527 h -0.0155 v -0.08527 q 0,-0.08992 -0.06356,-0.122473 -0.06356,-0.03256 -0.15968,-0.03256 -0.133325,0 -0.201538,0.03876 -0.06666,0.03876 -0.06666,0.116272 v 0.06821 q 0,0.07751 0.06356,0.116272 0.06356,0.03876 0.203089,0.03876 0.196887,0 0.353467,0.06046 0.291455,0.111621 0.291455,0.319361 v 0.350366 q 0,0.206189 -0.289905,0.31936 -0.15658,0.06046 -0.353467,0.06046 -0.196887,0 -0.353467,-0.06046 -0.289905,-0.114721 -0.289905,-0.31936 z"
       style="font-style:normal;font-variant:normal;font-weight:normal;font-stretch:normal;font-size:3.17499995px;font-family:'Nova Flat';-inkscape-font-specification:'Nova Flat';letter-spacing:-0.13229167px;fill:#0e6977;fill-opacity:1;stroke-width:0.26458332"
       id="path9149" />
  </g>
  <g
     aria-label="Bâtons"
     style="font-style:normal;font-variant:normal;font-weight:normal;font-stretch:normal;font-size:4.58611107px;line-height:1.25;font-family:'Nova Oval';-inkscape-font-specification:'Nova Oval';letter-spacing:0px;word-spacing:0px;fill:#0e6977;fill-opacity:1;stroke:none;stroke-width:0.26458332"
     id="text9124">
    <path
       d="m 3.417141,35.402419 h 0.4418334 q 0.1317749,0 0.2154908,-0.05116 0.1178222,-0.07441 0.1178222,-0.181384 v -0.161231 q 0,-0.130224 -0.1240234,-0.181384 Q 3.9442406,34.7761 3.8589744,34.7761 H 3.417141 Z m 0,1.156518 h 0.4418334 q 0.1550293,0 0.2852539,-0.05116 0.1875855,-0.07286 0.1875855,-0.181384 v -0.412378 q 0,-0.10697 -0.1875855,-0.181384 -0.1302246,-0.05116 -0.2852539,-0.05116 H 3.417141 Z M 3.1070824,36.83799 v -2.263428 l 0.164331,-0.07751 h 0.587561 q 0.1968872,0 0.3612183,0.08217 0.2821533,0.144177 0.2821533,0.429431 v 0.161231 q 0,0.176733 -0.190686,0.347265 0.3302124,0.144177 0.3302124,0.396875 v 0.412378 q 0,0.282153 -0.3519165,0.429431 -0.1968872,0.08217 -0.4309815,0.08217 z"
       style="font-style:normal;font-variant:normal;font-weight:normal;font-stretch:normal;font-size:3.17499995px;font-family:'Nova Flat';-inkscape-font-specification:'Nova Flat';letter-spacing:-0.13229167px;fill:#0e6977;fill-opacity:1;stroke-width:0.26458332"
       id="path9126" />
    <path
       d="M 6.2025007,36.760475 5.907945,36.900002 h -0.015503 v -0.08372 q -0.1488281,0.05271 -0.3178101,0.05271 -0.1813842,0 -0.3379638,-0.06046 -0.2899048,-0.114721 -0.2899048,-0.31936 v -0.418579 q 0,-0.207739 0.2899048,-0.319361 0.1565796,-0.06046 0.3379638,-0.06046 0.1705323,0 0.3178101,0.05271 v -0.207739 q 0,-0.07751 -0.097669,-0.116272 -0.096118,-0.03876 -0.2356445,-0.03876 H 5.1824079 v -0.0155 l 0.1240235,-0.26355 h 0.2526977 q 0.1968872,0 0.3534668,0.06046 0.2899048,0.111621 0.2899048,0.31936 z M 5.256822,36.434914 q 0,0.07751 0.096118,0.116272 0.097669,0.03876 0.2216919,0.03876 0.1240235,0 0.2201416,-0.03876 0.097669,-0.03876 0.097669,-0.116272 v -0.310059 q 0,-0.07751 -0.097669,-0.116272 -0.096118,-0.03876 -0.2201416,-0.03876 -0.1240234,0 -0.2216919,0.03876 -0.096118,0.03876 -0.096118,0.116272 z m -0.040308,-1.489832 0.2371948,-0.404626 0.2728515,-0.130225 h 0.015503 l 0.3302124,0.534851 -0.179834,0.08527 h -0.015503 l -0.232544,-0.322461 -0.2294433,0.322461 h -0.015503 z"
       style="font-style:normal;font-variant:normal;font-weight:normal;font-stretch:normal;font-size:3.17499995px;font-family:'Nova Flat';-inkscape-font-specification:'Nova Flat';letter-spacing:-0.13229167px;fill:#0e6977;fill-opacity:1;stroke-width:0.26458332"
       id="path9128" />
    <path
       d="M 6.7399356,36.900002 V 35.414821 H 6.3415103 v -0.0155 l 0.1255737,-0.26665 h 0.2728516 v -0.558106 l 0.2945556,-0.139526 h 0.015503 v 0.697632 h 0.3984253 v 0.0155 L 7.3228457,35.414821 H 7.0499942 v 1.345654 l -0.2945557,0.139527 z"
       style="font-style:normal;font-variant:normal;font-weight:normal;font-stretch:normal;font-size:3.17499995px;font-family:'Nova Flat';-inkscape-font-specification:'Nova Flat';letter-spacing:-0.13229167px;fill:#0e6977;fill-opacity:1;stroke-width:0.26458332"
       id="path9130" />
    <path
       d="m 7.8974876,36.434914 q 0,0.07751 0.096118,0.116272 0.097669,0.03876 0.2371948,0.03876 0.1395264,0 0.2356445,-0.03876 0.097669,-0.03876 0.097669,-0.116272 v -0.89917 q 0,-0.07751 -0.097669,-0.116272 -0.096118,-0.03876 -0.2356445,-0.03876 -0.1395263,0 -0.2371948,0.03876 -0.096118,0.03876 -0.096118,0.116272 z m -0.3100586,0.05426 v -1.007691 q 0,-0.204638 0.2899048,-0.31936 0.1565796,-0.06046 0.3534668,-0.06046 0.1968872,0 0.3534668,0.06046 0.2899048,0.114722 0.2899048,0.31936 v 1.007691 q 0,0.204639 -0.2899048,0.31936 -0.1565796,0.06046 -0.3534668,0.06046 -0.1968872,0 -0.3534668,-0.06046 Q 7.587429,36.693813 7.587429,36.489174 Z"
       style="font-style:normal;font-variant:normal;font-weight:normal;font-stretch:normal;font-size:3.17499995px;font-family:'Nova Flat';-inkscape-font-specification:'Nova Flat';letter-spacing:-0.13229167px;fill:#0e6977;fill-opacity:1;stroke-width:0.26458332"
       id="path9132" />
    <path
       d="m 9.2100687,36.900002 v -1.418519 q 0,-0.207739 0.2899048,-0.31936 0.1565796,-0.06046 0.3534668,-0.06046 0.1968867,0 0.3534667,0.06046 0.289905,0.111621 0.289905,0.31936 v 1.278992 l -0.294556,0.139527 h -0.0155 v -1.364258 q 0,-0.07751 -0.09767,-0.116272 -0.096118,-0.03876 -0.2356447,-0.03876 -0.1395264,0 -0.2371948,0.03876 -0.096118,0.03876 -0.096118,0.116272 v 1.224731 l -0.2945557,0.139527 z"
       style="font-style:normal;font-variant:normal;font-weight:normal;font-stretch:normal;font-size:3.17499995px;font-family:'Nova Flat';-inkscape-font-specification:'Nova Flat';letter-spacing:-0.13229167px;fill:#0e6977;fill-opacity:1;stroke-width:0.26458332"
       id="path9134" />
    <path
       d="m 10.7862,36.290736 0.294556,-0.139526 h 0.0155 v 0.283704 q 0,0.07751 0.09612,0.116272 0.09767,0.03876 0.237195,0.03876 0.144177,0 0.237194,-0.03876 0.09612,-0.04031 0.09612,-0.116272 v -0.241846 q 0,-0.07596 -0.09922,-0.116272 -0.09612,-0.03876 -0.235645,-0.03876 -0.153479,0 -0.305407,-0.06046 -0.271302,-0.110071 -0.271302,-0.31936 v -0.176734 q 0,-0.198437 0.257349,-0.310058 0.15968,-0.06976 0.320911,-0.06976 0.153479,0 0.2651,0.04651 0.2682,0.114722 0.2682,0.333313 l -0.294555,0.139527 h -0.0155 v -0.08527 q 0,-0.08992 -0.06356,-0.122473 -0.06356,-0.03256 -0.15968,-0.03256 -0.133326,0 -0.201538,0.03876 -0.06666,0.03876 -0.06666,0.116272 v 0.06821 q 0,0.07751 0.06356,0.116272 0.06356,0.03876 0.203088,0.03876 0.196888,0 0.353467,0.06046 0.291455,0.111621 0.291455,0.319361 v 0.350366 q 0,0.206189 -0.289905,0.31936 -0.156579,0.06046 -0.353466,0.06046 -0.196888,0 -0.353467,-0.06046 Q 10.7862,36.693813 10.7862,36.489174 Z"
       style="font-style:normal;font-variant:normal;font-weight:normal;font-stretch:normal;font-size:3.17499995px;font-family:'Nova Flat';-inkscape-font-specification:'Nova Flat';letter-spacing:-0.13229167px;fill:#0e6977;fill-opacity:1;stroke-width:0.26458332"
       id="path9136" />
  </g>
</svg>
