<?xml version="1.0" encoding="UTF-8" standalone="no"?>
<!-- Created with Inkscape (http://www.inkscape.org/) -->

<svg
   xmlns:osb="http://www.openswatchbook.org/uri/2009/osb"
   xmlns:dc="http://purl.org/dc/elements/1.1/"
   xmlns:cc="http://creativecommons.org/ns#"
   xmlns:rdf="http://www.w3.org/1999/02/22-rdf-syntax-ns#"
   xmlns:svg="http://www.w3.org/2000/svg"
   xmlns="http://www.w3.org/2000/svg"
   xmlns:xlink="http://www.w3.org/1999/xlink"
   xmlns:sodipodi="http://sodipodi.sourceforge.net/DTD/sodipodi-0.dtd"
   xmlns:inkscape="http://www.inkscape.org/namespaces/inkscape"
   width="15.24mm"
   height="128.5mm"
   viewBox="0 0 15.240001 128.50002"
   version="1.1"
   id="svg8"
   inkscape:version="0.92.4 (5da689c313, 2019-01-14)"
   sodipodi:docname="Bendlet.svg"
   style="enable-background:new">
  <defs
     id="defs2">
    <linearGradient
       id="linearGradient1859"
       osb:paint="solid">
      <stop
         style="stop-color:#000000;stop-opacity:1;"
         offset="0"
         id="stop1857" />
    </linearGradient>
    <linearGradient
       id="linearGradient1013"
       osb:paint="solid">
      <stop
         style="stop-color:#76bfbe;stop-opacity:1;"
         offset="0"
         id="stop1011" />
    </linearGradient>
    <linearGradient
       id="linearGradient1759"
       osb:paint="gradient">
      <stop
         style="stop-color:#d1bb65;stop-opacity:1;"
         offset="0"
         id="stop1755" />
      <stop
         style="stop-color:#d1bb65;stop-opacity:0;"
         offset="1"
         id="stop1757" />
    </linearGradient>
    <linearGradient
       id="Input"
       osb:paint="solid"
       gradientTransform="translate(8.5)">
      <stop
         style="stop-color:#00ff00;stop-opacity:1;"
         offset="0"
         id="stop916" />
    </linearGradient>
    <linearGradient
       id="Output"
       osb:paint="solid">
      <stop
         style="stop-color:#0000ff;stop-opacity:1;"
         offset="0"
         id="stop910" />
    </linearGradient>
    <linearGradient
       inkscape:collect="always"
       id="linearGradient7667">
      <stop
         style="stop-color:#76bfbe;stop-opacity:1;"
         offset="0"
         id="stop7663" />
      <stop
         style="stop-color:#469ca9;stop-opacity:1"
         offset="1"
         id="stop7665" />
    </linearGradient>
    <linearGradient
       id="YellowYay"
       osb:paint="solid"
       gradientTransform="matrix(0.15987191,0,0,0.1576202,59.111298,22.934447)">
      <stop
         style="stop-color:#ffcc03;stop-opacity:1;"
         offset="0"
         id="stop7643" />
    </linearGradient>
    <linearGradient
       id="DarkestBlue"
       osb:paint="solid"
       gradientTransform="matrix(0.27551095,0,0,0.34344429,-28.939156,8.133095)">
      <stop
         style="stop-color:#083d45;stop-opacity:1;"
         offset="0"
         id="stop7635" />
    </linearGradient>
    <linearGradient
       id="DarkerBlue"
       osb:paint="solid"
       gradientTransform="matrix(0.01469908,0,0,0.00264583,35.738724,67.861743)">
      <stop
         style="stop-color:#0e6977;stop-opacity:1;"
         offset="0"
         id="stop7623" />
    </linearGradient>
    <linearGradient
       id="DarkBlue"
       osb:paint="solid"
       gradientTransform="matrix(1.3057704,0,0,1.3057704,-464.42761,175.2555)">
      <stop
         style="stop-color:#469ca9;stop-opacity:1;"
         offset="0"
         id="stop7617" />
    </linearGradient>
    <linearGradient
       id="LightBlue"
       osb:paint="solid"
       gradientTransform="translate(-62.499998)">
      <stop
         style="stop-color:#76bfbe;stop-opacity:1;"
         offset="0"
         id="stop7611" />
    </linearGradient>
    <linearGradient
       id="LightestBlue"
       osb:paint="solid"
       gradientTransform="matrix(0.26432725,0,0,0.27461223,35.177299,-63.220415)">
      <stop
         style="stop-color:#c1f0f2;stop-opacity:1;"
         offset="0"
         id="stop7605" />
    </linearGradient>
    <linearGradient
       id="Pink"
       osb:paint="solid"
       gradientTransform="matrix(0.26458333,0,0,0.21166666,-2.8952608,8.387284)">
      <stop
         style="stop-color:#fcaebb;stop-opacity:1;"
         offset="0"
         id="stop7599" />
    </linearGradient>
    <linearGradient
       inkscape:collect="always"
       xlink:href="#linearGradient7667"
       id="linearGradient7669"
       x1="2.4786801e-15"
       y1="273.23123"
       x2="3.8719248e-15"
       y2="295.98538"
       gradientUnits="userSpaceOnUse" />
    <linearGradient
       inkscape:collect="always"
       xlink:href="#YellowYay"
       id="linearGradient7673"
       gradientUnits="userSpaceOnUse"
       gradientTransform="translate(-24.31172,-15.735334)"
       x1="24.31172"
       y1="194.23528"
       x2="39.55172"
       y2="194.23528" />
    <clipPath
       clipPathUnits="userSpaceOnUse"
       id="clipPath881">
      <g
         id="g887">
        <path
           style="opacity:1;fill:url(#Input);fill-opacity:1;stroke:none;stroke-width:0.17061;stroke-linecap:butt;stroke-linejoin:round;stroke-miterlimit:4;stroke-dasharray:none;stroke-opacity:1;paint-order:normal;enable-background:new"
           d="m 50,-21 h 9 v 50 h -9 z"
           id="path883"
           inkscape:connector-curvature="0" />
        <path
           inkscape:connector-curvature="0"
           id="path885"
           d="m 58.5,28.5 h 9 v 50 h -9 z"
           style="opacity:1;fill:url(#Input);fill-opacity:1;stroke:none;stroke-width:0.17061;stroke-linecap:butt;stroke-linejoin:round;stroke-miterlimit:4;stroke-dasharray:none;stroke-opacity:1;paint-order:normal;enable-background:new" />
      </g>
    </clipPath>
    <filter
       style="color-interpolation-filters:sRGB;"
       inkscape:label="Blur"
       id="filter1053">
      <feGaussianBlur
         stdDeviation="0.3 0.3"
         result="fbSourceGraphic"
         id="feGaussianBlur1051" />
      <feColorMatrix
         result="fbSourceGraphicAlpha"
         in="fbSourceGraphic"
         values="0 0 0 -1 0 0 0 0 -1 0 0 0 0 -1 0 0 0 0 1 0"
         id="feColorMatrix1055" />
      <feGaussianBlur
         id="feGaussianBlur1057"
         stdDeviation="0.3 0.3"
         result="blur"
         in="fbSourceGraphic" />
    </filter>
    <clipPath
       clipPathUnits="userSpaceOnUse"
       id="clipPath1777">
      <rect
         style="opacity:1;fill:#560311;fill-opacity:1;stroke:none;stroke-width:0.35936013;stroke-linecap:butt;stroke-linejoin:round;stroke-miterlimit:4;stroke-dasharray:none;stroke-opacity:1;paint-order:markers fill stroke"
         id="rect1779"
         width="6"
         height="6"
         x="-13.000001"
         y="42.499992" />
    </clipPath>
    <clipPath
       clipPathUnits="userSpaceOnUse"
       id="clipPath1825">
      <rect
         y="8.0563469"
         x="85.888351"
         height="5"
         width="5"
         id="rect1827"
         style="opacity:1;fill:url(#LightestBlue);fill-opacity:1;stroke:none;stroke-width:0.30765915;stroke-linecap:butt;stroke-linejoin:round;stroke-miterlimit:4;stroke-dasharray:none;stroke-opacity:1;paint-order:markers fill stroke"
         transform="rotate(45)" />
    </clipPath>
    <mask
       maskUnits="userSpaceOnUse"
       id="mask1832">
      <g
         id="g1836">
        <rect
           clip-path="url(#clipPath1825)"
           style="opacity:1;fill:url(#LightestBlue);fill-opacity:1;stroke:none;stroke-width:0.30765915;stroke-linecap:butt;stroke-linejoin:round;stroke-miterlimit:4;stroke-dasharray:none;stroke-opacity:1;paint-order:markers fill stroke"
           id="rect1834"
           width="5"
           height="5"
           x="50"
           y="68.5" />
      </g>
    </mask>
  </defs>
  <sodipodi:namedview
     id="base"
     pagecolor="#ffffff"
     bordercolor="#666666"
     borderopacity="1.0"
     inkscape:pageopacity="0.0"
     inkscape:pageshadow="2"
     inkscape:zoom="2.0000001"
     inkscape:cx="-149.6658"
     inkscape:cy="397.5663"
     inkscape:document-units="mm"
     inkscape:current-layer="layer3"
     showgrid="true"
     units="mm"
     inkscape:snap-bbox="true"
     inkscape:snap-page="true"
     inkscape:bbox-nodes="false"
     inkscape:snap-bbox-edge-midpoints="false"
     inkscape:window-width="1920"
     inkscape:window-height="1019"
     inkscape:window-x="-4"
     inkscape:window-y="427"
     inkscape:window-maximized="1"
     inkscape:snap-bbox-midpoints="true"
     inkscape:snap-nodes="false"
     showguides="false">
    <inkscape:grid
       type="xygrid"
       id="grid947"
       units="mm"
       spacingx="1.0000001"
       spacingy="1.0000001" />
  </sodipodi:namedview>
  <metadata
     id="metadata5">
    <rdf:RDF>
      <cc:Work
         rdf:about="">
        <dc:format>image/svg+xml</dc:format>
        <dc:type
           rdf:resource="http://purl.org/dc/dcmitype/StillImage" />
        <dc:title></dc:title>
      </cc:Work>
    </rdf:RDF>
  </metadata>
  <g
     inkscape:label="Background"
     inkscape:groupmode="layer"
     id="layer1"
     transform="translate(0,-168.49998)"
     style="display:inline">
    <rect
       style="display:inline;opacity:1;vector-effect:none;fill:url(#linearGradient7669);fill-opacity:1;fill-rule:evenodd;stroke:none;stroke-width:0.45916572;stroke-linecap:butt;stroke-linejoin:miter;stroke-miterlimit:4;stroke-dasharray:none;stroke-dashoffset:0;stroke-opacity:1;paint-order:normal"
       id="rect420"
       width="15.24"
       height="128.5"
       x="7.9472858e-07"
       y="168.49997" />
    <flowRoot
       xml:space="preserve"
       id="flowRoot7228"
       style="font-style:normal;font-variant:normal;font-weight:normal;font-stretch:normal;font-size:40px;line-height:1.25;font-family:'Segoe UI Historic';-inkscape-font-specification:'Segoe UI Historic';letter-spacing:0px;word-spacing:0px;fill:#000000;fill-opacity:1;stroke:none"
       transform="matrix(0.26458333,0,0,0.26458333,0,168.49998)"><flowRegion
         id="flowRegion7230"><rect
           id="rect7232"
           width="224.28572"
           height="60.714287"
           x="5.7142859"
           y="92.097855" /></flowRegion><flowPara
         id="flowPara7234" /></flowRoot>    <flowRoot
       xml:space="preserve"
       id="flowRoot7236"
       style="font-style:normal;font-variant:normal;font-weight:normal;font-stretch:normal;font-size:40px;line-height:1.25;font-family:'Segoe UI Historic';-inkscape-font-specification:'Segoe UI Historic';letter-spacing:0px;word-spacing:0px;fill:#000000;fill-opacity:1;stroke:none"><flowRegion
         id="flowRegion7238"><rect
           id="rect7240"
           width="356.42856"
           height="270.71429"
           x="100.71429"
           y="71.383568" /></flowRegion><flowPara
         id="flowPara7242" /></flowRoot>    <rect
       y="173.49998"
       x="0"
       height="10"
       width="15.24"
       id="rect7671"
       style="display:inline;opacity:0.98000004;fill:url(#linearGradient7673);fill-opacity:1;stroke:none;stroke-width:0.77764034;stroke-miterlimit:4;stroke-dasharray:none;stroke-opacity:1;paint-order:stroke fill markers;enable-background:new" />
    <rect
       style="opacity:0.98000004;fill:url(#Pink);fill-opacity:1;stroke:none;stroke-width:0.44721359;stroke-miterlimit:4;stroke-dasharray:none;stroke-opacity:1;paint-order:stroke fill markers"
       id="rect7491"
       width="15.24"
       height="8"
       x="3.1086242e-16"
       y="174.49998" />
    <g
       aria-label="Bendlet
"
       style="font-style:normal;font-variant:normal;font-weight:normal;font-stretch:normal;font-size:4.23333311px;line-height:1.25;font-family:'Segoe UI Historic';-inkscape-font-specification:'Segoe UI Historic';letter-spacing:0px;word-spacing:0px;fill:url(#DarkerBlue);fill-opacity:1;stroke:none;stroke-width:0.26458332"
       id="text7677">
      <path
         d="M 0.52809856,176.45072 H 1.2984219 q 0.3314182,0 0.5575887,0.0694 0.2284098,0.0694 0.3694865,0.19034 0.1410767,0.12092 0.2015381,0.28215 0.062701,0.16124 0.062701,0.34486 0,0.1254 -0.026872,0.23737 -0.024633,0.11196 -0.073897,0.20601 -0.047026,0.0918 -0.1164443,0.16347 -0.069419,0.0717 -0.1567518,0.11421 0.091812,0.047 0.1769057,0.11196 0.087333,0.0649 0.1545125,0.16571 0.067179,0.0985 0.107487,0.24185 0.040308,0.14331 0.040308,0.34709 0,0.20154 -0.062701,0.35157 -0.060461,0.15004 -0.1701877,0.25752 -0.107487,0.10749 -0.2552815,0.17691 -0.1455553,0.0672 -0.3135037,0.10749 -0.1679484,0.0403 -0.351572,0.056 -0.1813843,0.0157 -0.3627686,0.0157 H 0.52809856 Z m 0.79495574,2.90215 q 0.1836236,0 0.3045465,-0.0515 0.1209228,-0.0537 0.1925808,-0.13212 0.071658,-0.0784 0.1007691,-0.16795 0.029111,-0.0896 0.029111,-0.16571 0,-0.16571 -0.049265,-0.26424 -0.049265,-0.0985 -0.1321194,-0.15003 -0.082855,-0.0515 -0.1925808,-0.0672 -0.1097263,-0.0157 -0.2284098,-0.0157 H 1.1998922 v 1.01441 z m 0.015675,-1.50258 q 0.1164442,0 0.2127347,-0.0134 0.09853,-0.0157 0.1679484,-0.0627 0.069419,-0.047 0.1074869,-0.13435 0.038068,-0.0896 0.038068,-0.23737 0,-0.12764 -0.044786,-0.20826 -0.044786,-0.0829 -0.1209228,-0.12764 -0.076137,-0.0448 -0.1769057,-0.0605 -0.100769,-0.0179 -0.2127346,-0.0179 H 1.1774991 v 0.86213 z"
         style="font-style:normal;font-variant:normal;font-weight:normal;font-stretch:normal;font-size:4.58611107px;line-height:13.22916603px;font-family:'Francois One';-inkscape-font-specification:'Francois One';text-align:center;text-anchor:middle;fill:url(#DarkerBlue);stroke-width:0.26458332"
         id="path953" />
      <path
         d="m 3.5354946,178.69003 q 0,0.12093 0.015675,0.25976 0.015675,0.13884 0.051504,0.25529 0.038068,0.11644 0.09853,0.19482 0.060461,0.0761 0.1477946,0.0761 0.076137,0 0.1388374,-0.0605 0.062701,-0.0605 0.1097263,-0.1366 0.047026,-0.0761 0.073897,-0.14331 0.029111,-0.0672 0.035829,-0.0806 l 0.48817,0.18586 q -0.044786,0.15676 -0.1186836,0.28664 -0.073897,0.12988 -0.1791449,0.22393 -0.1052477,0.094 -0.244085,0.14555 -0.1388374,0.0538 -0.315743,0.0538 -0.2351278,0 -0.4142728,-0.0985 -0.1769056,-0.0985 -0.2955891,-0.27544 -0.1164443,-0.1769 -0.1769057,-0.42323 -0.058222,-0.24632 -0.058222,-0.53967 0,-0.29559 0.060461,-0.54192 0.060461,-0.24632 0.1813843,-0.42323 0.1209228,-0.1769 0.3023071,-0.27319 0.1813843,-0.0985 0.42323,-0.0985 0.2306491,0 0.4030762,0.0985 0.172427,0.0963 0.2888712,0.27319 0.1164442,0.17691 0.1746664,0.42323 0.058222,0.24633 0.058222,0.54192 l -0.00896,0.0314 q -0.00448,0.0134 -0.00672,0.0269 -0.00224,0.0112 -0.00224,0.0179 z m 0.6158109,-0.37172 q 0,-0.12764 -0.017915,-0.23737 -0.015675,-0.10973 -0.051504,-0.1881 -0.035829,-0.0806 -0.094051,-0.1254 -0.055983,-0.047 -0.1388374,-0.047 -0.058222,0 -0.1164442,0.047 -0.055983,0.0448 -0.100769,0.1254 -0.042547,0.0784 -0.069419,0.1881 -0.026872,0.10973 -0.026872,0.23737 z"
         style="font-style:normal;font-variant:normal;font-weight:normal;font-stretch:normal;font-size:4.58611107px;line-height:13.22916603px;font-family:'Francois One';-inkscape-font-specification:'Francois One';text-align:center;text-anchor:middle;fill:url(#DarkerBlue);stroke-width:0.26458332"
         id="path955" />
      <path
         d="m 6.4622756,178.16827 q 0,-0.19034 -0.06494,-0.26647 -0.06494,-0.0761 -0.1701877,-0.0761 -0.085094,0 -0.1925808,0.056 -0.1052477,0.056 -0.2172133,0.12316 v 1.85863 l -0.6449219,0.0538 v -2.55282 l 0.6449219,-0.0537 v 0.32918 q 0.1925808,-0.16795 0.3829224,-0.26424 0.1903415,-0.0985 0.3560506,-0.0985 0.1209228,0 0.2216919,0.047 0.100769,0.0448 0.172427,0.12988 0.073897,0.0829 0.1142049,0.20378 0.042547,0.12092 0.042547,0.27096 v 1.93476 l -0.6449218,0.0538 z"
         style="font-style:normal;font-variant:normal;font-weight:normal;font-stretch:normal;font-size:4.58611107px;line-height:13.22916603px;font-family:'Francois One';-inkscape-font-specification:'Francois One';text-align:center;text-anchor:middle;fill:url(#DarkerBlue);stroke-width:0.26458332"
         id="path957" />
      <path
         d="m 8.9926981,179.91718 -0.1567519,-0.34934 q -0.029111,0.10749 -0.09853,0.19258 -0.029111,0.0358 -0.071658,0.0717 -0.040308,0.0336 -0.09629,0.0605 -0.055983,0.0269 -0.1276408,0.0426 -0.069419,0.0157 -0.1589911,0.0157 -0.1769057,0 -0.315743,-0.0784 -0.1365981,-0.0806 -0.2328885,-0.24632 -0.094051,-0.16795 -0.143316,-0.42099 -0.049265,-0.25529 -0.049265,-0.60462 0,-0.35605 0.038068,-0.60685 0.040308,-0.25304 0.1254014,-0.41204 0.087333,-0.15899 0.2216919,-0.23065 0.1343588,-0.0739 0.3247003,-0.0739 0.053744,0 0.107487,0.0157 0.055983,0.0157 0.1074869,0.0426 0.051504,0.0269 0.09853,0.0605 0.049265,0.0336 0.089573,0.0694 0.09629,0.0829 0.1813842,0.18586 v -1.11965 l 0.6449219,-0.0806 v 3.41271 z m -0.1567519,-1.96164 q -0.047026,-0.0582 -0.09853,-0.10301 -0.044786,-0.0381 -0.100769,-0.0694 -0.055983,-0.0336 -0.114205,-0.0336 -0.1186835,0 -0.1858629,0.0672 -0.067179,0.0649 -0.100769,0.18139 -0.03359,0.1142 -0.042547,0.27095 -0.00672,0.15452 -0.00672,0.33142 0,0.17915 0.00672,0.34038 0.00896,0.16123 0.042547,0.28439 0.03359,0.12092 0.100769,0.19258 0.067179,0.0717 0.1858629,0.0717 0.058222,0 0.114205,-0.0291 0.055983,-0.0314 0.100769,-0.10525 0.044786,-0.0761 0.071658,-0.20602 0.026872,-0.13212 0.026872,-0.33366 z"
         style="font-style:normal;font-variant:normal;font-weight:normal;font-stretch:normal;font-size:4.58611107px;line-height:13.22916603px;font-family:'Francois One';-inkscape-font-specification:'Francois One';text-align:center;text-anchor:middle;fill:url(#DarkerBlue);stroke-width:0.26458332"
         id="path959" />
      <path
         d="m 10.036218,176.53134 0.644921,-0.0806 v 3.41271 l -0.644921,0.0538 z"
         style="font-style:normal;font-variant:normal;font-weight:normal;font-stretch:normal;font-size:4.58611107px;line-height:13.22916603px;font-family:'Francois One';-inkscape-font-specification:'Francois One';text-align:center;text-anchor:middle;fill:url(#DarkerBlue);stroke-width:0.26458332"
         id="path961" />
      <path
         d="m 11.758249,178.69003 q 0,0.12093 0.01567,0.25976 0.01568,0.13884 0.0515,0.25529 0.03807,0.11644 0.09853,0.19482 0.06046,0.0761 0.147795,0.0761 0.07614,0 0.138837,-0.0605 0.0627,-0.0605 0.109726,-0.1366 0.04703,-0.0761 0.0739,-0.14331 0.02911,-0.0672 0.03583,-0.0806 l 0.48817,0.18586 q -0.04479,0.15676 -0.118684,0.28664 -0.0739,0.12988 -0.179145,0.22393 -0.105248,0.094 -0.244085,0.14555 -0.138837,0.0538 -0.315743,0.0538 -0.235128,0 -0.414273,-0.0985 -0.176905,-0.0985 -0.295589,-0.27544 -0.116444,-0.1769 -0.176906,-0.42323 -0.05822,-0.24632 -0.05822,-0.53967 0,-0.29559 0.06046,-0.54192 0.06046,-0.24632 0.181384,-0.42323 0.120923,-0.1769 0.302307,-0.27319 0.181384,-0.0985 0.42323,-0.0985 0.230649,0 0.403076,0.0985 0.172427,0.0963 0.288872,0.27319 0.116444,0.17691 0.174666,0.42323 0.05822,0.24633 0.05822,0.54192 l -0.009,0.0314 q -0.0045,0.0134 -0.0067,0.0269 -0.0022,0.0112 -0.0022,0.0179 z m 0.615811,-0.37172 q 0,-0.12764 -0.01792,-0.23737 -0.01567,-0.10973 -0.0515,-0.1881 -0.03583,-0.0806 -0.09405,-0.1254 -0.05598,-0.047 -0.138837,-0.047 -0.05822,0 -0.116445,0.047 -0.05598,0.0448 -0.100769,0.1254 -0.04255,0.0784 -0.06942,0.1881 -0.02687,0.10973 -0.02687,0.23737 z"
         style="font-style:normal;font-variant:normal;font-weight:normal;font-stretch:normal;font-size:4.58611107px;line-height:13.22916603px;font-family:'Francois One';-inkscape-font-specification:'Francois One';text-align:center;text-anchor:middle;fill:url(#DarkerBlue);stroke-width:0.26458332"
         id="path963" />
      <path
         d="m 13.558655,177.31062 0.06494,-0.55983 0.559828,-0.0806 v 0.64045 h 0.528478 l -0.02687,0.48369 h -0.499366 v 1.42196 q 0,0.0761 0.03135,0.1254 0.03135,0.047 0.07838,0.0739 0.04927,0.0269 0.107487,0.0358 0.05822,0.009 0.111965,0.009 0.06942,0 0.114205,-0.007 0.02463,-0.004 0.04703,-0.009 v 0.44339 q -0.04927,0.0179 -0.120923,0.0314 -0.06046,0.0112 -0.152273,0.0202 -0.09181,0.0112 -0.219453,0.0112 -0.105247,0 -0.219452,-0.0314 -0.111966,-0.0291 -0.206017,-0.0985 -0.09405,-0.0717 -0.156752,-0.18811 -0.06046,-0.11644 -0.06046,-0.28887 v -1.5496 h -0.36053 l 0.02687,-0.48369 z"
         style="font-style:normal;font-variant:normal;font-weight:normal;font-stretch:normal;font-size:4.58611107px;line-height:13.22916603px;font-family:'Francois One';-inkscape-font-specification:'Francois One';text-align:center;text-anchor:middle;fill:url(#DarkerBlue);stroke-width:0.26458332"
         id="path965" />
    </g>
  </g>
  <g
     inkscape:groupmode="layer"
     id="layer3"
     inkscape:label="Front"
     style="display:inline">
    <rect
       style="display:inline;opacity:1;fill:#0e6977;fill-opacity:1;stroke:none;stroke-width:0.25402117;stroke-miterlimit:4;stroke-dasharray:none;stroke-opacity:1;enable-background:new"
       id="rect7339"
       width="10"
       height="13.5"
       x="2.6199996"
       y="100.00001"
       ry="3"
       rx="3" />
    <g
       aria-label="PW"
       style="font-style:normal;font-variant:normal;font-weight:normal;font-stretch:normal;font-size:10.58333302px;line-height:1.25;font-family:Amiri;-inkscape-font-specification:Amiri;text-align:center;letter-spacing:0px;word-spacing:0px;text-anchor:middle;fill:url(#DarkerBlue);fill-opacity:1;stroke:none;stroke-width:0.26458332"
       id="text1612">
      <path
         d="m 5.170537,99.344971 v -2.32544 l 0.1643311,-0.07751 h 0.587561 q 0.2340942,0 0.4309814,0.08216 0.3519165,0.145728 0.3519165,0.429431 v 0.5271 q 0,0.283704 -0.3519165,0.429431 -0.1968872,0.08217 -0.4309814,0.08217 H 5.4805956 v 0.713134 L 5.18604,99.344971 Z m 0.3100586,-1.131714 h 0.4418335 q 0.1550293,0 0.2852539,-0.05116 0.1875855,-0.07441 0.1875855,-0.181384 v -0.5271 q 0,-0.10852 -0.1875855,-0.181384 -0.1302246,-0.05116 -0.2852539,-0.05116 H 5.4805956 Z"
         style="font-style:normal;font-variant:normal;font-weight:normal;font-stretch:normal;font-size:3.17499995px;font-family:'Nova Flat';-inkscape-font-specification:'Nova Flat, Normal';font-variant-ligatures:normal;font-variant-caps:normal;font-variant-numeric:normal;font-feature-settings:normal;text-align:center;writing-mode:lr-tb;text-anchor:middle;fill:url(#DarkerBlue);stroke-width:0.26458332"
         id="path979" />
      <path
         d="m 7.2479296,97.019531 0.2945557,-0.139526 h 0.015503 v 1.922363 q 0,0.10697 0.1875854,0.181384 0.1302247,0.05116 0.2852539,0.05116 0.1550293,0 0.2852539,-0.05116 0.1875855,-0.07441 0.1875855,-0.181384 v -1.782837 l 0.2945557,-0.139526 h 0.015503 v 1.922363 q 0,0.10697 0.1875854,0.181384 0.1302246,0.05116 0.2852539,0.05116 0.1550293,0 0.2852539,-0.05116 0.1875855,-0.07441 0.1875855,-0.181384 V 97.019531 L 10.05396,96.880005 h 0.0155 v 1.922363 q 0,0.283704 -0.3519167,0.429431 -0.1968872,0.08217 -0.4309815,0.08217 -0.2356445,0 -0.4309814,-0.08217 -0.1178223,-0.04961 -0.1968872,-0.113171 -0.079065,0.06356 -0.1968872,0.113171 -0.1953369,0.08217 -0.4309815,0.08217 -0.2340942,0 -0.4309814,-0.08217 -0.3519165,-0.145727 -0.3519165,-0.429431 z"
         style="font-style:normal;font-variant:normal;font-weight:normal;font-stretch:normal;font-size:3.17499995px;font-family:'Nova Flat';-inkscape-font-specification:'Nova Flat, Normal';font-variant-ligatures:normal;font-variant-caps:normal;font-variant-numeric:normal;font-feature-settings:normal;text-align:center;writing-mode:lr-tb;text-anchor:middle;fill:url(#DarkerBlue);stroke-width:0.26458332"
         id="path981" />
    </g>
    <g
       aria-label="Bent"
       style="font-style:normal;font-variant:normal;font-weight:normal;font-stretch:normal;font-size:10.58333302px;line-height:1.25;font-family:Amiri;-inkscape-font-specification:Amiri;text-align:center;letter-spacing:0px;word-spacing:0px;text-anchor:middle;fill:url(#LightBlue);fill-opacity:1;stroke:none;stroke-width:0.26458332"
       id="text1076">
      <path
         d="M 5.1722665,111.00241 H 5.6141 q 0.1317749,0 0.2154907,-0.0512 0.1178223,-0.0744 0.1178223,-0.18138 v -0.16124 q 0,-0.13022 -0.1240234,-0.18138 -0.1240235,-0.0512 -0.2092896,-0.0512 H 5.1722665 Z m 0,1.15652 H 5.6141 q 0.1550293,0 0.2852539,-0.0512 0.1875855,-0.0729 0.1875855,-0.18139 v -0.41237 q 0,-0.10697 -0.1875855,-0.18139 -0.1302246,-0.0512 -0.2852539,-0.0512 H 5.1722665 Z m -0.3100586,0.27905 v -2.26343 l 0.1643311,-0.0775 H 5.6141 q 0.1968872,0 0.3612183,0.0822 0.2821533,0.14418 0.2821533,0.42943 v 0.16124 q 0,0.17673 -0.190686,0.34726 0.3302124,0.14418 0.3302124,0.39688 v 0.41237 q 0,0.28216 -0.3519165,0.42944 -0.1968873,0.0822 -0.4309815,0.0822 z"
         style="font-style:normal;font-variant:normal;font-weight:normal;font-stretch:normal;font-size:3.17499995px;font-family:'Nova Flat';-inkscape-font-specification:'Nova Flat, Normal';font-variant-ligatures:normal;font-variant-caps:normal;font-variant-numeric:normal;font-feature-settings:normal;text-align:center;writing-mode:lr-tb;text-anchor:middle;fill:url(#LightBlue);stroke-width:0.26458332"
         id="path984" />
      <path
         d="m 8.1984384,111.7512 v 0.33796 q 0,0.20464 -0.2899047,0.31937 -0.1565796,0.0605 -0.3534668,0.0605 -0.1968872,0 -0.3534668,-0.0605 -0.2899048,-0.11473 -0.2899048,-0.31937 v -1.00769 q 0,-0.20463 0.2899048,-0.31936 0.1565796,-0.0605 0.3534668,-0.0605 0.1968872,0 0.3534668,0.0605 0.2899047,0.11473 0.2899047,0.31936 v 0.19844 l -0.9766845,0.75499 q 0,0.0775 0.096118,0.11628 0.097668,0.0388 0.2371949,0.0388 0.1395263,0 0.2356445,-0.0388 0.097668,-0.0388 0.097668,-0.11628 v -0.14417 l 0.2945557,-0.13953 z m -0.9766845,-0.0434 0.6666259,-0.5364 v -0.0357 q 0,-0.0775 -0.097668,-0.11627 -0.096118,-0.0387 -0.2356445,-0.0387 -0.1395264,0 -0.2371949,0.0387 -0.096118,0.0388 -0.096118,0.11627 z"
         style="font-style:normal;font-variant:normal;font-weight:normal;font-stretch:normal;font-size:3.17499995px;font-family:'Nova Flat';-inkscape-font-specification:'Nova Flat, Normal';font-variant-ligatures:normal;font-variant-caps:normal;font-variant-numeric:normal;font-feature-settings:normal;text-align:center;writing-mode:lr-tb;text-anchor:middle;fill:url(#LightBlue);stroke-width:0.26458332"
         id="path986" />
      <path
         d="m 8.666627,112.49999 v -1.41852 q 0,-0.20773 0.2899048,-0.31936 0.1565795,-0.0605 0.3534668,-0.0605 0.1968872,0 0.3534667,0.0605 0.2899048,0.11163 0.2899048,0.31936 v 1.279 l -0.2945556,0.13952 h -0.015503 v -1.36426 q 0,-0.0775 -0.097668,-0.11627 -0.096118,-0.0387 -0.2356445,-0.0387 -0.1395264,0 -0.2371949,0.0387 -0.096118,0.0388 -0.096118,0.11627 v 1.22474 l -0.2945557,0.13952 z"
         style="font-style:normal;font-variant:normal;font-weight:normal;font-stretch:normal;font-size:3.17499995px;font-family:'Nova Flat';-inkscape-font-specification:'Nova Flat, Normal';font-variant-ligatures:normal;font-variant-caps:normal;font-variant-numeric:normal;font-feature-settings:normal;text-align:center;writing-mode:lr-tb;text-anchor:middle;fill:url(#LightBlue);stroke-width:0.26458332"
         id="path988" />
      <path
         d="m 10.626197,112.49999 v -1.48518 h -0.398425 v -0.0155 l 0.125574,-0.26665 h 0.272851 v -0.55811 l 0.294556,-0.13952 h 0.0155 v 0.69763 h 0.398425 v 0.0155 l -0.125574,0.26665 h -0.272851 v 1.34566 l -0.294556,0.13952 z"
         style="font-style:normal;font-variant:normal;font-weight:normal;font-stretch:normal;font-size:3.17499995px;font-family:'Nova Flat';-inkscape-font-specification:'Nova Flat, Normal';font-variant-ligatures:normal;font-variant-caps:normal;font-variant-numeric:normal;font-feature-settings:normal;text-align:center;writing-mode:lr-tb;text-anchor:middle;fill:url(#LightBlue);stroke-width:0.26458332"
         id="path990" />
    </g>
    <g
       aria-label="V/Oct"
       style="font-style:normal;font-variant:normal;font-weight:normal;font-stretch:normal;font-size:10.58333302px;line-height:1.25;font-family:Amiri;-inkscape-font-specification:Amiri;text-align:center;letter-spacing:0px;word-spacing:0px;text-anchor:middle;fill:url(#DarkerBlue);fill-opacity:1;stroke:none;stroke-width:0.26458332"
       id="text1955">
      <path
         d="M 4.1985043,86.344971 3.4078549,84.007129 3.6760556,83.880005 h 0.015503 l 0.6418213,1.947168 0.6061645,-1.947168 h 0.015503 l 0.2682006,0.127124 -0.74104,2.210718 -0.2682007,0.127124 z"
         style="font-style:normal;font-variant:normal;font-weight:normal;font-stretch:normal;font-size:3.17499995px;font-family:'Nova Flat';-inkscape-font-specification:'Nova Flat, Normal';font-variant-ligatures:normal;font-variant-caps:normal;font-variant-numeric:normal;font-feature-settings:normal;text-align:center;writing-mode:lr-tb;text-anchor:middle;fill:url(#DarkerBlue);stroke-width:0.26458332"
         id="path968" />
      <path
         d="M 5.4635434,86.5 5.2449521,86.39458 6.488287,83.724976 h 0.015503 L 6.7239315,83.830396 5.4790463,86.5 Z"
         style="font-style:normal;font-variant:normal;font-weight:normal;font-stretch:normal;font-size:3.17499995px;font-family:'Nova Flat';-inkscape-font-specification:'Nova Flat, Normal';font-variant-ligatures:normal;font-variant-caps:normal;font-variant-numeric:normal;font-feature-settings:normal;text-align:center;writing-mode:lr-tb;text-anchor:middle;fill:url(#DarkerBlue);stroke-width:0.26458332"
         id="path970" />
      <path
         d="m 7.3626522,85.802368 q 0,0.10542 0.1875854,0.181384 0.1302246,0.05116 0.2852539,0.05116 0.1550293,0 0.2852539,-0.05116 0.1875855,-0.07441 0.1875855,-0.181384 v -1.379761 q 0,-0.105419 -0.1875855,-0.181384 -0.1302246,-0.05116 -0.2852539,-0.05116 -0.1550293,0 -0.2852539,0.05116 -0.1875854,0.07441 -0.1875854,0.181384 z m -0.3100586,0 q 0,0 0,-1.379761 0,-0.283703 0.3519165,-0.429431 0.1968872,-0.08217 0.4309814,-0.08217 0.2340942,0 0.4309815,0.08217 0.3519165,0.145728 0.3519165,0.429431 v 1.379761 q 0,0.283704 -0.3519165,0.429431 -0.1968873,0.08217 -0.4309815,0.08217 -0.2340942,0 -0.4309814,-0.08217 -0.3519165,-0.145727 -0.3519165,-0.429431 z"
         style="font-style:normal;font-variant:normal;font-weight:normal;font-stretch:normal;font-size:3.17499995px;font-family:'Nova Flat';-inkscape-font-specification:'Nova Flat, Normal';font-variant-ligatures:normal;font-variant-caps:normal;font-variant-numeric:normal;font-feature-settings:normal;text-align:center;writing-mode:lr-tb;text-anchor:middle;fill:url(#DarkerBlue);stroke-width:0.26458332"
         id="path972" />
      <path
         d="m 10.450836,85.596179 v 0.337964 q 0,0.204639 -0.289905,0.31936 -0.156579,0.06046 -0.3534665,0.06046 -0.1968872,0 -0.3534668,-0.06046 -0.2899048,-0.114721 -0.2899048,-0.31936 v -1.00769 q 0,-0.204639 0.2899048,-0.319361 0.1565796,-0.06046 0.3534668,-0.06046 0.1968875,0 0.3534665,0.06046 0.289905,0.114722 0.289905,0.319361 v 0.198437 l -0.294556,0.139527 h -0.0155 v -0.283704 q 0,-0.07751 -0.09767,-0.116272 -0.096118,-0.03876 -0.2356445,-0.03876 -0.1395264,0 -0.2371949,0.03876 -0.096118,0.03876 -0.096118,0.116272 v 0.89917 q 0,0.07751 0.096118,0.116272 0.097669,0.03876 0.2371949,0.03876 0.1395263,0 0.2356445,-0.03876 0.09767,-0.03876 0.09767,-0.116272 v -0.144177 l 0.294556,-0.139527 z"
         style="font-style:normal;font-variant:normal;font-weight:normal;font-stretch:normal;font-size:3.17499995px;font-family:'Nova Flat';-inkscape-font-specification:'Nova Flat, Normal';font-variant-ligatures:normal;font-variant-caps:normal;font-variant-numeric:normal;font-feature-settings:normal;text-align:center;writing-mode:lr-tb;text-anchor:middle;fill:url(#DarkerBlue);stroke-width:0.26458332"
         id="path974" />
      <path
         d="M 11.123663,86.344971 V 84.85979 h -0.398425 v -0.0155 l 0.125573,-0.26665 h 0.272852 v -0.558106 l 0.294556,-0.139526 h 0.0155 v 0.697632 h 0.398425 v 0.0155 l -0.125574,0.26665 h -0.272851 v 1.345654 l -0.294556,0.139527 z"
         style="font-style:normal;font-variant:normal;font-weight:normal;font-stretch:normal;font-size:3.17499995px;font-family:'Nova Flat';-inkscape-font-specification:'Nova Flat, Normal';font-variant-ligatures:normal;font-variant-caps:normal;font-variant-numeric:normal;font-feature-settings:normal;text-align:center;writing-mode:lr-tb;text-anchor:middle;fill:url(#DarkerBlue);stroke-width:0.26458332"
         id="path976" />
    </g>
  </g>
  <g
     inkscape:groupmode="layer"
     id="layer2"
     inkscape:label="components"
     style="display:none">
    <circle
       inkscape:label="PB"
       r="4"
       cy="92"
       cx="7.6199999"
       id="circle879"
       style="display:inline;opacity:1;vector-effect:none;fill:#00ff00;fill-opacity:1;fill-rule:evenodd;stroke:none;stroke-width:1;stroke-linecap:butt;stroke-linejoin:miter;stroke-miterlimit:4;stroke-dasharray:none;stroke-dashoffset:0;stroke-opacity:1;paint-order:normal" />
    <circle
       style="display:inline;opacity:1;vector-effect:none;fill:#0000ff;fill-opacity:1;fill-rule:evenodd;stroke:none;stroke-width:1;stroke-linecap:butt;stroke-linejoin:miter;stroke-miterlimit:4;stroke-dasharray:none;stroke-dashoffset:0;stroke-opacity:1;paint-order:normal"
       id="circle908"
       cx="7.6200004"
       cy="104.99996"
       r="4"
       inkscape:label="Bent" />
    <rect
       style="display:inline;opacity:1;fill:#ffff00;fill-opacity:1;stroke:none;stroke-width:0.50592375;stroke-miterlimit:4;stroke-dasharray:none;stroke-opacity:1;paint-order:stroke fill markers;enable-background:new"
       id="rect880"
       width="13.601"
       height="9.9619999"
       x="1"
       y="114.53802"
       inkscape:label="Signature" />
    <rect
       style="display:inline;opacity:1;fill:#ffff00;fill-opacity:1;stroke:none;stroke-width:0.92200357;stroke-miterlimit:4;stroke-dasharray:none;stroke-opacity:1;paint-order:stroke fill markers;enable-background:new"
       id="rect880-9"
       width="11"
       height="52.5"
       x="2.1199999"
       y="18"
       inkscape:label="SmallPb" />
    <circle
       style="display:inline;opacity:1;vector-effect:none;fill:#00ff00;fill-opacity:1;fill-rule:evenodd;stroke:none;stroke-width:1;stroke-linecap:butt;stroke-linejoin:miter;stroke-miterlimit:4;stroke-dasharray:none;stroke-dashoffset:0;stroke-opacity:1;paint-order:normal"
       id="circle1951"
       cx="7.6199999"
       cy="79"
       r="4"
       inkscape:label="Pitch" />
  </g>
</svg>
