<?xml version="1.0" encoding="UTF-8" standalone="no"?>
<!-- Created with Inkscape (http://www.inkscape.org/) -->

<svg
   xmlns:dc="http://purl.org/dc/elements/1.1/"
   xmlns:cc="http://creativecommons.org/ns#"
   xmlns:rdf="http://www.w3.org/1999/02/22-rdf-syntax-ns#"
   xmlns:svg="http://www.w3.org/2000/svg"
   xmlns="http://www.w3.org/2000/svg"
   xmlns:xlink="http://www.w3.org/1999/xlink"
   xmlns:sodipodi="http://sodipodi.sourceforge.net/DTD/sodipodi-0.dtd"
   xmlns:inkscape="http://www.inkscape.org/namespaces/inkscape"
   width="15.24mm"
   height="128.5mm"
   viewBox="0 0 15.240001 128.50002"
   version="1.1"
   id="svg8"
   inkscape:version="0.92.4 (5da689c313, 2019-01-14)"
   sodipodi:docname="MyModule.svg"
   style="enable-background:new">
  <defs
     id="defs2">
    <linearGradient
       inkscape:collect="always"
       id="linearGradient3521">
      <stop
         style="stop-color:#469ca9;stop-opacity:1"
         offset="0"
         id="stop3517" />
      <stop
         style="stop-color:#76bfbe;stop-opacity:1"
         offset="1"
         id="stop3519" />
    </linearGradient>
    <linearGradient
       inkscape:collect="always"
       xlink:href="#linearGradient3521"
       id="linearGradient3523"
       x1="0.31749943"
       y1="293.79309"
       x2="0.052916102"
       y2="260.02103"
       gradientUnits="userSpaceOnUse"
       gradientTransform="scale(0.50000001,1)" />
  </defs>
  <sodipodi:namedview
     id="base"
     pagecolor="#ffffff"
     bordercolor="#666666"
     borderopacity="1.0"
     inkscape:pageopacity="0.0"
     inkscape:pageshadow="2"
     inkscape:zoom="2"
     inkscape:cx="120.68682"
     inkscape:cy="328.40202"
     inkscape:document-units="mm"
     inkscape:current-layer="layer1"
     showgrid="false"
     units="mm"
     inkscape:snap-bbox="true"
     inkscape:snap-page="true"
     inkscape:bbox-nodes="false"
     inkscape:snap-bbox-edge-midpoints="false"
     inkscape:window-width="1920"
     inkscape:window-height="1019"
     inkscape:window-x="-4"
     inkscape:window-y="427"
     inkscape:window-maximized="1"
     inkscape:snap-bbox-midpoints="true"
     inkscape:snap-nodes="false" />
  <metadata
     id="metadata5">
    <rdf:RDF>
      <cc:Work
         rdf:about="">
        <dc:format>image/svg+xml</dc:format>
        <dc:type
           rdf:resource="http://purl.org/dc/dcmitype/StillImage" />
        <dc:title></dc:title>
      </cc:Work>
    </rdf:RDF>
  </metadata>
  <g
     inkscape:label="Layer 1"
     inkscape:groupmode="layer"
     id="layer1"
     transform="translate(0,-168.49998)"
     style="display:inline">
    <rect
       style="display:inline;opacity:1;vector-effect:none;fill:url(#linearGradient3523);fill-opacity:1;fill-rule:evenodd;stroke:none;stroke-width:0.45916572;stroke-linecap:butt;stroke-linejoin:miter;stroke-miterlimit:4;stroke-dasharray:none;stroke-dashoffset:0;stroke-opacity:1;paint-order:normal"
       id="rect420"
       width="15.24"
       height="128.5"
       x="5.9211732e-17"
       y="168.49997" />
    <path
       style="display:inline;fill:#0e6977;fill-opacity:1;stroke-width:0.01927926"
       d="m 6.9319312,288.8136 c -0.041476,-0.0182 -0.026416,-0.0791 0.031657,-0.12797 0.2054731,-0.1729 1.711607,-0.65712 3.0674858,-0.9862 0.44621,-0.1083 0.736464,-0.16872 3.255618,-0.67782 1.378251,-0.27854 1.619252,-0.32221 1.544921,-0.27992 -0.0159,0.009 -0.848771,0.21785 -1.850811,0.46401 -3.4297087,0.84252 -4.2046826,1.04885 -5.3244861,1.41758 -0.5351698,0.17622 -0.6736561,0.2126 -0.7243847,0.19032 z m -3.16662,-0.088 c -0.1051533,-0.0297 -0.1776551,-0.0959 -0.3502558,-0.3195 -0.087959,-0.11397 -0.3509012,-0.44145 -0.5843154,-0.72775 -0.5066574,-0.62145 -0.5947341,-0.74704 -0.581976,-0.82981 0.0068,-0.0441 -0.00229,-0.0696 -0.036691,-0.10267 -0.054369,-0.0523 -0.057744,-0.0716 -0.086292,-0.49419 -0.012178,-0.18026 -0.038587,-0.46222 -0.058681,-0.62658 -0.047153,-0.38564 -0.047468,-0.48573 -0.00164,-0.52719 0.043678,-0.0395 0.058988,-0.0399 0.1008047,-0.002 0.030313,0.0275 0.048892,0.0196 0.2232298,-0.0942 0.2525324,-0.16487 0.5606817,-0.33372 0.6385718,-0.34991 l 0.062822,-0.0131 -0.068736,-0.0803 c -0.1973476,-0.23075 -0.7263318,-0.62843 -0.8377128,-0.62978 -0.090112,-7.1e-4 -0.132282,-0.0231 -0.1796724,-0.0935 -0.046775,-0.0696 -0.047497,-0.0773 -0.063129,-0.67769 -0.0087,-0.33401 -0.016183,-0.71224 -0.016641,-0.8405 -6.013e-4,-0.16952 -0.00813,-0.24201 -0.027574,-0.26543 -0.037185,-0.0448 -0.018679,-0.21259 0.045674,-0.41412 0.028254,-0.0884 0.047575,-0.16464 0.042942,-0.16929 -0.00465,-0.004 -0.1273064,0.0136 -0.2726025,0.0403 -0.1452953,0.0268 -0.2920302,0.0488 -0.3260782,0.0488 -0.1550794,0 -0.1979975,-0.13174 -0.065954,-0.20244 0.060254,-0.0322 0.078338,-0.0346 0.1107825,-0.0144 0.032644,0.0204 0.088328,0.0118 0.3523531,-0.0543 l 0.3135791,-0.0785 0.1113389,-0.28313 c 0.1565017,-0.39797 0.2923428,-0.69015 0.6196281,-1.33277 0.3256102,-0.63932 0.3933158,-0.73368 0.5264152,-0.73368 0.06817,0 0.087946,0.0103 0.1432473,0.0753 0.03529,0.0415 0.1261314,0.19977 0.2018741,0.35184 0.1117007,0.22426 0.1675693,0.37299 0.2957709,0.78738 0.1909516,0.61722 0.2006412,0.64207 0.2457198,0.62972 0.018771,-0.005 0.1056452,-0.0198 0.1930539,-0.0327 0.1477232,-0.0216 0.161644,-0.0277 0.1974748,-0.0857 0.1087145,-0.1759 0.4196662,-0.39297 0.6894798,-0.48129 0.087354,-0.0286 0.099879,-0.0389 0.091562,-0.075 -0.00529,-0.023 -0.011799,-0.10138 -0.014438,-0.17415 -0.004,-0.11001 0.00107,-0.13602 0.030063,-0.15424 0.04814,-0.0303 0.082886,0.0201 0.1096455,0.15896 0.011485,0.0595 0.02475,0.1267 0.029484,0.14915 0.00761,0.0361 0.0253,0.0419 0.153825,0.0501 0.3610009,0.0232 0.5718308,0.27382 0.5436567,0.64634 -0.014438,0.19091 -0.0929,0.35603 -0.2439077,0.51328 l -0.1155836,0.12038 0.1103112,0.0539 c 0.2452241,0.11986 0.5001185,0.34259 0.7145476,0.62439 0.1311336,0.17234 0.2344126,0.3483 0.2344126,0.39938 0,0.0196 0.018993,0.0946 0.042212,0.1667 0.023212,0.0721 0.03642,0.13685 0.02934,0.14393 -0.00708,0.007 -0.041261,-0.0102 -0.07595,-0.0384 -0.034689,-0.0283 -0.1064548,-0.0846 -0.1594723,-0.12524 -0.061506,-0.0471 -0.1452417,-0.14644 -0.2313519,-0.27432 -0.1716812,-0.25498 -0.4364675,-0.52472 -0.6223934,-0.63405 -0.077226,-0.0454 -0.1432995,-0.0792 -0.1468286,-0.0751 -0.0035,0.004 0.00508,0.0855 0.019115,0.1809 0.035347,0.24024 0.073442,1.05068 0.050464,1.07367 -0.011313,0.0113 -0.025958,-0.0131 -0.03898,-0.0651 -0.061441,-0.24507 -0.1790201,-0.82608 -0.2080138,-1.02788 -0.026874,-0.18703 -0.041876,-0.24078 -0.078303,-0.28061 -0.051337,-0.0561 -0.057343,-0.11599 -0.017835,-0.17795 0.023749,-0.0373 0.02131,-0.0932 -0.019079,-0.43793 -0.072664,-0.62016 -0.06049,-0.5646 -0.1204435,-0.54997 -0.095445,0.0232 -0.2580359,0.10604 -0.381771,0.19433 -0.1268494,0.0905 -0.1549757,0.13161 -0.07949,0.11614 0.2040916,-0.0418 0.2569975,-0.0206 0.096396,0.0389 -0.2906788,0.10746 -0.273043,0.0934 -0.3027718,0.24193 -0.018829,0.0941 -0.1324672,0.0848 -0.156973,-0.0128 -0.00658,-0.0261 -0.018006,-0.0476 -0.0254,-0.0476 -0.049678,0 -0.2522836,0.0854 -0.2522836,0.10635 0,0.0297 0.1517077,0.46357 0.3355562,0.9598 0.06993,0.18874 0.1271454,0.36402 0.1271454,0.38949 0,0.0547 -0.037858,0.14454 -0.060934,0.14454 -0.00891,0 -0.016183,0.21149 -0.016183,0.46999 0,0.39423 0.00465,0.47384 0.028919,0.49398 0.015904,0.0132 0.028918,0.0469 0.028918,0.0751 0,0.0564 -0.1179465,0.2738 -0.2547372,0.46948 l -0.088369,0.12641 0.066139,0.0641 c 0.080845,0.0784 0.2347514,0.29929 0.3034861,0.43566 0.027939,0.0554 0.094129,0.16714 0.147091,0.24828 0.077294,0.1184 0.096295,0.16368 0.096295,0.22944 0,0.0602 -0.010197,0.089 -0.038558,0.10838 -0.036927,0.0253 -0.037771,0.0371 -0.019844,0.27708 0.030128,0.40334 0.02535,0.94239 -0.00907,1.02478 -0.037686,0.0902 -0.037228,0.0931 0.01875,0.11859 0.093641,0.0427 0.081594,0.089 -0.1113124,0.42789 -0.374484,0.65794 -0.5933646,1.07123 -0.6976469,1.31732 -0.1111337,0.26226 -0.1542899,0.32143 -0.2344547,0.32143 -0.039145,0 -0.045888,0.008 -0.04124,0.051 0.00658,0.0604 -0.010305,0.0674 -0.1004866,0.0419 z m 0.0091,-0.31936 c 0.05118,-0.20392 0.80579,-1.56357 0.9879065,-1.78001 l 0.049321,-0.0586 -0.030599,-0.13869 c -0.023048,-0.10448 -0.032608,-0.2868 -0.038765,-0.73913 -0.00451,-0.33024 -0.00128,-0.61161 0.00718,-0.62527 0.00992,-0.016 -0.013744,-0.0594 -0.066826,-0.12254 -0.045194,-0.0538 -0.119634,-0.16432 -0.1654133,-0.24573 -0.1252511,-0.22277 -0.2501497,-0.37892 -0.4378748,-0.54746 -0.093192,-0.0837 -0.2301698,-0.20993 -0.304395,-0.28059 -0.074225,-0.0707 -0.1513867,-0.13151 -0.1714702,-0.13528 -0.07971,-0.0149 -0.1053678,-0.09 -0.1275638,-0.37314 -0.04656,-0.59398 -0.056299,-0.78561 -0.05695,-1.12065 -7.101e-4,-0.36469 0.0092,-0.40998 0.083424,-0.38149 0.048549,0.0186 0.065832,0.1202 0.098111,0.57673 0.016497,0.23329 0.044872,0.5738 0.063058,0.75671 l 0.033066,0.33257 h 0.052986 c 0.040096,0 0.104642,0.0469 0.2653985,0.19279 0.1168287,0.10604 0.2202986,0.19279 0.2299318,0.19279 0.00963,0 0.023019,-0.0144 0.029748,-0.0319 0.00672,-0.0175 0.068507,-0.11587 0.1372856,-0.21852 l 0.1250509,-0.18666 -0.031722,-0.0851 c -0.0248,-0.0666 -0.034568,-0.1924 -0.044772,-0.57674 l -0.01305,-0.49163 -0.1405421,-0.37594 c -0.077298,-0.20677 -0.1828668,-0.50082 -0.2345971,-0.65344 -0.05173,-0.15263 -0.09712,-0.28057 -0.1008633,-0.2843 -0.00372,-0.004 -0.049492,0.005 -0.1016615,0.0211 -0.052174,0.0154 -0.3247603,0.0805 -0.6057551,0.14476 -0.2809959,0.0643 -0.6094533,0.13949 -0.7299047,0.16718 l -0.2190036,0.0504 -0.043907,0.0993 c -0.024149,0.0547 -0.07161,0.18906 -0.1054671,0.29878 l -0.061563,0.19948 0.021439,0.43629 c 0.011792,0.23996 0.029605,0.51871 0.039581,0.61944 0.00998,0.10073 0.018378,0.30678 0.018664,0.45789 l 5.463e-4,0.27472 h 0.066261 c 0.1103942,0 0.4951365,0.27796 0.841013,0.60761 0.1282856,0.12226 0.3171498,0.2863 0.4196987,0.36454 0.2663031,0.20317 0.4852809,0.43568 0.4852809,0.51527 0,0.0529 -0.057529,0.0977 -0.1088074,0.0848 -0.054104,-0.0136 -0.053089,-0.0305 -0.016726,0.27852 0.057565,0.4893 0.106158,0.97615 0.1062038,1.06411 4.36e-5,0.068 -0.011556,0.10397 -0.046531,0.1446 l -0.046581,0.054 -0.050035,-0.047 c -0.027517,-0.0259 -0.058052,-0.0778 -0.067856,-0.11568 -0.02706,-0.10434 -0.1017716,-1.11831 -0.1009485,-1.37008 l 7.151e-4,-0.22171 -0.061255,-0.0648 c -0.066855,-0.0708 -0.4094046,-0.34971 -0.4293809,-0.34971 -0.0068,0 -0.042184,0.0261 -0.078623,0.0582 -0.036442,0.032 -0.1445524,0.0975 -0.2402492,0.14556 -0.1306144,0.0655 -0.5807139,0.32698 -0.6299856,0.36584 -0.00329,0.003 0.01619,0.14662 0.043306,0.32005 0.027116,0.17343 0.068199,0.47583 0.091298,0.672 0.040475,0.34373 0.040761,0.35925 0.0079,0.42815 l -0.034096,0.0715 0.1705069,0.2106 c 0.093778,0.11583 0.4004115,0.48128 0.6814073,0.81209 0.2809949,0.33082 0.5195321,0.61381 0.5300813,0.62886 0.028153,0.0402 0.042505,0.0338 0.057401,-0.0255 z m -0.6163998,-7.45697 c 0.371126,-0.091 0.6882298,-0.16932 0.7046757,-0.17406 0.025172,-0.007 0.00968,-0.0796 -0.097844,-0.45678 -0.070258,-0.24649 -0.1431859,-0.49588 -0.1620588,-0.5542 -0.042363,-0.13091 -0.2434192,-0.5591 -0.2625259,-0.5591 -0.037235,0 -0.7083323,1.36533 -0.8649628,1.75974 -0.069715,0.17555 -0.069443,0.17386 -0.025801,0.16033 0.018557,-0.005 0.3373869,-0.0849 0.7085131,-0.17593 z m 2.6887297,0.0763 c 0.044715,-0.0485 0.1031538,-0.13593 0.1298628,-0.19427 0.040639,-0.0888 0.047339,-0.12776 0.041054,-0.23894 -0.00892,-0.15798 -0.046217,-0.21995 -0.1705835,-0.2835 -0.07566,-0.0387 -0.2309579,-0.0606 -0.2309579,-0.0326 0,0.025 0.098199,0.75454 0.106891,0.79415 0.013508,0.0616 0.031771,0.055 0.1237323,-0.0448 z m -0.7122751,6.94238 c -0.02726,-0.0329 -0.020838,-0.19395 0.022196,-0.55695 0.021581,-0.18207 0.020874,-0.19161 -0.016468,-0.22172 -0.081659,-0.0659 -0.06855,-0.16018 0.030127,-0.21682 0.047361,-0.0272 0.05743,-0.0514 0.088221,-0.21185 0.059253,-0.30883 0.1798089,-0.76451 0.2345091,-0.8864 0.058774,-0.13097 0.1044302,-0.17197 0.1914772,-0.17197 0.1177433,0 0.2009201,0.15509 0.2920961,0.54463 0.0506,0.21619 0.05527,0.22654 0.1022398,0.22654 0.065389,0 0.134915,0.0507 0.134915,0.0984 0,0.0374 -0.067248,0.11951 -0.1103799,0.13495 -0.015045,0.005 -0.010484,0.0593 0.015303,0.18118 0.075764,0.35783 0.083653,0.48468 0.040574,0.65234 -0.038751,0.15083 -0.052396,0.18224 -0.071073,0.16356 -0.019958,-0.0199 -0.1037818,-0.37936 -0.1453284,-0.6231 -0.023491,-0.13785 -0.044915,-0.25327 -0.047597,-0.25648 -0.00272,-0.003 -0.064424,0.0325 -0.1371984,0.0794 -0.072777,0.047 -0.1816281,0.1129 -0.2418909,0.14674 -0.1262281,0.0708 -0.1127741,0.0333 -0.1788607,0.49837 -0.026037,0.18319 -0.058624,0.3567 -0.072427,0.38558 -0.029062,0.0609 -0.093975,0.0776 -0.1304363,0.0336 z m 0.6018637,-1.34563 c 0.087619,-0.061 0.1086851,-0.0855 0.1014805,-0.11777 -0.060054,-0.26941 -0.1284991,-0.54155 -0.1424829,-0.56654 -0.013236,-0.0237 -0.027903,0.004 -0.060326,0.1123 -0.038536,0.12915 -0.1726873,0.70037 -0.1729941,0.73663 -1.637e-4,0.0163 0.1056295,-0.0472 0.2743209,-0.16462 z m 2.4375054,0.93715 c -0.027818,-0.0278 -0.010405,-0.23803 0.035369,-0.42698 0.064151,-0.26479 0.065082,-0.25776 -0.02914,-0.22074 -0.060855,0.0239 -0.087537,0.0258 -0.1253156,0.008 -0.05306,-0.0241 -0.064259,-0.0909 -0.023899,-0.14255 0.020609,-0.0264 0.1465461,-0.10924 0.2730428,-0.17972 0.026122,-0.0146 0.058881,-0.10618 0.1199759,-0.33555 0.046224,-0.17354 0.1043159,-0.35973 0.1290934,-0.41376 0.082855,-0.18067 0.2121636,-0.19294 0.3020767,-0.0286 l 0.048198,0.0881 0.1060353,-0.0846 c 0.125187,-0.0999 0.305093,-0.20447 0.425068,-0.24708 0.1244597,-0.0442 0.5971444,-0.13973 0.6076124,-0.12279 0.0085,0.0137 -0.1590547,0.10628 -0.6856534,0.37853 -0.195014,0.10083 -0.394398,0.20835 -0.4187983,0.22585 -0.00236,0.002 0.00694,0.0633 0.02071,0.13696 l 0.025,0.13387 0.06605,-0.005 0.06605,-0.005 -0.05922,0.0483 c -0.05688,0.0463 -0.05865,0.0522 -0.04479,0.14964 0.02107,0.14797 0.01981,0.4233 -0.0029,0.62098 -0.01925,0.16807 -0.02773,0.20056 -0.04723,0.18105 -0.01314,-0.0132 -0.1443239,-0.65228 -0.1445612,-0.70432 -1.095e-4,-0.0232 -0.00873,-0.0475 -0.01915,-0.054 -0.019357,-0.0119 -0.2265544,0.11917 -0.2630044,0.16647 -0.011077,0.0144 -0.043928,0.11927 -0.073013,0.23312 -0.063866,0.25001 -0.1619514,0.55517 -0.1890916,0.58828 -0.021203,0.0259 -0.077532,0.0323 -0.098577,0.0112 z m 0.5924279,-1.20275 c -0.00279,-0.0926 -0.048062,-0.35056 -0.059489,-0.33914 -0.00908,0.009 -0.1203721,0.43167 -0.1212287,0.46031 -2.181e-4,0.008 0.040789,-0.002 0.091155,-0.0203 0.085689,-0.0322 0.091447,-0.0387 0.08956,-0.10088 z m -1.4398613,0.84906 c -0.09616,-0.0757 -0.1325044,-0.26801 -0.179382,-0.94946 -0.032308,-0.4697 -0.028776,-0.51553 0.039731,-0.51553 0.072637,0 0.1252389,0.16354 0.1643277,0.5109 0.03632,0.32277 0.079065,0.59677 0.095758,0.61384 0.019022,0.0195 0.1473627,-0.30424 0.2319118,-0.58492 0.033538,-0.11133 0.078146,-0.25773 0.099126,-0.32533 0.043292,-0.13948 0.2208045,-0.50367 0.2454989,-0.50367 0.017556,0 0.041211,0.22958 0.041211,0.39993 0,0.34879 -0.2645356,1.11151 -0.4545777,1.31064 -0.067198,0.0705 -0.08995,0.0824 -0.1564538,0.0824 -0.048791,0 -0.096223,-0.0145 -0.1271518,-0.0389 z m 2.3876906,-0.0207 c -0.0054,-0.015 -0.04098,-0.10974 -0.07911,-0.21048 -0.09126,-0.24106 -0.135551,-0.43532 -0.1714287,-0.75189 -0.03206,-0.28285 -0.027,-0.33931 0.03204,-0.35805 0.05684,-0.018 0.107509,0.0434 0.12865,0.15576 0.08137,0.43277 0.152323,1.13927 0.117884,1.17371 -0.0115,0.0115 -0.02188,0.008 -0.02804,-0.009 z m -3.1430354,-0.0776 c -0.047011,-0.0413 -0.076882,-0.0907 -0.096125,-0.15906 -0.069436,-0.24663 -0.087442,-1.01641 -0.026737,-1.14307 0.029219,-0.061 0.080908,-0.0797 0.1231731,-0.0446 0.021768,0.0181 0.027996,0.0774 0.027996,0.26681 0,0.28759 0.045052,0.71128 0.087766,0.82541 0.033895,0.0906 0.06192,0.1046 0.2842542,0.14225 0.077802,0.0132 0.1281873,0.0307 0.1240319,0.0432 -0.011084,0.0332 -0.2852983,0.12687 -0.3748867,0.12798 -0.064259,7.1e-4 -0.095542,-0.0115 -0.1494701,-0.0589 z m 4.2579171,-0.25341 c -0.0749,-0.0769 -0.167091,-0.18315 -0.204875,-0.23617 -0.08799,-0.12347 -0.265521,-0.28674 -0.264654,-0.2434 3.28e-4,0.0172 0.01269,0.12677 0.02742,0.2434 0.03108,0.24601 0.01752,0.30432 -0.07327,0.31474 -0.06926,0.008 -0.114073,-0.0325 -0.163548,-0.14747 -0.115436,-0.26834 -0.131282,-0.79822 -0.03372,-1.1278 0.104765,-0.35394 0.230566,-0.51433 0.403418,-0.51433 0.09403,0 0.175354,0.0965 0.206237,0.24466 0.04319,0.20723 -0.01527,0.61723 -0.116232,0.81512 l -0.04063,0.0796 0.121875,0.13164 c 0.133262,0.14393 0.198042,0.25073 0.272733,0.4496 0.03356,0.0893 0.04145,0.13014 0.02516,0.13014 -0.01304,0 -0.08499,-0.0629 -0.159894,-0.13978 z m -0.42903,-0.68441 c 0.106082,-0.24435 0.171526,-0.70628 0.112671,-0.79527 -0.02809,-0.0425 -0.08329,0.0355 -0.143365,0.20244 -0.07276,0.2022 -0.08879,0.29307 -0.05645,0.31991 0.01913,0.0159 0.02675,0.0709 0.02675,0.19335 0,0.0941 0.0047,0.17115 0.01032,0.17115 0.0057,0 0.02821,-0.0412 0.05008,-0.0916 z m 1.091002,0.60368 c -0.106834,-0.14191 -0.120815,-0.19787 -0.187271,-0.74963 -0.03808,-0.31619 -0.03894,-0.34731 -0.01069,-0.39041 0.02118,-0.0323 0.04856,-0.0469 0.08836,-0.0469 0.0855,0 0.124286,0.0799 0.162384,0.33434 0.01771,0.11832 0.04854,0.31307 0.06851,0.43277 0.03881,0.23273 0.03424,0.54475 -0.008,0.543 -0.01168,-4.9e-4 -0.06268,-0.0559 -0.113341,-0.12322 z m 0.680303,-0.18157 c -0.111392,-0.0597 -0.15445,-0.16767 -0.154211,-0.38658 2.19e-4,-0.20245 0.06348,-0.55382 0.132308,-0.73481 0.120914,-0.31801 0.311235,-0.48125 0.426588,-0.3659 0.06042,0.0604 0.05917,0.0629 -0.103706,0.2086 -0.103785,0.0928 -0.204956,0.4919 -0.204467,0.80659 1.64e-4,0.10437 0.008,0.20186 0.0173,0.21662 0.02229,0.0352 0.163259,0.0574 0.374416,0.0588 0.123212,7.1e-4 0.168173,0.007 0.16261,0.0242 -0.0042,0.0127 -0.102554,0.0643 -0.218499,0.11459 -0.233642,0.10142 -0.327734,0.11403 -0.43234,0.0579 z m 1.281104,-0.14481 c -0.10707,-0.0498 -0.185136,-0.13143 -0.246338,-0.2574 -0.02206,-0.0454 -0.04616,-0.0825 -0.05357,-0.0825 -0.0075,0 -0.05123,0.0216 -0.09737,0.0479 -0.09649,0.0551 -0.173992,0.0616 -0.217483,0.0181 -0.0685,-0.0685 -0.02184,-0.14945 0.148616,-0.25782 l 0.118312,-0.0752 0.0021,-0.20256 0.0021,-0.20257 -0.05853,0.0302 c -0.03219,0.0167 -0.108349,0.0777 -0.169241,0.13587 -0.09189,0.0876 -0.118933,0.10354 -0.159057,0.0935 -0.06508,-0.0163 -0.09451,-0.077 -0.07855,-0.16215 0.02807,-0.14963 0.373106,-0.41454 0.708928,-0.54427 0.259216,-0.10014 0.381526,-0.12069 0.64079,-0.10765 0.308664,0.0155 0.436582,0.0325 0.428478,0.0567 -0.0069,0.0207 -0.493947,0.19692 -0.835599,0.30229 -0.288851,0.0891 -0.285227,0.0851 -0.270309,0.29528 0.0068,0.0956 0.01547,0.17692 0.0193,0.18075 0.0039,0.004 0.148955,-0.0413 0.322497,-0.1002 0.173543,-0.0589 0.328427,-0.10467 0.344187,-0.10164 0.0352,0.007 -0.06288,0.0884 -0.365218,0.30407 -0.121941,0.087 -0.224473,0.16554 -0.227848,0.17461 -0.01215,0.0326 0.06023,0.15472 0.114628,0.19345 0.08219,0.0585 0.150228,0.0735 0.478603,0.10554 0.163848,0.016 0.301936,0.033 0.306862,0.038 0.02064,0.0206 -0.03105,0.0382 -0.291603,0.0989 -0.328695,0.0767 -0.432579,0.0801 -0.564582,0.0186 z m -2.276998,-1.34106 c -0.121373,-0.074 -0.128744,-0.27595 -0.01339,-0.36669 0.104094,-0.0819 0.181123,-0.0431 0.238143,0.11979 0.04486,0.1282 0.03626,0.19059 -0.0339,0.24579 -0.06102,0.0479 -0.113461,0.0483 -0.190858,0.002 z m 0.157577,-0.19582 c 0.02511,-0.0791 -0.06843,-0.10817 -0.108309,-0.0337 -0.01841,0.0344 -0.01648,0.0461 0.01084,0.0662 0.04088,0.0299 0.08202,0.0162 0.09747,-0.0325 z m -2.6439577,-2.18722 c -0.043428,-0.0663 -0.030056,-0.17803 0.070337,-0.58785 0.044386,-0.1812 0.077576,-0.33244 0.073754,-0.3361 -0.00379,-0.004 -0.072017,0.005 -0.1515439,0.0194 -0.1670867,0.0301 -0.3068822,0.0346 -0.3438943,0.011 -0.014181,-0.009 -0.022854,-0.037 -0.019279,-0.0623 0.00737,-0.0522 0.042999,-0.066 0.3505526,-0.13612 0.1043974,-0.0238 0.200667,-0.0522 0.2139336,-0.0634 0.013265,-0.0111 0.043871,-0.0981 0.068006,-0.19359 0.06794,-0.26862 0.204425,-0.67287 0.280779,-0.83162 0.038,-0.079 0.10614,-0.18231 0.151419,-0.22957 0.07406,-0.0773 0.09122,-0.0859 0.170906,-0.0859 0.112295,0 0.195363,0.0653 0.25669,0.20181 0.02398,0.0533 0.08555,0.26923 0.136835,0.4797 l 0.09324,0.38268 0.07712,-0.0111 c 0.04241,-0.006 0.231391,-0.0404 0.419948,-0.0762 0.188557,-0.0357 0.346893,-0.0585 0.351857,-0.0505 0.0096,0.0154 -0.15216,0.0767 -0.554913,0.20998 -0.135197,0.0448 -0.245812,0.0854 -0.245812,0.0903 0,0.005 0.03482,0.14741 0.07738,0.31668 0.04256,0.16927 0.082,0.37058 0.08763,0.44736 0.0093,0.12695 0.0044,0.15348 -0.05363,0.29236 -0.03514,0.084 -0.07342,0.15593 -0.08507,0.15981 -0.01332,0.004 -0.0263,-0.0452 -0.03499,-0.13346 -0.0076,-0.0773 -0.04652,-0.25331 -0.08651,-0.39116 -0.03998,-0.13786 -0.09229,-0.33088 -0.116226,-0.42897 -0.02394,-0.0981 -0.04906,-0.17816 -0.05582,-0.17795 -0.0068,2.1e-4 -0.163422,0.0423 -0.348122,0.0935 l -0.33582,0.0932 -0.102428,0.37398 c -0.05633,0.20569 -0.111982,0.42604 -0.1236589,0.48967 -0.011678,0.0636 -0.034868,0.13085 -0.051545,0.14941 -0.045716,0.0509 -0.1329277,0.0432 -0.1711168,-0.0151 z m 0.818176,-1.30903 c 0.141288,-0.0359 0.261672,-0.07 0.267519,-0.0759 0.01448,-0.0145 -0.16303,-0.7426 -0.195405,-0.80154 -0.02565,-0.0467 -0.02635,-0.0461 -0.08366,0.0675 -0.03179,0.063 -0.0845,0.19031 -0.1171497,0.28288 -0.05558,0.15758 -0.176395,0.55596 -0.176395,0.58164 0,0.0198 0.04059,0.0127 0.3050877,-0.0546 z m -1.5258809,0.9771 c -0.1117295,-0.22518 -0.1516199,-0.33101 -0.2452536,-0.65068 -0.043485,-0.14845 -0.1261536,-0.42801 -0.1837135,-0.62124 -0.1147033,-0.38508 -0.1245453,-0.45604 -0.067491,-0.48657 0.054813,-0.0294 0.094509,-0.005 0.1400151,0.0836 0.043478,0.0852 0.3576974,1.02534 0.4228945,1.26526 0.04606,0.1695 0.073652,0.57838 0.03903,0.57838 -0.011978,0 -0.059439,-0.076 -0.105478,-0.1687 z m -0.7417652,-2.12801 c -0.1086387,-0.0538 -0.179691,-0.14899 -0.1918798,-0.25712 -0.00558,-0.0494 -0.025036,-0.0997 -0.045817,-0.11855 -0.047826,-0.0433 -0.045923,-0.13551 0.00451,-0.21953 0.094271,-0.15701 0.1875878,-0.21757 0.3352909,-0.21757 0.1170089,0 0.194643,0.0371 0.2790991,0.13325 0.088442,0.10074 0.1222126,0.19112 0.1215498,0.32532 -0.00157,0.31276 -0.242923,0.48281 -0.5027573,0.3542 z m 0.2348995,-0.24577 c 0.017999,-0.0198 0.0377,-0.0668 0.043779,-0.10426 0.02136,-0.13161 -0.1153828,-0.28952 -0.2215393,-0.25582 -0.03007,0.01 -0.040961,0.0361 -0.051294,0.1252 -0.01456,0.12544 3.282e-4,0.16876 0.079463,0.23099 0.0631,0.0496 0.1071541,0.0507 0.1495924,0.004 z"
       id="path858"
       inkscape:connector-curvature="0" />
    <flowRoot
       xml:space="preserve"
       id="flowRoot7228"
       style="font-style:normal;font-variant:normal;font-weight:normal;font-stretch:normal;font-size:40px;line-height:1.25;font-family:'Segoe UI Historic';-inkscape-font-specification:'Segoe UI Historic';letter-spacing:0px;word-spacing:0px;fill:#000000;fill-opacity:1;stroke:none"
       transform="matrix(0.26458333,0,0,0.26458333,0,168.49998)"><flowRegion
         id="flowRegion7230"><rect
           id="rect7232"
           width="224.28572"
           height="60.714287"
           x="5.7142859"
           y="92.097855" /></flowRegion><flowPara
         id="flowPara7234" /></flowRoot>    <flowRoot
       xml:space="preserve"
       id="flowRoot7236"
       style="fill:black;fill-opacity:1;stroke:none;font-family:'Segoe UI Historic';font-style:normal;font-weight:normal;font-size:40px;line-height:1.25;letter-spacing:0px;word-spacing:0px;-inkscape-font-specification:'Segoe UI Historic';font-stretch:normal;font-variant:normal"><flowRegion
         id="flowRegion7238"><rect
           id="rect7240"
           width="356.42856"
           height="270.71429"
           x="100.71429"
           y="71.383568" /></flowRegion><flowPara
         id="flowPara7242"></flowPara></flowRoot>    <rect
       style="opacity:0.98000004;fill:#fcaebb;fill-opacity:1;stroke:none;stroke-width:0.75894666;stroke-miterlimit:4;stroke-dasharray:none;stroke-opacity:1;paint-order:stroke fill markers"
       id="rect7491"
       width="15.24"
       height="9.5249996"
       x="0"
       y="175.56871" />
    <g
       aria-label="Tutorial
lol"
       transform="matrix(0.09660026,0,0,0.09660026,-21.018109,169.16345)"
       style="font-style:normal;font-variant:normal;font-weight:normal;font-stretch:normal;font-size:40px;line-height:1.25;font-family:'Segoe UI Historic';-inkscape-font-specification:'Segoe UI Historic';text-align:center;letter-spacing:0px;word-spacing:0px;text-anchor:middle;fill:#0e6977;fill-opacity:1;stroke:none"
       id="flowRoot7244">
      <path
         d="M 235.84473,107.48135 V 79.746974 h -8.35938 v -0.195313 l 1.11328,-2.34375 h 19.51172 v 0.195313 l -1.11328,2.34375 h -7.24609 v 25.976566 l -3.71094,1.75781 z"
         style="font-style:normal;font-variant:normal;font-weight:normal;font-stretch:normal;line-height:0;font-family:'Nova Cut';-inkscape-font-specification:'Nova Cut';text-align:center;text-anchor:middle;fill:#0e6977;fill-opacity:1"
         id="path7493" />
      <path
         d="m 255.7666,107.48135 q -3.6914,-0.25391 -5.68359,-1.875 -2.42188,-1.97266 -2.42188,-5.800782 V 86.192286 l 3.71094,-1.757812 h 0.19531 v 15.371094 q 0,2.441402 1.26953,3.515622 1.26954,1.07422 2.92969,1.07422 1.83594,0 3.04688,-1.1914 1.15234,-1.13282 1.15234,-3.398442 V 86.192286 l 3.71094,-1.757812 h 0.19531 v 16.777346 z"
         style="font-style:normal;font-variant:normal;font-weight:normal;font-stretch:normal;line-height:0;font-family:'Nova Cut';-inkscape-font-specification:'Nova Cut';text-align:center;text-anchor:middle;fill:#0e6977;fill-opacity:1"
         id="path7495" />
      <path
         d="M 272.21191,107.48135 V 87.754786 h -5.27343 v -0.195312 l 1.11328,-2.34375 h 4.16015 v -7.03125 l 3.71094,-1.757813 h 0.19531 v 8.789063 h 5.27344 v 0.195312 l -1.11328,2.34375 h -4.16016 v 17.968754 l -3.71093,1.75781 z"
         style="font-style:normal;font-variant:normal;font-weight:normal;font-stretch:normal;line-height:0;font-family:'Nova Cut';-inkscape-font-specification:'Nova Cut';text-align:center;text-anchor:middle;fill:#0e6977;fill-opacity:1"
         id="path7497" />
      <path
         d="m 292.56348,107.48135 q -3.69141,-0.25391 -5.6836,-1.875 -2.42187,-1.99219 -2.42187,-5.800782 v -9.101563 l 8.10547,-6.269531 q 3.6914,0.253906 5.68359,1.875 2.42188,1.972656 2.42188,5.800781 v 9.101565 z m 0,-3.08594 q 1.85547,0 3.02734,-1.1914 1.17188,-1.19141 1.17188,-3.398442 v -7.695313 q 0,-2.441406 -1.28907,-3.515625 -1.26953,-1.074219 -2.91015,-1.074219 -1.85547,0 -3.02735,1.191407 -1.17187,1.191406 -1.17187,3.398437 v 7.695313 q 0,2.441402 1.26953,3.515622 1.26953,1.07422 2.92969,1.07422 z"
         style="font-style:normal;font-variant:normal;font-weight:normal;font-stretch:normal;line-height:0;font-family:'Nova Cut';-inkscape-font-specification:'Nova Cut';text-align:center;text-anchor:middle;fill:#0e6977;fill-opacity:1"
         id="path7499" />
      <path
         d="M 306.56738,107.48135 V 90.704005 l 8.10547,-6.269531 q 3.69141,0.253906 5.6836,1.875 2.42187,1.972656 2.42187,5.800781 l -3.71094,1.757813 h -0.19531 v -1.757813 q 0,-2.441406 -1.28906,-3.515625 -1.26953,-1.074219 -2.92969,-1.074219 -1.69922,0 -3.02734,1.191407 -1.15235,1.035156 -1.15235,3.398437 v 13.613285 l -3.71093,1.75781 z"
         style="font-style:normal;font-variant:normal;font-weight:normal;font-stretch:normal;line-height:0;font-family:'Nova Cut';-inkscape-font-specification:'Nova Cut';text-align:center;text-anchor:middle;fill:#0e6977;fill-opacity:1"
         id="path7501" />
      <path
         d="M 327.7002,107.48135 V 86.192286 l 3.71093,-1.757812 h 0.19532 v 21.289066 l -3.71094,1.75781 z m 3.90625,-31.054689 v 4.453125 l -3.71094,1.757813 h -0.19531 v -4.453125 l 3.71093,-1.757813 z"
         style="font-style:normal;font-variant:normal;font-weight:normal;font-stretch:normal;line-height:0;font-family:'Nova Cut';-inkscape-font-specification:'Nova Cut';text-align:center;text-anchor:middle;fill:#0e6977;fill-opacity:1"
         id="path7503" />
      <path
         d="m 345.57129,104.39541 q 2.05078,0 3.04687,-1.1914 1.15235,-1.38672 1.15235,-3.457036 0,-2.382813 -1.26953,-3.515625 -1.21094,-1.074219 -2.92969,-1.074219 -2.05078,0 -3.04688,1.191406 -1.15234,1.386719 -1.15234,3.398438 0,2.441406 1.26953,3.574216 1.23047,1.07422 2.92969,1.07422 z m 0,3.08594 q -3.63281,-0.25391 -5.68359,-1.875 -2.42188,-1.91406 -2.42188,-5.800782 v -1.464844 l 8.10547,-6.269531 q 2.46094,0.175781 4.19922,0.976562 v -0.9375 q 0,-2.363281 -1.26953,-3.515625 -1.21094,-1.074219 -2.92969,-1.074219 -1.91406,0 -3.04688,1.191407 l -1.07421,-1.09375 4.12109,-3.183594 q 3.69141,0.253906 5.68359,1.875 2.42188,1.972656 2.42188,5.800781 v 13.613285 l -3.71094,1.75781 h -0.19531 v -3.26172 z"
         style="font-style:normal;font-variant:normal;font-weight:normal;font-stretch:normal;line-height:0;font-family:'Nova Cut';-inkscape-font-specification:'Nova Cut';text-align:center;text-anchor:middle;fill:#0e6977;fill-opacity:1"
         id="path7505" />
      <path
         d="M 360.5127,107.48135 V 78.184474 l 3.71093,-1.757813 h 0.19532 v 29.296879 l -3.71094,1.75781 z"
         style="font-style:normal;font-variant:normal;font-weight:normal;font-stretch:normal;line-height:0;font-family:'Nova Cut';-inkscape-font-specification:'Nova Cut';text-align:center;text-anchor:middle;fill:#0e6977;fill-opacity:1"
         id="path7507" />
      <path
         d="m 278.98926,157.48135 v -29.29688 l 3.71094,-1.75781 h 0.19531 v 29.29688 l -3.71094,1.75781 z"
         style="font-style:normal;font-variant:normal;font-weight:normal;font-stretch:normal;line-height:0;font-family:'Nova Cut';-inkscape-font-specification:'Nova Cut';text-align:center;text-anchor:middle;fill:#0e6977;fill-opacity:1"
         id="path7509" />
      <path
         d="m 297.83691,157.48135 q -3.6914,-0.25391 -5.68359,-1.875 -2.42187,-1.99219 -2.42187,-5.80078 v -9.10156 l 8.10546,-6.26954 q 3.69141,0.25391 5.6836,1.875 2.42187,1.97266 2.42187,5.80079 v 9.10156 z m 0,-3.08594 q 1.85547,0 3.02735,-1.1914 1.17187,-1.19141 1.17187,-3.39844 v -7.69531 q 0,-2.44141 -1.28906,-3.51563 -1.26953,-1.07422 -2.91016,-1.07422 -1.85546,0 -3.02734,1.19141 -1.17187,1.1914 -1.17187,3.39844 v 7.69531 q 0,2.4414 1.26953,3.51562 1.26953,1.07422 2.92968,1.07422 z"
         style="font-style:normal;font-variant:normal;font-weight:normal;font-stretch:normal;line-height:0;font-family:'Nova Cut';-inkscape-font-specification:'Nova Cut';text-align:center;text-anchor:middle;fill:#0e6977;fill-opacity:1"
         id="path7511" />
      <path
         d="m 312.81738,157.48135 v -29.29688 l 3.71094,-1.75781 h 0.19531 v 29.29688 l -3.71093,1.75781 z"
         style="font-style:normal;font-variant:normal;font-weight:normal;font-stretch:normal;line-height:0;font-family:'Nova Cut';-inkscape-font-specification:'Nova Cut';text-align:center;text-anchor:middle;fill:#0e6977;fill-opacity:1"
         id="path7513" />
    </g>
    <g
       aria-label="Pitch"
       transform="matrix(0.09660026,0,0,0.09660026,-21.200178,223.22686)"
       style="font-style:normal;font-variant:normal;font-weight:normal;font-stretch:normal;font-size:40px;line-height:1.25;font-family:'Segoe UI Historic';-inkscape-font-specification:'Segoe UI Historic';text-align:center;letter-spacing:0px;word-spacing:0px;text-anchor:middle;display:inline;fill:#0e6977;fill-opacity:1;stroke:none;stroke-width:5.1759696;stroke-miterlimit:4;stroke-dasharray:none;stroke-opacity:1;paint-order:stroke fill markers;enable-background:new"
       id="flowRoot7244-2">
      <path
         d="m 256.68457,95.372845 h 5.56641 q 2.55859,0 4.55078,-2.011719 1.40625,-1.425781 1.40625,-5.605469 0,-3.984375 -1.40625,-5.605469 -1.73828,-2.011718 -4.55078,-2.011718 h -5.56641 z m -3.90625,12.890625 V 78.966595 l 2.07031,-0.976563 h 7.40235 q 4.45312,0 7.22656,2.832031 2.63672,2.695313 2.63672,6.933594 0,4.257813 -2.63672,6.933594 -2.79297,2.832031 -7.22656,2.832031 h -5.56641 v 8.984378 l -3.71094,1.75781 z"
         style="font-style:normal;font-variant:normal;font-weight:normal;font-stretch:normal;font-family:'Nova Slim';-inkscape-font-specification:'Nova Slim';text-align:center;text-anchor:middle;fill:#0e6977;fill-opacity:1;stroke:none;stroke-width:5.1759696;stroke-miterlimit:4;stroke-dasharray:none;stroke-opacity:1;paint-order:stroke fill markers"
         id="path7538"
         inkscape:connector-curvature="0" />
      <path
         d="m 279.24316,81.681438 q -0.68359,-0.703125 -0.68359,-1.679687 0,-0.996094 0.68359,-1.699219 0.6836,-0.703125 1.66016,-0.703125 0.97656,0 1.66016,0.703125 0.68359,0.703125 0.68359,1.699219 0,0.976562 -0.68359,1.679687 -0.6836,0.703125 -1.66016,0.703125 -0.97656,0 -1.66016,-0.703125 z M 278.9502,108.26347 V 86.974407 l 3.71093,-1.757812 h 0.19532 v 21.289065 l -3.71094,1.75781 z"
         style="font-style:normal;font-variant:normal;font-weight:normal;font-stretch:normal;font-family:'Nova Slim';-inkscape-font-specification:'Nova Slim';text-align:center;text-anchor:middle;fill:#0e6977;fill-opacity:1;stroke:none;stroke-width:5.1759696;stroke-miterlimit:4;stroke-dasharray:none;stroke-opacity:1;paint-order:stroke fill markers"
         id="path7540"
         inkscape:connector-curvature="0" />
      <path
         d="M 292.27051,108.26347 V 88.146282 h -5.01953 V 87.95097 l 0.91797,-1.953125 h 4.10156 v -7.03125 l 3.71094,-1.757813 h 0.19531 v 8.789063 h 5.01953 v 0.195312 l -0.91797,1.953125 h -4.10156 v 18.359378 l -3.71094,1.75781 z"
         style="font-style:normal;font-variant:normal;font-weight:normal;font-stretch:normal;font-family:'Nova Slim';-inkscape-font-specification:'Nova Slim';text-align:center;text-anchor:middle;fill:#0e6977;fill-opacity:1;stroke:none;stroke-width:5.1759696;stroke-miterlimit:4;stroke-dasharray:none;stroke-opacity:1;paint-order:stroke fill markers"
         id="path7542"
         inkscape:connector-curvature="0" />
      <path
         d="m 320.8252,98.829876 v 1.230464 q 0,3.22266 -2.42188,5.60547 -2.26562,2.20703 -5.68359,2.20703 -3.37891,0 -5.6836,-2.20703 -2.42187,-2.34375 -2.42187,-5.60547 v -6.64062 q 0,-3.242188 2.42187,-5.605469 2.26563,-2.207031 5.6836,-2.207031 3.33984,0 5.68359,2.207031 2.42188,2.285156 2.42188,5.039062 v 0.03906 l -3.71094,1.757812 h -0.19531 v -2.558593 q 0,-2.226563 -1.21094,-3.28125 -1.23047,-1.054688 -2.98828,-1.054688 -1.75782,0 -2.98828,1.054688 -1.21094,1.015625 -1.21094,3.28125 v 9.296878 q 0,2.24609 1.21094,3.30078 1.23046,1.03516 2.98828,1.03516 1.75781,0 2.96875,-1.05469 1.23047,-1.05469 1.23047,-4.08203 l 3.71093,-1.757817 z"
         style="font-style:normal;font-variant:normal;font-weight:normal;font-stretch:normal;font-family:'Nova Slim';-inkscape-font-specification:'Nova Slim';text-align:center;text-anchor:middle;fill:#0e6977;fill-opacity:1;stroke:none;stroke-width:5.1759696;stroke-miterlimit:4;stroke-dasharray:none;stroke-opacity:1;paint-order:stroke fill markers"
         id="path7544"
         inkscape:connector-curvature="0" />
      <path
         d="M 327.7002,108.26347 V 78.966595 l 3.71093,-1.757813 h 0.19532 v 10.058594 q 1.46484,-1.660156 4.19921,-1.660156 3.37891,0 5.6836,2.207031 2.42187,2.34375 2.42187,5.605469 v 13.08594 l -3.71093,1.75781 h -0.19532 V 92.091595 q 0,-2.246094 -1.23047,-3.28125 -1.21093,-1.054688 -2.96875,-1.054688 -1.75781,0 -2.98828,1.054688 -1.21093,1.035156 -1.21093,3.28125 v 14.414065 l -3.71094,1.75781 z"
         style="font-style:normal;font-variant:normal;font-weight:normal;font-stretch:normal;font-family:'Nova Slim';-inkscape-font-specification:'Nova Slim';text-align:center;text-anchor:middle;fill:#0e6977;fill-opacity:1;stroke:none;stroke-width:5.1759696;stroke-miterlimit:4;stroke-dasharray:none;stroke-opacity:1;paint-order:stroke fill markers"
         id="path7546"
         inkscape:connector-curvature="0" />
    </g>
    <rect
       style="opacity:0.98000004;fill:#0e6977;fill-opacity:1;stroke:none;stroke-width:0.40796328;stroke-miterlimit:4;stroke-dasharray:none;stroke-opacity:1"
       id="rect7339"
       width="13.607142"
       height="18.955507"
       x="0.81642866"
       y="257.48257"
       ry="4.1772318"
       rx="4.4979167" />
    <g
       aria-label="1V/Oct"
       transform="matrix(0.09660026,0,0,0.09660026,-21.148293,242.79789)"
       style="font-style:normal;font-variant:normal;font-weight:normal;font-stretch:normal;font-size:40px;line-height:1.25;font-family:'Segoe UI Historic';-inkscape-font-specification:'Segoe UI Historic';text-align:center;letter-spacing:0px;word-spacing:0px;text-anchor:middle;display:inline;fill:#0e6977;fill-opacity:1;stroke:none;stroke-width:5.1759696;stroke-miterlimit:4;stroke-dasharray:none;stroke-opacity:1;paint-order:stroke fill markers;enable-background:new"
       id="flowRoot7244-2-3">
      <path
         d="M 242.54395,108.26347 V 81.427532 l -4.76563,2.617188 v -2.792969 l 8.47656,-4.042969 h 0.19532 v 29.296878 l -3.71094,1.75781 z"
         style="font-style:normal;font-variant:normal;font-weight:normal;font-stretch:normal;font-family:'Nova Slim';-inkscape-font-specification:'Nova Slim';text-align:center;text-anchor:middle;fill:#0e6977;fill-opacity:1;stroke:none;stroke-width:5.1759696;stroke-miterlimit:4;stroke-dasharray:none;stroke-opacity:1;paint-order:stroke fill markers"
         id="path7525" />
      <path
         d="m 261.43066,108.26347 -9.96093,-29.453125 3.3789,-1.601563 h 0.19532 l 8.63281,25.703128 8.57422,-25.703128 h 0.19531 l 2.08984,0.996094 -9.53125,28.457034 -3.3789,1.60156 z"
         style="font-style:normal;font-variant:normal;font-weight:normal;font-stretch:normal;font-family:'Nova Slim';-inkscape-font-specification:'Nova Slim';text-align:center;text-anchor:middle;fill:#0e6977;fill-opacity:1;stroke:none;stroke-width:5.1759696;stroke-miterlimit:4;stroke-dasharray:none;stroke-opacity:1;paint-order:stroke fill markers"
         id="path7527" />
      <path
         d="m 277.60254,110.21659 -2.75391,-1.32812 15.66407,-33.632813 h 0.19531 l 2.77344,1.328125 -15.6836,33.632808 z"
         style="font-style:normal;font-variant:normal;font-weight:normal;font-stretch:normal;font-family:'Nova Slim';-inkscape-font-specification:'Nova Slim';text-align:center;text-anchor:middle;fill:#0e6977;fill-opacity:1;stroke:none;stroke-width:5.1759696;stroke-miterlimit:4;stroke-dasharray:none;stroke-opacity:1;paint-order:stroke fill markers"
         id="path7529" />
      <path
         d="m 301.52832,99.474407 q 0,2.617183 1.40625,4.238283 1.73828,2.01172 4.55078,2.01172 2.8125,0 4.55078,-2.01172 1.40625,-1.6211 1.40625,-4.238283 V 85.997845 q 0,-2.617188 -1.40625,-4.238282 -1.73828,-2.011718 -4.55078,-2.011718 -2.8125,0 -4.55078,2.011718 -1.40625,1.621094 -1.40625,4.238282 z M 297.62207,98.10722 V 87.365032 q 0,-4.238281 2.63672,-6.933594 2.77344,-2.832031 7.22656,-2.832031 4.45313,0 7.22656,2.832031 2.63672,2.675782 2.63672,6.933594 V 98.10722 q 0,4.23828 -2.63672,6.93359 -2.77343,2.83203 -7.22656,2.83203 -4.45312,0 -7.22656,-2.83203 -2.63672,-2.69531 -2.63672,-6.93359 z"
         style="font-style:normal;font-variant:normal;font-weight:normal;font-stretch:normal;font-family:'Nova Slim';-inkscape-font-specification:'Nova Slim';text-align:center;text-anchor:middle;fill:#0e6977;fill-opacity:1;stroke:none;stroke-width:5.1759696;stroke-miterlimit:4;stroke-dasharray:none;stroke-opacity:1;paint-order:stroke fill markers"
         id="path7531" />
      <path
         d="m 340.43457,98.829876 v 1.230464 q 0,3.22266 -2.42187,5.60547 -2.26563,2.20703 -5.6836,2.20703 -3.3789,0 -5.68359,-2.20703 -2.42188,-2.34375 -2.42188,-5.60547 v -6.64062 q 0,-3.242188 2.42188,-5.605469 2.26562,-2.207031 5.68359,-2.207031 3.33985,0 5.6836,2.207031 2.42187,2.285156 2.42187,5.039062 v 0.03906 l -3.71094,1.757812 h -0.19531 v -2.558593 q 0,-2.226563 -1.21094,-3.28125 -1.23047,-1.054688 -2.98828,-1.054688 -1.75781,0 -2.98828,1.054688 -1.21094,1.015625 -1.21094,3.28125 v 9.296875 q 0,2.24609 1.21094,3.30078 1.23047,1.03516 2.98828,1.03516 1.75781,0 2.96875,-1.05469 1.23047,-1.05469 1.23047,-4.08203 l 3.71094,-1.757814 z"
         style="font-style:normal;font-variant:normal;font-weight:normal;font-stretch:normal;font-family:'Nova Slim';-inkscape-font-specification:'Nova Slim';text-align:center;text-anchor:middle;fill:#0e6977;fill-opacity:1;stroke:none;stroke-width:5.1759696;stroke-miterlimit:4;stroke-dasharray:none;stroke-opacity:1;paint-order:stroke fill markers"
         id="path7533" />
      <path
         d="M 348.91113,108.26347 V 88.146282 H 343.8916 V 87.95097 l 0.91797,-1.953125 h 4.10156 v -7.03125 l 3.71094,-1.757813 h 0.19531 v 8.789063 h 5.01953 v 0.195312 l -0.91796,1.953125 h -4.10157 v 18.359378 l -3.71093,1.75781 z"
         style="font-style:normal;font-variant:normal;font-weight:normal;font-stretch:normal;font-family:'Nova Slim';-inkscape-font-specification:'Nova Slim';text-align:center;text-anchor:middle;fill:#0e6977;fill-opacity:1;stroke:none;stroke-width:5.1759696;stroke-miterlimit:4;stroke-dasharray:none;stroke-opacity:1;paint-order:stroke fill markers"
         id="path7535" />
    </g>
    <g
       aria-label="Sine"
       transform="matrix(0.09660026,0,0,0.09660026,-21.160557,263.03851)"
       style="font-style:normal;font-variant:normal;font-weight:normal;font-stretch:normal;font-size:40px;line-height:1.25;font-family:'Segoe UI Historic';-inkscape-font-specification:'Segoe UI Historic';text-align:center;letter-spacing:0px;word-spacing:0px;text-anchor:middle;display:inline;fill:#ffcc00;fill-opacity:1;stroke:none;stroke-width:5.1759696;stroke-miterlimit:4;stroke-dasharray:none;stroke-opacity:1;paint-order:stroke fill markers;enable-background:new"
       id="flowRoot7244-2-3-9">
      <path
         d="m 260.04395,98.497845 3.71093,-1.757813 h 0.19532 v 2.96875 q 0,2.382808 1.40625,4.003908 1.73828,2.01172 4.55078,2.01172 2.79297,0 4.55078,-2.01172 1.38672,-1.58203 1.38672,-5.410158 0,-3.007812 -1.13282,-4.335937 -1.5625,-1.835938 -4.80468,-1.835938 -3.78907,0 -6.15235,-2.109375 -1.95312,-1.757812 -1.95312,-4.960937 0,-3.613282 2.42187,-5.585938 2.30469,-1.875 5.6836,-1.875 3.3789,0 5.68359,1.875 2.42188,1.972656 2.42188,5.410156 l -3.71094,1.757813 h -0.19531 v -2.5 q 0,-2.226563 -1.26954,-3.320313 -1.23046,-1.074218 -2.92968,-1.074218 -1.89453,0 -3.04688,1.191406 -1.15234,1.191406 -1.15234,4.140625 0,2.617187 0.8789,3.59375 1.17188,1.308594 3.32032,1.308594 4.92187,0 7.32422,2.207031 2.51953,2.324219 2.51953,6.074219 0,3.98437 -2.61719,6.77734 -2.67578,2.83203 -7.22656,2.83203 -4.55078,0 -7.22657,-2.83203 -2.63671,-2.79297 -2.63671,-6.542965 z"
         style="font-style:normal;font-variant:normal;font-weight:normal;font-stretch:normal;font-family:'Nova Slim';-inkscape-font-specification:'Nova Slim';text-align:center;text-anchor:middle;fill:#ffcc00;fill-opacity:1;stroke:none;stroke-width:5.1759696;stroke-miterlimit:4;stroke-dasharray:none;stroke-opacity:1;paint-order:stroke fill markers"
         id="path7516" />
      <path
         d="m 287.05566,81.681438 q -0.68359,-0.703125 -0.68359,-1.679687 0,-0.996094 0.68359,-1.699219 0.6836,-0.703125 1.66016,-0.703125 0.97656,0 1.66016,0.703125 0.68359,0.703125 0.68359,1.699219 0,0.976562 -0.68359,1.679687 -0.6836,0.703125 -1.66016,0.703125 -0.97656,0 -1.66016,-0.703125 z M 286.7627,108.26347 V 86.974407 l 3.71093,-1.757812 h 0.19532 v 21.289065 l -3.71094,1.75781 z"
         style="font-style:normal;font-variant:normal;font-weight:normal;font-stretch:normal;font-family:'Nova Slim';-inkscape-font-specification:'Nova Slim';text-align:center;text-anchor:middle;fill:#ffcc00;fill-opacity:1;stroke:none;stroke-width:5.1759696;stroke-miterlimit:4;stroke-dasharray:none;stroke-opacity:1;paint-order:stroke fill markers"
         id="path7518" />
      <path
         d="M 297.50488,108.26347 V 93.41972 q 0,-3.222657 2.42188,-5.605469 2.26562,-2.207031 5.68359,-2.207031 3.37891,0 5.6836,2.207031 2.42187,2.34375 2.42187,5.605469 v 13.08594 l -3.71094,1.75781 h -0.19531 V 92.091595 q 0,-2.246094 -1.23047,-3.28125 -1.21094,-1.054688 -2.96875,-1.054688 -1.75781,0 -2.98828,1.054688 -1.21094,1.035156 -1.21094,3.28125 v 14.414065 l -3.71093,1.75781 z"
         style="font-style:normal;font-variant:normal;font-weight:normal;font-stretch:normal;font-family:'Nova Slim';-inkscape-font-specification:'Nova Slim';text-align:center;text-anchor:middle;fill:#ffcc00;fill-opacity:1;stroke:none;stroke-width:5.1759696;stroke-miterlimit:4;stroke-dasharray:none;stroke-opacity:1;paint-order:stroke fill markers"
         id="path7520" />
      <path
         d="m 335.8252,98.829876 v 1.230464 q 0,3.22266 -2.42188,5.60547 -2.26562,2.20703 -5.68359,2.20703 -3.37891,0 -5.6836,-2.20703 -2.42187,-2.34375 -2.42187,-5.60547 v -6.64062 q 0,-3.242188 2.42187,-5.605469 2.26563,-2.207031 5.6836,-2.207031 3.33984,0 5.68359,2.207031 2.42188,2.285156 2.42188,5.039062 l -12.1875,9.843747 q 0.27343,1.26953 1.09375,1.97266 1.23046,1.05469 2.98828,1.05469 1.75781,0 2.96875,-1.05469 1.23047,-1.05469 1.23047,-4.08203 l 3.71093,-1.757814 z m -12.30469,0.859375 8.39844,-6.816406 v -0.78125 q 0,-2.226563 -1.21094,-3.28125 -1.23047,-1.054688 -2.98828,-1.054688 -1.73828,0 -2.98828,1.054688 -1.21094,1.015625 -1.21094,3.28125 z"
         style="font-style:normal;font-variant:normal;font-weight:normal;font-stretch:normal;font-family:'Nova Slim';-inkscape-font-specification:'Nova Slim';text-align:center;text-anchor:middle;fill:#ffcc00;fill-opacity:1;stroke:none;stroke-width:5.1759696;stroke-miterlimit:4;stroke-dasharray:none;stroke-opacity:1;paint-order:stroke fill markers"
         id="path7522" />
    </g>
  </g>
  <g
     inkscape:groupmode="layer"
     id="layer2"
     inkscape:label="components"
     style="display:none">
    <circle
       style="display:inline;opacity:1;vector-effect:none;fill:#ff0000;fill-opacity:1;fill-rule:evenodd;stroke:none;stroke-width:1;stroke-linecap:butt;stroke-linejoin:miter;stroke-miterlimit:4;stroke-dasharray:none;stroke-dashoffset:0;stroke-opacity:1;paint-order:normal"
       id="path4954"
       cx="7.6199999"
       cy="54.000763"
       r="4"
       inkscape:label="pitch" />
    <circle
       r="4"
       cy="74.832047"
       cx="7.6199999"
       id="circle4956"
       style="display:inline;opacity:1;vector-effect:none;fill:#00ff00;fill-opacity:1;fill-rule:evenodd;stroke:none;stroke-width:1;stroke-linecap:butt;stroke-linejoin:miter;stroke-miterlimit:4;stroke-dasharray:none;stroke-dashoffset:0;stroke-opacity:1;paint-order:normal"
       inkscape:label="pitch" />
    <circle
       style="display:inline;opacity:1;vector-effect:none;fill:#0000ff;fill-opacity:1;fill-rule:evenodd;stroke:none;stroke-width:1;stroke-linecap:butt;stroke-linejoin:miter;stroke-miterlimit:4;stroke-dasharray:none;stroke-dashoffset:0;stroke-opacity:1;paint-order:normal"
       id="circle4958"
       cx="7.6199999"
       cy="95.483429"
       r="4"
       inkscape:label="sine" />
    <circle
       inkscape:label="blink"
       r="4"
       cy="41.684872"
       cx="7.6199999"
       id="circle66"
       style="display:inline;opacity:1;vector-effect:none;fill:#ff00ff;fill-opacity:1;fill-rule:evenodd;stroke:none;stroke-width:1;stroke-linecap:butt;stroke-linejoin:miter;stroke-miterlimit:4;stroke-dasharray:none;stroke-dashoffset:0;stroke-opacity:1;paint-order:normal" />
  </g>
</svg>
