<?xml version="1.0" encoding="UTF-8" standalone="no"?>
<!-- Created with Inkscape (http://www.inkscape.org/) -->

<svg
   xmlns:osb="http://www.openswatchbook.org/uri/2009/osb"
   xmlns:dc="http://purl.org/dc/elements/1.1/"
   xmlns:cc="http://creativecommons.org/ns#"
   xmlns:rdf="http://www.w3.org/1999/02/22-rdf-syntax-ns#"
   xmlns:svg="http://www.w3.org/2000/svg"
   xmlns="http://www.w3.org/2000/svg"
   xmlns:xlink="http://www.w3.org/1999/xlink"
   xmlns:sodipodi="http://sodipodi.sourceforge.net/DTD/sodipodi-0.dtd"
   xmlns:inkscape="http://www.inkscape.org/namespaces/inkscape"
   width="15.24mm"
   height="128.5mm"
   viewBox="0 0 15.240001 128.50002"
   version="1.1"
   id="svg8"
   inkscape:version="0.92.4 (5da689c313, 2019-01-14)"
   sodipodi:docname="Splirge-Src.svg"
   style="enable-background:new">
  <defs
     id="defs2">
    <linearGradient
       id="Input"
       osb:paint="solid">
      <stop
         style="stop-color:#00ff00;stop-opacity:1;"
         offset="0"
         id="stop916" />
    </linearGradient>
    <linearGradient
       id="Output"
       osb:paint="solid">
      <stop
         style="stop-color:#0000ff;stop-opacity:1;"
         offset="0"
         id="stop910" />
    </linearGradient>
    <linearGradient
       inkscape:collect="always"
       id="linearGradient7667">
      <stop
         style="stop-color:#76bfbe;stop-opacity:1;"
         offset="0"
         id="stop7663" />
      <stop
         style="stop-color:#469ca9;stop-opacity:1"
         offset="1"
         id="stop7665" />
    </linearGradient>
    <linearGradient
       id="YellowYay"
       osb:paint="solid"
       gradientTransform="translate(3.2334699,-0.87182918)">
      <stop
         style="stop-color:#ffcc03;stop-opacity:1;"
         offset="0"
         id="stop7643" />
    </linearGradient>
    <linearGradient
       id="DarkestBlue"
       osb:paint="solid">
      <stop
         style="stop-color:#083d45;stop-opacity:1;"
         offset="0"
         id="stop7635" />
    </linearGradient>
    <linearGradient
       id="DarkerBlue"
       osb:paint="solid"
       gradientTransform="matrix(0.26458333,0,0,0.26458333,-25.723399,-12.286311)">
      <stop
         style="stop-color:#0e6977;stop-opacity:1;"
         offset="0"
         id="stop7623" />
    </linearGradient>
    <linearGradient
       id="DarkBlue"
       osb:paint="solid">
      <stop
         style="stop-color:#469ca9;stop-opacity:1;"
         offset="0"
         id="stop7617" />
    </linearGradient>
    <linearGradient
       id="LightBlue"
       osb:paint="solid"
       gradientTransform="translate(-62.499998)">
      <stop
         style="stop-color:#76bfbe;stop-opacity:1;"
         offset="0"
         id="stop7611" />
    </linearGradient>
    <linearGradient
       id="LightestBlue"
       osb:paint="solid">
      <stop
         style="stop-color:#c1f0f2;stop-opacity:1;"
         offset="0"
         id="stop7605" />
    </linearGradient>
    <linearGradient
       id="Pink"
       osb:paint="solid"
       gradientTransform="matrix(1,0,0,0.8,1.9227906e-7,31.699973)">
      <stop
         style="stop-color:#fcaebb;stop-opacity:1;"
         offset="0"
         id="stop7599" />
    </linearGradient>
    <linearGradient
       inkscape:collect="always"
       xlink:href="#linearGradient7667"
       id="linearGradient7669"
       x1="2.4786801e-15"
       y1="273.23123"
       x2="3.8719248e-15"
       y2="295.98538"
       gradientUnits="userSpaceOnUse" />
    <linearGradient
       inkscape:collect="always"
       xlink:href="#YellowYay"
       id="linearGradient7673"
       gradientUnits="userSpaceOnUse"
       gradientTransform="translate(-24.31172,-15.735334)"
       x1="24.31172"
       y1="194.23528"
       x2="39.55172"
       y2="194.23528" />
  </defs>
  <sodipodi:namedview
     id="base"
     pagecolor="#ffffff"
     bordercolor="#666666"
     borderopacity="1.0"
     inkscape:pageopacity="0.0"
     inkscape:pageshadow="2"
     inkscape:zoom="1.2171683"
     inkscape:cx="13.086342"
     inkscape:cy="185.32314"
     inkscape:document-units="mm"
     inkscape:current-layer="layer2"
     showgrid="false"
     units="mm"
     inkscape:snap-bbox="true"
     inkscape:snap-page="true"
     inkscape:bbox-nodes="false"
     inkscape:snap-bbox-edge-midpoints="false"
     inkscape:window-width="1920"
     inkscape:window-height="1019"
     inkscape:window-x="-4"
     inkscape:window-y="427"
     inkscape:window-maximized="1"
     inkscape:snap-bbox-midpoints="true"
     inkscape:snap-nodes="false" />
  <metadata
     id="metadata5">
    <rdf:RDF>
      <cc:Work
         rdf:about="">
        <dc:format>image/svg+xml</dc:format>
        <dc:type
           rdf:resource="http://purl.org/dc/dcmitype/StillImage" />
        <dc:title />
      </cc:Work>
    </rdf:RDF>
  </metadata>
  <g
     inkscape:label="Background"
     inkscape:groupmode="layer"
     id="layer1"
     transform="translate(0,-168.49998)"
     style="display:inline">
    <rect
       style="display:inline;opacity:1;vector-effect:none;fill:url(#linearGradient7669);fill-opacity:1;fill-rule:evenodd;stroke:none;stroke-width:0.45916572;stroke-linecap:butt;stroke-linejoin:miter;stroke-miterlimit:4;stroke-dasharray:none;stroke-dashoffset:0;stroke-opacity:1;paint-order:normal"
       id="rect420"
       width="15.24"
       height="128.5"
       x="5.9211732e-17"
       y="168.49997" />
    <path
       style="display:inline;fill:#0e6977;fill-opacity:1;stroke-width:0.01927926"
       d="m 6.8890393,292.9941 c -0.04148,-0.0182 -0.02642,-0.0791 0.03166,-0.12797 0.205473,-0.1729 1.711607,-0.65712 3.067486,-0.9862 0.4462097,-0.1083 0.7364637,-0.16872 3.2556177,-0.67782 1.378251,-0.27854 1.619252,-0.32221 1.544921,-0.27992 -0.0159,0.009 -0.848771,0.21785 -1.850811,0.46401 -3.4297087,0.84252 -4.2046827,1.04885 -5.3244857,1.41758 -0.53517,0.17622 -0.673657,0.2126 -0.724385,0.19032 z m -3.1666201,-0.088 c -0.1051533,-0.0297 -0.1776551,-0.0959 -0.3502558,-0.3195 -0.087959,-0.11397 -0.3509012,-0.44145 -0.5843154,-0.72775 -0.5066574,-0.62145 -0.5947341,-0.74704 -0.581976,-0.82981 0.0068,-0.0441 -0.00229,-0.0696 -0.036691,-0.10267 -0.054369,-0.0523 -0.057744,-0.0716 -0.086292,-0.49419 -0.012178,-0.18026 -0.038587,-0.46222 -0.058681,-0.62658 -0.047153,-0.38564 -0.047468,-0.48573 -0.00164,-0.52719 0.043678,-0.0395 0.058988,-0.0399 0.1008047,-0.002 0.030313,0.0275 0.048892,0.0196 0.2232298,-0.0942 0.2525324,-0.16487 0.5606817,-0.33372 0.6385718,-0.34991 l 0.062822,-0.0131 -0.068736,-0.0803 c -0.1973476,-0.23075 -0.7263318,-0.62843 -0.8377128,-0.62978 -0.090112,-7.1e-4 -0.132282,-0.0231 -0.1796724,-0.0935 -0.046775,-0.0696 -0.047497,-0.0773 -0.063129,-0.67769 -0.0087,-0.33401 -0.016183,-0.71224 -0.016641,-0.8405 -6.013e-4,-0.16952 -0.00813,-0.24201 -0.027574,-0.26543 -0.037185,-0.0448 -0.018679,-0.21259 0.045674,-0.41412 0.028254,-0.0884 0.047575,-0.16464 0.042942,-0.16929 -0.00465,-0.004 -0.1273064,0.0136 -0.2726025,0.0403 -0.1452953,0.0268 -0.2920302,0.0488 -0.3260782,0.0488 -0.1550794,0 -0.1979975,-0.13174 -0.065954,-0.20244 0.060254,-0.0322 0.078338,-0.0346 0.1107825,-0.0144 0.032644,0.0204 0.088328,0.0118 0.3523531,-0.0543 l 0.3135791,-0.0785 0.1113389,-0.28313 c 0.1565017,-0.39797 0.2923428,-0.69015 0.6196281,-1.33277 0.3256102,-0.63932 0.3933158,-0.73368 0.5264152,-0.73368 0.06817,0 0.087946,0.0103 0.1432473,0.0753 0.03529,0.0415 0.1261314,0.19977 0.2018741,0.35184 0.1117007,0.22426 0.1675693,0.37299 0.2957709,0.78738 0.1909516,0.61722 0.2006412,0.64207 0.2457198,0.62972 0.018771,-0.005 0.1056452,-0.0198 0.1930539,-0.0327 0.1477232,-0.0216 0.161644,-0.0277 0.1974748,-0.0857 0.1087145,-0.1759 0.4196662,-0.39297 0.6894802,-0.48129 0.08735,-0.0286 0.09988,-0.0389 0.09156,-0.075 -0.0053,-0.023 -0.0118,-0.10138 -0.01444,-0.17415 -0.004,-0.11001 0.0011,-0.13602 0.03006,-0.15424 0.04814,-0.0303 0.08289,0.0201 0.109645,0.15896 0.01148,0.0595 0.02475,0.1267 0.02948,0.14915 0.0076,0.0361 0.0253,0.0419 0.153825,0.0501 0.361001,0.0232 0.571831,0.27382 0.543657,0.64634 -0.01444,0.19091 -0.0929,0.35603 -0.243908,0.51328 l -0.115584,0.12038 0.110312,0.0539 c 0.245224,0.11986 0.500118,0.34259 0.714547,0.62439 0.131134,0.17234 0.234413,0.3483 0.234413,0.39938 0,0.0196 0.01899,0.0946 0.04221,0.1667 0.02321,0.0721 0.03642,0.13685 0.02934,0.14393 -0.0071,0.007 -0.04126,-0.0102 -0.07595,-0.0384 -0.03469,-0.0283 -0.106455,-0.0846 -0.159472,-0.12524 -0.06151,-0.0471 -0.145242,-0.14644 -0.231352,-0.27432 -0.171682,-0.25498 -0.436468,-0.52472 -0.622394,-0.63405 -0.07723,-0.0454 -0.143299,-0.0792 -0.146828,-0.0751 -0.0035,0.004 0.0051,0.0855 0.01911,0.1809 0.03535,0.24024 0.07344,1.05068 0.05046,1.07367 -0.01131,0.0113 -0.02596,-0.0131 -0.03898,-0.0651 -0.06144,-0.24507 -0.17902,-0.82608 -0.208014,-1.02788 -0.02687,-0.18703 -0.04188,-0.24078 -0.0783,-0.28061 -0.05134,-0.0561 -0.05734,-0.11599 -0.01784,-0.17795 0.02375,-0.0373 0.02131,-0.0932 -0.01908,-0.43793 -0.07266,-0.62016 -0.06049,-0.5646 -0.120444,-0.54997 -0.09544,0.0232 -0.258036,0.10604 -0.381771,0.19433 -0.126849,0.0905 -0.154975,0.13161 -0.07949,0.11614 0.204092,-0.0418 0.256998,-0.0206 0.0964,0.0389 -0.2906784,0.10746 -0.2730426,0.0934 -0.3027714,0.24193 -0.018829,0.0941 -0.1324672,0.0848 -0.156973,-0.0128 -0.00658,-0.0261 -0.018006,-0.0476 -0.0254,-0.0476 -0.049678,0 -0.2522836,0.0854 -0.2522836,0.10635 0,0.0297 0.1517077,0.46357 0.3355562,0.9598 0.06993,0.18874 0.1271454,0.36402 0.1271454,0.38949 0,0.0547 -0.037858,0.14454 -0.060934,0.14454 -0.00891,0 -0.016183,0.21149 -0.016183,0.46999 0,0.39423 0.00465,0.47384 0.028919,0.49398 0.015904,0.0132 0.028918,0.0469 0.028918,0.0751 0,0.0564 -0.1179465,0.2738 -0.2547372,0.46948 l -0.088369,0.12641 0.066139,0.0641 c 0.080845,0.0784 0.2347514,0.29929 0.3034856,0.43566 0.02794,0.0554 0.09413,0.16714 0.147091,0.24828 0.07729,0.1184 0.09629,0.16368 0.09629,0.22944 0,0.0602 -0.0102,0.089 -0.03856,0.10838 -0.03693,0.0253 -0.03777,0.0371 -0.01984,0.27708 0.03013,0.40334 0.02535,0.94239 -0.0091,1.02478 -0.03769,0.0902 -0.03723,0.0931 0.01875,0.11859 0.09364,0.0427 0.08159,0.089 -0.111312,0.42789 -0.3744839,0.65794 -0.5933645,1.07123 -0.6976468,1.31732 -0.1111337,0.26226 -0.1542899,0.32143 -0.2344547,0.32143 -0.039145,0 -0.045888,0.008 -0.04124,0.051 0.00658,0.0604 -0.010305,0.0674 -0.1004866,0.0419 z m 0.0091,-0.31936 c 0.05118,-0.20392 0.80579,-1.56357 0.9879061,-1.78001 l 0.04932,-0.0586 -0.0306,-0.13869 c -0.02305,-0.10448 -0.032608,-0.2868 -0.038765,-0.73913 -0.00451,-0.33024 -0.00128,-0.61161 0.00718,-0.62527 0.00992,-0.016 -0.013744,-0.0594 -0.066826,-0.12254 -0.045194,-0.0538 -0.119634,-0.16432 -0.1654133,-0.24573 -0.1252511,-0.22277 -0.2501497,-0.37892 -0.4378748,-0.54746 -0.093192,-0.0837 -0.2301698,-0.20993 -0.304395,-0.28059 -0.074225,-0.0707 -0.1513867,-0.13151 -0.1714702,-0.13528 -0.07971,-0.0149 -0.1053678,-0.09 -0.1275638,-0.37314 -0.04656,-0.59398 -0.056299,-0.78561 -0.05695,-1.12065 -7.101e-4,-0.36469 0.0092,-0.40998 0.083424,-0.38149 0.048549,0.0186 0.065832,0.1202 0.098111,0.57673 0.016497,0.23329 0.044872,0.5738 0.063058,0.75671 l 0.033066,0.33257 h 0.052986 c 0.040096,0 0.104642,0.0469 0.2653985,0.19279 0.1168287,0.10604 0.2202986,0.19279 0.2299318,0.19279 0.00963,0 0.023019,-0.0144 0.029748,-0.0319 0.00672,-0.0175 0.068507,-0.11587 0.1372856,-0.21852 l 0.1250509,-0.18666 -0.031722,-0.0851 c -0.0248,-0.0666 -0.034568,-0.1924 -0.044772,-0.57674 L 4.404585,286.4992 4.2640429,286.12326 c -0.077298,-0.20677 -0.1828668,-0.50082 -0.2345971,-0.65344 -0.05173,-0.15263 -0.09712,-0.28057 -0.1008633,-0.2843 -0.00372,-0.004 -0.049492,0.005 -0.1016615,0.0211 -0.052174,0.0154 -0.3247603,0.0805 -0.6057551,0.14476 -0.2809959,0.0643 -0.6094533,0.13949 -0.7299047,0.16718 l -0.2190036,0.0504 -0.043907,0.0993 c -0.024149,0.0547 -0.07161,0.18906 -0.1054671,0.29878 l -0.061563,0.19948 0.021439,0.43629 c 0.011792,0.23996 0.029605,0.51871 0.039581,0.61944 0.00998,0.10073 0.018378,0.30678 0.018664,0.45789 l 5.463e-4,0.27472 h 0.066261 c 0.1103942,0 0.4951365,0.27796 0.841013,0.60761 0.1282856,0.12226 0.3171498,0.2863 0.4196987,0.36454 0.2663031,0.20317 0.4852809,0.43568 0.4852809,0.51527 0,0.0529 -0.057529,0.0977 -0.1088074,0.0848 -0.054104,-0.0136 -0.053089,-0.0305 -0.016726,0.27852 0.057565,0.4893 0.106158,0.97615 0.1062038,1.06411 4.36e-5,0.068 -0.011556,0.10397 -0.046531,0.1446 l -0.046581,0.054 -0.050035,-0.047 c -0.027517,-0.0259 -0.058052,-0.0778 -0.067856,-0.11568 -0.02706,-0.10434 -0.1017716,-1.11831 -0.1009485,-1.37008 l 7.151e-4,-0.22171 -0.061255,-0.0648 c -0.066855,-0.0708 -0.4094046,-0.34971 -0.4293809,-0.34971 -0.0068,0 -0.042184,0.0261 -0.078623,0.0582 -0.036442,0.032 -0.1445524,0.0975 -0.2402492,0.14556 -0.1306144,0.0655 -0.5807139,0.32698 -0.6299856,0.36584 -0.00329,0.003 0.01619,0.14662 0.043306,0.32005 0.027116,0.17343 0.068199,0.47583 0.091298,0.672 0.040475,0.34373 0.040761,0.35925 0.0079,0.42815 l -0.034096,0.0715 0.1705069,0.2106 c 0.093778,0.11583 0.4004115,0.48128 0.6814073,0.81209 0.2809949,0.33082 0.5195321,0.61381 0.5300813,0.62886 0.028153,0.0402 0.042505,0.0338 0.057401,-0.0255 z m -0.6163998,-7.45697 c 0.371126,-0.091 0.6882298,-0.16932 0.7046757,-0.17406 0.025172,-0.007 0.00968,-0.0796 -0.097844,-0.45678 -0.070258,-0.24649 -0.1431859,-0.49588 -0.1620588,-0.5542 -0.042363,-0.13091 -0.2434192,-0.5591 -0.2625259,-0.5591 -0.037235,0 -0.7083323,1.36533 -0.8649628,1.75974 -0.069715,0.17555 -0.069443,0.17386 -0.025801,0.16033 0.018557,-0.005 0.3373869,-0.0849 0.7085131,-0.17593 z m 2.6887299,0.0763 c 0.04472,-0.0485 0.103154,-0.13593 0.129863,-0.19427 0.04064,-0.0888 0.04734,-0.12776 0.04105,-0.23894 -0.0089,-0.15798 -0.04622,-0.21995 -0.170584,-0.2835 -0.07566,-0.0387 -0.230958,-0.0606 -0.230958,-0.0326 0,0.025 0.0982,0.75454 0.106891,0.79415 0.01351,0.0616 0.03177,0.055 0.123732,-0.0448 z m -0.712275,6.94238 c -0.02726,-0.0329 -0.02084,-0.19395 0.0222,-0.55695 0.02158,-0.18207 0.02087,-0.19161 -0.01647,-0.22172 -0.08166,-0.0659 -0.06855,-0.16018 0.03013,-0.21682 0.04736,-0.0272 0.05743,-0.0514 0.08822,-0.21185 0.05925,-0.30883 0.179809,-0.76451 0.234509,-0.8864 0.05877,-0.13097 0.10443,-0.17197 0.191477,-0.17197 0.117743,0 0.20092,0.15509 0.292096,0.54463 0.0506,0.21619 0.05527,0.22654 0.10224,0.22654 0.06539,0 0.134915,0.0507 0.134915,0.0984 0,0.0374 -0.06725,0.11951 -0.11038,0.13495 -0.01505,0.005 -0.01048,0.0593 0.0153,0.18118 0.07576,0.35783 0.08365,0.48468 0.04057,0.65234 -0.03875,0.15083 -0.0524,0.18224 -0.07107,0.16356 -0.01996,-0.0199 -0.103782,-0.37936 -0.145328,-0.6231 -0.02349,-0.13785 -0.04491,-0.25327 -0.0476,-0.25648 -0.0027,-0.003 -0.06442,0.0325 -0.137199,0.0794 -0.07278,0.047 -0.181628,0.1129 -0.241891,0.14674 -0.126228,0.0708 -0.112774,0.0333 -0.17886,0.49837 -0.02604,0.18319 -0.05862,0.3567 -0.07243,0.38558 -0.02906,0.0609 -0.09398,0.0776 -0.130437,0.0336 z m 0.601863,-1.34563 c 0.08762,-0.061 0.108685,-0.0855 0.101481,-0.11777 -0.06005,-0.26941 -0.128499,-0.54155 -0.142483,-0.56654 -0.01324,-0.0237 -0.0279,0.004 -0.06033,0.1123 -0.03854,0.12915 -0.172687,0.70037 -0.172994,0.73663 -1.64e-4,0.0163 0.105629,-0.0472 0.274321,-0.16462 z m 2.437506,0.93715 c -0.02782,-0.0278 -0.01041,-0.23803 0.03537,-0.42698 0.06415,-0.26479 0.06508,-0.25776 -0.02914,-0.22074 -0.06086,0.0239 -0.08754,0.0258 -0.125316,0.008 -0.05306,-0.0241 -0.06426,-0.0909 -0.0239,-0.14255 0.02061,-0.0264 0.146546,-0.10924 0.273043,-0.17972 0.02612,-0.0146 0.05888,-0.10618 0.119976,-0.33555 0.04622,-0.17354 0.104316,-0.35973 0.129093,-0.41376 0.08286,-0.18067 0.212164,-0.19294 0.302077,-0.0286 l 0.0482,0.0881 0.106035,-0.0846 c 0.125187,-0.0999 0.305093,-0.20447 0.425068,-0.24708 0.12446,-0.0442 0.597145,-0.13973 0.607613,-0.12279 0.0085,0.0137 -0.159055,0.10628 -0.685654,0.37853 -0.195014,0.10083 -0.394398,0.20835 -0.418798,0.22585 -0.0024,0.002 0.0069,0.0633 0.02071,0.13696 l 0.025,0.13387 0.06605,-0.005 0.06605,-0.005 -0.05922,0.0483 c -0.05688,0.0463 -0.05865,0.0522 -0.04479,0.14964 0.02107,0.14797 0.01981,0.4233 -0.0029,0.62098 -0.01925,0.16807 -0.02773,0.20056 -0.04723,0.18105 -0.01314,-0.0132 -0.144324,-0.65228 -0.144561,-0.70432 -1.1e-4,-0.0232 -0.0087,-0.0475 -0.01915,-0.054 -0.01936,-0.0119 -0.226555,0.11917 -0.263005,0.16647 -0.01108,0.0144 -0.04393,0.11927 -0.07301,0.23312 -0.06387,0.25001 -0.161951,0.55517 -0.189091,0.58828 -0.0212,0.0259 -0.07753,0.0323 -0.09858,0.0112 z m 0.592428,-1.20275 c -0.0028,-0.0926 -0.04806,-0.35056 -0.05949,-0.33914 -0.0091,0.009 -0.120372,0.43167 -0.121229,0.46031 -2.18e-4,0.008 0.04079,-0.002 0.09116,-0.0203 0.08569,-0.0322 0.09145,-0.0387 0.08956,-0.10088 z m -1.439862,0.84906 c -0.09616,-0.0757 -0.132504,-0.26801 -0.179382,-0.94946 -0.03231,-0.4697 -0.02878,-0.51553 0.03973,-0.51553 0.07264,0 0.125239,0.16354 0.164328,0.5109 0.03632,0.32277 0.07906,0.59677 0.09576,0.61384 0.01902,0.0195 0.147363,-0.30424 0.231912,-0.58492 0.03354,-0.11133 0.07815,-0.25773 0.09913,-0.32533 0.04329,-0.13948 0.220804,-0.50367 0.245499,-0.50367 0.01756,0 0.04121,0.22958 0.04121,0.39993 0,0.34879 -0.264536,1.11151 -0.454578,1.31064 -0.0672,0.0705 -0.08995,0.0824 -0.156454,0.0824 -0.04879,0 -0.09622,-0.0145 -0.127152,-0.0389 z m 2.387691,-0.0207 c -0.0054,-0.015 -0.04098,-0.10974 -0.07911,-0.21048 -0.09126,-0.24106 -0.135551,-0.43532 -0.171429,-0.75189 -0.03206,-0.28285 -0.027,-0.33931 0.03204,-0.35805 0.05684,-0.018 0.107509,0.0434 0.12865,0.15576 0.08137,0.43277 0.152323,1.13927 0.117884,1.17371 -0.0115,0.0115 -0.02188,0.008 -0.02804,-0.009 z m -3.143035,-0.0776 c -0.04701,-0.0413 -0.07688,-0.0907 -0.09613,-0.15906 -0.06944,-0.24663 -0.08744,-1.01641 -0.02674,-1.14307 0.02922,-0.061 0.08091,-0.0797 0.123173,-0.0446 0.02177,0.0181 0.028,0.0774 0.028,0.26681 0,0.28759 0.04505,0.71128 0.08777,0.82541 0.03389,0.0906 0.06192,0.1046 0.284254,0.14225 0.0778,0.0132 0.128187,0.0307 0.124032,0.0432 -0.01108,0.0332 -0.285299,0.12687 -0.374887,0.12798 -0.06426,7.1e-4 -0.09554,-0.0115 -0.14947,-0.0589 z m 4.2579167,-0.25341 c -0.0749,-0.0769 -0.167091,-0.18315 -0.204875,-0.23617 -0.08799,-0.12347 -0.265521,-0.28674 -0.264654,-0.2434 3.28e-4,0.0172 0.01269,0.12677 0.02742,0.2434 0.03108,0.24601 0.01752,0.30432 -0.07327,0.31474 -0.06926,0.008 -0.114073,-0.0325 -0.163548,-0.14747 -0.1154357,-0.26834 -0.1312817,-0.79822 -0.03372,-1.1278 0.104765,-0.35394 0.230566,-0.51433 0.403418,-0.51433 0.09403,0 0.175354,0.0965 0.206237,0.24466 0.04319,0.20723 -0.01527,0.61723 -0.116232,0.81512 l -0.04063,0.0796 0.121875,0.13164 c 0.133262,0.14393 0.198042,0.25073 0.272733,0.4496 0.03356,0.0893 0.04145,0.13014 0.02516,0.13014 -0.01304,0 -0.08499,-0.0629 -0.159894,-0.13978 z m -0.42903,-0.68441 c 0.106082,-0.24435 0.171526,-0.70628 0.112671,-0.79527 -0.02809,-0.0425 -0.08329,0.0355 -0.143365,0.20244 -0.07276,0.2022 -0.08879,0.29307 -0.05645,0.31991 0.01913,0.0159 0.02675,0.0709 0.02675,0.19335 0,0.0941 0.0047,0.17115 0.01032,0.17115 0.0057,0 0.02821,-0.0412 0.05008,-0.0916 z m 1.091002,0.60368 c -0.106834,-0.14191 -0.120815,-0.19787 -0.187271,-0.74963 -0.03808,-0.31619 -0.03894,-0.34731 -0.01069,-0.39041 0.02118,-0.0323 0.04856,-0.0469 0.08836,-0.0469 0.0855,0 0.124286,0.0799 0.162384,0.33434 0.01771,0.11832 0.04854,0.31307 0.06851,0.43277 0.03881,0.23273 0.03424,0.54475 -0.008,0.543 -0.01168,-4.9e-4 -0.06268,-0.0559 -0.113341,-0.12322 z m 0.680303,-0.18157 c -0.111392,-0.0597 -0.15445,-0.16767 -0.154211,-0.38658 2.19e-4,-0.20245 0.06348,-0.55382 0.132308,-0.73481 0.120914,-0.31801 0.311235,-0.48125 0.426588,-0.3659 0.06042,0.0604 0.05917,0.0629 -0.103706,0.2086 -0.103785,0.0928 -0.204956,0.4919 -0.204467,0.80659 1.64e-4,0.10437 0.008,0.20186 0.0173,0.21662 0.02229,0.0352 0.163259,0.0574 0.374416,0.0588 0.123212,7.1e-4 0.168173,0.007 0.16261,0.0242 -0.0042,0.0127 -0.102554,0.0643 -0.218499,0.11459 -0.233642,0.10142 -0.327734,0.11403 -0.43234,0.0579 z m 1.281104,-0.14481 c -0.10707,-0.0498 -0.185136,-0.13143 -0.246338,-0.2574 -0.02206,-0.0454 -0.04616,-0.0825 -0.05357,-0.0825 -0.0075,0 -0.05123,0.0216 -0.09737,0.0479 -0.09649,0.0551 -0.173992,0.0616 -0.217483,0.0181 -0.0685,-0.0685 -0.02184,-0.14945 0.148616,-0.25782 l 0.118312,-0.0752 0.0021,-0.20256 0.0021,-0.20257 -0.05853,0.0302 c -0.03219,0.0167 -0.108349,0.0777 -0.169241,0.13587 -0.09189,0.0876 -0.118933,0.10354 -0.159057,0.0935 -0.06508,-0.0163 -0.09451,-0.077 -0.07855,-0.16215 0.02807,-0.14963 0.373106,-0.41454 0.708928,-0.54427 0.259216,-0.10014 0.381526,-0.12069 0.64079,-0.10765 0.308664,0.0155 0.436582,0.0325 0.428478,0.0567 -0.0069,0.0207 -0.493947,0.19692 -0.835599,0.30229 -0.288851,0.0891 -0.285227,0.0851 -0.270309,0.29528 0.0068,0.0956 0.01547,0.17692 0.0193,0.18075 0.0039,0.004 0.148955,-0.0413 0.322497,-0.1002 0.173543,-0.0589 0.328427,-0.10467 0.344187,-0.10164 0.0352,0.007 -0.06288,0.0884 -0.365218,0.30407 -0.121941,0.087 -0.224473,0.16554 -0.227848,0.17461 -0.01215,0.0326 0.06023,0.15472 0.114628,0.19345 0.08219,0.0585 0.150228,0.0735 0.478603,0.10554 0.163848,0.016 0.301936,0.033 0.306862,0.038 0.02064,0.0206 -0.03105,0.0382 -0.291603,0.0989 -0.328695,0.0767 -0.432579,0.0801 -0.564582,0.0186 z m -2.276998,-1.34106 c -0.121373,-0.074 -0.128744,-0.27595 -0.01339,-0.36669 0.104094,-0.0819 0.181123,-0.0431 0.238143,0.11979 0.04486,0.1282 0.03626,0.19059 -0.0339,0.24579 -0.06102,0.0479 -0.113461,0.0483 -0.190858,0.002 z m 0.157577,-0.19582 c 0.02511,-0.0791 -0.06843,-0.10817 -0.108309,-0.0337 -0.01841,0.0344 -0.01648,0.0461 0.01084,0.0662 0.04088,0.0299 0.08202,0.0162 0.09747,-0.0325 z m -2.6439577,-2.18722 c -0.04343,-0.0663 -0.03006,-0.17803 0.07034,-0.58785 0.04439,-0.1812 0.07758,-0.33244 0.07375,-0.3361 -0.0038,-0.004 -0.07202,0.005 -0.151544,0.0194 -0.167087,0.0301 -0.306882,0.0346 -0.343894,0.011 -0.01418,-0.009 -0.02285,-0.037 -0.01928,-0.0623 0.0074,-0.0522 0.043,-0.066 0.350552,-0.13612 0.104398,-0.0238 0.200667,-0.0522 0.213934,-0.0634 0.01327,-0.0111 0.04387,-0.0981 0.06801,-0.19359 0.06794,-0.26862 0.204425,-0.67287 0.280779,-0.83162 0.038,-0.079 0.10614,-0.18231 0.151419,-0.22957 0.07406,-0.0773 0.09122,-0.0859 0.170906,-0.0859 0.112295,0 0.195363,0.0653 0.25669,0.20181 0.02398,0.0533 0.08555,0.26923 0.136835,0.4797 l 0.09324,0.38268 0.07712,-0.0111 c 0.04241,-0.006 0.231391,-0.0404 0.419948,-0.0762 0.188557,-0.0357 0.346893,-0.0585 0.351857,-0.0505 0.0096,0.0154 -0.15216,0.0767 -0.554913,0.20998 -0.135197,0.0448 -0.245812,0.0854 -0.245812,0.0903 0,0.005 0.03482,0.14741 0.07738,0.31668 0.04256,0.16927 0.082,0.37058 0.08763,0.44736 0.0093,0.12695 0.0044,0.15348 -0.05363,0.29236 -0.03514,0.084 -0.07342,0.15593 -0.08507,0.15981 -0.01332,0.004 -0.0263,-0.0452 -0.03499,-0.13346 -0.0076,-0.0773 -0.04652,-0.25331 -0.08651,-0.39116 -0.03998,-0.13786 -0.09229,-0.33088 -0.116226,-0.42897 -0.02394,-0.0981 -0.04906,-0.17816 -0.05582,-0.17795 -0.0068,2.1e-4 -0.163422,0.0423 -0.348122,0.0935 l -0.33582,0.0932 -0.102428,0.37398 c -0.05633,0.20569 -0.111982,0.42604 -0.123659,0.48967 -0.01168,0.0636 -0.03487,0.13085 -0.05154,0.14941 -0.04572,0.0509 -0.132928,0.0432 -0.171117,-0.0151 z m 0.818176,-1.30903 c 0.141288,-0.0359 0.261672,-0.07 0.267519,-0.0759 0.01448,-0.0145 -0.16303,-0.7426 -0.195405,-0.80154 -0.02565,-0.0467 -0.02635,-0.0461 -0.08366,0.0675 -0.03179,0.063 -0.0845,0.19031 -0.11715,0.28288 -0.05558,0.15758 -0.176395,0.55596 -0.176395,0.58164 0,0.0198 0.04059,0.0127 0.305088,-0.0546 z m -1.525881,0.9771 c -0.111729,-0.22518 -0.15162,-0.33101 -0.245254,-0.65068 -0.04349,-0.14845 -0.126153,-0.42801 -0.183713,-0.62124 -0.114703,-0.38508 -0.124545,-0.45604 -0.06749,-0.48657 0.05481,-0.0294 0.09451,-0.005 0.140015,0.0836 0.04348,0.0852 0.357697,1.02534 0.422895,1.26526 0.04606,0.1695 0.07365,0.57838 0.03903,0.57838 -0.01198,0 -0.05944,-0.076 -0.105478,-0.1687 z m -0.741765,-2.12801 c -0.108639,-0.0538 -0.179691,-0.14899 -0.19188,-0.25712 -0.0056,-0.0494 -0.02504,-0.0997 -0.04582,-0.11855 -0.04783,-0.0433 -0.04592,-0.13551 0.0045,-0.21953 0.09427,-0.15701 0.187588,-0.21757 0.335291,-0.21757 0.117009,0 0.194643,0.0371 0.279099,0.13325 0.08844,0.10074 0.122213,0.19112 0.12155,0.32532 -0.0016,0.31276 -0.242923,0.48281 -0.502757,0.3542 z m 0.234899,-0.24577 c 0.018,-0.0198 0.0377,-0.0668 0.04378,-0.10426 0.02136,-0.13161 -0.115382,-0.28952 -0.221539,-0.25582 -0.03007,0.01 -0.04096,0.0361 -0.05129,0.1252 -0.01456,0.12544 3.28e-4,0.16876 0.07946,0.23099 0.0631,0.0496 0.107154,0.0507 0.149592,0.004 z"
       id="path858"
       inkscape:connector-curvature="0" />
    <flowRoot
       xml:space="preserve"
       id="flowRoot7228"
       style="font-style:normal;font-variant:normal;font-weight:normal;font-stretch:normal;font-size:40px;line-height:1.25;font-family:'Segoe UI Historic';-inkscape-font-specification:'Segoe UI Historic';letter-spacing:0px;word-spacing:0px;fill:#000000;fill-opacity:1;stroke:none"
       transform="matrix(0.26458333,0,0,0.26458333,0,168.49998)"><flowRegion
         id="flowRegion7230"><rect
           id="rect7232"
           width="224.28572"
           height="60.714287"
           x="5.7142859"
           y="92.097855" /></flowRegion><flowPara
         id="flowPara7234" /></flowRoot>    <flowRoot
       xml:space="preserve"
       id="flowRoot7236"
       style="fill:black;fill-opacity:1;stroke:none;font-family:'Segoe UI Historic';font-style:normal;font-weight:normal;font-size:40px;line-height:1.25;letter-spacing:0px;word-spacing:0px;-inkscape-font-specification:'Segoe UI Historic';font-stretch:normal;font-variant:normal"><flowRegion
         id="flowRegion7238"><rect
           id="rect7240"
           width="356.42856"
           height="270.71429"
           x="100.71429"
           y="71.383568" /></flowRegion><flowPara
         id="flowPara7242" /></flowRoot>    <rect
       y="173.49998"
       x="0"
       height="10"
       width="15.24"
       id="rect7671"
       style="display:inline;opacity:0.98000004;fill:url(#linearGradient7673);fill-opacity:1;stroke:none;stroke-width:0.77764034;stroke-miterlimit:4;stroke-dasharray:none;stroke-opacity:1;paint-order:stroke fill markers;enable-background:new" />
    <rect
       style="opacity:0.98000004;fill:url(#Pink);fill-opacity:1;stroke:none;stroke-width:0.44721359;stroke-miterlimit:4;stroke-dasharray:none;stroke-opacity:1;paint-order:stroke fill markers"
       id="rect7491"
       width="15.24"
       height="8"
       x="3.1086242e-16"
       y="174.49998" />
    <text
       xml:space="preserve"
       style="font-style:normal;font-variant:normal;font-weight:normal;font-stretch:normal;font-size:4.23333311px;line-height:1.25;font-family:'Segoe UI Historic';-inkscape-font-specification:'Segoe UI Historic';letter-spacing:0px;word-spacing:0px;fill:url(#DarkerBlue);fill-opacity:1;stroke:none;stroke-width:0.26458332"
       x="7.6211195"
       y="179.89059"
       id="text7677"><tspan
         sodipodi:role="line"
         id="tspan7675"
         x="7.6211195"
         y="179.89059"
         style="font-style:normal;font-variant:normal;font-weight:normal;font-stretch:normal;font-size:4.58611107px;line-height:13.22916603px;font-family:'Francois One';-inkscape-font-specification:'Francois One';text-align:center;text-anchor:middle;fill:url(#DarkerBlue);stroke-width:0.26458332">Splirge</tspan></text>
  </g>
  <g
     inkscape:groupmode="layer"
     id="layer3"
     inkscape:label="Layer 2"
     style="display:inline">
    <rect
       style="display:inline;opacity:0.98000004;fill:#0e6977;fill-opacity:1;stroke:none;stroke-width:0.25402117;stroke-miterlimit:4;stroke-dasharray:none;stroke-opacity:1;enable-background:new"
       id="rect7339"
       width="10"
       height="10"
       x="2.6199999"
       y="102.5"
       ry="3"
       rx="3" />
    <rect
       rx="3"
       ry="3"
       y="26.5"
       x="2.6199999"
       height="37"
       width="10"
       id="rect937"
       style="display:inline;opacity:0.98000004;fill:#0e6977;fill-opacity:1;stroke:none;stroke-width:0.48861951;stroke-miterlimit:4;stroke-dasharray:none;stroke-opacity:1;enable-background:new" />
    <text
       xml:space="preserve"
       style="font-style:normal;font-variant:normal;font-weight:normal;font-stretch:normal;font-size:10.58333302px;line-height:1.25;font-family:Amiri;-inkscape-font-specification:Amiri;text-align:center;letter-spacing:0px;word-spacing:0px;text-anchor:middle;fill:url(#DarkerBlue);fill-opacity:1;stroke:none;stroke-width:0.26458332"
       x="-45.104645"
       y="2.3689644"
       id="text941"
       transform="rotate(-90)"><tspan
         sodipodi:role="line"
         x="-45.104645"
         y="2.3689644"
         style="font-style:normal;font-variant:normal;font-weight:normal;font-stretch:normal;font-size:2.46944451px;font-family:'Nova Flat';-inkscape-font-specification:'Nova Flat';fill:url(#DarkerBlue);stroke-width:0.26458332"
         id="tspan2388">Split</tspan></text>
    <text
       transform="rotate(-90)"
       id="text1612"
       y="2.3448489"
       x="-83.104645"
       style="font-style:normal;font-variant:normal;font-weight:normal;font-stretch:normal;font-size:10.58333302px;line-height:1.25;font-family:Amiri;-inkscape-font-specification:Amiri;text-align:center;letter-spacing:0px;word-spacing:0px;text-anchor:middle;fill:url(#DarkerBlue);fill-opacity:1;stroke:none;stroke-width:0.26458332"
       xml:space="preserve"><tspan
         style="font-style:normal;font-variant:normal;font-weight:normal;font-stretch:normal;font-size:2.46944451px;font-family:'Nova Flat';-inkscape-font-specification:'Nova Flat';fill:url(#DarkerBlue);stroke-width:0.26458332"
         y="2.3448489"
         x="-83.104645"
         sodipodi:role="line"
         id="tspan2384">Merge</tspan></text>
    <rect
       style="opacity:1;fill:url(#YellowYay);fill-opacity:1;stroke:none;stroke-width:0.5;stroke-miterlimit:4;stroke-dasharray:none;stroke-opacity:1;paint-order:stroke fill markers"
       id="rect2392"
       width="15.24"
       height="0.5"
       x="0"
       y="64.099998" />
  </g>
  <g
     inkscape:groupmode="layer"
     id="layer2"
     inkscape:label="components"
     style="display:none">
    <circle
       r="4"
       cy="31.5"
       cx="7.6199999"
       id="circle4956"
       style="display:inline;opacity:1;vector-effect:none;fill:#0000ff;fill-opacity:1;fill-rule:evenodd;stroke:none;stroke-width:1;stroke-linecap:butt;stroke-linejoin:miter;stroke-miterlimit:4;stroke-dasharray:none;stroke-dashoffset:0;stroke-opacity:1;paint-order:normal"
       inkscape:label="Split0" />
    <circle
       style="display:inline;opacity:1;vector-effect:none;fill:#00ff00;fill-opacity:1;fill-rule:evenodd;stroke:none;stroke-width:1;stroke-linecap:butt;stroke-linejoin:miter;stroke-miterlimit:4;stroke-dasharray:none;stroke-dashoffset:0;stroke-opacity:1;paint-order:normal"
       id="circle4958"
       cx="7.6199999"
       cy="20.5"
       r="4"
       inkscape:label="PolyIn" />
    <circle
       inkscape:label="Split1"
       style="display:inline;opacity:1;vector-effect:none;fill:#0000ff;fill-opacity:1;fill-rule:evenodd;stroke:none;stroke-width:1;stroke-linecap:butt;stroke-linejoin:miter;stroke-miterlimit:4;stroke-dasharray:none;stroke-dashoffset:0;stroke-opacity:1;paint-order:normal"
       id="circle864"
       cx="7.6199999"
       cy="40.5"
       r="4" />
    <circle
       r="4"
       cy="58.5"
       cx="7.6199999"
       id="circle866"
       style="display:inline;opacity:1;vector-effect:none;fill:#0000ff;fill-opacity:1;fill-rule:evenodd;stroke:none;stroke-width:1;stroke-linecap:butt;stroke-linejoin:miter;stroke-miterlimit:4;stroke-dasharray:none;stroke-dashoffset:0;stroke-opacity:1;paint-order:normal"
       inkscape:label="Split3" />
    <circle
       inkscape:label="Split2"
       style="display:inline;opacity:1;vector-effect:none;fill:#0000ff;fill-opacity:1;fill-rule:evenodd;stroke:none;stroke-width:1;stroke-linecap:butt;stroke-linejoin:miter;stroke-miterlimit:4;stroke-dasharray:none;stroke-dashoffset:0;stroke-opacity:1;paint-order:normal"
       id="circle868"
       cx="7.6200004"
       cy="49.5"
       r="4" />
    <circle
       inkscape:label="Merge3"
       r="4"
       cy="96.5"
       cx="7.6199994"
       id="circle879"
       style="display:inline;opacity:1;vector-effect:none;fill:#00ff00;fill-opacity:1;fill-rule:evenodd;stroke:none;stroke-width:1;stroke-linecap:butt;stroke-linejoin:miter;stroke-miterlimit:4;stroke-dasharray:none;stroke-dashoffset:0;stroke-opacity:1;paint-order:normal" />
    <circle
       style="display:inline;opacity:1;vector-effect:none;fill:#00ff00;fill-opacity:1;fill-rule:evenodd;stroke:none;stroke-width:1;stroke-linecap:butt;stroke-linejoin:miter;stroke-miterlimit:4;stroke-dasharray:none;stroke-dashoffset:0;stroke-opacity:1;paint-order:normal"
       id="circle881"
       cx="7.6199999"
       cy="69.5"
       r="4"
       inkscape:label="Merge0" />
    <circle
       inkscape:label="Merge1"
       r="4"
       cy="78.5"
       cx="7.6199999"
       id="circle883"
       style="display:inline;opacity:1;vector-effect:none;fill:#00ff00;fill-opacity:1;fill-rule:evenodd;stroke:none;stroke-width:1;stroke-linecap:butt;stroke-linejoin:miter;stroke-miterlimit:4;stroke-dasharray:none;stroke-dashoffset:0;stroke-opacity:1;paint-order:normal" />
    <circle
       style="display:inline;opacity:1;vector-effect:none;fill:#00ff00;fill-opacity:1;fill-rule:evenodd;stroke:none;stroke-width:1;stroke-linecap:butt;stroke-linejoin:miter;stroke-miterlimit:4;stroke-dasharray:none;stroke-dashoffset:0;stroke-opacity:1;paint-order:normal"
       id="circle885"
       cx="7.6199999"
       cy="87.5"
       r="4"
       inkscape:label="Merge2" />
    <circle
       style="display:inline;opacity:1;vector-effect:none;fill:#0000ff;fill-opacity:1;fill-rule:evenodd;stroke:none;stroke-width:1;stroke-linecap:butt;stroke-linejoin:miter;stroke-miterlimit:4;stroke-dasharray:none;stroke-dashoffset:0;stroke-opacity:1;paint-order:normal"
       id="circle908"
       cx="7.6199994"
       cy="107.5"
       r="4"
       inkscape:label="PolyOut" />
  </g>
</svg>
