<?xml version="1.0" encoding="UTF-8" standalone="no"?>
<!-- Created with Inkscape (http://www.inkscape.org/) -->

<svg
   xmlns:osb="http://www.openswatchbook.org/uri/2009/osb"
   xmlns:dc="http://purl.org/dc/elements/1.1/"
   xmlns:cc="http://creativecommons.org/ns#"
   xmlns:rdf="http://www.w3.org/1999/02/22-rdf-syntax-ns#"
   xmlns:svg="http://www.w3.org/2000/svg"
   xmlns="http://www.w3.org/2000/svg"
   xmlns:xlink="http://www.w3.org/1999/xlink"
   xmlns:sodipodi="http://sodipodi.sourceforge.net/DTD/sodipodi-0.dtd"
   xmlns:inkscape="http://www.inkscape.org/namespaces/inkscape"
   width="15.24mm"
   height="128.5mm"
   viewBox="0 0 15.240001 128.50002"
   version="1.1"
   id="svg8"
   inkscape:version="0.92.4 (5da689c313, 2019-01-14)"
   sodipodi:docname="Splirge.svg"
   style="enable-background:new">
  <defs
     id="defs2">
    <linearGradient
       id="Input"
       osb:paint="solid">
      <stop
         style="stop-color:#00ff00;stop-opacity:1;"
         offset="0"
         id="stop916" />
    </linearGradient>
    <linearGradient
       id="Output"
       osb:paint="solid">
      <stop
         style="stop-color:#0000ff;stop-opacity:1;"
         offset="0"
         id="stop910" />
    </linearGradient>
    <linearGradient
       inkscape:collect="always"
       id="linearGradient7667">
      <stop
         style="stop-color:#76bfbe;stop-opacity:1;"
         offset="0"
         id="stop7663" />
      <stop
         style="stop-color:#469ca9;stop-opacity:1"
         offset="1"
         id="stop7665" />
    </linearGradient>
    <linearGradient
       id="YellowYay"
       osb:paint="solid"
       gradientTransform="translate(3.2334699,-0.87182918)">
      <stop
         style="stop-color:#ffcc03;stop-opacity:1;"
         offset="0"
         id="stop7643" />
    </linearGradient>
    <linearGradient
       id="DarkestBlue"
       osb:paint="solid">
      <stop
         style="stop-color:#083d45;stop-opacity:1;"
         offset="0"
         id="stop7635" />
    </linearGradient>
    <linearGradient
       id="DarkerBlue"
       osb:paint="solid"
       gradientTransform="matrix(0.26458333,0,0,0.26458333,117.58404,70.635626)">
      <stop
         style="stop-color:#0e6977;stop-opacity:1;"
         offset="0"
         id="stop7623" />
    </linearGradient>
    <linearGradient
       id="DarkBlue"
       osb:paint="solid"
       gradientTransform="translate(3.3333334e-8,168.49998)">
      <stop
         style="stop-color:#469ca9;stop-opacity:1;"
         offset="0"
         id="stop7617" />
    </linearGradient>
    <linearGradient
       id="LightBlue"
       osb:paint="solid"
       gradientTransform="translate(-62.499998)">
      <stop
         style="stop-color:#76bfbe;stop-opacity:1;"
         offset="0"
         id="stop7611" />
    </linearGradient>
    <linearGradient
       id="LightestBlue"
       osb:paint="solid">
      <stop
         style="stop-color:#c1f0f2;stop-opacity:1;"
         offset="0"
         id="stop7605" />
    </linearGradient>
    <linearGradient
       id="Pink"
       osb:paint="solid"
       gradientTransform="matrix(1,0,0,0.8,1.9227906e-7,31.699973)">
      <stop
         style="stop-color:#fcaebb;stop-opacity:1;"
         offset="0"
         id="stop7599" />
    </linearGradient>
    <linearGradient
       inkscape:collect="always"
       xlink:href="#linearGradient7667"
       id="linearGradient7669"
       x1="2.4786801e-15"
       y1="273.23123"
       x2="3.8719248e-15"
       y2="295.98538"
       gradientUnits="userSpaceOnUse" />
    <linearGradient
       inkscape:collect="always"
       xlink:href="#YellowYay"
       id="linearGradient7673"
       gradientUnits="userSpaceOnUse"
       gradientTransform="translate(-24.31172,-15.735334)"
       x1="24.31172"
       y1="194.23528"
       x2="39.55172"
       y2="194.23528" />
  </defs>
  <sodipodi:namedview
     id="base"
     pagecolor="#ffffff"
     bordercolor="#666666"
     borderopacity="1.0"
     inkscape:pageopacity="0.0"
     inkscape:pageshadow="2"
     inkscape:zoom="1"
     inkscape:cx="24.966865"
     inkscape:cy="207.19839"
     inkscape:document-units="mm"
     inkscape:current-layer="layer3"
     showgrid="false"
     units="mm"
     inkscape:snap-bbox="true"
     inkscape:snap-page="true"
     inkscape:bbox-nodes="false"
     inkscape:snap-bbox-edge-midpoints="false"
     inkscape:window-width="1920"
     inkscape:window-height="1019"
     inkscape:window-x="-4"
     inkscape:window-y="427"
     inkscape:window-maximized="1"
     inkscape:snap-bbox-midpoints="true"
     inkscape:snap-nodes="false"
     showguides="false" />
  <metadata
     id="metadata5">
    <rdf:RDF>
      <cc:Work
         rdf:about="">
        <dc:format>image/svg+xml</dc:format>
        <dc:type
           rdf:resource="http://purl.org/dc/dcmitype/StillImage" />
        <dc:title></dc:title>
      </cc:Work>
    </rdf:RDF>
  </metadata>
  <g
     inkscape:label="Background"
     inkscape:groupmode="layer"
     id="layer1"
     transform="translate(0,-168.49998)"
     style="display:inline">
    <rect
       style="display:inline;opacity:1;vector-effect:none;fill:url(#linearGradient7669);fill-opacity:1;fill-rule:evenodd;stroke:none;stroke-width:0.45916572;stroke-linecap:butt;stroke-linejoin:miter;stroke-miterlimit:4;stroke-dasharray:none;stroke-dashoffset:0;stroke-opacity:1;paint-order:normal"
       id="rect420"
       width="15.24"
       height="128.5"
       x="7.9472858e-07"
       y="168.49997" />
    <path
       transform="translate(0,168.49998)"
       style="enable-background:new;display:inline;fill:url(#DarkerBlue);stroke-width:0.02361377;opacity:0.1"
       d="m 14.67293,117.00441 c -1.608598,-0.33151 -2.697206,-0.59668 -4.7019527,-1.14535 -2.428923,-0.66475 -4.705801,-1.37474 -7.0012537,-2.18314 -0.530378,-0.18679 -1.125802,-0.3876 -1.323163,-0.44625 -0.197362,-0.0587 -0.64857697,-0.19842 -1.00269997,-0.3106 L -3.6666666e-7,112.71511 v -0.26883 c 0,-0.26797 1.7099999666e-4,-0.26878 0.0531599966667,-0.25224 0.02924,0.009 0.334858,0.10606 0.679151,0.21541 1.91730997,0.60899 3.87974097,1.13888 6.32061667,1.70668 0.807471,0.18783 4.5331457,0.9547 5.4934887,1.13074 2.235744,0.40983 2.672208,0.49169 2.683864,0.50333 0.0064,0.006 0.0086,0.0958 0.0048,0.19858 l -0.0069,0.18688 -0.720651,-0.11251 c -2.492884,-0.38921 -3.647448,-0.59803 -6.0482527,-1.09393 -0.35344,-0.073 -0.646996,-0.12836 -0.652346,-0.12302 -0.02771,0.0277 3.1338067,0.84059 4.6922267,1.2065 0.484503,0.11376 1.80104,0.39059 2.392214,0.50301 l 0.3484,0.0662 1.18e-4,0.26549 c 9.4e-5,0.19775 -0.0074,0.26501 -0.02942,0.26358 -0.01624,-0.001 -0.258135,-0.049 -0.537535,-0.10662 z m 0.153582,-1.76957 c -0.220921,-0.0571 -0.832909,-0.20923 -1.359974,-0.33804 -2.439369,-0.59613 -6.7468377,-1.82778 -9.0835614,-2.59728 -1.561275,-0.51414 -3.026421,-1.03346 -4.14078997,-1.46768 L -3.6666667e-7,110.73744 v -0.3522 c 0,-0.19372 0.004399996667,-0.35221 0.009899996667,-0.35221 0.0054,0 0.06124,0.022 0.124047,0.0489 0.221019,0.0947 2.01037397,0.76046 2.51242397,0.93476 0.2794,0.097 0.656856,0.22831 0.838791,0.2918 1.126075,0.39298 2.5619747,0.84184 4.8555347,1.51786 1.486724,0.43821 4.0566967,1.13684 5.2588617,1.42959 0.5319,0.12952 1.118606,0.2747 1.303789,0.32261 l 0.336698,0.0871 v 0.33862 c 0,0.18625 -0.0027,0.33766 -0.0059,0.33648 -0.0032,-0.001 -0.18666,-0.0489 -0.407581,-0.10599 z m -0.637954,-0.92943 c -1.261835,-0.29494 -1.956013,-0.47345 -3.815907,-0.98128 -1.4211057,-0.38803 -2.0823207,-0.58176 -3.6741397,-1.0765 -2.2480917,-0.69872 -4.0699597,-1.3337 -6.03102267,-2.10202 L -3.6666666e-7,109.88409 v -0.21992 -0.21993 L 0.06497963,109.46954 c 1.25970497,0.48985 3.67456397,1.32887 5.14497667,1.78758 1.606456,0.50114 3.634115,1.0814 4.9973027,1.43008 0.591288,0.15125 1.234558,0.31629 1.429488,0.36677 0.819136,0.21211 3.482421,0.82586 3.583696,0.82586 0.01076,0 0.01956,0.14868 0.01956,0.3304 0,0.24944 -0.0072,0.33 -0.02954,0.32878 -0.01624,-9e-4 -0.476102,-0.10599 -1.021907,-0.23357 z m 0.62614,-1.45479 c -4.720877,-1.27411 -8.1531137,-2.36134 -11.8730234,-3.76104 -0.754935,-0.28405 -2.27510497,-0.88142 -2.73492997,-1.0747 L -3.6666667e-7,107.92798 v -0.33925 -0.33925 L 0.05315963,107.27028 c 0.02924,0.0114 0.462517,0.1856 0.96283797,0.38703 2.16433,0.87142 4.7145417,1.79829 6.7103247,2.43887 2.8471597,0.91385 4.5556597,1.41596 6.8580007,2.01549 l 0.655674,0.17075 v 0.3385 c 0,0.18619 -0.008,0.33771 -0.01772,0.33673 -0.0097,-0.001 -0.193158,-0.0491 -0.407581,-0.10701 z m -0.602512,-2.66606 c -1.405511,-0.44948 -3.439944,-1.13277 -4.6428837,-1.55937 -4.180259,-1.48244 -5.9581847,-2.17059 -8.4174417,-3.25797 L -3.6666667e-7,104.85792 v -0.39644 -0.39644 L 0.18311663,104.14874 c 2.85437997,1.30525 5.06874367,2.18396 9.27986067,3.68244 1.5477347,0.55074 3.9087317,1.33699 5.7002317,1.89826 l 0.07679,0.0241 v 0.37576 c 0,0.20667 -0.008,0.37506 -0.01772,0.3742 -0.0097,-8.5e-4 -0.464288,-0.14438 -1.010093,-0.31893 z m -0.850604,-1.65992 C 9.7707483,107.4167 8.4342553,106.96103 5.1745113,105.73335 4.0439156,105.30754 1.1671736,104.13252 0.22446563,103.71148 l -0.212652,-0.095 -0.0066,-0.28449 -0.0066,-0.28449 0.136588,0.0606 c 1.03727497,0.46048 3.98366797,1.64738 5.23584667,2.10916 3.180134,1.17276 4.8541587,1.72857 8.2913487,2.7529 l 1.576654,0.46987 5.08e-4,0.32449 c 3.83e-4,0.24494 -0.0067,0.32412 -0.02903,0.32296 -0.01624,-8.5e-4 -0.848242,-0.25415 -1.848884,-0.5629 z m 1.701209,-1.30471 c -0.625973,-0.21304 -2.592615,-0.90489 -3.059814,-1.07642 -2.1544947,-0.79101 -2.9048507,-1.08686 -5.3517207,-2.11 -2.1095637,-0.88211 -3.3986787,-1.46203 -5.65297667,-2.54304 L -3.6666667e-7,101.01177 v -0.5622 -0.562189 L 0.20674463,99.982861 c 2.87715797,1.328789 5.46840867,2.409359 8.31290967,3.466559 1.6481317,0.61256 4.9949577,1.74006 6.3363927,2.13465 L 15.24,105.69701 v 0.30365 c 0,0.16701 -0.0065,0.30366 -0.01448,0.30366 -0.03542,0 -1.430672,-0.44409 -2.041146,-0.64967 -0.735476,-0.24767 -3.9003987,-1.38557 -4.5303887,-1.62883 -0.215993,-0.0834 -0.396218,-0.14814 -0.4005,-0.14386 -0.01277,0.0127 0.911362,0.38768 1.8710747,0.75913 1.426165,0.55198 3.218975,1.20515 4.63107,1.68722 0.220921,0.0754 0.420281,0.14449 0.443023,0.15349 0.03703,0.0147 0.04135,0.0567 0.04135,0.40323 0,0.21278 -0.008,0.38604 -0.01772,0.38501 -0.0097,-10e-4 -0.08152,-0.0236 -0.159488,-0.0501 z m -6.8639067,-3.36997 c -0.01949,-0.0126 -0.04607,-0.0229 -0.05907,-0.0229 -0.013,0 -0.0077,0.0103 0.01181,0.0229 0.01949,0.0126 0.04607,0.0229 0.05907,0.0229 0.013,0 0.0077,-0.0103 -0.01181,-0.0229 z m 5.7770227,-1.08403 C 11.92311,101.95997 10.179701,101.22987 7.7735813,100.16856 5.7700633,99.28483 2.2854376,97.595483 0.67930263,96.729252 L -3.6666667e-7,96.362886 V 95.99893 95.634972 L 0.14767463,95.716542 c 1.20879897,0.667662 2.03141197,1.089569 3.97539497,2.038923 3.2420337,1.583264 6.5454674,3.029425 10.0418604,4.396075 0.571796,0.2235 1.047906,0.41383 1.058023,0.42295 0.01012,0.009 0.01543,0.16656 0.01181,0.34985 l -0.0066,0.33325 z m 0.933302,-0.67774 C 10.602803,100.52152 6.5196083,98.770375 2.9062326,96.940511 1.7944656,96.377497 0.39044463,95.657356 0.17130263,95.53773 L -3.6666667e-7,95.44422 v -0.245663 c 0,-0.135115 0.006299996667,-0.245663 0.0139599966667,-0.245663 0.0077,0 0.238934,0.114713 0.513907,0.254916 1.13641097,0.579433 3.23594197,1.587951 4.51669667,2.169614 3.300191,1.498798 6.3054007,2.694526 10.0832097,4.011956 l 0.112232,0.0391 v 0.38473 c 0,0.2116 -0.008,0.38421 -0.01772,0.38356 -0.0097,-6.4e-4 -0.150628,-0.0495 -0.31307,-0.10862 z M 14.802884,99.846411 C 13.699619,99.385971 12.296948,98.784324 11.589489,98.468085 11.160642,98.276387 10.214344,97.854043 9.4866043,97.529544 6.3904263,96.148949 3.2968346,94.649206 1.2404656,93.5319 l -1.22865197,-0.667574 -0.0064,-0.445221 c -0.005999997,-0.417893 -0.0039,-0.444242 0.03544,-0.429266 0.02303,0.0088 0.727681,0.386057 1.56588097,0.838401 0.8382,0.452343 1.885507,0.999666 2.327349,1.216273 2.3812007,1.167356 4.1430027,1.999913 5.6825107,2.685329 1.3072377,0.582007 4.3076427,1.866948 5.2217677,2.236254 0.201428,0.08138 0.374448,0.154979 0.38449,0.163562 0.01004,0.0086 0.01536,0.213298 0.01181,0.454923 l -0.0064,0.439319 z M 14.708374,97.339 C 14.43547,97.224322 13.723089,96.917947 13.125302,96.65817 10.327848,95.442487 9.0912223,94.881016 6.8757213,93.820647 6.2454463,93.518987 5.5755953,93.200023 5.3871633,93.111834 4.2798756,92.593614 3.8422476,92.369972 2.4100466,91.590441 2.0006936,91.367635 1.2909696,90.984903 0.83288363,90.739927 L -3.6666667e-7,90.294517 v -0.372969 c 0,-0.205135 0.006499996667,-0.372971 0.0144799966667,-0.372971 0.008,0 0.10883,0.05312 0.224141,0.118046 0.115312,0.06493 0.648396,0.352866 1.18463297,0.639866 0.536236,0.287 1.192943,0.641108 1.459347,0.786909 1.672212,0.915172 3.4438607,1.76486 5.3044657,2.54404 2.7262217,1.141682 4.0333777,1.649107 6.9879527,2.712662 l 0.06498,0.02339 v 0.58768 c 0,0.323225 -0.008,0.587381 -0.01772,0.58701 -0.0097,-3.77e-4 -0.241004,-0.0945 -0.513907,-0.20918 z m 0.05907,-2.692227 C 14.527028,94.545911 14.027298,94.338413 13.65693,94.185667 12.652321,93.771345 11.031657,93.072493 10.361708,92.764721 10.036345,92.615253 9.5893863,92.410517 9.3684653,92.309753 8.9231893,92.10666 7.9348293,91.636173 6.0856063,90.747016 4.6734566,90.068019 2.5581536,88.935709 0.59660463,87.808786 L -3.6666667e-7,87.466032 v -0.341231 -0.34123 L 0.07678963,86.829981 c 0.254182,0.153633 1.55578397,0.886954 2.40975897,1.357653 2.4260997,1.337236 2.6588967,1.455999 5.5114967,2.81175 2.1050947,1.000486 3.9479007,1.816415 5.8006517,2.568325 0.240414,0.09757 0.649767,0.264394 0.909674,0.370719 0.259907,0.106329 0.485849,0.198679 0.502093,0.205223 0.02171,0.0087 0.02954,0.101915 0.02954,0.351571 0,0.186817 -0.008,0.338602 -0.01772,0.3373 -0.0097,-0.0013 -0.214423,-0.08489 -0.454837,-0.185753 z M 14.732004,92.80152 C 12.873833,92.097215 11.026566,91.357064 9.9625843,90.890542 8.8268363,90.39255 6.9557833,89.552353 6.5685013,89.366428 5.0506173,88.637721 4.1756566,88.20501 2.7880936,87.496828 2.2747766,87.234843 1.4374926,86.795477 0.92746163,86.520461 L 1.3263333e-4,86.020432 6.6633333e-5,85.895538 -3.6666667e-7,85.770647 0.10041863,85.828067 c 0.38647,0.220994 1.95138197,1.029751 2.81762797,1.456171 2.7453297,1.351416 3.8329947,1.846445 6.6985117,3.048683 1.3874887,0.582127 3.3164687,1.315675 5.1686047,1.965505 L 15.24,92.458009 v 0.268056 c 0,0.147432 -0.0027,0.267037 -0.0059,0.265789 -0.0032,-0.0013 -0.229191,-0.0869 -0.502093,-0.190336 z M 14.613861,88.623604 C 11.232029,87.077389 8.6637403,85.86598 7.5727443,85.302451 6.1221363,84.553177 1.9918796,82.26658 0.50209263,81.387992 L -3.6666667e-7,81.091887 V 80.694366 80.296842 L 0.14767463,80.371152 c 0.08122,0.04087 0.48813,0.252171 0.90424397,0.469564 3.582725,1.871739 7.9415947,3.84645 12.7598614,5.78064 0.776622,0.311759 1.416009,0.570798 1.42086,0.575643 0.0049,0.0048 0.0058,0.141359 0.0022,0.303366 l -0.0066,0.294556 -0.921488,-0.385471 C 12.700899,86.73772 12.319309,86.575536 11.424093,86.184275 9.9122823,85.523528 7.8384323,84.567934 6.5094883,83.919709 c -0.311888,-0.152131 -0.737191,-0.358762 -0.945116,-0.459183 -0.207926,-0.100419 -0.447158,-0.21711 -0.531628,-0.259308 -0.08447,-0.0422 -0.142949,-0.06616 -0.129953,-0.05325 0.07313,0.07266 2.78997,1.511795 3.733209,1.977517 1.4777717,0.729649 4.5232327,2.145492 6.3972557,2.974104 L 15.24,88.190999 v 0.348394 c 0,0.264293 -0.0071,0.347802 -0.02954,0.345938 -0.01624,-0.0013 -0.284716,-0.119129 -0.596604,-0.261727 z M 14.282045,85.840431 C 11.546857,84.464282 10.280229,83.800136 8.2225113,82.66316 6.0379403,81.456096 2.6036456,79.417097 0.75018663,78.226715 L -3.6666667e-7,77.74491 v -0.257671 c 0,-0.141718 0.005299996667,-0.25767 0.0118799966667,-0.25767 0.0065,0 0.391963,0.237037 0.856512,0.526751 2.67055797,1.665478 6.28413667,3.735633 9.69433637,5.553718 1.060305,0.565282 4.589616,2.3446 4.650558,2.3446 0.0186,0 0.02672,0.100398 0.02672,0.330395 0,0.181717 -0.0031,0.330395 -0.0069,0.330395 -0.0038,0 -0.431773,-0.213749 -0.951023,-0.474997 z m 0.08372,-2.593694 C 13.891437,83.056361 12.838814,82.605469 12.026605,82.244753 8.5200923,80.687453 5.1828263,79.012587 1.3172556,76.870081 L -3.6666667e-7,76.139988 V 75.987631 75.835274 L 0.26581363,75.976407 c 4.27455997,2.269575 8.00495767,4.070486 11.36625937,5.48725 1.532814,0.646068 2.29605,0.957477 2.95816,1.206956 0.337879,0.127313 0.622603,0.238338 0.63272,0.246725 0.01012,0.0084 0.01543,0.163812 0.01181,0.345392 l -0.0066,0.330145 z m -0.02362,-2.232766 C 11.964208,79.942156 9.0425983,78.572728 7.1356283,77.636108 4.1662076,76.177658 3.1817686,75.666787 0.40758163,74.144606 L -3.6666667e-7,73.920967 v -0.316268 c 0,-0.173949 0.003999996667,-0.316269 0.008899996667,-0.316269 0.0049,0 0.09263,0.04619 0.194931,0.102649 0.501328,0.276682 2.83514997,1.535244 3.19857297,1.724898 0.700761,0.365692 2.7843587,1.383141 3.5559757,1.73643 3.0984037,1.418619 4.9824037,2.225148 7.7204187,3.305069 l 0.561163,0.221332 v 0.513948 c 0,0.282672 -0.008,0.513044 -0.01772,0.511942 -0.0097,-0.0011 -0.405809,-0.176931 -0.88014,-0.390727 z m 0.141767,-3.003197 C 13.357832,77.5037 11.944404,76.843928 11.11693,76.439104 10.701079,76.235659 10.10034,75.949048 9.7819533,75.80219 8.5387373,75.228747 8.1205063,75.020023 6.9346523,74.381204 6.2588173,74.017133 5.5198553,73.626254 5.2925123,73.512587 4.5370606,73.13487 2.8957436,72.251805 0.44302363,70.903456 L -3.6666667e-7,70.65991 V 70.29658 69.933247 L 0.10041863,69.990327 c 0.05523,0.0314 0.685209,0.392035 1.39995397,0.801427 0.714744,0.409392 1.698255,0.964689 2.185581,1.233994 1.3895117,0.767873 4.2673147,2.321897 4.4893027,2.424239 1.084399,0.499942 4.5636967,1.890185 6.1432557,2.454695 0.435344,0.155585 0.820774,0.293372 0.856511,0.306193 l 0.06498,0.02332 v 0.247076 c 0,0.244499 -5.55e-4,0.246937 -0.05316,0.233563 l -0.05316,-0.01351 0.05316,0.02733 c 0.05078,0.02611 0.05316,0.04037 0.05316,0.31872 0,0.160266 -0.008,0.290609 -0.01772,0.289655 -0.0097,-9.44e-4 -0.342014,-0.147764 -0.738372,-0.326243 z m -0.22447,-3.173979 C 11.668955,73.719688 9.6439923,72.788406 6.6866973,71.354087 6.1993723,71.117727 5.7102743,70.875734 5.5998143,70.816322 5.1415463,70.56984 2.6344716,69.207157 1.7130236,68.703713 0.73759663,68.170782 0.08778263,67.806609 0.02953463,67.760247 0.00901463,67.743917 -5.3666667e-6,67.654766 -5.3666667e-6,67.468232 c 0,-0.147679 0.00469999667,-0.268507 0.010449996667,-0.268507 0.0058,0 0.130681,0.07041 0.277628,0.156475 0.299057,0.175147 1.56436697,0.868448 2.90168897,1.589922 0.487325,0.262907 1.114646,0.602798 1.394046,0.755315 1.3520387,0.738036 2.0705647,1.096899 4.5719997,2.283454 1.7005367,0.806647 3.9513597,1.819316 5.5702787,2.506127 l 0.513907,0.218018 v 0.269083 c 0,0.147994 -0.008,0.268441 -0.01772,0.267663 -0.0097,-7.79e-4 -0.443023,-0.184826 -0.962837,-0.408987 z M 14.67293,73.994706 C 13.557575,73.570668 13.346554,73.488064 12.534605,73.157655 9.3776063,71.872967 6.3884573,70.439065 3.4024186,68.776922 2.9930656,68.54906 2.3923256,68.216135 2.0674416,68.03709 1.5439586,67.748594 0.93443363,67.385273 0.23627963,66.94559 l -0.224466,-0.141364 -0.007,-0.156484 -0.007,-0.156482 0.172388,0.102125 c 0.09481,0.05617 0.443517,0.264988 0.774899,0.464039 0.65276097,0.392099 0.78879097,0.468071 1.70911997,0.954537 0.335732,0.177462 0.872677,0.463959 1.193209,0.636661 1.2269957,0.661104 3.1320867,1.602812 4.3750657,2.162645 2.2404607,1.009094 4.3515127,1.872701 6.3145587,2.583211 l 0.70293,0.25442 v 0.279958 c 0,0.153978 -0.0027,0.279283 -0.0059,0.278454 -0.0032,-8.26e-4 -0.255772,-0.0965 -0.561163,-0.212604 z M 14.885582,71.28468 C 14.697149,71.20929 14.319693,71.059971 14.046791,70.952853 12.703618,70.425637 10.561907,69.523874 8.3406513,68.550294 6.9519923,67.941643 4.8504803,66.965098 2.3391626,65.761479 1.9558006,65.577741 1.2730656,65.228816 0.82197363,64.986089 L 0.00180863,64.544767 9.0463333e-4,64.420868 -3.6666667e-7,64.29697 H 0.23808663 h 0.238086 l 0.64205297,0.347359 c 0.663219,0.358808 1.15245,0.597679 3.347449,1.634416 3.5502717,1.67686 7.1276124,3.22868 9.9886974,4.333013 L 15.24,70.914997 v 0.254531 c 0,0.139993 -0.0027,0.25401 -0.0059,0.253375 -0.0032,-6.37e-4 -0.160079,-0.06284 -0.348511,-0.138223 z M 14.661116,69.192672 C 14.349228,69.083283 13.977089,68.951873 13.83414,68.90065 13.691191,68.84943 13.404112,68.747406 13.196186,68.673935 11.659576,68.130979 9.1736073,67.14929 7.3246513,66.355319 6.5083103,66.004767 3.9761766,64.832809 3.3141396,64.499115 l -0.396093,-0.199645 0.487424,-0.0013 c 0.466567,-0.0012 0.492854,0.0012 0.614325,0.05595 0.8879207,0.40024 3.0205287,1.332272 3.5529487,1.552775 1.359718,0.563132 3.3573747,1.343723 4.6192557,1.804992 0.696817,0.254713 2.848198,1.000389 2.985765,1.034875 l 0.06223,0.0156 v 0.316037 c 0,0.173821 -0.0027,0.315379 -0.0059,0.314572 -0.0032,-8.03e-4 -0.261088,-0.09096 -0.572977,-0.200354 z M 14.34214,68.329515 C 9.9436153,66.731858 7.5054673,65.784049 4.7964653,64.618714 l -0.7442787,-0.320167 0.6532,-7.79e-4 0.6532007,-7.79e-4 0.161962,0.06848 c 0.170055,0.0719 0.521598,0.18357 0.976246,0.310111 0.513354,0.142877 1.310622,0.35067 1.317834,0.343467 0.004,-0.004 -0.133882,-0.05671 -0.306351,-0.117186 -0.172469,-0.06048 -0.597441,-0.218665 -0.944383,-0.351519 l -0.630802,-0.241552 0.669224,-0.0063 0.669225,-0.0063 0.717671,0.245802 c 2.5469897,0.872346 4.7166437,1.528173 7.1503687,2.161368 L 15.24,66.72957 v 0.282285 c 0,0.158745 -0.0096,0.282287 -0.02202,0.282287 -0.122616,0 -3.009733,-0.820645 -4.065605,-1.155622 -0.292395,-0.09276 -0.935665,-0.268479 -1.4294877,-0.390482 -0.493824,-0.122003 -1.17921,-0.29615 -1.52308,-0.386997 -0.343871,-0.09084 -0.627927,-0.162467 -0.631237,-0.159163 -0.0081,0.0081 1.629798,0.657172 2.4851077,0.984886 1.226087,0.469775 3.868913,1.438155 4.826,1.768333 L 15.24,68.079403 v 0.27996 c 0,0.209598 -0.0074,0.279316 -0.02954,0.277399 -0.01624,-0.0014 -0.40699,-0.13966 -0.868325,-0.307229 z M 14.732,66.193104 c -1.962463,-0.632569 -3.004536,-0.972845 -4.276651,-1.396482 l -1.4649307,-0.487852 0.423612,-0.0065 0.423612,-0.0065 0.9940627,0.329496 c 1.578873,0.523343 2.53902,0.835354 3.427737,1.113886 0.454837,0.142551 0.861533,0.270117 0.903767,0.283479 0.07614,0.02409 0.07679,0.02558 0.07679,0.175864 0,0.08336 -0.008,0.150507 -0.01772,0.149211 -0.0097,-0.0013 -0.230372,-0.0709 -0.490279,-0.154679 z m 0.03544,-1.244125 c -0.240414,-0.09415 -0.726868,-0.276715 -1.081009,-0.405697 l -0.643892,-0.234512 0.360357,-0.0064 0.360358,-0.0064 0.413488,0.150738 c 0.227419,0.08291 0.559686,0.207233 0.738372,0.276285 L 15.24,64.848451 v 0.137253 c 0,0.07549 -0.008,0.136626 -0.01772,0.135856 -0.0097,-7.78e-4 -0.214423,-0.07843 -0.454837,-0.172581 z"
       id="path977"
       inkscape:connector-curvature="0" />
    <path
       style="display:inline;fill:url(#DarkerBlue);stroke-width:0.02361377;enable-background:new;opacity:0.1"
       d="m 1.0765796,232.80039 c 1.990373,-1.18775 3.8199927,-2.22481 6.0014887,-3.40174 0.402856,-0.21735 0.98233,-0.53909 1.287721,-0.71497 1.8500947,-1.06556 1.9446897,-1.11732 5.1626977,-2.8244 0.727739,-0.38605 1.410881,-0.74936 1.518093,-0.80735 l 0.19493,-0.10545 v 0.6008 0.60079 l -0.124046,0.0532 c -0.461761,0.19789 -2.143935,1.01901 -3.030279,1.47916 -0.934379,0.48509 -2.028974,1.03224 -2.7526517,1.37596 -1.199928,0.56991 -1.665379,0.82738 -3.61507,1.99973 -0.539307,0.32429 -1.5007037,0.90976 -2.1364387,1.30105 l -1.15588,0.71145 -0.899748,-2.4e-4 -0.89974697,-2.4e-4 0.44892997,-0.26789 z m 5.7191347,0.24834 c 0.18368,-0.16238 3.5345367,-2.39408 4.4172377,-2.94192 0.415851,-0.25809 1.298354,-0.81949 1.961116,-1.24754 1.386736,-0.89565 2.040357,-1.31301 2.056279,-1.31301 0.0061,0 0.01116,0.16276 0.01116,0.36168 v 0.36167 l -0.183116,0.11552 c -0.100714,0.0635 -0.746642,0.48127 -1.435395,0.92829 -0.688754,0.44702 -1.576573,1.0146 -1.972931,1.2613 -0.665134,0.41398 -2.1584777,1.39806 -3.2960927,2.17206 l -0.472558,0.32151 -0.554075,2.4e-4 c -0.304741,0 -0.543973,-0.009 -0.531628,-0.0197 z m 4.9252377,0.008 c 0,-0.006 0.07709,-0.0502 0.171302,-0.0975 0.09422,-0.0473 0.522177,-0.27445 0.951024,-0.50474 0.428846,-0.2303 1.135911,-0.60714 1.571255,-0.83742 0.435345,-0.23029 0.79951,-0.42339 0.809256,-0.42913 0.0097,-0.006 0.01772,0.2333 0.01772,0.5312 v 0.54163 l -0.618657,0.40375 -0.618657,0.40375 h -1.141622 c -0.627892,0 -1.141622,-0.005 -1.141622,-0.0115 z M 0.00150963,230.79657 v -0.66923 l 0.419396,-0.3425 c 0.96813097,-0.79062 2.50602197,-1.94435 4.18804597,-3.14187 0.3703677,-0.26369 1.0349027,-0.74013 1.4767447,-1.05876 1.289303,-0.92977 2.734297,-1.90705 4.5838137,-3.10013 0.519814,-0.33532 1.179033,-0.76538 1.46493,-0.95569 0.53664,-0.35722 1.296163,-0.84266 2.362791,-1.51013 0.337879,-0.21144 0.643565,-0.40492 0.679302,-0.42996 l 0.06498,-0.0455 v 0.34144 0.34144 l -0.348511,0.219 c -1.030815,0.64775 -1.908891,1.21053 -2.498652,1.60142 -0.363869,0.24118 -1.081567,0.70917 -1.594883,1.03999 -1.0086837,0.65006 -2.0627337,1.35034 -3.0361867,2.01716 -0.582851,0.39926 -1.02342,0.7127 -2.102883,1.49613 -0.259907,0.18863 -0.743689,0.53518 -1.0750707,0.77011 -1.339477,0.94961 -2.771393,2.03008 -3.80999997,2.87487 -0.422558,0.3437 -0.548877,0.45324 -0.472558,0.40977 0.0098,-0.006 0.26227,-0.15366 0.561163,-0.32914 0.29889297,-0.17547 1.09633497,-0.62976 1.77209297,-1.00952 0.675758,-0.37976 1.451735,-0.81749 1.724393,-0.97273 0.272657,-0.15524 0.6926437,-0.38895 0.9333017,-0.51936 0.240659,-0.1304 0.783119,-0.43044 1.205468,-0.66674 2.40625,-1.34631 4.5716957,-2.47664 7.0293027,-3.66918 0.580488,-0.28169 1.668932,-0.7791 1.704822,-0.7791 0.0053,0 0.0067,0.12851 0.003,0.28556 l -0.0066,0.28557 -0.720651,0.33638 c -2.171534,1.01362 -5.0170967,2.48739 -7.7263387,4.00162 -0.435344,0.24332 -0.993553,0.55151 -1.240465,0.68486 -0.246912,0.13335 -0.666898,0.36661 -0.9333027,0.51835 -0.266404,0.15174 -0.739553,0.41723 -1.051442,0.58998 -0.98066,0.54317 -2.57155897,1.45947 -3.14251097,1.80997 -0.103963,0.0638 -0.239528,0.14509 -0.301256,0.1806 l -0.112233,0.0646 z m 0,-5.33431 v -0.55002 l 0.844698,-0.52186 c 1.46252097,-0.90356 2.34485697,-1.41919 4.27074467,-2.49582 0.38986,-0.21794 1.070344,-0.60326 1.512186,-0.85626 2.120514,-1.21421 3.7637437,-2.12048 4.8673487,-2.68444 0.898263,-0.45903 2.166701,-1.13852 3.012558,-1.6138 l 0.720651,-0.40493 0.0065,0.35873 c 0.0036,0.1973 -0.0017,0.36695 -0.01181,0.377 -0.07914,0.0787 -2.216811,1.24198 -3.574359,1.94501 -0.980925,0.50799 -3.1064687,1.68317 -3.0843347,1.70527 0.0042,0.004 0.298463,-0.13781 0.653999,-0.3155 0.8948927,-0.44723 2.9468847,-1.44 3.4463357,-1.66737 1.04381,-0.47516 1.90754,-0.86248 2.226931,-0.9986 l 0.348552,-0.14853 v 0.31377 0.31377 l -0.07679,0.0306 c -0.08047,0.0321 -1.356391,0.60873 -2.085162,0.94242 -1.120203,0.51291 -4.8906177,2.41008 -6.3322797,3.18621 -0.402857,0.21688 -1.024861,0.54611 -1.382233,0.73161 -0.357372,0.18551 -0.9474797,0.49856 -1.3113497,0.69568 -0.363869,0.19712 -0.900813,0.48383 -1.193209,0.63714 -0.716352,0.37558 -1.92773497,1.03954 -2.42959897,1.33165 -0.225178,0.13107 -0.413905,0.23831 -0.419396,0.23831 -0.0055,0 -0.01,-0.24752 -0.01,-0.55003 z m 0.0053,-2.29719 0.0065,-0.39551 0.496186,-0.28067 c 0.56434197,-0.31922 1.94342597,-1.11034 3.48511697,-1.99926 1.5888617,-0.91611 2.9909157,-1.67112 4.5276357,-2.43814 1.4991217,-0.74825 3.7349737,-1.81824 4.8644567,-2.32794 0.33788,-0.15247 0.835186,-0.37985 1.105125,-0.50529 0.26994,-0.12543 0.549045,-0.25379 0.620233,-0.28523 l 0.129433,-0.0572 v 0.34193 0.34193 l -0.372139,0.17824 c -0.204677,0.098 -0.653903,0.30874 -0.998279,0.46826 -0.669645,0.31017 -0.746529,0.34681 -2.374605,1.13169 -1.382226,0.66635 -3.3935207,1.67119 -4.1112557,2.05396 -0.845373,0.45085 -2.042724,1.10643 -2.350977,1.28723 -0.3664147,0.21491 -2.9783797,1.71192 -4.0049307,2.29536 -0.45483697,0.25852 -0.87242497,0.49615 -0.92797197,0.52808 l -0.10099599667,0.058 z m 1.3e-5,-1.04878 0.0065,-0.4063 0.704147,-0.47877 c 0.71699997,-0.48752 2.69767597,-1.74865 3.91510897,-2.49283 0.7202357,-0.44026 1.3472767,-0.83204 2.3215427,-1.45051 2.263954,-1.43718 3.4804247,-2.15568 6.5845017,-3.88907 0.785296,-0.43854 1.487045,-0.83218 1.559441,-0.87477 l 0.131631,-0.0774 0.0065,0.38017 c 0.0058,0.34096 0.0023,0.38273 -0.03481,0.40504 -0.02273,0.0137 -0.71146,0.39967 -1.530514,0.85774 -2.948809,1.6492 -4.1754587,2.37201 -6.0493747,3.56467 -0.724399,0.46105 -2.049022,1.29116 -2.71721,1.70281 -0.3508737,0.21616 -1.1748977,0.73089 -1.8311627,1.14383 -0.997811,0.62786 -1.534972,0.98094 -2.97177397,1.95338 l -0.10098299667,0.0684 z m -0.0053,-2.44722 v -0.37252 l 0.395767,-0.21519 c 0.217672,-0.11836 0.62436697,-0.33463 0.90376697,-0.48061 0.2794,-0.14598 0.779131,-0.41418 1.110512,-0.596 0.331381,-0.18183 0.905539,-0.48951 1.275907,-0.68375 0.370367,-0.19424 0.96028,-0.50724 1.3109177,-0.69555 0.7388,-0.39678 2.566403,-1.34837 3.591873,-1.8702 0.38986,-0.19839 1.394637,-0.7117 2.2328377,-1.14069 0.8382,-0.42899 1.768548,-0.89886 2.067441,-1.04416 0.542922,-0.26393 2.320007,-1.09549 2.341113,-1.09549 0.0061,0 0.0082,0.14879 0.0046,0.33065 l -0.0066,0.33065 -0.826977,0.38559 c -1.004159,0.4682 -1.876837,0.9033 -3.296093,1.64337 -0.591288,0.30833 -1.4791067,0.76755 -1.9729297,1.0205 -1.125916,0.57672 -2.960181,1.54079 -3.827721,2.01181 -0.36387,0.19755 -0.9486607,0.51081 -1.2995347,0.69612 -0.350875,0.18531 -0.898452,0.48036 -1.216838,0.65566 -0.318386,0.1753 -0.881911,0.47802 -1.252279,0.67272 -0.370367,0.1947 -0.86220797,0.45876 -1.09297897,0.5868 -0.230771,0.12804 -0.424815,0.2328 -0.431209,0.2328 -0.0064,0 -0.01163,-0.16763 -0.01163,-0.37251 z m 0,-2.03029 v -0.37725 l 0.856511,-0.62057 c 2.27541497,-1.64861 2.96582097,-2.12469 4.69604667,-3.23823 0.383363,-0.24672 1.090428,-0.70349 1.571256,-1.01504 1.460885,-0.94656 2.149268,-1.38479 2.693581,-1.71473 0.2858977,-0.1733 0.9132187,-0.55605 1.3940467,-0.85055 0.480828,-0.29451 1.119221,-0.67925 1.418651,-0.85499 0.787203,-0.46201 2.589633,-1.50445 2.601283,-1.50445 0.0055,0 0.007,0.15012 0.0034,0.3336 l -0.0066,0.33359 -0.44893,0.25985 c -1.208362,0.69942 -2.446724,1.43027 -3.000744,1.77097 -0.337879,0.20778 -0.991782,0.60777 -1.453116,0.88886 -0.8342687,0.50833 -1.4652947,0.91095 -3.9694887,2.5327 -2.1414417,1.38682 -2.6134147,1.71289 -5.1626977,3.56679 -0.53280997,0.38747 -1.01924897,0.74098 -1.08097697,0.78559 l -0.112223,0.0811 z m 0.0053,-3.99612 0.0066,-0.33102 0.590698,-0.28282 c 0.324884,-0.15555 0.86714397,-0.41382 1.20502297,-0.57394 0.337879,-0.16012 0.837609,-0.39923 1.110512,-0.53137 0.272902,-0.13213 0.730102,-0.34686 1.016,-0.47718 0.580494,-0.26461 1.2961187,-0.59916 2.3864187,-1.11562 0.402856,-0.19083 0.971697,-0.45352 1.264093,-0.58375 1.232963,-0.54914 1.961868,-0.8795 2.5399997,-1.15118 0.337879,-0.15878 0.869507,-0.4033 1.181396,-0.54337 0.311888,-0.14007 0.997688,-0.45844 1.524,-0.70749 0.526311,-0.24904 1.265274,-0.59633 1.642139,-0.77176 0.376865,-0.17542 0.704112,-0.32893 0.727214,-0.34114 0.03947,-0.0208 0.04161,-0.002 0.03544,0.31441 l -0.0066,0.33659 -0.437116,0.2043 c -0.240423,0.11236 -0.963437,0.45411 -1.606707,0.75945 -0.64327,0.30534 -1.440711,0.67753 -1.772093,0.8271 -0.331381,0.14957 -0.831111,0.37988 -1.110511,0.5118 -0.5209347,0.24597 -1.1896937,0.5491 -2.2919077,1.03887 -0.344376,0.15303 -1.147135,0.52446 -1.783907,0.82541 -0.636772,0.30095 -1.402316,0.6588 -1.7012087,0.79523 -0.298893,0.13642 -0.766726,0.35467 -1.039628,0.48499 -0.272903,0.13033 -0.762,0.3638 -1.086884,0.51883 -0.324884,0.15502 -0.93094,0.44453 -1.346791,0.64335 -0.41585097,0.19881 -0.82283397,0.38844 -0.90440697,0.4214 l -0.14831499667,0.0599 z m 5.1e-5,-1.03839 0.0065,-0.38266 0.389861,-0.2831 c 0.595732,-0.4326 3.08561697,-2.09142 3.69776597,-2.46354 0.298893,-0.18169 0.7986237,-0.48211 1.1105117,-0.66759 0.311889,-0.18548 0.901996,-0.54122 1.311349,-0.79054 0.409354,-0.24932 1.063256,-0.63656 1.453116,-0.86055 0.389861,-0.22399 1.006549,-0.57983 1.370419,-0.79075 0.36387,-0.21092 1.4005447,-0.792 2.3037207,-1.29129 2.685311,-1.48447 2.783492,-1.53894 3.195675,-1.77298 l 0.395758,-0.22471 v 0.34987 0.34986 l -0.478465,0.27059 c -0.263156,0.14881 -0.76321,0.4265 -1.111232,0.61707 -0.348021,0.19058 -0.948681,0.52279 -1.334798,0.73825 -0.386118,0.21546 -1.010457,0.56165 -1.38742,0.76931 -0.376963,0.20766 -0.9724667,0.54437 -1.3233407,0.74825 -0.350874,0.20387 -0.940981,0.54413 -1.311349,0.75611 -0.370367,0.21198 -0.907311,0.52846 -1.193209,0.70327 -0.285898,0.17482 -1.120554,0.67897 -1.854791,1.12033 -1.0374717,0.62364 -1.6456457,1.01031 -2.7290227,1.73509 -0.766726,0.51294 -1.52695397,1.02984 -1.68939597,1.14867 -0.162442,0.11883 -0.41523,0.30328 -0.561752,0.40988 l -0.26640299667,0.19383 z m -0.0047,-2.87149 5.93e-4,-0.34644 0.690144,-0.36579 c 0.37957797,-0.20119 1.06245397,-0.56816 1.51749897,-0.8155 0.897182,-0.48766 1.185078,-0.63822 2.7057747,-1.41507 0.552303,-0.28215 1.264684,-0.64862 1.58307,-0.81438 1.332003,-0.69346 5.8801627,-2.78288 7.5845587,-3.48433 0.331381,-0.13639 0.722558,-0.30014 0.869282,-0.36389 0.146724,-0.0637 0.271656,-0.11592 0.277628,-0.11592 0.006,0 0.01086,0.14223 0.01086,0.31607 0,0.23083 -0.008,0.31925 -0.02954,0.32787 -1.8843,0.75274 -6.8581737,3.03228 -8.5710227,3.92813 -0.370366,0.19371 -0.960473,0.49894 -1.311347,0.6783 -1.3531657,0.69169 -2.0374477,1.04922 -2.8235347,1.47523 -0.44834,0.24298 -1.150089,0.61987 -1.55944197,0.83754 -0.409354,0.21767 -0.789468,0.42025 -0.844698,0.45019 l -0.100419,0.0544 z m 0.0047,-1.16413 0.0065,-0.36107 0.661582,-0.41984 c 1.36339597,-0.86523 3.74480997,-2.27301 5.85972067,-3.46399 0.376865,-0.21223 0.95634,-0.54464 1.287721,-0.7387 1.643527,-0.96244 2.9212487,-1.66647 4.4420467,-2.44758 0.500321,-0.25698 1.372191,-0.71204 1.937488,-1.01126 l 1.027814,-0.54404 0.0066,0.33371 c 0.0036,0.18353 -0.0017,0.34119 -0.01181,0.35035 -0.03097,0.028 -1.984682,1.05586 -2.711976,1.42673 -1.325962,0.67615 -2.463431,1.30248 -4.3711627,2.40693 -0.519837,0.30093 -1.455502,0.83733 -2.079279,1.19198 -1.9400187,1.10301 -3.8292497,2.22646 -5.13906967,3.05601 -0.474331,0.3004 -0.875991,0.5542 -0.892579,0.56401 -0.02404,0.0142 -0.02883,-0.0555 -0.02363,-0.34324 z m -0.0053,-2.34605 v -0.36007 L 1.1770626,205.2788 c 1.198544,-0.59518 1.682706,-0.82983 3.455581,-1.67473 0.5523027,-0.26321 1.2381027,-0.59204 1.5239997,-0.73072 0.285898,-0.13869 0.881321,-0.41725 1.323163,-0.61901 0.441842,-0.20177 1.499782,-0.69615 2.350977,-1.09862 2.1340817,-1.00906 2.8527517,-1.34245 3.6623257,-1.69896 0.565686,-0.24911 1.583748,-0.68888 1.719596,-0.74282 0.02384,-0.01 0.02882,0.0589 0.02363,0.32475 l -0.0066,0.33674 -0.271721,0.1157 c -1.337151,0.56935 -2.370852,1.04358 -4.761023,2.18418 -0.8836587,0.4217 -1.9309657,0.91518 -2.3273237,1.09663 -0.396358,0.18144 -1.172535,0.54788 -1.724837,0.8143 -0.552303,0.26642 -1.323163,0.63605 -1.7130237,0.82139 -1.469952,0.69882 -2.253707,1.08051 -3.325628,1.61955 l -1.10460497,0.55548 z m 0.0052,-3.47141 0.0066,-0.29865 0.921489,-0.5775 c 1.80087197,-1.12862 3.64286797,-2.22746 5.09181367,-3.03752 0.946436,-0.52913 2.430297,-1.37113 3.473302,-1.97088 2.1653057,-1.24511 3.4883987,-1.97102 4.9441397,-2.71261 l 0.797442,-0.40623 v 0.29119 0.2912 l -0.632046,0.31514 c -1.136413,0.56663 -2.650896,1.39629 -4.7433027,2.59848 -1.172968,0.67392 -2.654965,1.51528 -3.556,2.0188 -0.882479,0.49316 -2.2939547,1.31903 -3.3197207,1.94243 -0.8264,0.50223 -2.76243097,1.70514 -2.89806697,1.80064 -0.03449,0.0243 -0.06937,0.0442 -0.0775,0.0442 -0.0081,0 -0.0118,-0.13439 -0.0082,-0.29865 z m -0.005,-3.4611 1.8e-4,-0.35838 0.159309,-0.0835 c 0.94278597,-0.49423 2.01998897,-1.05209 2.62842197,-1.36121 2.2658697,-1.15117 4.0858987,-2.05874 4.8909777,-2.43889 0.500321,-0.23626 1.14359,-0.54058 1.429488,-0.67628 1.3346327,-0.63347 2.4978777,-1.17288 3.2915847,-1.52634 0.798515,-0.35561 2.800825,-1.21786 2.828096,-1.21786 0.0065,0 0.01176,0.0837 0.01176,0.18593 v 0.18594 l -0.07679,0.0306 c -0.23317,0.0928 -1.94256,0.85959 -2.664046,1.19497 -0.916223,0.4259 -5.0683287,2.47936 -6.0285637,2.98147 -0.329485,0.17229 -1.045632,0.54922 -1.591436,0.83763 -0.5458047,0.2884 -1.3326147,0.70258 -1.7484657,0.92039 -0.820411,0.42972 -2.42878997,1.29165 -2.86135197,1.53341 l -0.269346,0.15054 z m 7.15e-4,-0.95499 8.96e-4,-0.37098 0.42747,-0.25552 c 0.83789597,-0.50086 2.66920997,-1.61393 3.59929597,-2.18766 0.519814,-0.32064 1.3544697,-0.81958 1.8547907,-1.10875 0.500321,-0.28917 1.260548,-0.72963 1.689395,-0.97881 0.888696,-0.51638 2.000485,-1.14201 3.0834417,-1.73511 0.409354,-0.2242 1.132368,-0.6201 1.606698,-0.87978 0.47433,-0.25969 1.298353,-0.71873 1.831163,-1.0201 0.96881,-0.54798 1.108631,-0.62513 1.132966,-0.62513 0.0071,0 0.01299,0.14766 0.01299,0.32813 v 0.32814 l -0.844698,0.48355 c -0.464583,0.26595 -1.594293,0.89526 -2.510465,1.39847 -0.916172,0.50321 -2.0272737,1.11841 -2.4691157,1.36711 -1.361099,0.76613 -4.10919,2.3731 -4.9946857,2.92069 -0.462774,0.28618 -1.075324,0.66356 -1.361222,0.83862 -0.699151,0.42811 -2.12352397,1.29813 -2.64041797,1.6128 l -0.419481,0.25531 z m -8.97e-4,-4.35541 v -0.31468 l 0.230373,-0.10818 c 0.578286,-0.27155 2.32983897,-1.10675 2.97120897,-1.41677 0.835208,-0.40371 2.4208597,-1.12507 4.6789627,-2.12859 0.896328,-0.39833 1.991195,-0.89736 2.4330377,-1.10895 1.507751,-0.72203 2.923874,-1.37293 4.300279,-1.97657 0.324883,-0.14248 0.598672,-0.26391 0.608418,-0.26984 0.0097,-0.006 0.01772,0.0994 0.01772,0.23411 v 0.24491 l -0.419395,0.1857 c -1.079192,0.47785 -2.549744,1.16838 -4.053544,1.90344 -1.0645927,0.52038 -1.3423727,0.64997 -3.2297587,1.50685 -1.623819,0.73721 -3.7618737,1.73594 -4.4066047,2.05841 -0.324884,0.16249 -1.000051,0.48921 -1.500372,0.72604 -0.500321,0.23682 -1.06637197,0.50893 -1.25789097,0.6047 -0.191519,0.0958 -0.353665,0.17411 -0.360325,0.17411 -0.0067,0 -0.01211,-0.14161 -0.01211,-0.31469 z m 0,-3.30207 v -0.33642 l 1.28181397,-0.7123 c 0.704998,-0.39177 1.653954,-0.91636 2.108791,-1.16576 0.923633,-0.50646 5.4527357,-2.78416 7.5609304,-3.80243 0.75373,-0.36405 1.758507,-0.85284 2.232837,-1.08618 0.818824,-0.40283 1.910154,-0.91903 2.009579,-0.95055 0.04389,-0.0139 0.04605,-10e-4 0.04605,0.26758 v 0.28219 l -2.137802,1.06458 c -1.175791,0.58553 -2.143537,1.06459 -2.150546,1.06459 -0.007,0 -1.4612467,0.72725 -3.2316397,1.61611 -3.2681097,1.64082 -3.7376927,1.88843 -6.4612057,3.40699 -0.67866497,0.37841 -1.23953297,0.68801 -1.24637197,0.68801 -0.0068,0 -0.01243,-0.15139 -0.01244,-0.33641 z m 0.005,-3.32496 0.0068,-0.21583 0.307163,-0.13978 c 0.87059397,-0.39618 5.47911267,-2.32205 6.42170867,-2.68359 0.197725,-0.0758 0.619999,-0.2389 0.938385,-0.36236 0.318386,-0.12346 0.961655,-0.36851 1.429488,-0.54456 0.467833,-0.17605 1.1364837,-0.43734 1.4858907,-0.58064 l 0.635286,-0.26054 0.534295,0.001 0.534296,0.001 -0.236279,0.0949 c -0.129954,0.0522 -0.640317,0.25954 -1.13414,0.4607 -0.493823,0.20117 -1.2753157,0.50744 -1.7366507,0.68061 -1.431191,0.53722 -2.710469,1.03819 -3.780465,1.48045 -0.565298,0.23365 -1.4105867,0.58197 -1.8784187,0.77403 -0.980575,0.40256 -2.337676,0.98219 -3.03048597,1.29434 -0.263269,0.11862 -0.484294,0.21567 -0.491166,0.21567 -0.0069,0 -0.0094,-0.0971 -0.0057,-0.21583 z m 1.29e-4,-1.65246 0.0067,-0.26018 0.673395,-0.3653 c 1.71730297,-0.93161 2.72816497,-1.49458 3.55781497,-1.98143 l 0.8996757,-0.52793 0.447115,2.4e-4 0.447116,2.3e-4 -0.248093,0.14451 c -0.136452,0.0795 -0.678712,0.39671 -1.2050237,0.70497 -1.001475,0.58655 -1.357048,0.78519 -3.361828,1.87809 L 8.9633333e-5,185.96038 Z"
       id="path975"
       inkscape:connector-curvature="0" />
    <path
       style="display:inline;fill:#0e6977;fill-opacity:1;stroke-width:0.01927926"
       d="m 6.8890393,292.9941 c -0.04148,-0.0182 -0.02642,-0.0791 0.03166,-0.12797 0.205473,-0.1729 1.711607,-0.65712 3.067486,-0.9862 0.4462097,-0.1083 0.7364637,-0.16872 3.2556177,-0.67782 1.378251,-0.27854 1.619252,-0.32221 1.544921,-0.27992 -0.0159,0.009 -0.848771,0.21785 -1.850811,0.46401 -3.4297087,0.84252 -4.2046827,1.04885 -5.3244857,1.41758 -0.53517,0.17622 -0.673657,0.2126 -0.724385,0.19032 z m -3.1666201,-0.088 c -0.1051533,-0.0297 -0.1776551,-0.0959 -0.3502558,-0.3195 -0.087959,-0.11397 -0.3509012,-0.44145 -0.5843154,-0.72775 -0.5066574,-0.62145 -0.5947341,-0.74704 -0.581976,-0.82981 0.0068,-0.0441 -0.00229,-0.0696 -0.036691,-0.10267 -0.054369,-0.0523 -0.057744,-0.0716 -0.086292,-0.49419 -0.012178,-0.18026 -0.038587,-0.46222 -0.058681,-0.62658 -0.047153,-0.38564 -0.047468,-0.48573 -0.00164,-0.52719 0.043678,-0.0395 0.058988,-0.0399 0.1008047,-0.002 0.030313,0.0275 0.048892,0.0196 0.2232298,-0.0942 0.2525324,-0.16487 0.5606817,-0.33372 0.6385718,-0.34991 l 0.062822,-0.0131 -0.068736,-0.0803 c -0.1973476,-0.23075 -0.7263318,-0.62843 -0.8377128,-0.62978 -0.090112,-7.1e-4 -0.132282,-0.0231 -0.1796724,-0.0935 -0.046775,-0.0696 -0.047497,-0.0773 -0.063129,-0.67769 -0.0087,-0.33401 -0.016183,-0.71224 -0.016641,-0.8405 -6.013e-4,-0.16952 -0.00813,-0.24201 -0.027574,-0.26543 -0.037185,-0.0448 -0.018679,-0.21259 0.045674,-0.41412 0.028254,-0.0884 0.047575,-0.16464 0.042942,-0.16929 -0.00465,-0.004 -0.1273064,0.0136 -0.2726025,0.0403 -0.1452953,0.0268 -0.2920302,0.0488 -0.3260782,0.0488 -0.1550794,0 -0.1979975,-0.13174 -0.065954,-0.20244 0.060254,-0.0322 0.078338,-0.0346 0.1107825,-0.0144 0.032644,0.0204 0.088328,0.0118 0.3523531,-0.0543 l 0.3135791,-0.0785 0.1113389,-0.28313 c 0.1565017,-0.39797 0.2923428,-0.69015 0.6196281,-1.33277 0.3256102,-0.63932 0.3933158,-0.73368 0.5264152,-0.73368 0.06817,0 0.087946,0.0103 0.1432473,0.0753 0.03529,0.0415 0.1261314,0.19977 0.2018741,0.35184 0.1117007,0.22426 0.1675693,0.37299 0.2957709,0.78738 0.1909516,0.61722 0.2006412,0.64207 0.2457198,0.62972 0.018771,-0.005 0.1056452,-0.0198 0.1930539,-0.0327 0.1477232,-0.0216 0.161644,-0.0277 0.1974748,-0.0857 0.1087145,-0.1759 0.4196662,-0.39297 0.6894802,-0.48129 0.08735,-0.0286 0.09988,-0.0389 0.09156,-0.075 -0.0053,-0.023 -0.0118,-0.10138 -0.01444,-0.17415 -0.004,-0.11001 0.0011,-0.13602 0.03006,-0.15424 0.04814,-0.0303 0.08289,0.0201 0.109645,0.15896 0.01148,0.0595 0.02475,0.1267 0.02948,0.14915 0.0076,0.0361 0.0253,0.0419 0.153825,0.0501 0.361001,0.0232 0.571831,0.27382 0.543657,0.64634 -0.01444,0.19091 -0.0929,0.35603 -0.243908,0.51328 l -0.115584,0.12038 0.110312,0.0539 c 0.245224,0.11986 0.500118,0.34259 0.714547,0.62439 0.131134,0.17234 0.234413,0.3483 0.234413,0.39938 0,0.0196 0.01899,0.0946 0.04221,0.1667 0.02321,0.0721 0.03642,0.13685 0.02934,0.14393 -0.0071,0.007 -0.04126,-0.0102 -0.07595,-0.0384 -0.03469,-0.0283 -0.106455,-0.0846 -0.159472,-0.12524 -0.06151,-0.0471 -0.145242,-0.14644 -0.231352,-0.27432 -0.171682,-0.25498 -0.436468,-0.52472 -0.622394,-0.63405 -0.07723,-0.0454 -0.143299,-0.0792 -0.146828,-0.0751 -0.0035,0.004 0.0051,0.0855 0.01911,0.1809 0.03535,0.24024 0.07344,1.05068 0.05046,1.07367 -0.01131,0.0113 -0.02596,-0.0131 -0.03898,-0.0651 -0.06144,-0.24507 -0.17902,-0.82608 -0.208014,-1.02788 -0.02687,-0.18703 -0.04188,-0.24078 -0.0783,-0.28061 -0.05134,-0.0561 -0.05734,-0.11599 -0.01784,-0.17795 0.02375,-0.0373 0.02131,-0.0932 -0.01908,-0.43793 -0.07266,-0.62016 -0.06049,-0.5646 -0.120444,-0.54997 -0.09544,0.0232 -0.258036,0.10604 -0.381771,0.19433 -0.126849,0.0905 -0.154975,0.13161 -0.07949,0.11614 0.204092,-0.0418 0.256998,-0.0206 0.0964,0.0389 -0.2906784,0.10746 -0.2730426,0.0934 -0.3027714,0.24193 -0.018829,0.0941 -0.1324672,0.0848 -0.156973,-0.0128 -0.00658,-0.0261 -0.018006,-0.0476 -0.0254,-0.0476 -0.049678,0 -0.2522836,0.0854 -0.2522836,0.10635 0,0.0297 0.1517077,0.46357 0.3355562,0.9598 0.06993,0.18874 0.1271454,0.36402 0.1271454,0.38949 0,0.0547 -0.037858,0.14454 -0.060934,0.14454 -0.00891,0 -0.016183,0.21149 -0.016183,0.46999 0,0.39423 0.00465,0.47384 0.028919,0.49398 0.015904,0.0132 0.028918,0.0469 0.028918,0.0751 0,0.0564 -0.1179465,0.2738 -0.2547372,0.46948 l -0.088369,0.12641 0.066139,0.0641 c 0.080845,0.0784 0.2347514,0.29929 0.3034856,0.43566 0.02794,0.0554 0.09413,0.16714 0.147091,0.24828 0.07729,0.1184 0.09629,0.16368 0.09629,0.22944 0,0.0602 -0.0102,0.089 -0.03856,0.10838 -0.03693,0.0253 -0.03777,0.0371 -0.01984,0.27708 0.03013,0.40334 0.02535,0.94239 -0.0091,1.02478 -0.03769,0.0902 -0.03723,0.0931 0.01875,0.11859 0.09364,0.0427 0.08159,0.089 -0.111312,0.42789 -0.3744839,0.65794 -0.5933645,1.07123 -0.6976468,1.31732 -0.1111337,0.26226 -0.1542899,0.32143 -0.2344547,0.32143 -0.039145,0 -0.045888,0.008 -0.04124,0.051 0.00658,0.0604 -0.010305,0.0674 -0.1004866,0.0419 z m 0.0091,-0.31936 c 0.05118,-0.20392 0.80579,-1.56357 0.9879061,-1.78001 l 0.04932,-0.0586 -0.0306,-0.13869 c -0.02305,-0.10448 -0.032608,-0.2868 -0.038765,-0.73913 -0.00451,-0.33024 -0.00128,-0.61161 0.00718,-0.62527 0.00992,-0.016 -0.013744,-0.0594 -0.066826,-0.12254 -0.045194,-0.0538 -0.119634,-0.16432 -0.1654133,-0.24573 -0.1252511,-0.22277 -0.2501497,-0.37892 -0.4378748,-0.54746 -0.093192,-0.0837 -0.2301698,-0.20993 -0.304395,-0.28059 -0.074225,-0.0707 -0.1513867,-0.13151 -0.1714702,-0.13528 -0.07971,-0.0149 -0.1053678,-0.09 -0.1275638,-0.37314 -0.04656,-0.59398 -0.056299,-0.78561 -0.05695,-1.12065 -7.101e-4,-0.36469 0.0092,-0.40998 0.083424,-0.38149 0.048549,0.0186 0.065832,0.1202 0.098111,0.57673 0.016497,0.23329 0.044872,0.5738 0.063058,0.75671 l 0.033066,0.33257 h 0.052986 c 0.040096,0 0.104642,0.0469 0.2653985,0.19279 0.1168287,0.10604 0.2202986,0.19279 0.2299318,0.19279 0.00963,0 0.023019,-0.0144 0.029748,-0.0319 0.00672,-0.0175 0.068507,-0.11587 0.1372856,-0.21852 l 0.1250509,-0.18666 -0.031722,-0.0851 c -0.0248,-0.0666 -0.034568,-0.1924 -0.044772,-0.57674 L 4.404585,286.4992 4.2640429,286.12326 c -0.077298,-0.20677 -0.1828668,-0.50082 -0.2345971,-0.65344 -0.05173,-0.15263 -0.09712,-0.28057 -0.1008633,-0.2843 -0.00372,-0.004 -0.049492,0.005 -0.1016615,0.0211 -0.052174,0.0154 -0.3247603,0.0805 -0.6057551,0.14476 -0.2809959,0.0643 -0.6094533,0.13949 -0.7299047,0.16718 l -0.2190036,0.0504 -0.043907,0.0993 c -0.024149,0.0547 -0.07161,0.18906 -0.1054671,0.29878 l -0.061563,0.19948 0.021439,0.43629 c 0.011792,0.23996 0.029605,0.51871 0.039581,0.61944 0.00998,0.10073 0.018378,0.30678 0.018664,0.45789 l 5.463e-4,0.27472 h 0.066261 c 0.1103942,0 0.4951365,0.27796 0.841013,0.60761 0.1282856,0.12226 0.3171498,0.2863 0.4196987,0.36454 0.2663031,0.20317 0.4852809,0.43568 0.4852809,0.51527 0,0.0529 -0.057529,0.0977 -0.1088074,0.0848 -0.054104,-0.0136 -0.053089,-0.0305 -0.016726,0.27852 0.057565,0.4893 0.106158,0.97615 0.1062038,1.06411 4.36e-5,0.068 -0.011556,0.10397 -0.046531,0.1446 l -0.046581,0.054 -0.050035,-0.047 c -0.027517,-0.0259 -0.058052,-0.0778 -0.067856,-0.11568 -0.02706,-0.10434 -0.1017716,-1.11831 -0.1009485,-1.37008 l 7.151e-4,-0.22171 -0.061255,-0.0648 c -0.066855,-0.0708 -0.4094046,-0.34971 -0.4293809,-0.34971 -0.0068,0 -0.042184,0.0261 -0.078623,0.0582 -0.036442,0.032 -0.1445524,0.0975 -0.2402492,0.14556 -0.1306144,0.0655 -0.5807139,0.32698 -0.6299856,0.36584 -0.00329,0.003 0.01619,0.14662 0.043306,0.32005 0.027116,0.17343 0.068199,0.47583 0.091298,0.672 0.040475,0.34373 0.040761,0.35925 0.0079,0.42815 l -0.034096,0.0715 0.1705069,0.2106 c 0.093778,0.11583 0.4004115,0.48128 0.6814073,0.81209 0.2809949,0.33082 0.5195321,0.61381 0.5300813,0.62886 0.028153,0.0402 0.042505,0.0338 0.057401,-0.0255 z m -0.6163998,-7.45697 c 0.371126,-0.091 0.6882298,-0.16932 0.7046757,-0.17406 0.025172,-0.007 0.00968,-0.0796 -0.097844,-0.45678 -0.070258,-0.24649 -0.1431859,-0.49588 -0.1620588,-0.5542 -0.042363,-0.13091 -0.2434192,-0.5591 -0.2625259,-0.5591 -0.037235,0 -0.7083323,1.36533 -0.8649628,1.75974 -0.069715,0.17555 -0.069443,0.17386 -0.025801,0.16033 0.018557,-0.005 0.3373869,-0.0849 0.7085131,-0.17593 z m 2.6887299,0.0763 c 0.04472,-0.0485 0.103154,-0.13593 0.129863,-0.19427 0.04064,-0.0888 0.04734,-0.12776 0.04105,-0.23894 -0.0089,-0.15798 -0.04622,-0.21995 -0.170584,-0.2835 -0.07566,-0.0387 -0.230958,-0.0606 -0.230958,-0.0326 0,0.025 0.0982,0.75454 0.106891,0.79415 0.01351,0.0616 0.03177,0.055 0.123732,-0.0448 z m -0.712275,6.94238 c -0.02726,-0.0329 -0.02084,-0.19395 0.0222,-0.55695 0.02158,-0.18207 0.02087,-0.19161 -0.01647,-0.22172 -0.08166,-0.0659 -0.06855,-0.16018 0.03013,-0.21682 0.04736,-0.0272 0.05743,-0.0514 0.08822,-0.21185 0.05925,-0.30883 0.179809,-0.76451 0.234509,-0.8864 0.05877,-0.13097 0.10443,-0.17197 0.191477,-0.17197 0.117743,0 0.20092,0.15509 0.292096,0.54463 0.0506,0.21619 0.05527,0.22654 0.10224,0.22654 0.06539,0 0.134915,0.0507 0.134915,0.0984 0,0.0374 -0.06725,0.11951 -0.11038,0.13495 -0.01505,0.005 -0.01048,0.0593 0.0153,0.18118 0.07576,0.35783 0.08365,0.48468 0.04057,0.65234 -0.03875,0.15083 -0.0524,0.18224 -0.07107,0.16356 -0.01996,-0.0199 -0.103782,-0.37936 -0.145328,-0.6231 -0.02349,-0.13785 -0.04491,-0.25327 -0.0476,-0.25648 -0.0027,-0.003 -0.06442,0.0325 -0.137199,0.0794 -0.07278,0.047 -0.181628,0.1129 -0.241891,0.14674 -0.126228,0.0708 -0.112774,0.0333 -0.17886,0.49837 -0.02604,0.18319 -0.05862,0.3567 -0.07243,0.38558 -0.02906,0.0609 -0.09398,0.0776 -0.130437,0.0336 z m 0.601863,-1.34563 c 0.08762,-0.061 0.108685,-0.0855 0.101481,-0.11777 -0.06005,-0.26941 -0.128499,-0.54155 -0.142483,-0.56654 -0.01324,-0.0237 -0.0279,0.004 -0.06033,0.1123 -0.03854,0.12915 -0.172687,0.70037 -0.172994,0.73663 -1.64e-4,0.0163 0.105629,-0.0472 0.274321,-0.16462 z m 2.437506,0.93715 c -0.02782,-0.0278 -0.01041,-0.23803 0.03537,-0.42698 0.06415,-0.26479 0.06508,-0.25776 -0.02914,-0.22074 -0.06086,0.0239 -0.08754,0.0258 -0.125316,0.008 -0.05306,-0.0241 -0.06426,-0.0909 -0.0239,-0.14255 0.02061,-0.0264 0.146546,-0.10924 0.273043,-0.17972 0.02612,-0.0146 0.05888,-0.10618 0.119976,-0.33555 0.04622,-0.17354 0.104316,-0.35973 0.129093,-0.41376 0.08286,-0.18067 0.212164,-0.19294 0.302077,-0.0286 l 0.0482,0.0881 0.106035,-0.0846 c 0.125187,-0.0999 0.305093,-0.20447 0.425068,-0.24708 0.12446,-0.0442 0.597145,-0.13973 0.607613,-0.12279 0.0085,0.0137 -0.159055,0.10628 -0.685654,0.37853 -0.195014,0.10083 -0.394398,0.20835 -0.418798,0.22585 -0.0024,0.002 0.0069,0.0633 0.02071,0.13696 l 0.025,0.13387 0.06605,-0.005 0.06605,-0.005 -0.05922,0.0483 c -0.05688,0.0463 -0.05865,0.0522 -0.04479,0.14964 0.02107,0.14797 0.01981,0.4233 -0.0029,0.62098 -0.01925,0.16807 -0.02773,0.20056 -0.04723,0.18105 -0.01314,-0.0132 -0.144324,-0.65228 -0.144561,-0.70432 -1.1e-4,-0.0232 -0.0087,-0.0475 -0.01915,-0.054 -0.01936,-0.0119 -0.226555,0.11917 -0.263005,0.16647 -0.01108,0.0144 -0.04393,0.11927 -0.07301,0.23312 -0.06387,0.25001 -0.161951,0.55517 -0.189091,0.58828 -0.0212,0.0259 -0.07753,0.0323 -0.09858,0.0112 z m 0.592428,-1.20275 c -0.0028,-0.0926 -0.04806,-0.35056 -0.05949,-0.33914 -0.0091,0.009 -0.120372,0.43167 -0.121229,0.46031 -2.18e-4,0.008 0.04079,-0.002 0.09116,-0.0203 0.08569,-0.0322 0.09145,-0.0387 0.08956,-0.10088 z m -1.439862,0.84906 c -0.09616,-0.0757 -0.132504,-0.26801 -0.179382,-0.94946 -0.03231,-0.4697 -0.02878,-0.51553 0.03973,-0.51553 0.07264,0 0.125239,0.16354 0.164328,0.5109 0.03632,0.32277 0.07906,0.59677 0.09576,0.61384 0.01902,0.0195 0.147363,-0.30424 0.231912,-0.58492 0.03354,-0.11133 0.07815,-0.25773 0.09913,-0.32533 0.04329,-0.13948 0.220804,-0.50367 0.245499,-0.50367 0.01756,0 0.04121,0.22958 0.04121,0.39993 0,0.34879 -0.264536,1.11151 -0.454578,1.31064 -0.0672,0.0705 -0.08995,0.0824 -0.156454,0.0824 -0.04879,0 -0.09622,-0.0145 -0.127152,-0.0389 z m 2.387691,-0.0207 c -0.0054,-0.015 -0.04098,-0.10974 -0.07911,-0.21048 -0.09126,-0.24106 -0.135551,-0.43532 -0.171429,-0.75189 -0.03206,-0.28285 -0.027,-0.33931 0.03204,-0.35805 0.05684,-0.018 0.107509,0.0434 0.12865,0.15576 0.08137,0.43277 0.152323,1.13927 0.117884,1.17371 -0.0115,0.0115 -0.02188,0.008 -0.02804,-0.009 z m -3.143035,-0.0776 c -0.04701,-0.0413 -0.07688,-0.0907 -0.09613,-0.15906 -0.06944,-0.24663 -0.08744,-1.01641 -0.02674,-1.14307 0.02922,-0.061 0.08091,-0.0797 0.123173,-0.0446 0.02177,0.0181 0.028,0.0774 0.028,0.26681 0,0.28759 0.04505,0.71128 0.08777,0.82541 0.03389,0.0906 0.06192,0.1046 0.284254,0.14225 0.0778,0.0132 0.128187,0.0307 0.124032,0.0432 -0.01108,0.0332 -0.285299,0.12687 -0.374887,0.12798 -0.06426,7.1e-4 -0.09554,-0.0115 -0.14947,-0.0589 z m 4.2579167,-0.25341 c -0.0749,-0.0769 -0.167091,-0.18315 -0.204875,-0.23617 -0.08799,-0.12347 -0.265521,-0.28674 -0.264654,-0.2434 3.28e-4,0.0172 0.01269,0.12677 0.02742,0.2434 0.03108,0.24601 0.01752,0.30432 -0.07327,0.31474 -0.06926,0.008 -0.114073,-0.0325 -0.163548,-0.14747 -0.1154357,-0.26834 -0.1312817,-0.79822 -0.03372,-1.1278 0.104765,-0.35394 0.230566,-0.51433 0.403418,-0.51433 0.09403,0 0.175354,0.0965 0.206237,0.24466 0.04319,0.20723 -0.01527,0.61723 -0.116232,0.81512 l -0.04063,0.0796 0.121875,0.13164 c 0.133262,0.14393 0.198042,0.25073 0.272733,0.4496 0.03356,0.0893 0.04145,0.13014 0.02516,0.13014 -0.01304,0 -0.08499,-0.0629 -0.159894,-0.13978 z m -0.42903,-0.68441 c 0.106082,-0.24435 0.171526,-0.70628 0.112671,-0.79527 -0.02809,-0.0425 -0.08329,0.0355 -0.143365,0.20244 -0.07276,0.2022 -0.08879,0.29307 -0.05645,0.31991 0.01913,0.0159 0.02675,0.0709 0.02675,0.19335 0,0.0941 0.0047,0.17115 0.01032,0.17115 0.0057,0 0.02821,-0.0412 0.05008,-0.0916 z m 1.091002,0.60368 c -0.106834,-0.14191 -0.120815,-0.19787 -0.187271,-0.74963 -0.03808,-0.31619 -0.03894,-0.34731 -0.01069,-0.39041 0.02118,-0.0323 0.04856,-0.0469 0.08836,-0.0469 0.0855,0 0.124286,0.0799 0.162384,0.33434 0.01771,0.11832 0.04854,0.31307 0.06851,0.43277 0.03881,0.23273 0.03424,0.54475 -0.008,0.543 -0.01168,-4.9e-4 -0.06268,-0.0559 -0.113341,-0.12322 z m 0.680303,-0.18157 c -0.111392,-0.0597 -0.15445,-0.16767 -0.154211,-0.38658 2.19e-4,-0.20245 0.06348,-0.55382 0.132308,-0.73481 0.120914,-0.31801 0.311235,-0.48125 0.426588,-0.3659 0.06042,0.0604 0.05917,0.0629 -0.103706,0.2086 -0.103785,0.0928 -0.204956,0.4919 -0.204467,0.80659 1.64e-4,0.10437 0.008,0.20186 0.0173,0.21662 0.02229,0.0352 0.163259,0.0574 0.374416,0.0588 0.123212,7.1e-4 0.168173,0.007 0.16261,0.0242 -0.0042,0.0127 -0.102554,0.0643 -0.218499,0.11459 -0.233642,0.10142 -0.327734,0.11403 -0.43234,0.0579 z m 1.281104,-0.14481 c -0.10707,-0.0498 -0.185136,-0.13143 -0.246338,-0.2574 -0.02206,-0.0454 -0.04616,-0.0825 -0.05357,-0.0825 -0.0075,0 -0.05123,0.0216 -0.09737,0.0479 -0.09649,0.0551 -0.173992,0.0616 -0.217483,0.0181 -0.0685,-0.0685 -0.02184,-0.14945 0.148616,-0.25782 l 0.118312,-0.0752 0.0021,-0.20256 0.0021,-0.20257 -0.05853,0.0302 c -0.03219,0.0167 -0.108349,0.0777 -0.169241,0.13587 -0.09189,0.0876 -0.118933,0.10354 -0.159057,0.0935 -0.06508,-0.0163 -0.09451,-0.077 -0.07855,-0.16215 0.02807,-0.14963 0.373106,-0.41454 0.708928,-0.54427 0.259216,-0.10014 0.381526,-0.12069 0.64079,-0.10765 0.308664,0.0155 0.436582,0.0325 0.428478,0.0567 -0.0069,0.0207 -0.493947,0.19692 -0.835599,0.30229 -0.288851,0.0891 -0.285227,0.0851 -0.270309,0.29528 0.0068,0.0956 0.01547,0.17692 0.0193,0.18075 0.0039,0.004 0.148955,-0.0413 0.322497,-0.1002 0.173543,-0.0589 0.328427,-0.10467 0.344187,-0.10164 0.0352,0.007 -0.06288,0.0884 -0.365218,0.30407 -0.121941,0.087 -0.224473,0.16554 -0.227848,0.17461 -0.01215,0.0326 0.06023,0.15472 0.114628,0.19345 0.08219,0.0585 0.150228,0.0735 0.478603,0.10554 0.163848,0.016 0.301936,0.033 0.306862,0.038 0.02064,0.0206 -0.03105,0.0382 -0.291603,0.0989 -0.328695,0.0767 -0.432579,0.0801 -0.564582,0.0186 z m -2.276998,-1.34106 c -0.121373,-0.074 -0.128744,-0.27595 -0.01339,-0.36669 0.104094,-0.0819 0.181123,-0.0431 0.238143,0.11979 0.04486,0.1282 0.03626,0.19059 -0.0339,0.24579 -0.06102,0.0479 -0.113461,0.0483 -0.190858,0.002 z m 0.157577,-0.19582 c 0.02511,-0.0791 -0.06843,-0.10817 -0.108309,-0.0337 -0.01841,0.0344 -0.01648,0.0461 0.01084,0.0662 0.04088,0.0299 0.08202,0.0162 0.09747,-0.0325 z m -2.6439577,-2.18722 c -0.04343,-0.0663 -0.03006,-0.17803 0.07034,-0.58785 0.04439,-0.1812 0.07758,-0.33244 0.07375,-0.3361 -0.0038,-0.004 -0.07202,0.005 -0.151544,0.0194 -0.167087,0.0301 -0.306882,0.0346 -0.343894,0.011 -0.01418,-0.009 -0.02285,-0.037 -0.01928,-0.0623 0.0074,-0.0522 0.043,-0.066 0.350552,-0.13612 0.104398,-0.0238 0.200667,-0.0522 0.213934,-0.0634 0.01327,-0.0111 0.04387,-0.0981 0.06801,-0.19359 0.06794,-0.26862 0.204425,-0.67287 0.280779,-0.83162 0.038,-0.079 0.10614,-0.18231 0.151419,-0.22957 0.07406,-0.0773 0.09122,-0.0859 0.170906,-0.0859 0.112295,0 0.195363,0.0653 0.25669,0.20181 0.02398,0.0533 0.08555,0.26923 0.136835,0.4797 l 0.09324,0.38268 0.07712,-0.0111 c 0.04241,-0.006 0.231391,-0.0404 0.419948,-0.0762 0.188557,-0.0357 0.346893,-0.0585 0.351857,-0.0505 0.0096,0.0154 -0.15216,0.0767 -0.554913,0.20998 -0.135197,0.0448 -0.245812,0.0854 -0.245812,0.0903 0,0.005 0.03482,0.14741 0.07738,0.31668 0.04256,0.16927 0.082,0.37058 0.08763,0.44736 0.0093,0.12695 0.0044,0.15348 -0.05363,0.29236 -0.03514,0.084 -0.07342,0.15593 -0.08507,0.15981 -0.01332,0.004 -0.0263,-0.0452 -0.03499,-0.13346 -0.0076,-0.0773 -0.04652,-0.25331 -0.08651,-0.39116 -0.03998,-0.13786 -0.09229,-0.33088 -0.116226,-0.42897 -0.02394,-0.0981 -0.04906,-0.17816 -0.05582,-0.17795 -0.0068,2.1e-4 -0.163422,0.0423 -0.348122,0.0935 l -0.33582,0.0932 -0.102428,0.37398 c -0.05633,0.20569 -0.111982,0.42604 -0.123659,0.48967 -0.01168,0.0636 -0.03487,0.13085 -0.05154,0.14941 -0.04572,0.0509 -0.132928,0.0432 -0.171117,-0.0151 z m 0.818176,-1.30903 c 0.141288,-0.0359 0.261672,-0.07 0.267519,-0.0759 0.01448,-0.0145 -0.16303,-0.7426 -0.195405,-0.80154 -0.02565,-0.0467 -0.02635,-0.0461 -0.08366,0.0675 -0.03179,0.063 -0.0845,0.19031 -0.11715,0.28288 -0.05558,0.15758 -0.176395,0.55596 -0.176395,0.58164 0,0.0198 0.04059,0.0127 0.305088,-0.0546 z m -1.525881,0.9771 c -0.111729,-0.22518 -0.15162,-0.33101 -0.245254,-0.65068 -0.04349,-0.14845 -0.126153,-0.42801 -0.183713,-0.62124 -0.114703,-0.38508 -0.124545,-0.45604 -0.06749,-0.48657 0.05481,-0.0294 0.09451,-0.005 0.140015,0.0836 0.04348,0.0852 0.357697,1.02534 0.422895,1.26526 0.04606,0.1695 0.07365,0.57838 0.03903,0.57838 -0.01198,0 -0.05944,-0.076 -0.105478,-0.1687 z m -0.741765,-2.12801 c -0.108639,-0.0538 -0.179691,-0.14899 -0.19188,-0.25712 -0.0056,-0.0494 -0.02504,-0.0997 -0.04582,-0.11855 -0.04783,-0.0433 -0.04592,-0.13551 0.0045,-0.21953 0.09427,-0.15701 0.187588,-0.21757 0.335291,-0.21757 0.117009,0 0.194643,0.0371 0.279099,0.13325 0.08844,0.10074 0.122213,0.19112 0.12155,0.32532 -0.0016,0.31276 -0.242923,0.48281 -0.502757,0.3542 z m 0.234899,-0.24577 c 0.018,-0.0198 0.0377,-0.0668 0.04378,-0.10426 0.02136,-0.13161 -0.115382,-0.28952 -0.221539,-0.25582 -0.03007,0.01 -0.04096,0.0361 -0.05129,0.1252 -0.01456,0.12544 3.28e-4,0.16876 0.07946,0.23099 0.0631,0.0496 0.107154,0.0507 0.149592,0.004 z"
       id="path858"
       inkscape:connector-curvature="0" />
    <flowRoot
       xml:space="preserve"
       id="flowRoot7228"
       style="font-style:normal;font-variant:normal;font-weight:normal;font-stretch:normal;font-size:40px;line-height:1.25;font-family:'Segoe UI Historic';-inkscape-font-specification:'Segoe UI Historic';letter-spacing:0px;word-spacing:0px;fill:#000000;fill-opacity:1;stroke:none"
       transform="matrix(0.26458333,0,0,0.26458333,0,168.49998)"><flowRegion
         id="flowRegion7230"><rect
           id="rect7232"
           width="224.28572"
           height="60.714287"
           x="5.7142859"
           y="92.097855" /></flowRegion><flowPara
         id="flowPara7234" /></flowRoot>    <flowRoot
       xml:space="preserve"
       id="flowRoot7236"
       style="font-style:normal;font-variant:normal;font-weight:normal;font-stretch:normal;font-size:40px;line-height:1.25;font-family:'Segoe UI Historic';-inkscape-font-specification:'Segoe UI Historic';letter-spacing:0px;word-spacing:0px;fill:#000000;fill-opacity:1;stroke:none"><flowRegion
         id="flowRegion7238"><rect
           id="rect7240"
           width="356.42856"
           height="270.71429"
           x="100.71429"
           y="71.383568" /></flowRegion><flowPara
         id="flowPara7242" /></flowRoot>    <rect
       y="173.49998"
       x="0"
       height="10"
       width="15.24"
       id="rect7671"
       style="display:inline;opacity:0.98000004;fill:url(#linearGradient7673);fill-opacity:1;stroke:none;stroke-width:0.77764034;stroke-miterlimit:4;stroke-dasharray:none;stroke-opacity:1;paint-order:stroke fill markers;enable-background:new" />
    <rect
       style="opacity:0.98000004;fill:url(#Pink);fill-opacity:1;stroke:none;stroke-width:0.44721359;stroke-miterlimit:4;stroke-dasharray:none;stroke-opacity:1;paint-order:stroke fill markers"
       id="rect7491"
       width="15.24"
       height="8"
       x="3.1086242e-16"
       y="174.49998" />
    <g
       aria-label="Splirge"
       style="font-style:normal;font-variant:normal;font-weight:normal;font-stretch:normal;font-size:4.23333311px;line-height:1.25;font-family:'Segoe UI Historic';-inkscape-font-specification:'Segoe UI Historic';letter-spacing:0px;word-spacing:0px;fill:url(#DarkerBlue);fill-opacity:1;stroke:none;stroke-width:0.26458332"
       id="text7677">
      <path
         d="m 2.4415907,177.33554 q -0.040308,-0.0851 -0.076137,-0.16123 -0.03359,-0.0761 -0.080615,-0.13436 -0.044786,-0.0582 -0.1097263,-0.0918 -0.06494,-0.0336 -0.1657091,-0.0336 -0.078376,0 -0.1388373,0.0291 -0.058222,0.0291 -0.096291,0.0784 -0.038068,0.0493 -0.058222,0.1142 -0.017915,0.0649 -0.017915,0.1366 0,0.0582 0.017915,0.10972 0.017915,0.0515 0.047026,0.0941 0.03135,0.0425 0.069419,0.0784 0.038068,0.0336 0.076137,0.056 l 0.5553494,0.32471 q 0.1970594,0.11196 0.3224609,0.23512 0.1254015,0.12316 0.1948201,0.24409 0.071658,0.12092 0.09853,0.23513 0.026872,0.11196 0.03135,0.20377 0,0.24857 -0.085094,0.45458 -0.082855,0.20378 -0.2306492,0.34934 -0.1477946,0.14555 -0.3493326,0.22617 -0.1992988,0.0784 -0.4321873,0.0784 -0.2149739,0 -0.3941189,-0.0649 -0.1791449,-0.0649 -0.3202216,-0.17914 -0.1388374,-0.11645 -0.2418457,-0.2732 -0.10076905,-0.15899 -0.16346978,-0.34261 l 0.56878528,-0.26648 q 0.049265,0.0806 0.107487,0.17914 0.058222,0.0963 0.1298801,0.18139 0.071658,0.0829 0.1634697,0.13884 0.091812,0.056 0.2127347,0.056 0.060461,0 0.1142049,-0.0269 0.055983,-0.0291 0.09629,-0.0761 0.042547,-0.0493 0.067179,-0.10973 0.026872,-0.0627 0.026872,-0.12988 0,-0.13659 -0.067179,-0.2396 -0.06494,-0.10301 -0.1612305,-0.16571 l -0.602375,-0.35605 q -0.1254014,-0.0717 -0.2306491,-0.16347 -0.1030084,-0.0918 -0.1813843,-0.20154 -0.076137,-0.11197 -0.1186835,-0.23961 -0.0425469,-0.12764 -0.0425469,-0.27319 0,-0.22841 0.0806152,-0.41652 0.082855,-0.19034 0.2239312,-0.32693 0.143316,-0.1366 0.3381361,-0.2105 0.1970595,-0.0761 0.4254693,-0.0761 0.3493327,0 0.5978963,0.17915 0.2485637,0.1769 0.3672472,0.51952 l -0.5687853,0.25752 z"
         style="font-style:normal;font-variant:normal;font-weight:normal;font-stretch:normal;font-size:4.58611107px;line-height:13.22916603px;font-family:'Francois One';-inkscape-font-specification:'Francois One';text-align:center;text-anchor:middle;fill:url(#DarkerBlue);stroke-width:0.26458332"
         id="path891" />
      <path
         d="m 3.5097425,177.36465 0.6449219,-0.0537 v 0.24856 q 0.053744,-0.0537 0.1142049,-0.10301 0.062701,-0.0515 0.1298801,-0.0896 0.069419,-0.0403 0.1455553,-0.0649 0.076137,-0.0246 0.1567519,-0.0246 0.1769056,0 0.2955891,0.0627 0.1209229,0.0605 0.1970595,0.16347 0.076137,0.10301 0.1142049,0.2396 0.040308,0.13436 0.055983,0.28216 0.015675,0.14555 0.015675,0.29559 0.00224,0.14779 0.00224,0.27991 0,0.12092 -0.00448,0.26872 -0.00448,0.14779 -0.026872,0.29783 -0.020154,0.15003 -0.06494,0.29111 -0.044786,0.14107 -0.1276408,0.2508 -0.080615,0.10973 -0.2037774,0.17691 -0.1231622,0.0649 -0.3023071,0.0649 -0.1254015,0 -0.2172133,-0.0448 -0.091812,-0.0426 -0.1545125,-0.0963 -0.073897,-0.0605 -0.1254015,-0.14108 v 0.89797 l -0.6449219,0.1254 z m 0.9203573,0.3762 q -0.062701,0 -0.1142049,0.0291 -0.049265,0.0269 -0.085094,0.0605 -0.042547,0.0403 -0.076137,0.0896 v 1.33239 q 0.026872,0.0582 0.067179,0.10301 0.03359,0.0381 0.085094,0.0717 0.053743,0.0313 0.1276408,0.0313 0.067179,0 0.1209229,-0.0336 0.055983,-0.0336 0.09629,-0.12764 0.040308,-0.0941 0.062701,-0.262 0.022393,-0.16795 0.022393,-0.43443 0,-0.24184 -0.020154,-0.40531 -0.020154,-0.16571 -0.058222,-0.26648 -0.038068,-0.10077 -0.09629,-0.14332 -0.058222,-0.0448 -0.1321194,-0.0448 z"
         style="font-style:normal;font-variant:normal;font-weight:normal;font-stretch:normal;font-size:4.58611107px;line-height:13.22916603px;font-family:'Francois One';-inkscape-font-specification:'Francois One';text-align:center;text-anchor:middle;fill:url(#DarkerBlue);stroke-width:0.26458332"
         id="path893" />
      <path
         d="m 5.8475845,176.53163 0.6449219,-0.0806 v 3.41271 l -0.6449219,0.0538 z"
         style="font-style:normal;font-variant:normal;font-weight:normal;font-stretch:normal;font-size:4.58611107px;line-height:13.22916603px;font-family:'Francois One';-inkscape-font-specification:'Francois One';text-align:center;text-anchor:middle;fill:url(#DarkerBlue);stroke-width:0.26458332"
         id="path895" />
      <path
         d="m 7.0478557,177.36465 0.6449218,-0.0537 v 2.55281 l -0.6449218,0.0538 z m 0.6449218,-1.05695 v 0.64492 l -0.6449218,0.0269 v -0.66732 z"
         style="font-style:normal;font-variant:normal;font-weight:normal;font-stretch:normal;font-size:4.58611107px;line-height:13.22916603px;font-family:'Francois One';-inkscape-font-specification:'Francois One';text-align:center;text-anchor:middle;fill:url(#DarkerBlue);stroke-width:0.26458332"
         id="path897" />
      <path
         d="m 8.2481268,177.36465 0.6449219,-0.0537 v 0.41427 q 0.055983,-0.0739 0.1321194,-0.15227 0.076137,-0.0806 0.172427,-0.14556 0.09853,-0.0649 0.2172133,-0.10749 0.1186835,-0.0425 0.2597602,-0.0425 0.011196,0 0.024632,0.002 0.013436,0 0.024632,0.002 0.013436,0.002 0.029111,0.004 v 0.76809 q -0.1052477,-0.0314 -0.2127347,-0.0649 -0.1074869,-0.0336 -0.2172132,-0.0336 -0.107487,0 -0.2127347,0.047 -0.1052476,0.047 -0.2172132,0.16795 v 1.69292 l -0.6449219,0.0538 z"
         style="font-style:normal;font-variant:normal;font-weight:normal;font-stretch:normal;font-size:4.58611107px;line-height:13.22916603px;font-family:'Francois One';-inkscape-font-specification:'Francois One';text-align:center;text-anchor:middle;fill:url(#DarkerBlue);stroke-width:0.26458332"
         id="path899" />
      <path
         d="m 9.9141747,180.16603 q 0,-0.0649 0.017914,-0.12092 0.020154,-0.056 0.051504,-0.10525 0.03359,-0.047 0.073898,-0.0851 0.04031,-0.0403 0.08285,-0.0717 0.09853,-0.0739 0.226171,-0.12316 -0.107487,-0.0291 -0.192581,-0.0761 -0.03583,-0.0202 -0.07166,-0.047 -0.03359,-0.0269 -0.06046,-0.0582 -0.02687,-0.0336 -0.044787,-0.0739 -0.015675,-0.0403 -0.015675,-0.0873 0,-0.0627 0.020154,-0.12092 0.02239,-0.0605 0.05598,-0.11197 0.03359,-0.0515 0.07614,-0.0963 0.04479,-0.047 0.08957,-0.0851 0.107487,-0.0896 0.244085,-0.15675 -0.116444,-0.0694 -0.206017,-0.16795 -0.03807,-0.0426 -0.07614,-0.0941 -0.03583,-0.0537 -0.06494,-0.11645 -0.02911,-0.0649 -0.04702,-0.13884 -0.01792,-0.0761 -0.01792,-0.16346 0,-0.19259 0.08286,-0.34038 0.08509,-0.14779 0.219453,-0.24632 0.134358,-0.10077 0.302307,-0.15004 0.170187,-0.0515 0.342614,-0.0515 0.123163,0 0.223932,0.0179 0.100769,0.0179 0.179145,0.047 0.08061,0.0291 0.141076,0.0627 0.0627,0.0336 0.109727,0.0649 0.03359,-0.0314 0.08957,-0.0806 0.05822,-0.0515 0.132119,-0.10077 0.0739,-0.0493 0.158992,-0.0829 0.08733,-0.0358 0.174666,-0.0358 0.0112,0 0.02239,0.002 0.0112,0 0.02239,0.002 0.0112,0.002 0.02463,0.004 v 0.54191 q -0.06046,-0.0224 -0.114205,-0.0426 -0.04479,-0.0179 -0.09405,-0.0313 -0.04703,-0.0134 -0.0739,-0.0134 -0.02463,0 -0.04702,0.007 -0.02015,0.007 -0.03807,0.0134 -0.02239,0.009 -0.04031,0.0179 0.02687,0.0672 0.04927,0.13435 0.01791,0.0582 0.03359,0.12541 0.01568,0.0649 0.01568,0.12316 0,0.14108 -0.05822,0.28663 -0.05598,0.14556 -0.167948,0.26648 -0.111966,0.11868 -0.279914,0.19482 -0.165709,0.0739 -0.385162,0.047 -0.08733,0 -0.154512,-0.004 -0.06718,-0.004 -0.114205,-0.004 -0.09405,0.0269 -0.13212,0.0605 -0.03583,0.0314 -0.03583,0.15227 0,0.0649 0.04703,0.10973 0.04703,0.0425 0.114205,0.0515 l 0.609093,0.047 q 0.174666,0.0134 0.313503,0.056 0.141077,0.0403 0.239607,0.12988 0.100769,0.0896 0.152273,0.21274 0.05374,0.12092 0.05374,0.27543 0,0.14556 -0.05374,0.25976 -0.05374,0.11421 -0.145555,0.19706 -0.08957,0.0851 -0.210496,0.14108 -0.118683,0.0582 -0.250802,0.0918 -0.129881,0.0358 -0.264239,0.0515 -0.134359,0.0157 -0.255282,0.0157 -0.261999,0 -0.463537,-0.0403 -0.201539,-0.0381 -0.338137,-0.10749 -0.136598,-0.0694 -0.2082556,-0.16571 -0.069419,-0.0963 -0.069419,-0.21273 z m 0.5866993,-0.19482 q 0,0.056 0.02911,0.10077 0.03135,0.0448 0.09853,0.0761 0.06942,0.0336 0.176906,0.0493 0.109726,0.0179 0.266478,0.0179 0.230649,0 0.351572,-0.0761 0.123162,-0.0761 0.123162,-0.2105 0,-0.0739 -0.05374,-0.11644 -0.05374,-0.0448 -0.12988,-0.0649 -0.0739,-0.0224 -0.154513,-0.0291 -0.07838,-0.007 -0.127641,-0.007 h -0.376204 q -0.03583,0.0112 -0.0739,0.0313 -0.03583,0.0202 -0.06494,0.0537 -0.02911,0.0314 -0.04703,0.0761 -0.01792,0.0426 -0.01792,0.0985 z m 0.199299,-1.93029 q 0,0.0739 0.0112,0.15228 0.0112,0.0784 0.04255,0.14331 0.03359,0.0649 0.09181,0.10749 0.06046,0.0403 0.156751,0.0403 0.13212,0 0.208256,-0.10973 0.07838,-0.11197 0.07838,-0.32022 0,-0.10077 -0.02463,-0.17243 -0.02239,-0.0739 -0.0627,-0.12092 -0.04031,-0.047 -0.09405,-0.0694 -0.0515,-0.0246 -0.109726,-0.0246 -0.07838,0 -0.134359,0.0358 -0.05598,0.0336 -0.09181,0.0873 -0.03583,0.0537 -0.05374,0.12092 -0.01792,0.0672 -0.01792,0.12988 z"
         style="font-style:normal;font-variant:normal;font-weight:normal;font-stretch:normal;font-size:4.58611107px;line-height:13.22916603px;font-family:'Francois One';-inkscape-font-specification:'Francois One';text-align:center;text-anchor:middle;fill:url(#DarkerBlue);stroke-width:0.26458332"
         id="path901" />
      <path
         d="m 13.096238,178.69032 q 0,0.12093 0.01567,0.25976 0.01567,0.13884 0.0515,0.25528 0.03807,0.11645 0.09853,0.19483 0.06046,0.0761 0.147794,0.0761 0.07614,0 0.138838,-0.0605 0.0627,-0.0605 0.109726,-0.1366 0.04703,-0.0761 0.0739,-0.14331 0.02911,-0.0672 0.03583,-0.0806 l 0.48817,0.18586 q -0.04479,0.15676 -0.118683,0.28664 -0.0739,0.12988 -0.179145,0.22393 -0.105248,0.0941 -0.244085,0.14555 -0.138838,0.0538 -0.315743,0.0538 -0.235128,0 -0.414273,-0.0985 -0.176906,-0.0985 -0.295589,-0.27544 -0.116444,-0.1769 -0.176906,-0.42323 -0.05822,-0.24632 -0.05822,-0.53967 0,-0.29559 0.06046,-0.54192 0.06046,-0.24632 0.181384,-0.42323 0.120923,-0.1769 0.302307,-0.27319 0.181384,-0.0985 0.42323,-0.0985 0.230649,0 0.403076,0.0985 0.172427,0.0963 0.288871,0.27319 0.116445,0.17691 0.174667,0.42323 0.05822,0.24633 0.05822,0.54192 l -0.009,0.0314 q -0.0045,0.0134 -0.0067,0.0269 -0.0022,0.0112 -0.0022,0.0179 z m 0.61581,-0.37172 q 0,-0.12764 -0.01791,-0.23737 -0.01567,-0.10973 -0.0515,-0.1881 -0.03583,-0.0806 -0.09405,-0.1254 -0.05598,-0.047 -0.138838,-0.047 -0.05822,0 -0.116444,0.047 -0.05598,0.0448 -0.100769,0.1254 -0.04255,0.0784 -0.06942,0.1881 -0.02687,0.10973 -0.02687,0.23737 z"
         style="font-style:normal;font-variant:normal;font-weight:normal;font-stretch:normal;font-size:4.58611107px;line-height:13.22916603px;font-family:'Francois One';-inkscape-font-specification:'Francois One';text-align:center;text-anchor:middle;fill:url(#DarkerBlue);stroke-width:0.26458332"
         id="path903" />
    </g>
    <path
       transform="translate(0,168.49998)"
       style="enable-background:new;display:inline;fill:url(#DarkerBlue);stroke-width:0.02361377"
       d="m 11.941691,103.9431 c 0.0099,-0.0251 0.02367,-0.0791 0.03055,-0.11997 0.01024,-0.0609 0.0035,-0.0771 -0.03748,-0.0901 -0.08799,-0.0279 -0.09561,-0.079 -0.07245,-0.48647 0.05119,-0.90038 0.06895,-0.98236 0.199971,-0.92274 0.03358,0.0153 0.08063,0.0278 0.104547,0.0278 0.02392,0 0.0992,0.0383 0.16728,0.0851 0.09771,0.0671 0.128152,0.0783 0.144506,0.0531 0.01139,-0.0176 0.06253,-0.16469 0.113624,-0.32694 0.243192,-0.77218 0.349405,-1.45107 0.324777,-2.07589 -0.02188,-0.555148 -0.118468,-0.948731 -0.335564,-1.3674 -0.397979,-0.767501 -1.084256,-1.264502 -2.071585,-1.500241 -0.6711367,-0.160244 -2.1758227,-0.302221 -2.4350327,-0.229761 -0.04873,0.01362 -0.0886,0.01977 -0.0886,0.01367 0,-0.03142 0.189375,-0.08278 0.349751,-0.09485 0.338055,-0.02544 1.599096,0.109833 2.1412767,0.2297 1.179461,0.260757 1.922765,0.737798 2.336581,1.499585 l 0.113773,0.209442 -0.01294,-0.117999 c -0.0071,-0.0649 -0.02928,-0.293225 -0.04925,-0.507392 C 12.701682,96.465986 12.492053,95.599049 11.75551,93.631616 11.470307,92.869791 11.181087,92.016714 11.055418,91.566648 10.841169,90.799339 10.743793,90.5074 10.608025,90.225346 10.27485,89.533181 10.02414,89.199116 9.2147983,88.368898 c -0.227761,-0.233637 -0.435216,-0.450052 -0.46101,-0.480926 -0.120539,-0.144264 0.599066,0.437769 0.840082,0.679479 0.6535987,0.65548 0.9790037,1.155428 1.3991287,2.14961 0.15753,0.372778 0.179402,0.43205 0.570391,1.545776 0.123033,0.350455 0.2893,0.817727 0.369484,1.038384 0.395842,1.089314 0.625268,1.79398 0.802935,2.466161 0.06773,0.256252 0.0909,0.318487 0.09227,0.247797 0.0025,-0.131276 -0.06354,-0.977341 -0.104137,-1.33338 -0.04054,-0.355528 -0.117502,-1.176373 -0.164853,-1.758172 -0.145409,-1.78662 -0.22177,-2.557703 -0.344718,-3.480946 -0.301063,-2.260816 -0.812654,-4.336491 -1.404709,-5.699384 -0.279538,-0.643487 -0.727141,-1.485819 -1.2415107,-2.336364 -0.164841,-0.272576 -0.366889,-0.62303 -0.448994,-0.778788 -0.08211,-0.155757 -0.175508,-0.325675 -0.207561,-0.377594 -0.05052,-0.08183 -0.03186,-0.06953 0.140228,0.09242 0.464226,0.436893 0.699704,0.753168 1.1607267,1.558989 0.539701,0.943341 0.975441,1.879921 1.224492,2.631923 0.411985,1.243975 0.649872,2.240285 0.918809,3.848116 0.209525,1.252633 0.29805,2.055243 0.495714,4.494354 l 0.04399,0.542792 0.0026,-1.183323 c 0.0023,-1.03681 -0.02771,-2.120939 -0.07932,-2.864014 -0.103551,-1.49151 -0.140396,-1.882103 -0.402889,-4.271533 -0.136738,-1.244694 -0.236243,-2.206117 -0.389579,-3.764141 -0.266463,-2.707487 -0.400432,-3.843892 -0.556424,-4.719926 -0.233925,-1.313695 -0.335649,-1.734599 -0.653056,-2.702158 -0.32121,-0.979152 -0.642385,-1.749196 -1.0515417,-2.521161 -0.10092,-0.190407 -0.254364,-0.50287 -0.340987,-0.694363 l -0.157497,-0.348167 0.192571,0.166948 c 0.37674,0.326614 0.523985,0.542452 0.8637987,1.266191 0.628604,1.33881 1.08886,2.772431 1.381042,4.301718 0.228194,1.194375 0.306305,1.838362 0.688419,5.675711 0.170752,1.714762 0.26064,2.574128 0.413466,3.952939 0.149521,1.34899 0.166663,1.518374 0.212563,2.100367 0.05694,0.721915 0.129663,1.850584 0.170314,2.643159 0.02047,0.399046 0.02617,1.064443 0.01841,2.147567 -0.01404,1.958821 -0.01065,5.927437 0.0061,7.103489 0.0069,0.486742 0.0034,1.007112 -0.0079,1.156382 -0.02934,0.3882 -0.183243,1.11013 -0.327326,1.53546 -0.06674,0.19702 -0.118202,0.3598 -0.114357,0.36173 0.0038,0.002 0.06547,0.0414 0.136944,0.0876 0.07147,0.0463 0.159024,0.10194 0.194555,0.12373 0.08037,0.0493 0.101933,0.12892 0.0651,0.2404 -0.04025,0.1218 -0.144149,0.23095 -0.398654,0.4188 -0.420782,0.31057 -0.497492,0.34347 -0.612835,0.26277 -0.05037,-0.0352 -0.05857,-0.0336 -0.139437,0.028 -0.07144,0.0544 -0.08288,0.0577 -0.06787,0.0197 z m 0.02687,-74.140172 c -0.07322,-0.05752 -0.07298,-0.07016 0.008,-0.429796 0.08929,-0.396578 0.172501,-0.895356 0.189827,-1.137819 0.01911,-0.267473 0.05113,-0.343915 0.118539,-0.282988 0.044,0.03977 0.348782,0.202037 0.379484,0.202037 0.03207,0 0.767465,-1.500901 0.849284,-1.733344 0.160712,-0.456565 0.205723,-0.840012 0.129153,-1.100229 -0.09315,-0.316572 -0.281125,-0.575989 -0.608855,-0.840276 -0.611998,-0.493528 -1.472379,-0.810558 -2.318729,-0.854394 -0.270838,-0.01403 -0.283873,-0.01706 -0.291081,-0.06775 -0.01756,-0.123524 0.240253,-0.125208 0.846336,-0.0055 0.883939,0.174548 1.622676,0.523532 2.098576,0.991383 0.419741,0.412639 0.621878,1.00735 0.55059,1.619895 -0.05956,0.511801 -0.209957,0.946107 -0.607814,1.755249 l -0.273188,0.555599 0.215442,0.210568 c 0.118493,0.115812 0.22204,0.237487 0.230105,0.27039 0.0081,0.0329 0.03959,0.08321 0.07006,0.111794 0.03047,0.02858 0.0554,0.06782 0.0554,0.08718 0,0.07245 -0.106098,0.149666 -0.259999,0.189231 -0.119404,0.0307 -0.201517,0.0751 -0.36822,0.199108 -0.243719,0.181301 -0.323163,0.223283 -0.518922,0.274211 -0.207668,0.05402 -0.414455,0.04794 -0.493968,-0.01453 z"
       id="path951"
       inkscape:connector-curvature="0" />
  </g>
  <g
     inkscape:groupmode="layer"
     id="layer4"
     inkscape:label="Decoration"
     style="display:inline" />
  <g
     inkscape:groupmode="layer"
     id="layer3"
     inkscape:label="Front"
     style="display:inline">
    <rect
       style="display:inline;opacity:1;fill:#0e6977;fill-opacity:1;stroke:none;stroke-width:0.25402117;stroke-miterlimit:4;stroke-dasharray:none;stroke-opacity:1;enable-background:new"
       id="rect7339"
       width="10"
       height="10"
       x="2.6199999"
       y="102.5"
       ry="3"
       rx="3" />
    <rect
       rx="3"
       ry="2.7567568"
       y="28.5"
       x="2.6199999"
       height="34"
       width="10"
       id="rect937"
       style="display:inline;opacity:1;fill:#0e6977;fill-opacity:1;stroke:none;stroke-width:0.46839193;stroke-miterlimit:4;stroke-dasharray:none;stroke-opacity:1;enable-background:new" />
    <g
       aria-label="Split"
       style="font-style:normal;font-variant:normal;font-weight:normal;font-stretch:normal;font-size:10.58333302px;line-height:1.25;font-family:Amiri;-inkscape-font-specification:Amiri;text-align:center;letter-spacing:0px;word-spacing:0px;text-anchor:middle;fill:url(#DarkerBlue);fill-opacity:1;stroke:none;stroke-width:0.26458332"
       id="text941">
      <path
         d="M 4.2938464,18.089233 4.588402,17.949707 h 0.015503 v 0.37207 q 0,0.106971 0.1875854,0.181385 0.1302246,0.05116 0.2852539,0.05116 0.1550293,0 0.2852539,-0.05116 0.1875855,-0.07441 0.1875855,-0.181385 v -0.451135 q 0,-0.10852 -0.1875855,-0.181384 -0.1302246,-0.05116 -0.2852539,-0.05116 -0.1968872,0 -0.3534668,-0.06046 -0.2899048,-0.114722 -0.2899048,-0.319361 v -0.448034 q 0,-0.20774 0.2899048,-0.319361 0.1565796,-0.06046 0.3534668,-0.06046 0.1968872,0 0.3534668,0.06046 0.2899048,0.114722 0.2899048,0.319361 v 0.198437 l -0.2945557,0.139527 h -0.015503 v -0.283704 q 0,-0.07752 -0.097669,-0.116272 -0.096118,-0.03876 -0.2356445,-0.03876 -0.1395264,0 -0.2371948,0.03876 -0.096118,0.03876 -0.096118,0.116272 v 0.339514 q 0,0.07752 0.096118,0.116272 0.097668,0.03876 0.2371948,0.03876 0.2340942,0 0.4309814,0.08217 0.3519165,0.145727 0.3519165,0.429431 v 0.451135 q 0,0.282154 -0.3519165,0.429431 -0.1968872,0.08217 -0.4309814,0.08217 -0.2340942,0 -0.4309814,-0.08217 -0.3519165,-0.145727 -0.3519165,-0.429431 z"
         style="font-style:normal;font-variant:normal;font-weight:normal;font-stretch:normal;font-size:3.17499995px;font-family:'Nova Flat';-inkscape-font-specification:'Nova Flat, Normal';font-variant-ligatures:normal;font-variant-caps:normal;font-variant-numeric:normal;font-feature-settings:normal;text-align:center;writing-mode:lr-tb;text-anchor:middle;fill:url(#DarkerBlue);stroke-width:0.26458332"
         id="path906" />
      <path
         d="m 7.7075915,17.445862 q 0,0 0,1.00769 0,0.20774 -0.2899048,0.319361 -0.1565796,0.06046 -0.3534668,0.06046 -0.1844848,0 -0.3333129,-0.05271 v 0.57981 L 6.4363513,19.5 h -0.015503 v -2.054138 q 0,-0.207739 0.2899048,-0.319361 0.1565795,-0.06046 0.3534667,-0.06046 0.1968872,0 0.3534668,0.06046 0.2899048,0.114722 0.2899048,0.319361 z m -0.3100586,0.05426 q 0,-0.07752 -0.097668,-0.116272 -0.096118,-0.03876 -0.2356446,-0.03876 -0.1395263,0 -0.2371948,0.03876 -0.096118,0.03876 -0.096118,0.116272 v 0.89917 q 0,0.07752 0.096118,0.116272 0.097669,0.03876 0.2371948,0.03876 0.1395264,0 0.2356446,-0.03876 0.097668,-0.03876 0.097668,-0.116272 z"
         style="font-style:normal;font-variant:normal;font-weight:normal;font-stretch:normal;font-size:3.17499995px;font-family:'Nova Flat';-inkscape-font-specification:'Nova Flat, Normal';font-variant-ligatures:normal;font-variant-caps:normal;font-variant-numeric:normal;font-feature-settings:normal;text-align:center;writing-mode:lr-tb;text-anchor:middle;fill:url(#DarkerBlue);stroke-width:0.26458332"
         id="path908" />
      <path
         d="m 8.2501941,18.86438 v -2.32544 l 0.2945556,-0.139526 h 0.015503 v 2.32544 L 8.265697,18.86438 Z"
         style="font-style:normal;font-variant:normal;font-weight:normal;font-stretch:normal;font-size:3.17499995px;font-family:'Nova Flat';-inkscape-font-specification:'Nova Flat, Normal';font-variant-ligatures:normal;font-variant-caps:normal;font-variant-numeric:normal;font-feature-settings:normal;text-align:center;writing-mode:lr-tb;text-anchor:middle;fill:url(#DarkerBlue);stroke-width:0.26458332"
         id="path910" />
      <path
         d="m 9.203624,16.754431 q -0.05426,-0.05581 -0.05426,-0.133325 0,-0.07906 0.05426,-0.134875 0.05426,-0.05581 0.1317749,-0.05581 0.077515,0 0.1317749,0.05581 0.05426,0.05581 0.05426,0.134875 0,0.07751 -0.05426,0.133325 -0.05426,0.05581 -0.1317749,0.05581 -0.077515,0 -0.1317749,-0.05581 z m -0.023254,2.109949 v -1.689819 l 0.2945557,-0.139527 h 0.015503 v 1.68982 L 9.1958725,18.86438 Z"
         style="font-style:normal;font-variant:normal;font-weight:normal;font-stretch:normal;font-size:3.17499995px;font-family:'Nova Flat';-inkscape-font-specification:'Nova Flat, Normal';font-variant-ligatures:normal;font-variant-caps:normal;font-variant-numeric:normal;font-feature-settings:normal;text-align:center;writing-mode:lr-tb;text-anchor:middle;fill:url(#DarkerBlue);stroke-width:0.26458332"
         id="path912" />
      <path
         d="M 10.237669,18.86438 V 17.379199 H 9.8392441 v -0.0155 l 0.1255738,-0.26665 H 10.237669 V 16.53894 l 0.294556,-0.139526 h 0.0155 v 0.697632 h 0.398425 v 0.0155 l -0.125573,0.26665 h -0.272852 v 1.345655 l -0.294556,0.139526 z"
         style="font-style:normal;font-variant:normal;font-weight:normal;font-stretch:normal;font-size:3.17499995px;font-family:'Nova Flat';-inkscape-font-specification:'Nova Flat, Normal';font-variant-ligatures:normal;font-variant-caps:normal;font-variant-numeric:normal;font-feature-settings:normal;text-align:center;writing-mode:lr-tb;text-anchor:middle;fill:url(#DarkerBlue);stroke-width:0.26458332"
         id="path914" />
    </g>
    <g
       aria-label="Merge"
       style="font-style:normal;font-variant:normal;font-weight:normal;font-stretch:normal;font-size:10.58333302px;line-height:1.25;font-family:Amiri;-inkscape-font-specification:Amiri;text-align:center;letter-spacing:0px;word-spacing:0px;text-anchor:middle;fill:url(#DarkerBlue);fill-opacity:1;stroke:none;stroke-width:0.26458332"
       id="text1612">
      <path
         d="m 2.9598192,68.895386 v -1.922364 q 0,-0.283703 0.3519165,-0.429431 0.1968872,-0.08217 0.4309814,-0.08217 0.2356446,0 0.4309815,0.08217 0.1178222,0.04961 0.1968872,0.113172 0.079065,-0.06356 0.1968872,-0.113172 0.1953369,-0.08217 0.4309814,-0.08217 0.2340943,0 0.4309815,0.08217 0.3519165,0.145728 0.3519165,0.429431 v 1.782837 l -0.2945557,0.139527 h -0.015503 v -1.922364 q 0,-0.10697 -0.1875855,-0.181384 -0.1302246,-0.05116 -0.2852539,-0.05116 -0.1550293,0 -0.2852539,0.05116 -0.1875854,0.07441 -0.1875854,0.181384 v 1.782837 l -0.2945557,0.139527 h -0.015503 v -1.922364 q 0,-0.10697 -0.1875855,-0.181384 -0.1302246,-0.05116 -0.2852539,-0.05116 -0.1550293,0 -0.2852539,0.05116 -0.1875854,0.07441 -0.1875854,0.181384 v 1.782837 l -0.2945557,0.139527 z"
         style="font-style:normal;font-variant:normal;font-weight:normal;font-stretch:normal;font-size:3.17499995px;font-family:'Nova Flat';-inkscape-font-specification:'Nova Flat, Normal';font-variant-ligatures:normal;font-variant-caps:normal;font-variant-numeric:normal;font-feature-settings:normal;text-align:center;writing-mode:lr-tb;text-anchor:middle;fill:url(#DarkerBlue);stroke-width:0.26458332"
         id="path917" />
      <path
         d="m 7.6106981,68.146594 v 0.337964 q 0,0.204639 -0.2899048,0.31936 -0.1565796,0.06046 -0.3534668,0.06046 -0.1968872,0 -0.3534668,-0.06046 -0.2899048,-0.114721 -0.2899048,-0.31936 v -1.00769 q 0,-0.204639 0.2899048,-0.319361 0.1565796,-0.06046 0.3534668,-0.06046 0.1968872,0 0.3534668,0.06046 0.2899048,0.114722 0.2899048,0.319361 v 0.198437 l -0.9766846,0.754993 q 0,0.07752 0.096118,0.116272 0.097668,0.03876 0.2371948,0.03876 0.1395264,0 0.2356445,-0.03876 0.097669,-0.03876 0.097669,-0.116272 v -0.144177 l 0.2945557,-0.139527 z m -0.9766846,-0.04341 0.666626,-0.536401 v -0.03566 q 0,-0.07751 -0.097669,-0.116272 -0.096118,-0.03876 -0.2356445,-0.03876 -0.1395264,0 -0.2371948,0.03876 -0.096118,0.03876 -0.096118,0.116272 z"
         style="font-style:normal;font-variant:normal;font-weight:normal;font-stretch:normal;font-size:3.17499995px;font-family:'Nova Flat';-inkscape-font-specification:'Nova Flat, Normal';font-variant-ligatures:normal;font-variant-caps:normal;font-variant-numeric:normal;font-feature-settings:normal;text-align:center;writing-mode:lr-tb;text-anchor:middle;fill:url(#DarkerBlue);stroke-width:0.26458332"
         id="path919" />
      <path
         d="m 8.0788864,68.895386 v -1.418518 q 0,-0.20774 0.2899048,-0.319361 0.1565796,-0.06046 0.3534668,-0.06046 h 0.2092895 v 0.0155 l -0.1240234,0.26355 H 8.722258 q -0.1395264,0 -0.2371949,0.03876 -0.096118,0.03876 -0.096118,0.116272 v 1.224731 l -0.2945557,0.139527 z"
         style="font-style:normal;font-variant:normal;font-weight:normal;font-stretch:normal;font-size:3.17499995px;font-family:'Nova Flat';-inkscape-font-specification:'Nova Flat, Normal';font-variant-ligatures:normal;font-variant-caps:normal;font-variant-numeric:normal;font-feature-settings:normal;text-align:center;writing-mode:lr-tb;text-anchor:middle;fill:url(#DarkerBlue);stroke-width:0.26458332"
         id="path921" />
      <path
         d="m 9.1950973,68.484558 v -1.00769 q 0,-0.20774 0.2899048,-0.319361 0.1565796,-0.06046 0.3534668,-0.06046 0.1968871,0 0.3534671,0.06046 0.289904,0.114722 0.289904,0.319361 v 1.64331 q 0,0.207739 -0.289904,0.319361 Q 10.035356,69.5 9.8384689,69.5 H 9.3563278 v -0.0155 l 0.1240234,-0.26355 h 0.3581177 q 0.1395264,0 0.2356441,-0.03876 0.09767,-0.03876 0.09767,-0.116272 V 68.81167 q -0.148828,0.05271 -0.3333131,0.05271 -0.1968872,0 -0.3534668,-0.06046 -0.2899048,-0.114721 -0.2899048,-0.31936 z m 0.3100586,-0.05426 q 0,0.07752 0.096118,0.116272 0.097668,0.03876 0.2371948,0.03876 0.1410767,0 0.2371951,-0.03876 0.09612,-0.03876 0.09612,-0.116272 v -0.89917 q 0,-0.07751 -0.09767,-0.116272 -0.096118,-0.03876 -0.2356441,-0.03876 -0.1395264,0 -0.2371948,0.03876 -0.096118,0.03876 -0.096118,0.116272 z"
         style="font-style:normal;font-variant:normal;font-weight:normal;font-stretch:normal;font-size:3.17499995px;font-family:'Nova Flat';-inkscape-font-specification:'Nova Flat, Normal';font-variant-ligatures:normal;font-variant-caps:normal;font-variant-numeric:normal;font-feature-settings:normal;text-align:center;writing-mode:lr-tb;text-anchor:middle;fill:url(#DarkerBlue);stroke-width:0.26458332"
         id="path923" />
      <path
         d="m 12.28018,68.146594 v 0.337964 q 0,0.204639 -0.289904,0.31936 -0.15658,0.06046 -0.353467,0.06046 -0.196887,0 -0.353467,-0.06046 -0.289905,-0.114721 -0.289905,-0.31936 v -1.00769 q 0,-0.204639 0.289905,-0.319361 0.15658,-0.06046 0.353467,-0.06046 0.196887,0 0.353467,0.06046 0.289904,0.114722 0.289904,0.319361 v 0.198437 l -0.976684,0.754993 q 0,0.07752 0.09612,0.116272 0.09767,0.03876 0.237195,0.03876 0.139526,0 0.235644,-0.03876 0.09767,-0.03876 0.09767,-0.116272 v -0.144177 l 0.294555,-0.139527 z m -0.976684,-0.04341 0.666626,-0.536401 v -0.03566 q 0,-0.07751 -0.09767,-0.116272 -0.09612,-0.03876 -0.235644,-0.03876 -0.139527,0 -0.237195,0.03876 -0.09612,0.03876 -0.09612,0.116272 z"
         style="font-style:normal;font-variant:normal;font-weight:normal;font-stretch:normal;font-size:3.17499995px;font-family:'Nova Flat';-inkscape-font-specification:'Nova Flat, Normal';font-variant-ligatures:normal;font-variant-caps:normal;font-variant-numeric:normal;font-feature-settings:normal;text-align:center;writing-mode:lr-tb;text-anchor:middle;fill:url(#DarkerBlue);stroke-width:0.26458332"
         id="path925" />
    </g>
    <rect
       style="opacity:1;fill:url(#YellowYay);fill-opacity:1;stroke:none;stroke-width:0.5;stroke-miterlimit:4;stroke-dasharray:none;stroke-opacity:1;paint-order:stroke fill markers"
       id="rect2392"
       width="15.24"
       height="0.5"
       x="0"
       y="64.099998" />
  </g>
  <g
     inkscape:groupmode="layer"
     id="layer2"
     inkscape:label="components"
     style="display:none">
    <circle
       r="4"
       cy="33.5"
       cx="7.6199999"
       id="circle4956"
       style="display:inline;opacity:1;vector-effect:none;fill:#0000ff;fill-opacity:1;fill-rule:evenodd;stroke:none;stroke-width:1;stroke-linecap:butt;stroke-linejoin:miter;stroke-miterlimit:4;stroke-dasharray:none;stroke-dashoffset:0;stroke-opacity:1;paint-order:normal"
       inkscape:label="Split0" />
    <circle
       style="display:inline;opacity:1;vector-effect:none;fill:#00ff00;fill-opacity:1;fill-rule:evenodd;stroke:none;stroke-width:1;stroke-linecap:butt;stroke-linejoin:miter;stroke-miterlimit:4;stroke-dasharray:none;stroke-dashoffset:0;stroke-opacity:1;paint-order:normal"
       id="circle4958"
       cx="7.6199999"
       cy="23.5"
       r="4"
       inkscape:label="Poly" />
    <circle
       inkscape:label="Split1"
       style="display:inline;opacity:1;vector-effect:none;fill:#0000ff;fill-opacity:1;fill-rule:evenodd;stroke:none;stroke-width:1;stroke-linecap:butt;stroke-linejoin:miter;stroke-miterlimit:4;stroke-dasharray:none;stroke-dashoffset:0;stroke-opacity:1;paint-order:normal"
       id="circle864"
       cx="7.6199999"
       cy="41.5"
       r="4" />
    <circle
       r="4"
       cy="57.5"
       cx="7.6199999"
       id="circle866"
       style="display:inline;opacity:1;vector-effect:none;fill:#0000ff;fill-opacity:1;fill-rule:evenodd;stroke:none;stroke-width:1;stroke-linecap:butt;stroke-linejoin:miter;stroke-miterlimit:4;stroke-dasharray:none;stroke-dashoffset:0;stroke-opacity:1;paint-order:normal"
       inkscape:label="Split3" />
    <circle
       inkscape:label="Split2"
       style="display:inline;opacity:1;vector-effect:none;fill:#0000ff;fill-opacity:1;fill-rule:evenodd;stroke:none;stroke-width:1;stroke-linecap:butt;stroke-linejoin:miter;stroke-miterlimit:4;stroke-dasharray:none;stroke-dashoffset:0;stroke-opacity:1;paint-order:normal"
       id="circle868"
       cx="7.6200004"
       cy="49.5"
       r="4" />
    <circle
       inkscape:label="Merge3"
       r="4"
       cy="97.5"
       cx="7.6199994"
       id="circle879"
       style="display:inline;opacity:1;vector-effect:none;fill:#00ff00;fill-opacity:1;fill-rule:evenodd;stroke:none;stroke-width:1;stroke-linecap:butt;stroke-linejoin:miter;stroke-miterlimit:4;stroke-dasharray:none;stroke-dashoffset:0;stroke-opacity:1;paint-order:normal" />
    <circle
       style="display:inline;opacity:1;vector-effect:none;fill:#00ff00;fill-opacity:1;fill-rule:evenodd;stroke:none;stroke-width:1;stroke-linecap:butt;stroke-linejoin:miter;stroke-miterlimit:4;stroke-dasharray:none;stroke-dashoffset:0;stroke-opacity:1;paint-order:normal"
       id="circle881"
       cx="7.6199999"
       cy="73.5"
       r="4"
       inkscape:label="Merge0" />
    <circle
       inkscape:label="Merge1"
       r="4"
       cy="81.5"
       cx="7.6199999"
       id="circle883"
       style="display:inline;opacity:1;vector-effect:none;fill:#00ff00;fill-opacity:1;fill-rule:evenodd;stroke:none;stroke-width:1;stroke-linecap:butt;stroke-linejoin:miter;stroke-miterlimit:4;stroke-dasharray:none;stroke-dashoffset:0;stroke-opacity:1;paint-order:normal" />
    <circle
       style="display:inline;opacity:1;vector-effect:none;fill:#00ff00;fill-opacity:1;fill-rule:evenodd;stroke:none;stroke-width:1;stroke-linecap:butt;stroke-linejoin:miter;stroke-miterlimit:4;stroke-dasharray:none;stroke-dashoffset:0;stroke-opacity:1;paint-order:normal"
       id="circle885"
       cx="7.6199999"
       cy="89.5"
       r="4"
       inkscape:label="Merge2" />
    <circle
       style="display:inline;opacity:1;vector-effect:none;fill:#0000ff;fill-opacity:1;fill-rule:evenodd;stroke:none;stroke-width:1;stroke-linecap:butt;stroke-linejoin:miter;stroke-miterlimit:4;stroke-dasharray:none;stroke-dashoffset:0;stroke-opacity:1;paint-order:normal"
       id="circle908"
       cx="7.6199994"
       cy="107.5"
       r="4"
       inkscape:label="Poly" />
    <rect
       style="display:inline;opacity:1;fill:#ffff00;fill-opacity:1;stroke:none;stroke-width:0.50592375;stroke-miterlimit:4;stroke-dasharray:none;stroke-opacity:1;paint-order:stroke fill markers;enable-background:new"
       id="rect880"
       width="13.601"
       height="9.9619999"
       x="1"
       y="114.53802" />
  </g>
</svg>
