<?xml version="1.0" encoding="UTF-8" standalone="no"?>
<svg
   xmlns:osb="http://www.openswatchbook.org/uri/2009/osb"
   xmlns:dc="http://purl.org/dc/elements/1.1/"
   xmlns:cc="http://creativecommons.org/ns#"
   xmlns:rdf="http://www.w3.org/1999/02/22-rdf-syntax-ns#"
   xmlns:svg="http://www.w3.org/2000/svg"
   xmlns="http://www.w3.org/2000/svg"
   xmlns:xlink="http://www.w3.org/1999/xlink"
   xmlns:sodipodi="http://sodipodi.sourceforge.net/DTD/sodipodi-0.dtd"
   xmlns:inkscape="http://www.inkscape.org/namespaces/inkscape"
   width="254mm"
   height="128.5mm"
   viewBox="0 0 254.00001 128.5"
   version="1.1"
   id="svg888"
   inkscape:version="1.0 (4035a4fb49, 2020-05-01)"
   sodipodi:docname="Psychopump.svg">
  <defs
     id="defs882">
    <linearGradient
       id="Pink"
       osb:paint="solid"
       gradientTransform="matrix(16.666666,0,0,0.8,1.0000212,32.2)">
      <stop
         style="stop-color:#fcaebb;stop-opacity:1;"
         offset="0"
         id="stop7599" />
    </linearGradient>
    <linearGradient
       inkscape:collect="always"
       xlink:href="#YellowYay"
       id="linearGradient7673"
       gradientUnits="userSpaceOnUse"
       gradientTransform="matrix(16.666666,0,0,1,-405.19533,-15.73531)"
       x1="24.31172"
       y1="194.23528"
       x2="39.55172"
       y2="194.23528" />
    <linearGradient
       id="YellowYay"
       osb:paint="solid"
       gradientTransform="translate(-17.933197,-0.87182918)">
      <stop
         style="stop-color:#ffcc03;stop-opacity:1;"
         offset="0"
         id="stop7643" />
    </linearGradient>
    <linearGradient
       inkscape:collect="always"
       xlink:href="#linearGradient7667"
       id="linearGradient7669"
       x1="2.4786801e-15"
       y1="273.23123"
       x2="3.8719248e-15"
       y2="295.98538"
       gradientUnits="userSpaceOnUse"
       gradientTransform="matrix(10.666667,0,0,1,-8.1333333e-6,3.2424141e-5)" />
    <linearGradient
       inkscape:collect="always"
       id="linearGradient7667">
      <stop
         style="stop-color:#76bfbe;stop-opacity:1;"
         offset="0"
         id="stop7663" />
      <stop
         style="stop-color:#469ca9;stop-opacity:1"
         offset="1"
         id="stop7665" />
    </linearGradient>
    <linearGradient
       inkscape:collect="always"
       id="linearGradient1980">
      <stop
         style="stop-color:#c1f0f2;stop-opacity:1;"
         offset="0"
         id="stop1976" />
      <stop
         style="stop-color:#c1f0f2;stop-opacity:0;"
         offset="1"
         id="stop1978" />
    </linearGradient>
    <linearGradient
       id="linearGradient8923"
       inkscape:collect="always">
      <stop
         id="stop8919"
         offset="0"
         style="stop-color:#000000;stop-opacity:0.2" />
      <stop
         id="stop8921"
         offset="1"
         style="stop-color:#000000;stop-opacity:0" />
    </linearGradient>
    <linearGradient
       gradientUnits="userSpaceOnUse"
       y2="39.200001"
       x2="2.6600001"
       y1="53.200001"
       x1="2.6600001"
       id="linearGradient1982-5"
       xlink:href="#linearGradient1980"
       inkscape:collect="always"
       gradientTransform="matrix(1,0,0,1.1388888,207.34002,148.3111)" />
    <linearGradient
       gradientTransform="matrix(1,0,0,1.2,227.16667,112.49999)"
       gradientUnits="userSpaceOnUse"
       y2="74.352684"
       x2="-8.8671408"
       y1="68.454407"
       x1="-8.9201202"
       id="linearGradient8917-2"
       xlink:href="#linearGradient8923"
       inkscape:collect="always" />
  </defs>
  <sodipodi:namedview
     id="base"
     pagecolor="#ffffff"
     bordercolor="#666666"
     borderopacity="1.0"
     inkscape:pageopacity="0.0"
     inkscape:pageshadow="2"
     inkscape:zoom="0.9899495"
     inkscape:cx="466.02091"
     inkscape:cy="319.96136"
     inkscape:document-units="mm"
     inkscape:current-layer="layer3"
     showgrid="false"
     inkscape:window-width="1920"
     inkscape:window-height="1019"
     inkscape:window-x="1076"
     inkscape:window-y="442"
     inkscape:window-maximized="1"
     inkscape:document-rotation="0" />
  <metadata
     id="metadata885">
    <rdf:RDF>
      <cc:Work
         rdf:about="">
        <dc:format>image/svg+xml</dc:format>
        <dc:type
           rdf:resource="http://purl.org/dc/dcmitype/StillImage" />
        <dc:title></dc:title>
      </cc:Work>
    </rdf:RDF>
  </metadata>
  <g
     inkscape:label="BG"
     inkscape:groupmode="layer"
     id="layer1"
     transform="translate(0,-168.5)"
     style="display:inline">
    <g
       id="g1065"
       transform="scale(1.5625,1)">
      <rect
         y="168.5"
         x="1.5894572e-07"
         height="128.5"
         width="162.56"
         id="rect420"
         style="display:inline;opacity:1;vector-effect:none;fill:url(#linearGradient7669);fill-opacity:1;fill-rule:evenodd;stroke:none;stroke-width:1.16161;stroke-linecap:butt;stroke-linejoin:miter;stroke-miterlimit:4;stroke-dasharray:none;stroke-dashoffset:0;stroke-opacity:1;paint-order:normal;enable-background:new" />
    </g>
    <rect
       y="173.50002"
       x="0"
       height="10"
       width="254"
       id="rect7671"
       style="display:inline;opacity:0.98;fill:url(#linearGradient7673);fill-opacity:1;stroke:none;stroke-width:2.45913;stroke-miterlimit:4;stroke-dasharray:none;stroke-opacity:1;paint-order:stroke fill markers;enable-background:new" />
    <rect
       style="display:inline;opacity:0.98;fill:url(#Pink);fill-opacity:1;stroke:none;stroke-width:1.41421;stroke-miterlimit:4;stroke-dasharray:none;stroke-opacity:1;paint-order:stroke fill markers;enable-background:new"
       id="rect7491"
       width="254"
       height="8"
       x="0"
       y="174.50002" />
  </g>
  <g
     inkscape:groupmode="layer"
     id="layer5"
     inkscape:label="UI"
     style="display:inline">
    <g
       aria-label="Psychopump"
       id="text856"
       style="font-style:normal;font-variant:normal;font-weight:normal;font-stretch:normal;font-size:4.58611px;line-height:1.25;font-family:'Francois One';-inkscape-font-specification:'Francois One';text-align:center;text-anchor:middle;fill:#0e6977;fill-opacity:1;stroke-width:0.264583"
       transform="translate(25.400098,10.583333)">
      <path
         d="m 89.970134,-2.7753333 h 0.429948 q 0.174666,0 0.360529,0.00224 0.185863,0.00224 0.362769,0.029111 0.179145,0.024632 0.338136,0.085094 0.16123,0.058222 0.279914,0.1746663 0.120923,0.1142049 0.190341,0.2955891 0.07166,0.1791449 0.07166,0.445623 0,0.2418456 -0.05822,0.4142726 -0.05822,0.1701877 -0.158991,0.2888712 -0.100769,0.11644423 -0.235128,0.18586289 -0.132119,0.0694187 -0.284392,0.10748696 -0.152274,0.035829 -0.313504,0.0470255 -0.158991,0.0111966 -0.311264,0.0111966 V 0.6373775 L 89.970138,0.691121 Z m 0.790477,1.5428856 q 0.116444,0 0.219453,-0.020154 0.105247,-0.022393 0.183623,-0.078376 0.07838,-0.058222 0.123162,-0.1589911 0.04703,-0.100769 0.04703,-0.2575208 0,-0.1545125 -0.04031,-0.2508029 -0.03807,-0.09629 -0.114204,-0.1477946 -0.07614,-0.053743 -0.185863,-0.071658 -0.109727,-0.020154 -0.250803,-0.020154 h -0.09629 v 1.0054509 z"
         style="font-style:normal;font-variant:normal;font-weight:normal;font-stretch:normal;font-size:4.58611px;font-family:'Francois One';-inkscape-font-specification:'Francois One';fill:#0e6977;fill-opacity:1;stroke-width:0.264583"
         id="path1618" />
      <path
         d="m 92.722248,-0.09039876 q 0.02015,0.08733315 0.06942,0.1545125 0.04031,0.0582221 0.114205,0.10524764 0.0739,0.0470256 0.192581,0.0470256 0.04479,0 0.100769,-0.008957 0.05822,-0.0111966 0.107487,-0.035829 0.04926,-0.0246324 0.08285,-0.0627007 0.03359,-0.04030761 0.03359,-0.10076902 0,-0.08285453 -0.05822,-0.13659801 -0.05822,-0.0537435 -0.136598,-0.0850938 l -0.539674,-0.21945253 q -0.217214,-0.0873332 -0.333658,-0.2709567 -0.114205,-0.18586286 -0.114205,-0.45458032 0,-0.1925808 0.0739,-0.3403753 0.0739,-0.1477946 0.19482,-0.2463243 0.120923,-0.1007689 0.277674,-0.1522732 0.156752,-0.051504 0.324701,-0.051504 0.138837,0 0.273196,0.040308 0.136598,0.040308 0.253042,0.120923 0.116444,0.078376 0.201538,0.1948201 0.08733,0.1164442 0.12988,0.266478 l -0.528478,0.1634698 q -0.02463,-0.085094 -0.06718,-0.1545125 -0.03807,-0.058222 -0.100769,-0.1052477 -0.0627,-0.049265 -0.156752,-0.049265 -0.0515,0 -0.100769,0.011197 -0.04926,0.011197 -0.08957,0.038068 -0.03807,0.024633 -0.0627,0.06494 -0.02463,0.038068 -0.02463,0.091812 0,0.042547 0.02239,0.078376 0.02463,0.03359 0.05822,0.060461 0.03583,0.026872 0.0739,0.047025 0.03807,0.020154 0.06942,0.03359 l 0.459059,0.19034143 q 0.107486,0.0492649 0.201538,0.11420489 0.09629,0.06494 0.165709,0.1545125 0.07166,0.0895725 0.111965,0.21049529 0.04031,0.11868351 0.04031,0.27543532 0,0.20825598 -0.07838,0.36276848 -0.07838,0.1545125 -0.206017,0.25752083 -0.127641,0.10300833 -0.288871,0.1545125 -0.16123,0.0515042 -0.326939,0.0515042 -0.19706,0 -0.351572,-0.0470255 -0.154515,-0.0447869 -0.26872,-0.1298807 -0.114205,-0.0850938 -0.188102,-0.20601667 -0.0739,-0.12092282 -0.107487,-0.2709567 z"
         style="font-style:normal;font-variant:normal;font-weight:normal;font-stretch:normal;font-size:4.58611px;font-family:'Francois One';-inkscape-font-specification:'Francois One';fill:#0e6977;fill-opacity:1;stroke-width:0.264583"
         id="path1620" />
      <path
         d="m 94.236023,0.91729145 q 0.05822,0.002239 0.111965,0.004479 0.04479,0.002239 0.08957,0.002239 0.04479,0.002239 0.06494,0.002239 0.111965,0 0.188102,-0.0268717 0.07838,-0.0268717 0.127641,-0.0761366 0.04926,-0.0492649 0.06942,-0.11868351 0.02239,-0.0694187 0.02239,-0.15675181 V 0.42240359 l -0.736733,-2.30649089 0.698665,-0.03135 0.362769,1.61454365 0.342614,-1.60110775 0.582221,-0.00448 -0.660597,2.5237042 q -0.08061,0.28215326 -0.199298,0.4523409 -0.118684,0.172427 -0.253043,0.2619995 -0.134358,0.091812 -0.275435,0.1209228 -0.138837,0.029111 -0.264239,0.029111 -0.04703,0 -0.09629,-0.00448 -0.04927,-0.00448 -0.08733,-0.00896 -0.04479,-0.00672 -0.08733,-0.013436 V 0.91729145 Z"
         style="font-style:normal;font-variant:normal;font-weight:normal;font-stretch:normal;font-size:4.58611px;font-family:'Francois One';-inkscape-font-specification:'Francois One';fill:#0e6977;fill-opacity:1;stroke-width:0.264583"
         id="path1622" />
      <path
         d="m 98.071964,-0.24267195 q -0.02687,0.2127346 -0.07838,0.39187953 -0.04927,0.17690561 -0.143316,0.30454637 -0.09181,0.12764076 -0.237367,0.19929873 -0.145555,0.071658 -0.362769,0.071658 -0.154512,0 -0.282153,-0.0515042 -0.127641,-0.0492649 -0.230649,-0.13883732 -0.103008,-0.0918118 -0.179145,-0.21721322 -0.07614,-0.12540145 -0.127641,-0.27319602 -0.0515,-0.14779456 -0.07838,-0.31126431 -0.02463,-0.16570905 -0.02463,-0.33589673 0,-0.24856359 0.05374,-0.48816988 0.05598,-0.2418457 0.170188,-0.4321872 0.114205,-0.1903415 0.291111,-0.3067857 0.176905,-0.1186835 0.42099,-0.1186835 0.176906,0 0.3247,0.067179 0.150034,0.067179 0.257521,0.1903415 0.109727,0.1231621 0.172427,0.2933498 0.0627,0.1701877 0.06942,0.373965 l -0.611332,0.0268718 q -0.0067,-0.0559827 -0.01568,-0.1298801 -0.009,-0.076137 -0.03135,-0.1455553 -0.02239,-0.069419 -0.06494,-0.1164442 -0.04031,-0.049265 -0.107487,-0.049265 -0.07166,0 -0.120923,0.044786 -0.04703,0.044786 -0.07837,0.1186835 -0.03135,0.071658 -0.04927,0.1634698 -0.01568,0.089572 -0.02463,0.18138425 -0.0067,0.0895725 -0.009,0.17018768 0,0.0806152 0,0.13435869 0,0.0537435 0,0.1343587 0.0022,0.0806152 0.0112,0.17018768 0.009,0.0895725 0.02687,0.17914492 0.01791,0.08957247 0.0515,0.16123044 0.03359,0.07165797 0.08509,0.1164442 0.05151,0.0447862 0.127641,0.0447862 0.04703,0 0.08286,-0.0201538 0.03583,-0.0223931 0.0627,-0.0559828 0.02687,-0.03358968 0.04479,-0.0761366 0.02015,-0.04478623 0.03359,-0.08957246 0.02911,-0.10748696 0.03359,-0.24184565 l 0.537435,0.0604614 z"
         style="font-style:normal;font-variant:normal;font-weight:normal;font-stretch:normal;font-size:4.58611px;font-family:'Francois One';-inkscape-font-specification:'Francois One';fill:#0e6977;fill-opacity:1;stroke-width:0.264583"
         id="path1624" />
      <path
         d="m 99.785037,-1.0667386 q 0,-0.1769056 -0.06494,-0.2552815 -0.0627,-0.078376 -0.158991,-0.078376 -0.08957,0 -0.188102,0.049265 -0.09853,0.047026 -0.232889,0.1276408 v 1.8608679 l -0.644921,0.0537435 v -3.3858392 l 0.644921,-0.080615 v 1.1890744 q 0.201538,-0.1881022 0.387401,-0.2754353 0.185863,-0.087333 0.351572,-0.087333 0.120922,0 0.221692,0.047026 0.10077,0.044786 0.17243,0.12988 0.0739,0.082855 0.1142,0.2037774 0.0425,0.1209228 0.0425,0.2709567 v 1.9347652 l -0.644923,0.0537435 z"
         style="font-style:normal;font-variant:normal;font-weight:normal;font-stretch:normal;font-size:4.58611px;font-family:'Francois One';-inkscape-font-specification:'Francois One';fill:#0e6977;fill-opacity:1;stroke-width:0.264583"
         id="path1626" />
      <path
         d="m 101.81385,0.72471065 q -0.24184,0 -0.42323,-0.0985297 -0.18138,-0.10076902 -0.3023,-0.27767463 -0.12093,-0.17914493 -0.18139,-0.42770851 -0.0605,-0.24856359 -0.0605,-0.54863134 0,-0.28887119 0.0605,-0.53071687 0.0605,-0.2440849 0.18139,-0.4187512 0.12092,-0.1769057 0.3023,-0.2731961 0.18139,-0.09853 0.42323,-0.09853 0.23513,0 0.41652,0.09853 0.18138,0.09629 0.3023,0.2731961 0.12316,0.1746663 0.18587,0.4187512 0.0627,0.24184568 0.0627,0.53071687 0,0.30006775 -0.0627,0.54863134 -0.0627,0.24856358 -0.18587,0.42770851 -0.12092,0.17690561 -0.3023,0.27767463 -0.18139,0.0985297 -0.41652,0.0985297 z m -0.004,-0.47921267 q 0.0784,0 0.13435,-0.0425469 0.056,-0.0425469 0.0918,-0.11196558 0.0358,-0.07165797 0.056,-0.16123044 0.0202,-0.09181177 0.0291,-0.18810217 0.009,-0.0985297 0.0112,-0.1925808 0.002,-0.0962904 0.002,-0.17690561 0,-0.0783759 -0.002,-0.17242699 -0.002,-0.0940511 -0.0112,-0.19034149 -0.009,-0.0962904 -0.0291,-0.1858629 -0.0202,-0.091812 -0.056,-0.1612304 -0.0358,-0.071658 -0.0918,-0.1142049 -0.0537,-0.042547 -0.13212,-0.042547 -0.0806,0 -0.13659,0.042547 -0.0538,0.042547 -0.0896,0.1142049 -0.0358,0.069419 -0.056,0.1612304 -0.0179,0.089573 -0.0269,0.1858629 -0.009,0.0962904 -0.0112,0.19034149 0,0.0940511 0,0.17242699 0,0.0806152 0,0.17690561 0.002,0.0940511 0.0112,0.1925808 0.009,0.0962904 0.0269,0.18810217 0.0202,0.08957247 0.0537,0.16123044 0.0358,0.06941866 0.0896,0.11196558 0.056,0.0425469 0.1366,0.0425469 z"
         style="font-style:normal;font-variant:normal;font-weight:normal;font-stretch:normal;font-size:4.58611px;font-family:'Francois One';-inkscape-font-specification:'Francois One';fill:#0e6977;fill-opacity:1;stroke-width:0.264583"
         id="path1628" />
      <path
         d="m 103.21566,-1.8616942 0.64492,-0.053743 v 0.2485636 q 0.0538,-0.053743 0.11421,-0.1030083 0.0627,-0.051504 0.12988,-0.089573 0.0694,-0.040308 0.14555,-0.06494 0.0761,-0.024633 0.15676,-0.024633 0.1769,0 0.29558,0.062701 0.12093,0.060461 0.19706,0.1634697 0.0761,0.1030083 0.11421,0.2396063 0.0403,0.1343587 0.056,0.2821533 0.0157,0.1455552 0.0157,0.29558912 0.002,0.14779457 0.002,0.27991395 0,0.12092283 -0.004,0.26871739 -0.004,0.14779457 -0.0269,0.29782844 -0.0202,0.15003388 -0.0649,0.29111051 -0.0448,0.14107663 -0.12764,0.25080289 -0.0806,0.10972627 -0.20378,0.17690562 -0.12316,0.06494 -0.30231,0.06494 -0.1254,0 -0.21721,-0.0447862 -0.0918,-0.0425469 -0.15451,-0.0962904 -0.0739,-0.0604614 -0.12541,-0.14107663 V 1.3405213 l -0.64492,0.1254015 z m 0.92036,0.3762043 q -0.0627,0 -0.11421,0.029111 -0.0493,0.026872 -0.0851,0.060461 -0.0425,0.040308 -0.0761,0.089573 v 1.33239034 q 0.0269,0.0582221 0.0672,0.10300833 0.0336,0.0380683 0.0851,0.071658 0.0537,0.0313504 0.12764,0.0313504 0.0672,0 0.12092,-0.0335897 0.056,-0.0335897 0.0963,-0.12764076 0.0403,-0.09405108 0.0627,-0.26199945 0.0224,-0.16794837 0.0224,-0.43442645 0,-0.24184565 -0.0202,-0.40531541 -0.0202,-0.1657091 -0.0582,-0.2664781 -0.0381,-0.100769 -0.0963,-0.1433159 -0.0582,-0.044786 -0.13212,-0.044786 z"
         style="font-style:normal;font-variant:normal;font-weight:normal;font-stretch:normal;font-size:4.58611px;font-family:'Francois One';-inkscape-font-specification:'Francois One';fill:#0e6977;fill-opacity:1;stroke-width:0.264583"
         id="path1630" />
      <path
         d="m 106.18051,-0.18892847 q 0,0.19034148 0.0582,0.26647808 0.0582,0.07613659 0.15451,0.07613659 0.0448,0 0.0941,-0.0156752 0.0515,-0.0179145 0.10748,-0.04702554 0.056,-0.02911105 0.11421,-0.06494004 0.0582,-0.03582898 0.11644,-0.07389728 V -1.8616942 l 0.64492,-0.053743 V 0.637378 l -0.64492,0.0537435 V 0.3619427 q -0.1881,0.16794837 -0.37172,0.26647808 -0.18363,0.0962904 -0.34486,0.0962904 -0.1254,0 -0.23065,-0.0470255 -0.10524,-0.0447862 -0.18138,-0.12764076 -0.0761,-0.0850938 -0.11868,-0.20601666 -0.0426,-0.12092283 -0.0426,-0.27095671 V -1.8616942 l 0.64492,-0.053743 z"
         style="font-style:normal;font-variant:normal;font-weight:normal;font-stretch:normal;font-size:4.58611px;font-family:'Francois One';-inkscape-font-specification:'Francois One';fill:#0e6977;fill-opacity:1;stroke-width:0.264583"
         id="path1632" />
      <path
         d="m 110.17544,-1.1316786 q 0,-0.1298801 -0.0381,-0.1970595 -0.0358,-0.069419 -0.0941,-0.069419 -0.0649,0 -0.11868,0.029111 -0.0537,0.029111 -0.094,0.062701 -0.047,0.040308 -0.0851,0.091812 v 1.8519107 l -0.64492,0.0537435 v -1.8272784 q 0,-0.1410766 -0.0336,-0.201538 -0.0314,-0.060461 -0.0761,-0.060461 -0.0627,0 -0.12093,0.029111 -0.056,0.029111 -0.10077,0.062701 -0.0537,0.040308 -0.0985,0.091812 v 1.8519107 l -0.64493,0.0537435 v -2.5528161 l 0.64493,-0.053743 v 0.3291788 q 0.13659,-0.1612304 0.30454,-0.2619995 0.17019,-0.100769 0.36053,-0.100769 0.13212,0 0.23065,0.091812 0.10077,0.091812 0.15003,0.309025 0.14108,-0.1858629 0.29783,-0.2933498 0.15899,-0.107487 0.36501,-0.107487 0.12764,0 0.2105,0.053744 0.0851,0.051504 0.13659,0.1522732 0.0515,0.100769 0.0717,0.2463243 0.0224,0.1455552 0.0224,0.3314181 v 1.8026458 l -0.64492,0.0537435 z"
         style="font-style:normal;font-variant:normal;font-weight:normal;font-stretch:normal;font-size:4.58611px;font-family:'Francois One';-inkscape-font-specification:'Francois One';fill:#0e6977;fill-opacity:1;stroke-width:0.264583"
         id="path1634" />
      <path
         d="m 111.3578,-1.8616942 0.64492,-0.053743 v 0.2485636 q 0.0537,-0.053743 0.11421,-0.1030083 0.0627,-0.051504 0.12988,-0.089573 0.0694,-0.040308 0.14555,-0.06494 0.0761,-0.024633 0.15675,-0.024633 0.17691,0 0.29559,0.062701 0.12093,0.060461 0.19706,0.1634697 0.0761,0.1030083 0.11421,0.2396063 0.0403,0.1343587 0.056,0.2821533 0.0157,0.1455552 0.0157,0.29558912 0.002,0.14779457 0.002,0.27991395 0,0.12092283 -0.004,0.26871739 -0.004,0.14779457 -0.0269,0.29782844 -0.0202,0.15003388 -0.0649,0.29111051 -0.0448,0.14107663 -0.12764,0.25080289 -0.0806,0.10972627 -0.20377,0.17690562 -0.12317,0.06494 -0.30231,0.06494 -0.1254,0 -0.21721,-0.0447862 -0.0918,-0.0425469 -0.15452,-0.0962904 -0.0739,-0.0604614 -0.1254,-0.14107663 V 1.3405213 l -0.64492,0.1254015 z m 0.92036,0.3762043 q -0.0627,0 -0.11421,0.029111 -0.0493,0.026872 -0.0851,0.060461 -0.0426,0.040308 -0.0761,0.089573 v 1.33239034 q 0.0269,0.0582221 0.0672,0.10300833 0.0336,0.0380683 0.0851,0.071658 0.0538,0.0313504 0.12765,0.0313504 0.0672,0 0.12092,-0.0335897 0.056,-0.0335897 0.0963,-0.12764076 0.0403,-0.09405108 0.0627,-0.26199945 0.0224,-0.16794837 0.0224,-0.43442645 0,-0.24184565 -0.0202,-0.40531541 -0.0202,-0.1657091 -0.0582,-0.2664781 -0.0381,-0.100769 -0.0963,-0.1433159 -0.0582,-0.044786 -0.13212,-0.044786 z"
         style="font-style:normal;font-variant:normal;font-weight:normal;font-stretch:normal;font-size:4.58611px;font-family:'Francois One';-inkscape-font-specification:'Francois One';fill:#0e6977;fill-opacity:1;stroke-width:0.264583"
         id="path1636" />
    </g>
  </g>
  <g
     style="display:inline"
     inkscape:groupmode="layer"
     id="layer3"
     inkscape:label="LCD">
    <rect
       rx="1"
       ry="1"
       y="192.5"
       x="210"
       height="15.944444"
       width="40.400002"
       id="rect1974-5"
       style="display:inline;fill:#000000;fill-opacity:1;stroke:none;stroke-width:1.15051;stroke-miterlimit:4;stroke-dasharray:none;stroke-opacity:1"
       transform="translate(0,-168.5)" />
    <rect
       style="display:inline;fill:url(#linearGradient1982-5);fill-opacity:1;stroke:none;stroke-width:1.15051;stroke-miterlimit:4;stroke-dasharray:none;stroke-opacity:1"
       id="rect1970-8"
       width="40.400002"
       height="15.944444"
       x="210"
       y="192.95555"
       ry="1"
       rx="1"
       transform="translate(0,-168.5)" />
    <rect
       rx="1"
       ry="1"
       y="192.72777"
       x="210.20001"
       height="15.944444"
       width="40"
       id="rect1238-6-0"
       style="display:inline;fill:#083d45;fill-opacity:1;stroke:none;stroke-width:1.1448;stroke-miterlimit:4;stroke-dasharray:none;stroke-opacity:1"
       transform="translate(0,-168.5)" />
    <rect
       y="194.7"
       x="212.20001"
       height="12"
       width="36"
       id="rect1968-2"
       style="display:inline;fill:#0e6977;fill-opacity:1;stroke:none;stroke-width:0.942192;stroke-miterlimit:4;stroke-dasharray:none;stroke-opacity:1"
       transform="translate(0,-168.5)" />
    <path
       id="path8909-2"
       style="display:inline;fill:url(#linearGradient8917-2);fill-opacity:1;stroke:none;stroke-width:1.21636;stroke-miterlimit:4;stroke-dasharray:none;stroke-opacity:1"
       d="m 212.20002,194.69999 h 36.00001 v 12 h -36.00001 z"
       transform="translate(0,-168.5)" />
  </g>
</svg>
