<?xml version="1.0" encoding="UTF-8" standalone="no"?>
<svg
   xmlns:osb="http://www.openswatchbook.org/uri/2009/osb"
   xmlns:dc="http://purl.org/dc/elements/1.1/"
   xmlns:cc="http://creativecommons.org/ns#"
   xmlns:rdf="http://www.w3.org/1999/02/22-rdf-syntax-ns#"
   xmlns:svg="http://www.w3.org/2000/svg"
   xmlns="http://www.w3.org/2000/svg"
   xmlns:xlink="http://www.w3.org/1999/xlink"
   xmlns:sodipodi="http://sodipodi.sourceforge.net/DTD/sodipodi-0.dtd"
   xmlns:inkscape="http://www.inkscape.org/namespaces/inkscape"
   width="15.24mm"
   height="128.5mm"
   viewBox="0 0 15.24 128.5"
   version="1.1"
   id="svg888"
   inkscape:version="1.0 (4035a4fb49, 2020-05-01)"
   sodipodi:docname="Rotatoes.svg">
  <defs
     id="defs882">
    <inkscape:path-effect
       background_color="#ffffffff"
       background="true"
       hide_mask="false"
       invert="false"
       uri="#mask-powermask-path-effect1099"
       lpeversion="1"
       is_visible="true"
       id="path-effect1099"
       effect="powermask" />
    <inkscape:path-effect
       background_color="#ffffffff"
       background="true"
       hide_mask="false"
       invert="false"
       uri="#mask-powermask-path-effect1094"
       lpeversion="1"
       is_visible="true"
       id="path-effect1094"
       effect="powermask" />
    <inkscape:perspective
       sodipodi:type="inkscape:persp3d"
       inkscape:vp_x="0 : 64.25 : 1"
       inkscape:vp_y="0 : 1000 : 0"
       inkscape:vp_z="101.6 : 64.25 : 1"
       inkscape:persp3d-origin="50.800001 : 42.833333 : 1"
       id="perspective3112" />
    <linearGradient
       id="Pink"
       osb:paint="solid"
       gradientTransform="matrix(0.9999999,0,0,0.8,0.06000137,-136.3)">
      <stop
         style="stop-color:#fcaebb;stop-opacity:1;"
         offset="0"
         id="stop7599" />
    </linearGradient>
    <linearGradient
       inkscape:collect="always"
       xlink:href="#YellowYay"
       id="linearGradient7673"
       gradientUnits="userSpaceOnUse"
       gradientTransform="translate(-24.311719,-184.23531)"
       x1="24.31172"
       y1="194.23528"
       x2="39.55172"
       y2="194.23528" />
    <linearGradient
       id="YellowYay"
       osb:paint="solid"
       gradientTransform="translate(-17.933197,-0.87182918)">
      <stop
         style="stop-color:#ffcc03;stop-opacity:1;"
         offset="0"
         id="stop7643" />
    </linearGradient>
    <linearGradient
       inkscape:collect="always"
       xlink:href="#linearGradient7667"
       id="linearGradient7669"
       x1="2.4786801e-15"
       y1="273.23123"
       x2="3.8719248e-15"
       y2="295.98538"
       gradientUnits="userSpaceOnUse"
       gradientTransform="matrix(10.666667,0,0,1,-8.1333333e-6,3.2424141e-5)" />
    <linearGradient
       inkscape:collect="always"
       id="linearGradient7667">
      <stop
         style="stop-color:#76bfbe;stop-opacity:1;"
         offset="0"
         id="stop7663" />
      <stop
         style="stop-color:#469ca9;stop-opacity:1"
         offset="1"
         id="stop7665" />
    </linearGradient>
    <symbol
       id="clipboard">
      <title
         id="clipboard-title">Clipboard</title>
      <path
         style="stroke-width:0.26458332"
         inkscape:connector-curvature="0"
         d="m 101.6,29.633333 v 93.133337 c 0,7.0141 -5.685896,12.7 -12.7,12.7 H 12.7 c -7.0141042,0 -12.7,-5.6859 -12.7,-12.7 V 29.633333 c 0,-7.014104 5.6858958,-12.7 12.7,-12.7 H 33.866667 C 33.866667,7.5961875 41.462854,0 50.8,0 60.137146,0 67.733333,7.5961875 67.733333,16.933333 H 88.9 c 7.014104,0 12.7,5.685896 12.7,12.7 z m -50.8,-19.05 c -3.507052,0 -6.35,2.842948 -6.35,6.35 0,3.507052 2.842948,6.35 6.35,6.35 3.507052,0 6.35,-2.842948 6.35,-6.35 0,-3.507052 -2.842948,-6.35 -6.35,-6.35 m 25.4,30.1625 v -5.291666 a 1.5875,1.5875 0 0 0 -1.5875,-1.5875 h -47.625 a 1.5875,1.5875 0 0 0 -1.5875,1.5875 v 5.291666 a 1.5875,1.5875 0 0 0 1.5875,1.5875 h 47.625 a 1.5875,1.5875 0 0 0 1.5875,-1.5875 z"
         id="path3986" />
    </symbol>
    <symbol
       id="keyboard">
      <title
         id="keyboard-title">Keyboard</title>
      <path
         style="stroke-width:0.26458332"
         inkscape:connector-curvature="0"
         d="m 139.7,118.53333 h -127 c -7.0141042,0 -12.7,-5.68589 -12.7,-12.7 V 29.633333 c 0,-7.014104 5.6858958,-12.7 12.7,-12.7 h 127 c 7.0141,0 12.7,5.685896 12.7,12.7 v 76.199997 c 0,7.01411 -5.6859,12.7 -12.7,12.7 z M 33.866667,47.625 V 37.041667 c 0,-1.753394 -1.421607,-3.175 -3.175,-3.175 H 20.108333 c -1.753393,0 -3.175,1.421606 -3.175,3.175 V 47.625 c 0,1.753394 1.421607,3.175 3.175,3.175 h 10.583334 c 1.753393,0 3.175,-1.421606 3.175,-3.175 z m 25.4,0 V 37.041667 c 0,-1.753394 -1.421607,-3.175 -3.175,-3.175 H 45.508333 c -1.753393,0 -3.175,1.421606 -3.175,3.175 V 47.625 c 0,1.753394 1.421607,3.175 3.175,3.175 h 10.583334 c 1.753393,0 3.175,-1.421606 3.175,-3.175 z m 25.4,0 V 37.041667 c 0,-1.753394 -1.421607,-3.175 -3.175,-3.175 H 70.908333 c -1.753393,0 -3.175,1.421606 -3.175,3.175 V 47.625 c 0,1.753394 1.421607,3.175 3.175,3.175 h 10.583334 c 1.753393,0 3.175,-1.421606 3.175,-3.175 z m 25.400003,0 V 37.041667 c 0,-1.753394 -1.42161,-3.175 -3.175,-3.175 H 96.308333 c -1.753393,0 -3.175,1.421606 -3.175,3.175 V 47.625 c 0,1.753394 1.421607,3.175 3.175,3.175 h 10.583337 c 1.75339,0 3.175,-1.421606 3.175,-3.175 z m 25.4,0 V 37.041667 c 0,-1.753394 -1.42161,-3.175 -3.175,-3.175 h -10.58334 c -1.75339,0 -3.175,1.421606 -3.175,3.175 V 47.625 c 0,1.753394 1.42161,3.175 3.175,3.175 h 10.58334 c 1.75339,0 3.175,-1.421606 3.175,-3.175 z m -88.900003,25.4 V 62.441667 c 0,-1.753394 -1.421607,-3.175 -3.175,-3.175 H 32.808333 c -1.753393,0 -3.175,1.421606 -3.175,3.175 V 73.025 c 0,1.753394 1.421607,3.175 3.175,3.175 h 10.583334 c 1.753393,0 3.175,-1.421606 3.175,-3.175 z m 25.4,0 V 62.441667 c 0,-1.753394 -1.421607,-3.175 -3.175,-3.175 H 58.208333 c -1.753393,0 -3.175,1.421606 -3.175,3.175 V 73.025 c 0,1.753394 1.421607,3.175 3.175,3.175 h 10.583334 c 1.753393,0 3.175,-1.421606 3.175,-3.175 z m 25.4,0 V 62.441667 c 0,-1.753394 -1.421607,-3.175 -3.175,-3.175 H 83.608333 c -1.753393,0 -3.175,1.421606 -3.175,3.175 V 73.025 c 0,1.753394 1.421607,3.175 3.175,3.175 h 10.583334 c 1.753393,0 3.175,-1.421606 3.175,-3.175 z m 25.400003,0 V 62.441667 c 0,-1.753394 -1.42161,-3.175 -3.175,-3.175 h -10.58334 c -1.75339,0 -3.175,1.421606 -3.175,3.175 V 73.025 c 0,1.753394 1.42161,3.175 3.175,3.175 h 10.58334 c 1.75339,0 3.175,-1.421606 3.175,-3.175 z m -88.900003,25.4 V 87.841667 c 0,-1.753394 -1.421607,-3.175 -3.175,-3.175 H 20.108333 c -1.753393,0 -3.175,1.421606 -3.175,3.175 V 98.425 c 0,1.75339 1.421607,3.175 3.175,3.175 h 10.583334 c 1.753393,0 3.175,-1.42161 3.175,-3.175 z m 76.200003,0 V 87.841667 c 0,-1.753394 -1.42161,-3.175 -3.175,-3.175 H 45.508333 c -1.753393,0 -3.175,1.421606 -3.175,3.175 V 98.425 c 0,1.75339 1.421607,3.175 3.175,3.175 h 61.383337 c 1.75339,0 3.175,-1.42161 3.175,-3.175 z m 25.4,0 V 87.841667 c 0,-1.753394 -1.42161,-3.175 -3.175,-3.175 h -10.58334 c -1.75339,0 -3.175,1.421606 -3.175,3.175 V 98.425 c 0,1.75339 1.42161,3.175 3.175,3.175 h 10.58334 c 1.75339,0 3.175,-1.42161 3.175,-3.175 z"
         id="path4494" />
    </symbol>
    <pattern
       id="pattern2988"
       patternTransform="translate(241.99456,62.412224)"
       height="57.599115"
       width="57.601023"
       patternUnits="userSpaceOnUse">
      <g
         transform="matrix(3.7795276,0,0,3.7795276,-241.99456,-62.412224)"
         id="g2986">
        <g
           id="g2956">
          <circle
             style="fill:#61aeb0;fill-opacity:1;stroke:none;stroke-width:0.265668;stroke-linecap:square;stroke-miterlimit:4;stroke-dasharray:none;stroke-opacity:1;paint-order:markers stroke fill"
             id="path2947"
             cx="66.567726"
             cy="19.053234"
             r="2.54" />
          <circle
             r="2.54"
             cy="19.053234"
             cx="71.648003"
             id="circle2949"
             style="fill:#61aeb0;fill-opacity:1;stroke:none;stroke-width:0.265668;stroke-linecap:square;stroke-miterlimit:4;stroke-dasharray:none;stroke-opacity:1;paint-order:markers stroke fill" />
          <circle
             style="fill:#61aeb0;fill-opacity:1;stroke:none;stroke-width:0.265668;stroke-linecap:square;stroke-miterlimit:4;stroke-dasharray:none;stroke-opacity:1;paint-order:markers stroke fill"
             id="circle2951"
             cx="76.727997"
             cy="19.053234"
             r="2.54" />
        </g>
        <g
           transform="translate(0,5.0797659)"
           id="g2964">
          <circle
             r="2.54"
             cy="19.053234"
             cx="66.567726"
             id="circle2958"
             style="fill:#61aeb0;fill-opacity:1;stroke:none;stroke-width:0.265668;stroke-linecap:square;stroke-miterlimit:4;stroke-dasharray:none;stroke-opacity:1;paint-order:markers stroke fill" />
          <circle
             style="fill:#61aeb0;fill-opacity:1;stroke:none;stroke-width:0.265668;stroke-linecap:square;stroke-miterlimit:4;stroke-dasharray:none;stroke-opacity:1;paint-order:markers stroke fill"
             id="circle2960"
             cx="71.648003"
             cy="19.053234"
             r="2.54" />
          <circle
             r="2.54"
             cy="19.053234"
             cx="76.727997"
             id="circle2962"
             style="fill:#61aeb0;fill-opacity:1;stroke:none;stroke-width:0.265668;stroke-linecap:square;stroke-miterlimit:4;stroke-dasharray:none;stroke-opacity:1;paint-order:markers stroke fill" />
        </g>
        <g
           id="g2972"
           transform="translate(0,10.159766)">
          <circle
             style="fill:#61aeb0;fill-opacity:1;stroke:none;stroke-width:0.265668;stroke-linecap:square;stroke-miterlimit:4;stroke-dasharray:none;stroke-opacity:1;paint-order:markers stroke fill"
             id="circle2966"
             cx="66.567726"
             cy="19.053234"
             r="2.54" />
          <circle
             r="2.54"
             cy="19.053234"
             cx="71.648003"
             id="circle2968"
             style="fill:#61aeb0;fill-opacity:1;stroke:none;stroke-width:0.265668;stroke-linecap:square;stroke-miterlimit:4;stroke-dasharray:none;stroke-opacity:1;paint-order:markers stroke fill" />
          <circle
             style="fill:#61aeb0;fill-opacity:1;stroke:none;stroke-width:0.265668;stroke-linecap:square;stroke-miterlimit:4;stroke-dasharray:none;stroke-opacity:1;paint-order:markers stroke fill"
             id="circle2970"
             cx="76.727997"
             cy="19.053234"
             r="2.54" />
        </g>
      </g>
    </pattern>
    <mask
       id="mask-powermask-path-effect1094"
       maskUnits="userSpaceOnUse">
      <path
         d="M 25.458334,-1 H 42.698606 V 138.15976 H 25.458334 Z"
         style="fill:#ffffff;fill-opacity:1"
         id="mask-powermask-path-effect1094_box" />
      <g
         id="g1080"
         transform="matrix(1,0,0,1.0000154,-37.569389,105.40651)"
         style="fill:#000000;fill-opacity:1">
        <g
           id="g1072"
           style="fill:#000000;fill-opacity:1" />
        <g
           id="g1074"
           transform="translate(0,5.0797659)"
           style="fill:#000000;fill-opacity:1" />
        <g
           transform="translate(0,10.159766)"
           id="g1078"
           style="fill:#000000;fill-opacity:1">
          <path
             d="m 79.267997,19.053234 a 2.54,2.54 0 0 1 -2.54,2.54 2.54,2.54 0 0 1 -2.54,-2.54 2.54,2.54 0 0 1 2.54,-2.54 2.54,2.54 0 0 1 2.54,2.54 m -5.079994,0 a 2.54,2.54 0 0 1 -2.54,2.54 2.54,2.54 0 0 1 -2.54,-2.54 2.54,2.54 0 0 1 2.54,-2.54 2.54,2.54 0 0 1 2.54,2.54 m -5.080277,0 a 2.54,2.54 0 0 1 -2.54,2.54 2.54,2.54 0 0 1 -2.54,-2.54 2.54,2.54 0 0 1 2.54,-2.54 2.54,2.54 0 0 1 2.54,2.54 m 10.160271,-5.08 a 2.54,2.54 0 0 1 -2.54,2.54 2.54,2.54 0 0 1 -2.54,-2.54 2.54,2.54 0 0 1 2.54,-2.54 2.54,2.54 0 0 1 2.54,2.54 m -5.079994,0 a 2.54,2.54 0 0 1 -2.54,2.54 2.54,2.54 0 0 1 -2.54,-2.54 2.54,2.54 0 0 1 2.54,-2.54 2.54,2.54 0 0 1 2.54,2.54 m -5.080277,0 a 2.54,2.54 0 0 1 -2.54,2.54 2.54,2.54 0 0 1 -2.54,-2.54 2.54,2.54 0 0 1 2.54,-2.54 2.54,2.54 0 0 1 2.54,2.54 M 79.267997,8.893468 a 2.54,2.54 0 0 1 -2.54,2.54 2.54,2.54 0 0 1 -2.54,-2.54 2.54,2.54 0 0 1 2.54,-2.54 2.54,2.54 0 0 1 2.54,2.54 m -5.079994,0 a 2.54,2.54 0 0 1 -2.54,2.54 2.54,2.54 0 0 1 -2.54,-2.54 2.54,2.54 0 0 1 2.54,-2.54 2.54,2.54 0 0 1 2.54,2.54 m -5.080277,0 a 2.54,2.54 0 0 1 -2.54,2.54 2.54,2.54 0 0 1 -2.54,-2.54 2.54,2.54 0 0 1 2.54,-2.54 2.54,2.54 0 0 1 2.54,2.54 M 79.267997,3.8134707 a 2.54,2.54 0 0 1 -2.54,2.54 2.54,2.54 0 0 1 -2.54,-2.54 2.54,2.54 0 0 1 2.54,-2.54 2.54,2.54 0 0 1 2.54,2.54 m -5.079994,0 a 2.54,2.54 0 0 1 -2.54,2.54 2.54,2.54 0 0 1 -2.54,-2.54 2.54,2.54 0 0 1 2.54,-2.54 2.54,2.54 0 0 1 2.54,2.54 m -5.080277,0 a 2.54,2.54 0 0 1 -2.54,2.54 2.54,2.54 0 0 1 -2.54,-2.54 2.54,2.54 0 0 1 2.54,-2.54 2.54,2.54 0 0 1 2.54,2.54 m 10.160271,-5.0800001 a 2.54,2.54 0 0 1 -2.54,2.54 2.54,2.54 0 0 1 -2.54,-2.54 2.54,2.54 0 0 1 2.54,-2.54 2.54,2.54 0 0 1 2.54,2.54 m -5.079994,0 a 2.54,2.54 0 0 1 -2.54,2.54 2.54,2.54 0 0 1 -2.54,-2.54 2.54,2.54 0 0 1 2.54,-2.54 2.54,2.54 0 0 1 2.54,2.54 m -5.080277,0 a 2.54,2.54 0 0 1 -2.54,2.54 2.54,2.54 0 0 1 -2.54,-2.54 2.54,2.54 0 0 1 2.54,-2.54 2.54,2.54 0 0 1 2.54,2.54 m 10.160271,-5.0797659 a 2.54,2.54 0 0 1 -2.54,2.54 2.54,2.54 0 0 1 -2.54,-2.54 2.54,2.54 0 0 1 2.54,-2.54 2.54,2.54 0 0 1 2.54,2.54 m -5.079994,0 a 2.54,2.54 0 0 1 -2.54,2.54 2.54,2.54 0 0 1 -2.54,-2.54 2.54,2.54 0 0 1 2.54,-2.54 2.54,2.54 0 0 1 2.54,2.54 m -5.080277,0 a 2.54,2.54 0 0 1 -2.54,2.54 2.54,2.54 0 0 1 -2.54,-2.54 2.54,2.54 0 0 1 2.54,-2.54 2.54,2.54 0 0 1 2.54,2.54 M 79.267997,-11.42649 a 2.54,2.5399609 0 0 1 -2.54,2.5399604 2.54,2.5399609 0 0 1 -2.54,-2.5399604 2.54,2.5399609 0 0 1 2.54,-2.539961 2.54,2.5399609 0 0 1 2.54,2.539961 m -5.079994,0 a 2.54,2.5399609 0 0 1 -2.54,2.5399604 2.54,2.5399609 0 0 1 -2.54,-2.5399604 2.54,2.5399609 0 0 1 2.54,-2.539961 2.54,2.5399609 0 0 1 2.54,2.539961 m -5.080277,0 a 2.54,2.5399609 0 0 1 -2.54,2.5399604 2.54,2.5399609 0 0 1 -2.54,-2.5399604 2.54,2.5399609 0 0 1 2.54,-2.539961 2.54,2.5399609 0 0 1 2.54,2.539961 m 10.160271,-5.079922 a 2.54,2.5399609 0 0 1 -2.54,2.539961 2.54,2.5399609 0 0 1 -2.54,-2.539961 2.54,2.5399609 0 0 1 2.54,-2.539961 2.54,2.5399609 0 0 1 2.54,2.539961 m -5.079994,0 a 2.54,2.5399609 0 0 1 -2.54,2.539961 2.54,2.5399609 0 0 1 -2.54,-2.539961 2.54,2.5399609 0 0 1 2.54,-2.539961 2.54,2.5399609 0 0 1 2.54,2.539961 m -5.080277,0 a 2.54,2.5399609 0 0 1 -2.54,2.539961 2.54,2.5399609 0 0 1 -2.54,-2.539961 2.54,2.5399609 0 0 1 2.54,-2.539961 2.54,2.5399609 0 0 1 2.54,2.539961 M 79.267997,-21.5861 a 2.54,2.5399609 0 0 1 -2.54,2.539961 2.54,2.5399609 0 0 1 -2.54,-2.539961 2.54,2.5399609 0 0 1 2.54,-2.539961 2.54,2.5399609 0 0 1 2.54,2.539961 m -5.079994,0 a 2.54,2.5399609 0 0 1 -2.54,2.539961 2.54,2.5399609 0 0 1 -2.54,-2.539961 2.54,2.5399609 0 0 1 2.54,-2.539961 2.54,2.5399609 0 0 1 2.54,2.539961 m -5.080277,0 a 2.54,2.5399609 0 0 1 -2.54,2.539961 2.54,2.5399609 0 0 1 -2.54,-2.539961 2.54,2.5399609 0 0 1 2.54,-2.539961 2.54,2.5399609 0 0 1 2.54,2.539961 m 10.160271,-5.07996 a 2.54,2.54 0 0 1 -2.54,2.54 2.54,2.54 0 0 1 -2.54,-2.54 2.54,2.54 0 0 1 2.54,-2.54 2.54,2.54 0 0 1 2.54,2.54 m -5.079994,0 a 2.54,2.54 0 0 1 -2.54,2.54 2.54,2.54 0 0 1 -2.54,-2.54 2.54,2.54 0 0 1 2.54,-2.54 2.54,2.54 0 0 1 2.54,2.54 m -5.080277,0 a 2.54,2.54 0 0 1 -2.54,2.54 2.54,2.54 0 0 1 -2.54,-2.54 2.54,2.54 0 0 1 2.54,-2.54 2.54,2.54 0 0 1 2.54,2.54 m 10.160271,-5.08 a 2.54,2.54 0 0 1 -2.54,2.54 2.54,2.54 0 0 1 -2.54,-2.54 2.54,2.54 0 0 1 2.54,-2.54 2.54,2.54 0 0 1 2.54,2.54 m -5.079994,0 a 2.54,2.54 0 0 1 -2.54,2.54 2.54,2.54 0 0 1 -2.54,-2.54 2.54,2.54 0 0 1 2.54,-2.54 2.54,2.54 0 0 1 2.54,2.54 m -5.080277,0 a 2.54,2.54 0 0 1 -2.54,2.54 2.54,2.54 0 0 1 -2.54,-2.54 2.54,2.54 0 0 1 2.54,-2.54 2.54,2.54 0 0 1 2.54,2.54 m 10.160271,-5.079766 a 2.54,2.54 0 0 1 -2.54,2.54 2.54,2.54 0 0 1 -2.54,-2.54 2.54,2.54 0 0 1 2.54,-2.54 2.54,2.54 0 0 1 2.54,2.54 m -5.079994,0 a 2.54,2.54 0 0 1 -2.54,2.54 2.54,2.54 0 0 1 -2.54,-2.54 2.54,2.54 0 0 1 2.54,-2.54 2.54,2.54 0 0 1 2.54,2.54 m -5.080277,0 a 2.54,2.54 0 0 1 -2.54,2.54 2.54,2.54 0 0 1 -2.54,-2.54 2.54,2.54 0 0 1 2.54,-2.54 2.54,2.54 0 0 1 2.54,2.54 m 10.160271,-5.080195 a 2.54,2.5399609 0 0 1 -2.54,2.539961 2.54,2.5399609 0 0 1 -2.54,-2.539961 2.54,2.5399609 0 0 1 2.54,-2.539961 2.54,2.5399609 0 0 1 2.54,2.539961 m -5.079994,0 a 2.54,2.5399609 0 0 1 -2.54,2.539961 2.54,2.5399609 0 0 1 -2.54,-2.539961 2.54,2.5399609 0 0 1 2.54,-2.539961 2.54,2.5399609 0 0 1 2.54,2.539961 m -5.080277,0 a 2.54,2.5399609 0 0 1 -2.54,2.539961 2.54,2.5399609 0 0 1 -2.54,-2.539961 2.54,2.5399609 0 0 1 2.54,-2.539961 2.54,2.5399609 0 0 1 2.54,2.539961 m 10.160271,-5.079922 a 2.54,2.5399609 0 0 1 -2.54,2.539961 2.54,2.5399609 0 0 1 -2.54,-2.539961 2.54,2.5399609 0 0 1 2.54,-2.539961 2.54,2.5399609 0 0 1 2.54,2.539961 m -5.079994,0 a 2.54,2.5399609 0 0 1 -2.54,2.539961 2.54,2.5399609 0 0 1 -2.54,-2.539961 2.54,2.5399609 0 0 1 2.54,-2.539961 2.54,2.5399609 0 0 1 2.54,2.539961 m -5.080277,0 a 2.54,2.5399609 0 0 1 -2.54,2.539961 2.54,2.5399609 0 0 1 -2.54,-2.539961 2.54,2.5399609 0 0 1 2.54,-2.539961 2.54,2.5399609 0 0 1 2.54,2.539961 m 10.160271,-5.079688 a 2.54,2.5399609 0 0 1 -2.54,2.539961 2.54,2.5399609 0 0 1 -2.54,-2.539961 2.54,2.5399609 0 0 1 2.54,-2.539961 2.54,2.5399609 0 0 1 2.54,2.539961 m -5.079994,0 a 2.54,2.5399609 0 0 1 -2.54,2.539961 2.54,2.5399609 0 0 1 -2.54,-2.539961 2.54,2.5399609 0 0 1 2.54,-2.539961 2.54,2.5399609 0 0 1 2.54,2.539961 m -5.080277,0 a 2.54,2.5399609 0 0 1 -2.54,2.539961 2.54,2.5399609 0 0 1 -2.54,-2.539961 2.54,2.5399609 0 0 1 2.54,-2.539961 2.54,2.5399609 0 0 1 2.54,2.539961 m 10.160271,-5.07996 a 2.54,2.54 0 0 1 -2.54,2.54 2.54,2.54 0 0 1 -2.54,-2.54 2.54,2.54 0 0 1 2.54,-2.54 2.54,2.54 0 0 1 2.54,2.54 m -5.079994,0 a 2.54,2.54 0 0 1 -2.54,2.54 2.54,2.54 0 0 1 -2.54,-2.54 2.54,2.54 0 0 1 2.54,-2.54 2.54,2.54 0 0 1 2.54,2.54 m -5.080277,0 a 2.54,2.54 0 0 1 -2.54,2.54 2.54,2.54 0 0 1 -2.54,-2.54 2.54,2.54 0 0 1 2.54,-2.54 2.54,2.54 0 0 1 2.54,2.54 m 10.160271,-5.08 a 2.54,2.54 0 0 1 -2.54,2.54 2.54,2.54 0 0 1 -2.54,-2.54 2.54,2.54 0 0 1 2.54,-2.54 2.54,2.54 0 0 1 2.54,2.54 m -5.079994,0 a 2.54,2.54 0 0 1 -2.54,2.54 2.54,2.54 0 0 1 -2.54,-2.54 2.54,2.54 0 0 1 2.54,-2.54 2.54,2.54 0 0 1 2.54,2.54 m -5.080277,0 a 2.54,2.54 0 0 1 -2.54,2.54 2.54,2.54 0 0 1 -2.54,-2.54 2.54,2.54 0 0 1 2.54,-2.54 2.54,2.54 0 0 1 2.54,2.54 m 10.160271,-5.079766 a 2.54,2.54 0 0 1 -2.54,2.54 2.54,2.54 0 0 1 -2.54,-2.54 2.54,2.54 0 0 1 2.54,-2.54 2.54,2.54 0 0 1 2.54,2.54 m -5.079994,0 a 2.54,2.54 0 0 1 -2.54,2.54 2.54,2.54 0 0 1 -2.54,-2.54 2.54,2.54 0 0 1 2.54,-2.54 2.54,2.54 0 0 1 2.54,2.54 m -5.080277,0 a 2.54,2.54 0 0 1 -2.54,2.54 2.54,2.54 0 0 1 -2.54,-2.54 2.54,2.54 0 0 1 2.54,-2.54 2.54,2.54 0 0 1 2.54,2.54 m 10.160271,-5.080195 a 2.54,2.5399609 0 0 1 -2.54,2.539961 2.54,2.5399609 0 0 1 -2.54,-2.539961 2.54,2.5399609 0 0 1 2.54,-2.539961 2.54,2.5399609 0 0 1 2.54,2.539961 m -5.079994,0 a 2.54,2.5399609 0 0 1 -2.54,2.539961 2.54,2.5399609 0 0 1 -2.54,-2.539961 2.54,2.5399609 0 0 1 2.54,-2.539961 2.54,2.5399609 0 0 1 2.54,2.539961 m -5.080277,0 a 2.54,2.5399609 0 0 1 -2.54,2.539961 2.54,2.5399609 0 0 1 -2.54,-2.539961 2.54,2.5399609 0 0 1 2.54,-2.539961 2.54,2.5399609 0 0 1 2.54,2.539961 m 10.160271,-5.079922 a 2.54,2.5399609 0 0 1 -2.54,2.539961 2.54,2.5399609 0 0 1 -2.54,-2.539961 2.54,2.5399609 0 0 1 2.54,-2.53996 2.54,2.5399609 0 0 1 2.54,2.53996 m -5.079994,0 a 2.54,2.5399609 0 0 1 -2.54,2.539961 2.54,2.5399609 0 0 1 -2.54,-2.539961 2.54,2.5399609 0 0 1 2.54,-2.53996 2.54,2.5399609 0 0 1 2.54,2.53996 m -5.080277,0 a 2.54,2.5399609 0 0 1 -2.54,2.539961 2.54,2.5399609 0 0 1 -2.54,-2.539961 2.54,2.5399609 0 0 1 2.54,-2.53996 2.54,2.5399609 0 0 1 2.54,2.53996 m 10.160271,-5.079687 a 2.54,2.5399609 0 0 1 -2.54,2.539961 2.54,2.5399609 0 0 1 -2.54,-2.539961 2.54,2.5399609 0 0 1 2.54,-2.539961 2.54,2.5399609 0 0 1 2.54,2.539961 m -5.079994,0 a 2.54,2.5399609 0 0 1 -2.54,2.539961 2.54,2.5399609 0 0 1 -2.54,-2.539961 2.54,2.5399609 0 0 1 2.54,-2.539961 2.54,2.5399609 0 0 1 2.54,2.539961 m -5.080277,0 a 2.54,2.5399609 0 0 1 -2.54,2.539961 2.54,2.5399609 0 0 1 -2.54,-2.539961 2.54,2.5399609 0 0 1 2.54,-2.539961 2.54,2.5399609 0 0 1 2.54,2.539961 m 10.160271,-5.07996 a 2.54,2.54 0 0 1 -2.54,2.54 2.54,2.54 0 0 1 -2.54,-2.54 2.54,2.54 0 0 1 2.54,-2.54 2.54,2.54 0 0 1 2.54,2.54 m -5.079994,0 a 2.54,2.54 0 0 1 -2.54,2.54 2.54,2.54 0 0 1 -2.54,-2.54 2.54,2.54 0 0 1 2.54,-2.54 2.54,2.54 0 0 1 2.54,2.54 m -5.080277,0 a 2.54,2.54 0 0 1 -2.54,2.54 2.54,2.54 0 0 1 -2.54,-2.54 2.54,2.54 0 0 1 2.54,-2.54 2.54,2.54 0 0 1 2.54,2.54 m 10.160271,-5.08 a 2.54,2.54 0 0 1 -2.54,2.54 2.54,2.54 0 0 1 -2.54,-2.54 2.54,2.54 0 0 1 2.54,-2.54 2.54,2.54 0 0 1 2.54,2.54 m -5.079994,0 a 2.54,2.54 0 0 1 -2.54,2.54 2.54,2.54 0 0 1 -2.54,-2.54 2.54,2.54 0 0 1 2.54,-2.54 2.54,2.54 0 0 1 2.54,2.54 m -5.080277,0 a 2.54,2.54 0 0 1 -2.54,2.54 2.54,2.54 0 0 1 -2.54,-2.54 2.54,2.54 0 0 1 2.54,-2.54 2.54,2.54 0 0 1 2.54,2.54 m 10.160271,-5.079766 a 2.54,2.54 0 0 1 -2.54,2.54 2.54,2.54 0 0 1 -2.54,-2.54 2.54,2.54 0 0 1 2.54,-2.540003 2.54,2.54 0 0 1 2.54,2.540003 m -5.079994,0 a 2.54,2.54 0 0 1 -2.54,2.54 2.54,2.54 0 0 1 -2.54,-2.54 2.54,2.54 0 0 1 2.54,-2.540003 2.54,2.54 0 0 1 2.54,2.540003 m -5.080277,0 a 2.54,2.54 0 0 1 -2.54,2.54 2.54,2.54 0 0 1 -2.54,-2.54 2.54,2.54 0 0 1 2.54,-2.540003 2.54,2.54 0 0 1 2.54,2.540003 m 10.160271,-5.080193 a 2.54,2.5399609 0 0 1 -2.54,2.53996 2.54,2.5399609 0 0 1 -2.54,-2.53996 2.54,2.5399609 0 0 1 2.54,-2.53996 2.54,2.5399609 0 0 1 2.54,2.53996 m -5.079994,0 a 2.54,2.5399609 0 0 1 -2.54,2.53996 2.54,2.5399609 0 0 1 -2.54,-2.53996 2.54,2.5399609 0 0 1 2.54,-2.53996 2.54,2.5399609 0 0 1 2.54,2.53996 m -5.080277,0 a 2.54,2.5399609 0 0 1 -2.54,2.53996 2.54,2.5399609 0 0 1 -2.54,-2.53996 2.54,2.5399609 0 0 1 2.54,-2.53996 2.54,2.5399609 0 0 1 2.54,2.53996 m 10.160271,-5.07992 a 2.54,2.5399609 0 0 1 -2.54,2.53996 2.54,2.5399609 0 0 1 -2.54,-2.53996 2.54,2.5399609 0 0 1 2.54,-2.53997 2.54,2.5399609 0 0 1 2.54,2.53997 m -5.079994,0 a 2.54,2.5399609 0 0 1 -2.54,2.53996 2.54,2.5399609 0 0 1 -2.54,-2.53996 2.54,2.5399609 0 0 1 2.54,-2.53997 2.54,2.5399609 0 0 1 2.54,2.53997 m -5.080277,0 a 2.54,2.5399609 0 0 1 -2.54,2.53996 2.54,2.5399609 0 0 1 -2.54,-2.53996 2.54,2.5399609 0 0 1 2.54,-2.53997 2.54,2.5399609 0 0 1 2.54,2.53997 m 10.160271,-5.07969 a 2.54,2.5399609 0 0 1 -2.54,2.53996 2.54,2.5399609 0 0 1 -2.54,-2.53996 2.54,2.5399609 0 0 1 2.54,-2.53996 2.54,2.5399609 0 0 1 2.54,2.53996 m -5.079994,0 a 2.54,2.5399609 0 0 1 -2.54,2.53996 2.54,2.5399609 0 0 1 -2.54,-2.53996 2.54,2.5399609 0 0 1 2.54,-2.53996 2.54,2.5399609 0 0 1 2.54,2.53996 m -5.080277,0 a 2.54,2.5399609 0 0 1 -2.54,2.53996 2.54,2.5399609 0 0 1 -2.54,-2.53996 2.54,2.5399609 0 0 1 2.54,-2.53996 2.54,2.5399609 0 0 1 2.54,2.53996"
             style="fill:#000000;fill-opacity:1;stroke:none;stroke-width:0.265668;stroke-linecap:square;stroke-miterlimit:4;stroke-dasharray:none;stroke-opacity:1;paint-order:markers stroke fill"
             id="path1076" />
        </g>
      </g>
    </mask>
    <mask
       id="mask-powermask-path-effect1099"
       maskUnits="userSpaceOnUse">
      <path
         d="M -0.99999984,167.5 H 163.56 V 298 H -0.99999984 Z"
         style="fill:#ffffff;fill-opacity:1"
         id="mask-powermask-path-effect1099_box" />
      <g
         id="g1092"
         transform="matrix(10.666667,0,0,1.0000154,-682.96235,273.90651)"
         style="fill:#000000;fill-opacity:1">
        <g
           id="g1084"
           style="fill:#000000;fill-opacity:1" />
        <g
           id="g1086"
           transform="translate(0,5.0797659)"
           style="fill:#000000;fill-opacity:1" />
        <g
           transform="translate(0,10.159766)"
           id="g1090"
           style="fill:#000000;fill-opacity:1">
          <path
             d="m 79.267997,19.053234 a 2.54,2.54 0 0 1 -2.54,2.54 2.54,2.54 0 0 1 -2.54,-2.54 2.54,2.54 0 0 1 2.54,-2.54 2.54,2.54 0 0 1 2.54,2.54 m -5.079994,0 a 2.54,2.54 0 0 1 -2.54,2.54 2.54,2.54 0 0 1 -2.54,-2.54 2.54,2.54 0 0 1 2.54,-2.54 2.54,2.54 0 0 1 2.54,2.54 m -5.080277,0 a 2.54,2.54 0 0 1 -2.54,2.54 2.54,2.54 0 0 1 -2.54,-2.54 2.54,2.54 0 0 1 2.54,-2.54 2.54,2.54 0 0 1 2.54,2.54 m 10.160271,-5.08 a 2.54,2.54 0 0 1 -2.54,2.54 2.54,2.54 0 0 1 -2.54,-2.54 2.54,2.54 0 0 1 2.54,-2.54 2.54,2.54 0 0 1 2.54,2.54 m -5.079994,0 a 2.54,2.54 0 0 1 -2.54,2.54 2.54,2.54 0 0 1 -2.54,-2.54 2.54,2.54 0 0 1 2.54,-2.54 2.54,2.54 0 0 1 2.54,2.54 m -5.080277,0 a 2.54,2.54 0 0 1 -2.54,2.54 2.54,2.54 0 0 1 -2.54,-2.54 2.54,2.54 0 0 1 2.54,-2.54 2.54,2.54 0 0 1 2.54,2.54 M 79.267997,8.893468 a 2.54,2.54 0 0 1 -2.54,2.54 2.54,2.54 0 0 1 -2.54,-2.54 2.54,2.54 0 0 1 2.54,-2.54 2.54,2.54 0 0 1 2.54,2.54 m -5.079994,0 a 2.54,2.54 0 0 1 -2.54,2.54 2.54,2.54 0 0 1 -2.54,-2.54 2.54,2.54 0 0 1 2.54,-2.54 2.54,2.54 0 0 1 2.54,2.54 m -5.080277,0 a 2.54,2.54 0 0 1 -2.54,2.54 2.54,2.54 0 0 1 -2.54,-2.54 2.54,2.54 0 0 1 2.54,-2.54 2.54,2.54 0 0 1 2.54,2.54 M 79.267997,3.8134707 a 2.54,2.54 0 0 1 -2.54,2.54 2.54,2.54 0 0 1 -2.54,-2.54 2.54,2.54 0 0 1 2.54,-2.54 2.54,2.54 0 0 1 2.54,2.54 m -5.079994,0 a 2.54,2.54 0 0 1 -2.54,2.54 2.54,2.54 0 0 1 -2.54,-2.54 2.54,2.54 0 0 1 2.54,-2.54 2.54,2.54 0 0 1 2.54,2.54 m -5.080277,0 a 2.54,2.54 0 0 1 -2.54,2.54 2.54,2.54 0 0 1 -2.54,-2.54 2.54,2.54 0 0 1 2.54,-2.54 2.54,2.54 0 0 1 2.54,2.54 m 10.160271,-5.0800001 a 2.54,2.54 0 0 1 -2.54,2.54 2.54,2.54 0 0 1 -2.54,-2.54 2.54,2.54 0 0 1 2.54,-2.54 2.54,2.54 0 0 1 2.54,2.54 m -5.079994,0 a 2.54,2.54 0 0 1 -2.54,2.54 2.54,2.54 0 0 1 -2.54,-2.54 2.54,2.54 0 0 1 2.54,-2.54 2.54,2.54 0 0 1 2.54,2.54 m -5.080277,0 a 2.54,2.54 0 0 1 -2.54,2.54 2.54,2.54 0 0 1 -2.54,-2.54 2.54,2.54 0 0 1 2.54,-2.54 2.54,2.54 0 0 1 2.54,2.54 m 10.160271,-5.0797659 a 2.54,2.54 0 0 1 -2.54,2.54 2.54,2.54 0 0 1 -2.54,-2.54 2.54,2.54 0 0 1 2.54,-2.54 2.54,2.54 0 0 1 2.54,2.54 m -5.079994,0 a 2.54,2.54 0 0 1 -2.54,2.54 2.54,2.54 0 0 1 -2.54,-2.54 2.54,2.54 0 0 1 2.54,-2.54 2.54,2.54 0 0 1 2.54,2.54 m -5.080277,0 a 2.54,2.54 0 0 1 -2.54,2.54 2.54,2.54 0 0 1 -2.54,-2.54 2.54,2.54 0 0 1 2.54,-2.54 2.54,2.54 0 0 1 2.54,2.54 M 79.267997,-11.42649 a 2.54,2.5399609 0 0 1 -2.54,2.5399604 2.54,2.5399609 0 0 1 -2.54,-2.5399604 2.54,2.5399609 0 0 1 2.54,-2.539961 2.54,2.5399609 0 0 1 2.54,2.539961 m -5.079994,0 a 2.54,2.5399609 0 0 1 -2.54,2.5399604 2.54,2.5399609 0 0 1 -2.54,-2.5399604 2.54,2.5399609 0 0 1 2.54,-2.539961 2.54,2.5399609 0 0 1 2.54,2.539961 m -5.080277,0 a 2.54,2.5399609 0 0 1 -2.54,2.5399604 2.54,2.5399609 0 0 1 -2.54,-2.5399604 2.54,2.5399609 0 0 1 2.54,-2.539961 2.54,2.5399609 0 0 1 2.54,2.539961 m 10.160271,-5.079922 a 2.54,2.5399609 0 0 1 -2.54,2.539961 2.54,2.5399609 0 0 1 -2.54,-2.539961 2.54,2.5399609 0 0 1 2.54,-2.539961 2.54,2.5399609 0 0 1 2.54,2.539961 m -5.079994,0 a 2.54,2.5399609 0 0 1 -2.54,2.539961 2.54,2.5399609 0 0 1 -2.54,-2.539961 2.54,2.5399609 0 0 1 2.54,-2.539961 2.54,2.5399609 0 0 1 2.54,2.539961 m -5.080277,0 a 2.54,2.5399609 0 0 1 -2.54,2.539961 2.54,2.5399609 0 0 1 -2.54,-2.539961 2.54,2.5399609 0 0 1 2.54,-2.539961 2.54,2.5399609 0 0 1 2.54,2.539961 M 79.267997,-21.5861 a 2.54,2.5399609 0 0 1 -2.54,2.539961 2.54,2.5399609 0 0 1 -2.54,-2.539961 2.54,2.5399609 0 0 1 2.54,-2.539961 2.54,2.5399609 0 0 1 2.54,2.539961 m -5.079994,0 a 2.54,2.5399609 0 0 1 -2.54,2.539961 2.54,2.5399609 0 0 1 -2.54,-2.539961 2.54,2.5399609 0 0 1 2.54,-2.539961 2.54,2.5399609 0 0 1 2.54,2.539961 m -5.080277,0 a 2.54,2.5399609 0 0 1 -2.54,2.539961 2.54,2.5399609 0 0 1 -2.54,-2.539961 2.54,2.5399609 0 0 1 2.54,-2.539961 2.54,2.5399609 0 0 1 2.54,2.539961 m 10.160271,-5.07996 a 2.54,2.54 0 0 1 -2.54,2.54 2.54,2.54 0 0 1 -2.54,-2.54 2.54,2.54 0 0 1 2.54,-2.54 2.54,2.54 0 0 1 2.54,2.54 m -5.079994,0 a 2.54,2.54 0 0 1 -2.54,2.54 2.54,2.54 0 0 1 -2.54,-2.54 2.54,2.54 0 0 1 2.54,-2.54 2.54,2.54 0 0 1 2.54,2.54 m -5.080277,0 a 2.54,2.54 0 0 1 -2.54,2.54 2.54,2.54 0 0 1 -2.54,-2.54 2.54,2.54 0 0 1 2.54,-2.54 2.54,2.54 0 0 1 2.54,2.54 m 10.160271,-5.08 a 2.54,2.54 0 0 1 -2.54,2.54 2.54,2.54 0 0 1 -2.54,-2.54 2.54,2.54 0 0 1 2.54,-2.54 2.54,2.54 0 0 1 2.54,2.54 m -5.079994,0 a 2.54,2.54 0 0 1 -2.54,2.54 2.54,2.54 0 0 1 -2.54,-2.54 2.54,2.54 0 0 1 2.54,-2.54 2.54,2.54 0 0 1 2.54,2.54 m -5.080277,0 a 2.54,2.54 0 0 1 -2.54,2.54 2.54,2.54 0 0 1 -2.54,-2.54 2.54,2.54 0 0 1 2.54,-2.54 2.54,2.54 0 0 1 2.54,2.54 m 10.160271,-5.079766 a 2.54,2.54 0 0 1 -2.54,2.54 2.54,2.54 0 0 1 -2.54,-2.54 2.54,2.54 0 0 1 2.54,-2.54 2.54,2.54 0 0 1 2.54,2.54 m -5.079994,0 a 2.54,2.54 0 0 1 -2.54,2.54 2.54,2.54 0 0 1 -2.54,-2.54 2.54,2.54 0 0 1 2.54,-2.54 2.54,2.54 0 0 1 2.54,2.54 m -5.080277,0 a 2.54,2.54 0 0 1 -2.54,2.54 2.54,2.54 0 0 1 -2.54,-2.54 2.54,2.54 0 0 1 2.54,-2.54 2.54,2.54 0 0 1 2.54,2.54 m 10.160271,-5.080195 a 2.54,2.5399609 0 0 1 -2.54,2.539961 2.54,2.5399609 0 0 1 -2.54,-2.539961 2.54,2.5399609 0 0 1 2.54,-2.539961 2.54,2.5399609 0 0 1 2.54,2.539961 m -5.079994,0 a 2.54,2.5399609 0 0 1 -2.54,2.539961 2.54,2.5399609 0 0 1 -2.54,-2.539961 2.54,2.5399609 0 0 1 2.54,-2.539961 2.54,2.5399609 0 0 1 2.54,2.539961 m -5.080277,0 a 2.54,2.5399609 0 0 1 -2.54,2.539961 2.54,2.5399609 0 0 1 -2.54,-2.539961 2.54,2.5399609 0 0 1 2.54,-2.539961 2.54,2.5399609 0 0 1 2.54,2.539961 m 10.160271,-5.079922 a 2.54,2.5399609 0 0 1 -2.54,2.539961 2.54,2.5399609 0 0 1 -2.54,-2.539961 2.54,2.5399609 0 0 1 2.54,-2.539961 2.54,2.5399609 0 0 1 2.54,2.539961 m -5.079994,0 a 2.54,2.5399609 0 0 1 -2.54,2.539961 2.54,2.5399609 0 0 1 -2.54,-2.539961 2.54,2.5399609 0 0 1 2.54,-2.539961 2.54,2.5399609 0 0 1 2.54,2.539961 m -5.080277,0 a 2.54,2.5399609 0 0 1 -2.54,2.539961 2.54,2.5399609 0 0 1 -2.54,-2.539961 2.54,2.5399609 0 0 1 2.54,-2.539961 2.54,2.5399609 0 0 1 2.54,2.539961 m 10.160271,-5.079688 a 2.54,2.5399609 0 0 1 -2.54,2.539961 2.54,2.5399609 0 0 1 -2.54,-2.539961 2.54,2.5399609 0 0 1 2.54,-2.539961 2.54,2.5399609 0 0 1 2.54,2.539961 m -5.079994,0 a 2.54,2.5399609 0 0 1 -2.54,2.539961 2.54,2.5399609 0 0 1 -2.54,-2.539961 2.54,2.5399609 0 0 1 2.54,-2.539961 2.54,2.5399609 0 0 1 2.54,2.539961 m -5.080277,0 a 2.54,2.5399609 0 0 1 -2.54,2.539961 2.54,2.5399609 0 0 1 -2.54,-2.539961 2.54,2.5399609 0 0 1 2.54,-2.539961 2.54,2.5399609 0 0 1 2.54,2.539961 m 10.160271,-5.07996 a 2.54,2.54 0 0 1 -2.54,2.54 2.54,2.54 0 0 1 -2.54,-2.54 2.54,2.54 0 0 1 2.54,-2.54 2.54,2.54 0 0 1 2.54,2.54 m -5.079994,0 a 2.54,2.54 0 0 1 -2.54,2.54 2.54,2.54 0 0 1 -2.54,-2.54 2.54,2.54 0 0 1 2.54,-2.54 2.54,2.54 0 0 1 2.54,2.54 m -5.080277,0 a 2.54,2.54 0 0 1 -2.54,2.54 2.54,2.54 0 0 1 -2.54,-2.54 2.54,2.54 0 0 1 2.54,-2.54 2.54,2.54 0 0 1 2.54,2.54 m 10.160271,-5.08 a 2.54,2.54 0 0 1 -2.54,2.54 2.54,2.54 0 0 1 -2.54,-2.54 2.54,2.54 0 0 1 2.54,-2.54 2.54,2.54 0 0 1 2.54,2.54 m -5.079994,0 a 2.54,2.54 0 0 1 -2.54,2.54 2.54,2.54 0 0 1 -2.54,-2.54 2.54,2.54 0 0 1 2.54,-2.54 2.54,2.54 0 0 1 2.54,2.54 m -5.080277,0 a 2.54,2.54 0 0 1 -2.54,2.54 2.54,2.54 0 0 1 -2.54,-2.54 2.54,2.54 0 0 1 2.54,-2.54 2.54,2.54 0 0 1 2.54,2.54 m 10.160271,-5.079766 a 2.54,2.54 0 0 1 -2.54,2.54 2.54,2.54 0 0 1 -2.54,-2.54 2.54,2.54 0 0 1 2.54,-2.54 2.54,2.54 0 0 1 2.54,2.54 m -5.079994,0 a 2.54,2.54 0 0 1 -2.54,2.54 2.54,2.54 0 0 1 -2.54,-2.54 2.54,2.54 0 0 1 2.54,-2.54 2.54,2.54 0 0 1 2.54,2.54 m -5.080277,0 a 2.54,2.54 0 0 1 -2.54,2.54 2.54,2.54 0 0 1 -2.54,-2.54 2.54,2.54 0 0 1 2.54,-2.54 2.54,2.54 0 0 1 2.54,2.54 m 10.160271,-5.080195 a 2.54,2.5399609 0 0 1 -2.54,2.539961 2.54,2.5399609 0 0 1 -2.54,-2.539961 2.54,2.5399609 0 0 1 2.54,-2.539961 2.54,2.5399609 0 0 1 2.54,2.539961 m -5.079994,0 a 2.54,2.5399609 0 0 1 -2.54,2.539961 2.54,2.5399609 0 0 1 -2.54,-2.539961 2.54,2.5399609 0 0 1 2.54,-2.539961 2.54,2.5399609 0 0 1 2.54,2.539961 m -5.080277,0 a 2.54,2.5399609 0 0 1 -2.54,2.539961 2.54,2.5399609 0 0 1 -2.54,-2.539961 2.54,2.5399609 0 0 1 2.54,-2.539961 2.54,2.5399609 0 0 1 2.54,2.539961 m 10.160271,-5.079922 a 2.54,2.5399609 0 0 1 -2.54,2.539961 2.54,2.5399609 0 0 1 -2.54,-2.539961 2.54,2.5399609 0 0 1 2.54,-2.53996 2.54,2.5399609 0 0 1 2.54,2.53996 m -5.079994,0 a 2.54,2.5399609 0 0 1 -2.54,2.539961 2.54,2.5399609 0 0 1 -2.54,-2.539961 2.54,2.5399609 0 0 1 2.54,-2.53996 2.54,2.5399609 0 0 1 2.54,2.53996 m -5.080277,0 a 2.54,2.5399609 0 0 1 -2.54,2.539961 2.54,2.5399609 0 0 1 -2.54,-2.539961 2.54,2.5399609 0 0 1 2.54,-2.53996 2.54,2.5399609 0 0 1 2.54,2.53996 m 10.160271,-5.079687 a 2.54,2.5399609 0 0 1 -2.54,2.539961 2.54,2.5399609 0 0 1 -2.54,-2.539961 2.54,2.5399609 0 0 1 2.54,-2.539961 2.54,2.5399609 0 0 1 2.54,2.539961 m -5.079994,0 a 2.54,2.5399609 0 0 1 -2.54,2.539961 2.54,2.5399609 0 0 1 -2.54,-2.539961 2.54,2.5399609 0 0 1 2.54,-2.539961 2.54,2.5399609 0 0 1 2.54,2.539961 m -5.080277,0 a 2.54,2.5399609 0 0 1 -2.54,2.539961 2.54,2.5399609 0 0 1 -2.54,-2.539961 2.54,2.5399609 0 0 1 2.54,-2.539961 2.54,2.5399609 0 0 1 2.54,2.539961 m 10.160271,-5.07996 a 2.54,2.54 0 0 1 -2.54,2.54 2.54,2.54 0 0 1 -2.54,-2.54 2.54,2.54 0 0 1 2.54,-2.54 2.54,2.54 0 0 1 2.54,2.54 m -5.079994,0 a 2.54,2.54 0 0 1 -2.54,2.54 2.54,2.54 0 0 1 -2.54,-2.54 2.54,2.54 0 0 1 2.54,-2.54 2.54,2.54 0 0 1 2.54,2.54 m -5.080277,0 a 2.54,2.54 0 0 1 -2.54,2.54 2.54,2.54 0 0 1 -2.54,-2.54 2.54,2.54 0 0 1 2.54,-2.54 2.54,2.54 0 0 1 2.54,2.54 m 10.160271,-5.08 a 2.54,2.54 0 0 1 -2.54,2.54 2.54,2.54 0 0 1 -2.54,-2.54 2.54,2.54 0 0 1 2.54,-2.54 2.54,2.54 0 0 1 2.54,2.54 m -5.079994,0 a 2.54,2.54 0 0 1 -2.54,2.54 2.54,2.54 0 0 1 -2.54,-2.54 2.54,2.54 0 0 1 2.54,-2.54 2.54,2.54 0 0 1 2.54,2.54 m -5.080277,0 a 2.54,2.54 0 0 1 -2.54,2.54 2.54,2.54 0 0 1 -2.54,-2.54 2.54,2.54 0 0 1 2.54,-2.54 2.54,2.54 0 0 1 2.54,2.54 m 10.160271,-5.079766 a 2.54,2.54 0 0 1 -2.54,2.54 2.54,2.54 0 0 1 -2.54,-2.54 2.54,2.54 0 0 1 2.54,-2.540003 2.54,2.54 0 0 1 2.54,2.540003 m -5.079994,0 a 2.54,2.54 0 0 1 -2.54,2.54 2.54,2.54 0 0 1 -2.54,-2.54 2.54,2.54 0 0 1 2.54,-2.540003 2.54,2.54 0 0 1 2.54,2.540003 m -5.080277,0 a 2.54,2.54 0 0 1 -2.54,2.54 2.54,2.54 0 0 1 -2.54,-2.54 2.54,2.54 0 0 1 2.54,-2.540003 2.54,2.54 0 0 1 2.54,2.540003 m 10.160271,-5.080193 a 2.54,2.5399609 0 0 1 -2.54,2.53996 2.54,2.5399609 0 0 1 -2.54,-2.53996 2.54,2.5399609 0 0 1 2.54,-2.53996 2.54,2.5399609 0 0 1 2.54,2.53996 m -5.079994,0 a 2.54,2.5399609 0 0 1 -2.54,2.53996 2.54,2.5399609 0 0 1 -2.54,-2.53996 2.54,2.5399609 0 0 1 2.54,-2.53996 2.54,2.5399609 0 0 1 2.54,2.53996 m -5.080277,0 a 2.54,2.5399609 0 0 1 -2.54,2.53996 2.54,2.5399609 0 0 1 -2.54,-2.53996 2.54,2.5399609 0 0 1 2.54,-2.53996 2.54,2.5399609 0 0 1 2.54,2.53996 m 10.160271,-5.07992 a 2.54,2.5399609 0 0 1 -2.54,2.53996 2.54,2.5399609 0 0 1 -2.54,-2.53996 2.54,2.5399609 0 0 1 2.54,-2.53997 2.54,2.5399609 0 0 1 2.54,2.53997 m -5.079994,0 a 2.54,2.5399609 0 0 1 -2.54,2.53996 2.54,2.5399609 0 0 1 -2.54,-2.53996 2.54,2.5399609 0 0 1 2.54,-2.53997 2.54,2.5399609 0 0 1 2.54,2.53997 m -5.080277,0 a 2.54,2.5399609 0 0 1 -2.54,2.53996 2.54,2.5399609 0 0 1 -2.54,-2.53996 2.54,2.5399609 0 0 1 2.54,-2.53997 2.54,2.5399609 0 0 1 2.54,2.53997 m 10.160271,-5.07969 a 2.54,2.5399609 0 0 1 -2.54,2.53996 2.54,2.5399609 0 0 1 -2.54,-2.53996 2.54,2.5399609 0 0 1 2.54,-2.53996 2.54,2.5399609 0 0 1 2.54,2.53996 m -5.079994,0 a 2.54,2.5399609 0 0 1 -2.54,2.53996 2.54,2.5399609 0 0 1 -2.54,-2.53996 2.54,2.5399609 0 0 1 2.54,-2.53996 2.54,2.5399609 0 0 1 2.54,2.53996 m -5.080277,0 a 2.54,2.5399609 0 0 1 -2.54,2.53996 2.54,2.5399609 0 0 1 -2.54,-2.53996 2.54,2.5399609 0 0 1 2.54,-2.53996 2.54,2.5399609 0 0 1 2.54,2.53996"
             style="fill:#000000;fill-opacity:1;stroke:none;stroke-width:0.265668;stroke-linecap:square;stroke-miterlimit:4;stroke-dasharray:none;stroke-opacity:1;paint-order:markers stroke fill"
             id="path1088" />
        </g>
      </g>
    </mask>
    <filter
       y="-50"
       x="-50"
       width="100"
       height="100"
       style="color-interpolation-filters:sRGB"
       inkscape:label="filtermask-powermask-path-effect1094"
       id="mask-powermask-path-effect1094_inverse">
      <feColorMatrix
         result="fbSourceGraphic"
         type="saturate"
         values="1"
         id="mask-powermask-path-effect1094_primitive1" />
      <feColorMatrix
         in="fbSourceGraphic"
         values="-1 0 0 0 1 0 -1 0 0 1 0 0 -1 0 1 0 0 0 1 0 "
         id="mask-powermask-path-effect1094_primitive2" />
    </filter>
    <filter
       y="-50"
       x="-50"
       width="100"
       height="100"
       style="color-interpolation-filters:sRGB"
       inkscape:label="filtermask-powermask-path-effect1099"
       id="mask-powermask-path-effect1099_inverse">
      <feColorMatrix
         result="fbSourceGraphic"
         type="saturate"
         values="1"
         id="mask-powermask-path-effect1099_primitive1" />
      <feColorMatrix
         in="fbSourceGraphic"
         values="-1 0 0 0 1 0 -1 0 0 1 0 0 -1 0 1 0 0 0 1 0 "
         id="mask-powermask-path-effect1099_primitive2" />
    </filter>
  </defs>
  <sodipodi:namedview
     id="base"
     pagecolor="#ffffff"
     bordercolor="#666666"
     borderopacity="1.0"
     inkscape:pageopacity="0.0"
     inkscape:pageshadow="2"
     inkscape:zoom="1.6983854"
     inkscape:cx="-60.030379"
     inkscape:cy="179.92603"
     inkscape:document-units="mm"
     inkscape:current-layer="layer4"
     showgrid="false"
     inkscape:window-width="1920"
     inkscape:window-height="1019"
     inkscape:window-x="1076"
     inkscape:window-y="442"
     inkscape:window-maximized="1"
     showguides="true"
     inkscape:guide-bbox="true"
     inkscape:document-rotation="0" />
  <metadata
     id="metadata885">
    <rdf:RDF>
      <cc:Work
         rdf:about="">
        <dc:format>image/svg+xml</dc:format>
        <dc:type
           rdf:resource="http://purl.org/dc/dcmitype/StillImage" />
        <dc:title />
      </cc:Work>
    </rdf:RDF>
  </metadata>
  <g
     inkscape:label="BG"
     inkscape:groupmode="layer"
     id="layer1"
     transform="translate(0,-168.5)"
     style="display:inline">
    <g
       id="g1065"
       transform="matrix(0.09375,0,0,1,-2.3666667e-6,0)">
      <rect
         y="168.5"
         x="1.5894572e-07"
         height="128.5"
         width="162.56"
         id="rect420"
         style="display:inline;opacity:1;vector-effect:none;fill:url(#linearGradient7669);fill-opacity:1;fill-rule:evenodd;stroke:none;stroke-width:1.16161;stroke-linecap:butt;stroke-linejoin:miter;stroke-miterlimit:4;stroke-dasharray:none;stroke-dashoffset:0;stroke-opacity:1;paint-order:normal;enable-background:new" />
    </g>
  </g>
  <g
     inkscape:groupmode="layer"
     id="layer5"
     inkscape:label="BG Decoration"
     style="display:inline">
    <g
       id="g3992">
      <g
         id="g3978" />
      <g
         id="g3984"
         transform="translate(0,30.48)" />
    </g>
    <g
       transform="translate(0,60.96)"
       id="g3998" />
    <path
       d="M 2.5398966,0 A 2.54,2.54 0 0 1 -3.6666667e-7,2.539896 v 5.17e-4 A 2.54,2.54 0 0 1 2.5398966,5.0803097 h 5.17e-4 A 2.54,2.54 0 0 1 5.0803103,2.540413 V 2.539896 A 2.54,2.54 0 0 1 2.5404136,0 Z"
       style="display:inline;fill:#61aeb0;fill-opacity:1;stroke-width:0.277;stroke-linecap:square;paint-order:markers stroke fill"
       id="rect2084" />
    <path
       id="path2108"
       style="display:inline;fill:#61aeb0;fill-opacity:1;stroke-width:0.277;stroke-linecap:square;paint-order:markers stroke fill"
       d="m 7.6202293,0 a 2.54,2.54 0 0 1 -2.539897,2.539896 v 5.17e-4 a 2.54,2.54 0 0 1 2.539897,2.5398967 h 5.17e-4 A 2.54,2.54 0 0 1 10.160643,2.540413 V 2.539896 A 2.54,2.54 0 0 1 7.6207463,0 Z" />
    <path
       d="m 12.700229,0 a 2.54,2.54 0 0 1 -2.539897,2.539896 v 5.17e-4 a 2.54,2.54 0 0 1 2.539897,2.5398967 h 5.17e-4 A 2.54,2.54 0 0 1 15.240643,2.540413 V 2.539896 A 2.54,2.54 0 0 1 12.700746,0 Z"
       style="display:inline;fill:#61aeb0;fill-opacity:1;stroke-width:0.277;stroke-linecap:square;paint-order:markers stroke fill"
       id="path2110" />
    <path
       id="path2115"
       style="display:inline;fill:#61aeb0;fill-opacity:1;stroke-width:0.277;stroke-linecap:square;paint-order:markers stroke fill"
       d="M 2.5398966,5.08 A 2.54,2.54 0 0 1 -3.6666667e-7,7.619896 v 5.17e-4 A 2.54,2.54 0 0 1 2.5398966,10.16031 h 5.17e-4 A 2.54,2.54 0 0 1 5.0803103,7.620413 V 7.619896 A 2.54,2.54 0 0 1 2.5404136,5.08 Z" />
    <path
       d="m 7.6202293,5.08 a 2.54,2.54 0 0 1 -2.539897,2.539896 v 5.17e-4 a 2.54,2.54 0 0 1 2.539897,2.539897 h 5.17e-4 A 2.54,2.54 0 0 1 10.160643,7.620413 V 7.619896 A 2.54,2.54 0 0 1 7.6207463,5.08 Z"
       style="display:inline;fill:#61aeb0;fill-opacity:1;stroke-width:0.277;stroke-linecap:square;paint-order:markers stroke fill"
       id="path2117" />
    <path
       id="path2119"
       style="display:inline;fill:#61aeb0;fill-opacity:1;stroke-width:0.277;stroke-linecap:square;paint-order:markers stroke fill"
       d="m 12.700229,5.08 a 2.54,2.54 0 0 1 -2.539897,2.539896 v 5.17e-4 a 2.54,2.54 0 0 1 2.539897,2.539897 h 5.17e-4 A 2.54,2.54 0 0 1 15.240643,7.620413 V 7.619896 A 2.54,2.54 0 0 1 12.700746,5.08 Z" />
    <path
       d="M 2.5398966,10.16 A 2.54,2.54 0 0 1 -3.6666667e-7,12.699896 v 5.17e-4 A 2.54,2.54 0 0 1 2.5398966,15.24031 h 5.17e-4 a 2.54,2.54 0 0 1 2.5398967,-2.539897 v -5.17e-4 A 2.54,2.54 0 0 1 2.5404136,10.16 Z"
       style="display:inline;fill:#61aeb0;fill-opacity:1;stroke-width:0.277;stroke-linecap:square;paint-order:markers stroke fill"
       id="path2121" />
    <path
       id="path2123"
       style="display:inline;fill:#61aeb0;fill-opacity:1;stroke-width:0.277;stroke-linecap:square;paint-order:markers stroke fill"
       d="m 7.6202293,10.16 a 2.54,2.54 0 0 1 -2.539897,2.539896 v 5.17e-4 a 2.54,2.54 0 0 1 2.539897,2.539897 h 5.17e-4 a 2.54,2.54 0 0 1 2.5398967,-2.539897 v -5.17e-4 A 2.54,2.54 0 0 1 7.6207463,10.16 Z" />
    <path
       d="m 12.700229,10.16 a 2.54,2.54 0 0 1 -2.539897,2.539896 v 5.17e-4 a 2.54,2.54 0 0 1 2.539897,2.539897 h 5.17e-4 a 2.54,2.54 0 0 1 2.539897,-2.539897 v -5.17e-4 A 2.54,2.54 0 0 1 12.700746,10.16 Z"
       style="display:inline;fill:#61aeb0;fill-opacity:1;stroke-width:0.277;stroke-linecap:square;paint-order:markers stroke fill"
       id="path2125" />
    <path
       id="path2127"
       style="display:inline;fill:#61aeb0;fill-opacity:1;stroke-width:0.277;stroke-linecap:square;paint-order:markers stroke fill"
       d="M 2.5398966,15.24 A 2.54,2.54 0 0 1 -3.6666667e-7,17.779896 v 5.17e-4 A 2.54,2.54 0 0 1 2.5398966,20.32031 h 5.17e-4 a 2.54,2.54 0 0 1 2.5398967,-2.539897 v -5.17e-4 A 2.54,2.54 0 0 1 2.5404136,15.24 Z" />
    <path
       d="m 7.6202293,15.24 a 2.54,2.54 0 0 1 -2.539897,2.539896 v 5.17e-4 a 2.54,2.54 0 0 1 2.539897,2.539897 h 5.17e-4 a 2.54,2.54 0 0 1 2.5398967,-2.539897 v -5.17e-4 A 2.54,2.54 0 0 1 7.6207463,15.24 Z"
       style="display:inline;fill:#61aeb0;fill-opacity:1;stroke-width:0.277;stroke-linecap:square;paint-order:markers stroke fill"
       id="path2129" />
    <path
       id="path2131"
       style="display:inline;fill:#61aeb0;fill-opacity:1;stroke-width:0.277;stroke-linecap:square;paint-order:markers stroke fill"
       d="m 12.700229,15.24 a 2.54,2.54 0 0 1 -2.539897,2.539896 v 5.17e-4 a 2.54,2.54 0 0 1 2.539897,2.539897 h 5.17e-4 a 2.54,2.54 0 0 1 2.539897,-2.539897 v -5.17e-4 A 2.54,2.54 0 0 1 12.700746,15.24 Z" />
    <path
       id="path2153"
       style="display:inline;fill:#61aeb0;fill-opacity:1;stroke-width:0.277;stroke-linecap:square;paint-order:markers stroke fill"
       d="M 2.5398966,20.32 A 2.54,2.54 0 0 1 -3.6666667e-7,22.859896 v 5.17e-4 A 2.54,2.54 0 0 1 2.5398966,25.40031 h 5.17e-4 a 2.54,2.54 0 0 1 2.5398967,-2.539897 v -5.17e-4 A 2.54,2.54 0 0 1 2.5404136,20.32 Z" />
    <path
       d="m 7.6202293,20.32 a 2.54,2.54 0 0 1 -2.539897,2.539896 v 5.17e-4 a 2.54,2.54 0 0 1 2.539897,2.539897 h 5.17e-4 a 2.54,2.54 0 0 1 2.5398967,-2.539897 v -5.17e-4 A 2.54,2.54 0 0 1 7.6207463,20.32 Z"
       style="display:inline;fill:#61aeb0;fill-opacity:1;stroke-width:0.277;stroke-linecap:square;paint-order:markers stroke fill"
       id="path2155" />
    <path
       id="path2157"
       style="display:inline;fill:#61aeb0;fill-opacity:1;stroke-width:0.277;stroke-linecap:square;paint-order:markers stroke fill"
       d="m 12.700229,20.32 a 2.54,2.54 0 0 1 -2.539897,2.539896 v 5.17e-4 a 2.54,2.54 0 0 1 2.539897,2.539897 h 5.17e-4 a 2.54,2.54 0 0 1 2.539897,-2.539897 v -5.17e-4 A 2.54,2.54 0 0 1 12.700746,20.32 Z" />
    <path
       d="M 2.5398966,25.4 A 2.54,2.54 0 0 1 -3.6666667e-7,27.939896 v 5.17e-4 A 2.54,2.54 0 0 1 2.5398966,30.48031 h 5.17e-4 a 2.54,2.54 0 0 1 2.5398967,-2.539897 v -5.17e-4 A 2.54,2.54 0 0 1 2.5404136,25.4 Z"
       style="display:inline;fill:#61aeb0;fill-opacity:1;stroke-width:0.277;stroke-linecap:square;paint-order:markers stroke fill"
       id="path2159" />
    <path
       id="path2161"
       style="display:inline;fill:#61aeb0;fill-opacity:1;stroke-width:0.277;stroke-linecap:square;paint-order:markers stroke fill"
       d="m 7.6202293,25.4 a 2.54,2.54 0 0 1 -2.539897,2.539896 v 5.17e-4 a 2.54,2.54 0 0 1 2.539897,2.539897 h 5.17e-4 a 2.54,2.54 0 0 1 2.5398967,-2.539897 v -5.17e-4 A 2.54,2.54 0 0 1 7.6207463,25.4 Z" />
    <path
       d="m 12.700229,25.4 a 2.54,2.54 0 0 1 -2.539897,2.539896 v 5.17e-4 a 2.54,2.54 0 0 1 2.539897,2.539897 h 5.17e-4 a 2.54,2.54 0 0 1 2.539897,-2.539897 v -5.17e-4 A 2.54,2.54 0 0 1 12.700746,25.4 Z"
       style="display:inline;fill:#61aeb0;fill-opacity:1;stroke-width:0.277;stroke-linecap:square;paint-order:markers stroke fill"
       id="path2163" />
    <path
       id="path2165"
       style="display:inline;fill:#61aeb0;fill-opacity:1;stroke-width:0.277;stroke-linecap:square;paint-order:markers stroke fill"
       d="M 2.5398966,30.48 A 2.54,2.54 0 0 1 -3.6666667e-7,33.019896 v 5.17e-4 A 2.54,2.54 0 0 1 2.5398966,35.56031 h 5.17e-4 a 2.54,2.54 0 0 1 2.5398967,-2.539897 v -5.17e-4 A 2.54,2.54 0 0 1 2.5404136,30.48 Z" />
    <path
       d="m 7.6202293,30.48 a 2.54,2.54 0 0 1 -2.539897,2.539896 v 5.17e-4 a 2.54,2.54 0 0 1 2.539897,2.539897 h 5.17e-4 a 2.54,2.54 0 0 1 2.5398967,-2.539897 v -5.17e-4 A 2.54,2.54 0 0 1 7.6207463,30.48 Z"
       style="display:inline;fill:#61aeb0;fill-opacity:1;stroke-width:0.277;stroke-linecap:square;paint-order:markers stroke fill"
       id="path2167" />
    <path
       id="path2169"
       style="display:inline;fill:#61aeb0;fill-opacity:1;stroke-width:0.277;stroke-linecap:square;paint-order:markers stroke fill"
       d="m 12.700229,30.48 a 2.54,2.54 0 0 1 -2.539897,2.539896 v 5.17e-4 a 2.54,2.54 0 0 1 2.539897,2.539897 h 5.17e-4 a 2.54,2.54 0 0 1 2.539897,-2.539897 v -5.17e-4 A 2.54,2.54 0 0 1 12.700746,30.48 Z" />
    <path
       d="M 2.5398966,35.56 A 2.54,2.54 0 0 1 -3.6666667e-7,38.099896 v 5.17e-4 A 2.54,2.54 0 0 1 2.5398966,40.64031 h 5.17e-4 a 2.54,2.54 0 0 1 2.5398967,-2.539897 v -5.17e-4 A 2.54,2.54 0 0 1 2.5404136,35.56 Z"
       style="display:inline;fill:#61aeb0;fill-opacity:1;stroke-width:0.277;stroke-linecap:square;paint-order:markers stroke fill"
       id="path2171" />
    <path
       id="path2173"
       style="display:inline;fill:#61aeb0;fill-opacity:1;stroke-width:0.277;stroke-linecap:square;paint-order:markers stroke fill"
       d="m 7.6202293,35.56 a 2.54,2.54 0 0 1 -2.539897,2.539896 v 5.17e-4 a 2.54,2.54 0 0 1 2.539897,2.539897 h 5.17e-4 a 2.54,2.54 0 0 1 2.5398967,-2.539897 v -5.17e-4 A 2.54,2.54 0 0 1 7.6207463,35.56 Z" />
    <path
       d="m 12.700229,35.56 a 2.54,2.54 0 0 1 -2.539897,2.539896 v 5.17e-4 a 2.54,2.54 0 0 1 2.539897,2.539897 h 5.17e-4 a 2.54,2.54 0 0 1 2.539897,-2.539897 v -5.17e-4 A 2.54,2.54 0 0 1 12.700746,35.56 Z"
       style="display:inline;fill:#61aeb0;fill-opacity:1;stroke-width:0.277;stroke-linecap:square;paint-order:markers stroke fill"
       id="path2175" />
    <path
       d="M 2.5398966,40.64 A 2.54,2.54 0 0 1 -3.6666667e-7,43.179896 v 5.17e-4 A 2.54,2.54 0 0 1 2.5398966,45.72031 h 5.17e-4 a 2.54,2.54 0 0 1 2.5398967,-2.539897 v -5.17e-4 A 2.54,2.54 0 0 1 2.5404136,40.64 Z"
       style="display:inline;fill:#61aeb0;fill-opacity:1;stroke-width:0.277;stroke-linecap:square;paint-order:markers stroke fill"
       id="path2177" />
    <path
       id="path2179"
       style="display:inline;fill:#61aeb0;fill-opacity:1;stroke-width:0.277;stroke-linecap:square;paint-order:markers stroke fill"
       d="m 7.6202293,40.64 a 2.54,2.54 0 0 1 -2.539897,2.539896 v 5.17e-4 a 2.54,2.54 0 0 1 2.539897,2.539897 h 5.17e-4 a 2.54,2.54 0 0 1 2.5398967,-2.539897 v -5.17e-4 A 2.54,2.54 0 0 1 7.6207463,40.64 Z" />
    <path
       d="m 12.700229,40.64 a 2.54,2.54 0 0 1 -2.539897,2.539896 v 5.17e-4 a 2.54,2.54 0 0 1 2.539897,2.539897 h 5.17e-4 a 2.54,2.54 0 0 1 2.539897,-2.539897 v -5.17e-4 A 2.54,2.54 0 0 1 12.700746,40.64 Z"
       style="display:inline;fill:#61aeb0;fill-opacity:1;stroke-width:0.277;stroke-linecap:square;paint-order:markers stroke fill"
       id="path2181" />
    <path
       id="path2183"
       style="display:inline;fill:#61aeb0;fill-opacity:1;stroke-width:0.277;stroke-linecap:square;paint-order:markers stroke fill"
       d="M 2.5398966,45.72 A 2.54,2.54 0 0 1 -3.6666667e-7,48.259896 v 5.17e-4 A 2.54,2.54 0 0 1 2.5398966,50.80031 h 5.17e-4 a 2.54,2.54 0 0 1 2.5398967,-2.539897 v -5.17e-4 A 2.54,2.54 0 0 1 2.5404136,45.72 Z" />
    <path
       d="m 7.6202293,45.72 a 2.54,2.54 0 0 1 -2.539897,2.539896 v 5.17e-4 a 2.54,2.54 0 0 1 2.539897,2.539897 h 5.17e-4 a 2.54,2.54 0 0 1 2.5398967,-2.539897 v -5.17e-4 A 2.54,2.54 0 0 1 7.6207463,45.72 Z"
       style="display:inline;fill:#61aeb0;fill-opacity:1;stroke-width:0.277;stroke-linecap:square;paint-order:markers stroke fill"
       id="path2185" />
    <path
       id="path2187"
       style="display:inline;fill:#61aeb0;fill-opacity:1;stroke-width:0.277;stroke-linecap:square;paint-order:markers stroke fill"
       d="m 12.700229,45.72 a 2.54,2.54 0 0 1 -2.539897,2.539896 v 5.17e-4 a 2.54,2.54 0 0 1 2.539897,2.539897 h 5.17e-4 a 2.54,2.54 0 0 1 2.539897,-2.539897 v -5.17e-4 A 2.54,2.54 0 0 1 12.700746,45.72 Z" />
    <path
       d="M 2.5398966,50.8 A 2.54,2.54 0 0 1 -3.6666667e-7,53.339896 v 5.17e-4 A 2.54,2.54 0 0 1 2.5398966,55.88031 h 5.17e-4 a 2.54,2.54 0 0 1 2.5398967,-2.539897 v -5.17e-4 A 2.54,2.54 0 0 1 2.5404136,50.8 Z"
       style="display:inline;fill:#61aeb0;fill-opacity:1;stroke-width:0.277;stroke-linecap:square;paint-order:markers stroke fill"
       id="path2189" />
    <path
       id="path2191"
       style="display:inline;fill:#61aeb0;fill-opacity:1;stroke-width:0.277;stroke-linecap:square;paint-order:markers stroke fill"
       d="m 7.6202293,50.8 a 2.54,2.54 0 0 1 -2.539897,2.539896 v 5.17e-4 a 2.54,2.54 0 0 1 2.539897,2.539897 h 5.17e-4 a 2.54,2.54 0 0 1 2.5398967,-2.539897 v -5.17e-4 A 2.54,2.54 0 0 1 7.6207463,50.8 Z" />
    <path
       d="m 12.700229,50.8 a 2.54,2.54 0 0 1 -2.539897,2.539896 v 5.17e-4 a 2.54,2.54 0 0 1 2.539897,2.539897 h 5.17e-4 a 2.54,2.54 0 0 1 2.539897,-2.539897 v -5.17e-4 A 2.54,2.54 0 0 1 12.700746,50.8 Z"
       style="display:inline;fill:#61aeb0;fill-opacity:1;stroke-width:0.277;stroke-linecap:square;paint-order:markers stroke fill"
       id="path2193" />
    <path
       id="path2195"
       style="display:inline;fill:#61aeb0;fill-opacity:1;stroke-width:0.277;stroke-linecap:square;paint-order:markers stroke fill"
       d="M 2.5398966,55.88 A 2.54,2.54 0 0 1 -3.6666667e-7,58.419896 v 5.17e-4 A 2.54,2.54 0 0 1 2.5398966,60.96031 h 5.17e-4 a 2.54,2.54 0 0 1 2.5398967,-2.539897 v -5.17e-4 A 2.54,2.54 0 0 1 2.5404136,55.88 Z" />
    <path
       d="m 7.6202293,55.88 a 2.54,2.54 0 0 1 -2.539897,2.539896 v 5.17e-4 a 2.54,2.54 0 0 1 2.539897,2.539897 h 5.17e-4 a 2.54,2.54 0 0 1 2.5398967,-2.539897 v -5.17e-4 A 2.54,2.54 0 0 1 7.6207463,55.88 Z"
       style="display:inline;fill:#61aeb0;fill-opacity:1;stroke-width:0.277;stroke-linecap:square;paint-order:markers stroke fill"
       id="path2197" />
    <path
       id="path2199"
       style="display:inline;fill:#61aeb0;fill-opacity:1;stroke-width:0.277;stroke-linecap:square;paint-order:markers stroke fill"
       d="m 12.700229,55.88 a 2.54,2.54 0 0 1 -2.539897,2.539896 v 5.17e-4 a 2.54,2.54 0 0 1 2.539897,2.539897 h 5.17e-4 a 2.54,2.54 0 0 1 2.539897,-2.539897 v -5.17e-4 A 2.54,2.54 0 0 1 12.700746,55.88 Z" />
    <path
       id="path2201"
       style="display:inline;fill:#61aeb0;fill-opacity:1;stroke-width:0.277;stroke-linecap:square;paint-order:markers stroke fill"
       d="M 2.5398966,60.96 A 2.54,2.54 0 0 1 -3.6666667e-7,63.499896 v 5.17e-4 A 2.54,2.54 0 0 1 2.5398966,66.04031 h 5.17e-4 a 2.54,2.54 0 0 1 2.5398967,-2.539897 v -5.17e-4 A 2.54,2.54 0 0 1 2.5404136,60.96 Z" />
    <path
       d="m 7.6202293,60.96 a 2.54,2.54 0 0 1 -2.539897,2.539896 v 5.17e-4 a 2.54,2.54 0 0 1 2.539897,2.539897 h 5.17e-4 a 2.54,2.54 0 0 1 2.5398967,-2.539897 v -5.17e-4 A 2.54,2.54 0 0 1 7.6207463,60.96 Z"
       style="display:inline;fill:#61aeb0;fill-opacity:1;stroke-width:0.277;stroke-linecap:square;paint-order:markers stroke fill"
       id="path2203" />
    <path
       id="path2205"
       style="display:inline;fill:#61aeb0;fill-opacity:1;stroke-width:0.277;stroke-linecap:square;paint-order:markers stroke fill"
       d="m 12.700229,60.96 a 2.54,2.54 0 0 1 -2.539897,2.539896 v 5.17e-4 a 2.54,2.54 0 0 1 2.539897,2.539897 h 5.17e-4 a 2.54,2.54 0 0 1 2.539897,-2.539897 v -5.17e-4 A 2.54,2.54 0 0 1 12.700746,60.96 Z" />
    <path
       d="M 2.5398966,66.04 A 2.54,2.54 0 0 1 -3.6666667e-7,68.579896 v 5.17e-4 A 2.54,2.54 0 0 1 2.5398966,71.12031 h 5.17e-4 a 2.54,2.54 0 0 1 2.5398967,-2.539897 v -5.17e-4 A 2.54,2.54 0 0 1 2.5404136,66.04 Z"
       style="display:inline;fill:#61aeb0;fill-opacity:1;stroke-width:0.277;stroke-linecap:square;paint-order:markers stroke fill"
       id="path2207" />
    <path
       id="path2209"
       style="display:inline;fill:#61aeb0;fill-opacity:1;stroke-width:0.277;stroke-linecap:square;paint-order:markers stroke fill"
       d="m 7.6202293,66.04 a 2.54,2.54 0 0 1 -2.539897,2.539896 v 5.17e-4 a 2.54,2.54 0 0 1 2.539897,2.539897 h 5.17e-4 a 2.54,2.54 0 0 1 2.5398967,-2.539897 v -5.17e-4 A 2.54,2.54 0 0 1 7.6207463,66.04 Z" />
    <path
       d="m 12.700229,66.04 a 2.54,2.54 0 0 1 -2.539897,2.539896 v 5.17e-4 a 2.54,2.54 0 0 1 2.539897,2.539897 h 5.17e-4 a 2.54,2.54 0 0 1 2.539897,-2.539897 v -5.17e-4 A 2.54,2.54 0 0 1 12.700746,66.04 Z"
       style="display:inline;fill:#61aeb0;fill-opacity:1;stroke-width:0.277;stroke-linecap:square;paint-order:markers stroke fill"
       id="path2211" />
    <path
       id="path2213"
       style="display:inline;fill:#61aeb0;fill-opacity:1;stroke-width:0.277;stroke-linecap:square;paint-order:markers stroke fill"
       d="M 2.5398966,71.12 A 2.54,2.54 0 0 1 -3.6666667e-7,73.659896 v 5.17e-4 A 2.54,2.54 0 0 1 2.5398966,76.20031 h 5.17e-4 a 2.54,2.54 0 0 1 2.5398967,-2.539897 v -5.17e-4 A 2.54,2.54 0 0 1 2.5404136,71.12 Z" />
    <path
       d="m 7.6202293,71.12 a 2.54,2.54 0 0 1 -2.539897,2.539896 v 5.17e-4 a 2.54,2.54 0 0 1 2.539897,2.539897 h 5.17e-4 a 2.54,2.54 0 0 1 2.5398967,-2.539897 v -5.17e-4 A 2.54,2.54 0 0 1 7.6207463,71.12 Z"
       style="display:inline;fill:#61aeb0;fill-opacity:1;stroke-width:0.277;stroke-linecap:square;paint-order:markers stroke fill"
       id="path2215" />
    <path
       id="path2217"
       style="display:inline;fill:#61aeb0;fill-opacity:1;stroke-width:0.277;stroke-linecap:square;paint-order:markers stroke fill"
       d="m 12.700229,71.12 a 2.54,2.54 0 0 1 -2.539897,2.539896 v 5.17e-4 a 2.54,2.54 0 0 1 2.539897,2.539897 h 5.17e-4 a 2.54,2.54 0 0 1 2.539897,-2.539897 v -5.17e-4 A 2.54,2.54 0 0 1 12.700746,71.12 Z" />
    <path
       d="M 2.5398966,76.2 A 2.54,2.54 0 0 1 -3.6666667e-7,78.739896 v 5.17e-4 A 2.54,2.54 0 0 1 2.5398966,81.28031 h 5.17e-4 a 2.54,2.54 0 0 1 2.5398967,-2.539897 v -5.17e-4 A 2.54,2.54 0 0 1 2.5404136,76.2 Z"
       style="display:inline;fill:#61aeb0;fill-opacity:1;stroke-width:0.277;stroke-linecap:square;paint-order:markers stroke fill"
       id="path2219" />
    <path
       id="path2221"
       style="display:inline;fill:#61aeb0;fill-opacity:1;stroke-width:0.277;stroke-linecap:square;paint-order:markers stroke fill"
       d="m 7.6202293,76.2 a 2.54,2.54 0 0 1 -2.539897,2.539896 v 5.17e-4 a 2.54,2.54 0 0 1 2.539897,2.539897 h 5.17e-4 a 2.54,2.54 0 0 1 2.5398967,-2.539897 v -5.17e-4 A 2.54,2.54 0 0 1 7.6207463,76.2 Z" />
    <path
       d="m 12.700229,76.2 a 2.54,2.54 0 0 1 -2.539897,2.539896 v 5.17e-4 a 2.54,2.54 0 0 1 2.539897,2.539897 h 5.17e-4 a 2.54,2.54 0 0 1 2.539897,-2.539897 v -5.17e-4 A 2.54,2.54 0 0 1 12.700746,76.2 Z"
       style="display:inline;fill:#61aeb0;fill-opacity:1;stroke-width:0.277;stroke-linecap:square;paint-order:markers stroke fill"
       id="path2223" />
    <path
       d="M 2.5398966,81.28 A 2.54,2.54 0 0 1 -3.6666667e-7,83.819896 v 5.17e-4 A 2.54,2.54 0 0 1 2.5398966,86.36031 h 5.17e-4 a 2.54,2.54 0 0 1 2.5398967,-2.539897 v -5.17e-4 A 2.54,2.54 0 0 1 2.5404136,81.28 Z"
       style="display:inline;fill:#61aeb0;fill-opacity:1;stroke-width:0.277;stroke-linecap:square;paint-order:markers stroke fill"
       id="path2225" />
    <path
       id="path2227"
       style="display:inline;fill:#61aeb0;fill-opacity:1;stroke-width:0.277;stroke-linecap:square;paint-order:markers stroke fill"
       d="m 7.6202293,81.28 a 2.54,2.54 0 0 1 -2.539897,2.539896 v 5.17e-4 a 2.54,2.54 0 0 1 2.539897,2.539897 h 5.17e-4 a 2.54,2.54 0 0 1 2.5398967,-2.539897 v -5.17e-4 A 2.54,2.54 0 0 1 7.6207463,81.28 Z" />
    <path
       d="m 12.700229,81.28 a 2.54,2.54 0 0 1 -2.539897,2.539896 v 5.17e-4 a 2.54,2.54 0 0 1 2.539897,2.539897 h 5.17e-4 a 2.54,2.54 0 0 1 2.539897,-2.539897 v -5.17e-4 A 2.54,2.54 0 0 1 12.700746,81.28 Z"
       style="display:inline;fill:#61aeb0;fill-opacity:1;stroke-width:0.277;stroke-linecap:square;paint-order:markers stroke fill"
       id="path2229" />
    <path
       id="path2231"
       style="display:inline;fill:#61aeb0;fill-opacity:1;stroke-width:0.277;stroke-linecap:square;paint-order:markers stroke fill"
       d="M 2.5398966,86.36 A 2.54,2.54 0 0 1 -3.6666667e-7,88.899896 v 5.17e-4 A 2.54,2.54 0 0 1 2.5398966,91.44031 h 5.17e-4 a 2.54,2.54 0 0 1 2.5398967,-2.539897 v -5.17e-4 A 2.54,2.54 0 0 1 2.5404136,86.36 Z" />
    <path
       d="m 7.6202293,86.36 a 2.54,2.54 0 0 1 -2.539897,2.539896 v 5.17e-4 a 2.54,2.54 0 0 1 2.539897,2.539897 h 5.17e-4 a 2.54,2.54 0 0 1 2.5398967,-2.539897 v -5.17e-4 A 2.54,2.54 0 0 1 7.6207463,86.36 Z"
       style="display:inline;fill:#61aeb0;fill-opacity:1;stroke-width:0.277;stroke-linecap:square;paint-order:markers stroke fill"
       id="path2233" />
    <path
       id="path2235"
       style="display:inline;fill:#61aeb0;fill-opacity:1;stroke-width:0.277;stroke-linecap:square;paint-order:markers stroke fill"
       d="m 12.700229,86.36 a 2.54,2.54 0 0 1 -2.539897,2.539896 v 5.17e-4 a 2.54,2.54 0 0 1 2.539897,2.539897 h 5.17e-4 a 2.54,2.54 0 0 1 2.539897,-2.539897 v -5.17e-4 A 2.54,2.54 0 0 1 12.700746,86.36 Z" />
    <path
       d="M 2.5398966,91.44 A 2.54,2.54 0 0 1 -3.6666667e-7,93.979896 v 5.17e-4 A 2.54,2.54 0 0 1 2.5398966,96.52031 h 5.17e-4 a 2.54,2.54 0 0 1 2.5398967,-2.539897 v -5.17e-4 A 2.54,2.54 0 0 1 2.5404136,91.44 Z"
       style="display:inline;fill:#61aeb0;fill-opacity:1;stroke-width:0.277;stroke-linecap:square;paint-order:markers stroke fill"
       id="path2237" />
    <path
       id="path2239"
       style="display:inline;fill:#61aeb0;fill-opacity:1;stroke-width:0.277;stroke-linecap:square;paint-order:markers stroke fill"
       d="m 7.6202293,91.44 a 2.54,2.54 0 0 1 -2.539897,2.539896 v 5.17e-4 a 2.54,2.54 0 0 1 2.539897,2.539897 h 5.17e-4 a 2.54,2.54 0 0 1 2.5398967,-2.539897 v -5.17e-4 A 2.54,2.54 0 0 1 7.6207463,91.44 Z" />
    <path
       d="m 12.700229,91.44 a 2.54,2.54 0 0 1 -2.539897,2.539896 v 5.17e-4 a 2.54,2.54 0 0 1 2.539897,2.539897 h 5.17e-4 a 2.54,2.54 0 0 1 2.539897,-2.539897 v -5.17e-4 A 2.54,2.54 0 0 1 12.700746,91.44 Z"
       style="display:inline;fill:#61aeb0;fill-opacity:1;stroke-width:0.277;stroke-linecap:square;paint-order:markers stroke fill"
       id="path2241" />
    <path
       id="path2243"
       style="display:inline;fill:#61aeb0;fill-opacity:1;stroke-width:0.277;stroke-linecap:square;paint-order:markers stroke fill"
       d="M 2.5398966,96.52 A 2.54,2.54 0 0 1 -3.6666667e-7,99.059896 v 5.17e-4 A 2.54,2.54 0 0 1 2.5398966,101.60031 h 5.17e-4 a 2.54,2.54 0 0 1 2.5398967,-2.539897 v -5.17e-4 A 2.54,2.54 0 0 1 2.5404136,96.52 Z" />
    <path
       d="m 7.6202293,96.52 a 2.54,2.54 0 0 1 -2.539897,2.539896 v 5.17e-4 a 2.54,2.54 0 0 1 2.539897,2.539897 h 5.17e-4 a 2.54,2.54 0 0 1 2.5398967,-2.539897 v -5.17e-4 A 2.54,2.54 0 0 1 7.6207463,96.52 Z"
       style="display:inline;fill:#61aeb0;fill-opacity:1;stroke-width:0.277;stroke-linecap:square;paint-order:markers stroke fill"
       id="path2245" />
    <path
       id="path2247"
       style="display:inline;fill:#61aeb0;fill-opacity:1;stroke-width:0.277;stroke-linecap:square;paint-order:markers stroke fill"
       d="m 12.700229,96.52 a 2.54,2.54 0 0 1 -2.539897,2.539896 v 5.17e-4 a 2.54,2.54 0 0 1 2.539897,2.539897 h 5.17e-4 a 2.54,2.54 0 0 1 2.539897,-2.539897 v -5.17e-4 A 2.54,2.54 0 0 1 12.700746,96.52 Z" />
    <path
       id="path2249"
       style="display:inline;fill:#61aeb0;fill-opacity:1;stroke-width:0.277;stroke-linecap:square;paint-order:markers stroke fill"
       d="M 2.5398966,101.6 A 2.54,2.54 0 0 1 -3.6666667e-7,104.1399 v 5.1e-4 A 2.54,2.54 0 0 1 2.5398966,106.68031 h 5.17e-4 a 2.54,2.54 0 0 1 2.5398967,-2.5399 v -5.1e-4 A 2.54,2.54 0 0 1 2.5404136,101.6 Z" />
    <path
       d="m 7.6202293,101.6 a 2.54,2.54 0 0 1 -2.539897,2.5399 v 5.1e-4 a 2.54,2.54 0 0 1 2.539897,2.5399 h 5.17e-4 a 2.54,2.54 0 0 1 2.5398967,-2.5399 v -5.1e-4 A 2.54,2.54 0 0 1 7.6207463,101.6 Z"
       style="display:inline;fill:#61aeb0;fill-opacity:1;stroke-width:0.277;stroke-linecap:square;paint-order:markers stroke fill"
       id="path2251" />
    <path
       id="path2253"
       style="display:inline;fill:#61aeb0;fill-opacity:1;stroke-width:0.277;stroke-linecap:square;paint-order:markers stroke fill"
       d="m 12.700229,101.6 a 2.54,2.54 0 0 1 -2.539897,2.5399 v 5.1e-4 a 2.54,2.54 0 0 1 2.539897,2.5399 h 5.17e-4 a 2.54,2.54 0 0 1 2.539897,-2.5399 v -5.1e-4 A 2.54,2.54 0 0 1 12.700746,101.6 Z" />
    <path
       d="M 2.5398966,106.68 A 2.54,2.54 0 0 1 -3.6666667e-7,109.2199 v 5.1e-4 A 2.54,2.54 0 0 1 2.5398966,111.76031 h 5.17e-4 a 2.54,2.54 0 0 1 2.5398967,-2.5399 v -5.1e-4 A 2.54,2.54 0 0 1 2.5404136,106.68 Z"
       style="display:inline;fill:#61aeb0;fill-opacity:1;stroke-width:0.277;stroke-linecap:square;paint-order:markers stroke fill"
       id="path2255" />
    <path
       id="path2257"
       style="display:inline;fill:#61aeb0;fill-opacity:1;stroke-width:0.277;stroke-linecap:square;paint-order:markers stroke fill"
       d="m 7.6202293,106.68 a 2.54,2.54 0 0 1 -2.539897,2.5399 v 5.1e-4 a 2.54,2.54 0 0 1 2.539897,2.5399 h 5.17e-4 a 2.54,2.54 0 0 1 2.5398967,-2.5399 v -5.1e-4 A 2.54,2.54 0 0 1 7.6207463,106.68 Z" />
    <path
       d="m 12.700229,106.68 a 2.54,2.54 0 0 1 -2.539897,2.5399 v 5.1e-4 a 2.54,2.54 0 0 1 2.539897,2.5399 h 5.17e-4 a 2.54,2.54 0 0 1 2.539897,-2.5399 v -5.1e-4 A 2.54,2.54 0 0 1 12.700746,106.68 Z"
       style="display:inline;fill:#61aeb0;fill-opacity:1;stroke-width:0.277;stroke-linecap:square;paint-order:markers stroke fill"
       id="path2259" />
    <path
       id="path2261"
       style="display:inline;fill:#61aeb0;fill-opacity:1;stroke-width:0.277;stroke-linecap:square;paint-order:markers stroke fill"
       d="M 2.5398966,111.76 A 2.54,2.54 0 0 1 -3.6666667e-7,114.2999 v 5.1e-4 A 2.54,2.54 0 0 1 2.5398966,116.84031 h 5.17e-4 a 2.54,2.54 0 0 1 2.5398967,-2.5399 v -5.1e-4 A 2.54,2.54 0 0 1 2.5404136,111.76 Z" />
    <path
       d="m 7.6202293,111.76 a 2.54,2.54 0 0 1 -2.539897,2.5399 v 5.1e-4 a 2.54,2.54 0 0 1 2.539897,2.5399 h 5.17e-4 a 2.54,2.54 0 0 1 2.5398967,-2.5399 v -5.1e-4 A 2.54,2.54 0 0 1 7.6207463,111.76 Z"
       style="display:inline;fill:#61aeb0;fill-opacity:1;stroke-width:0.277;stroke-linecap:square;paint-order:markers stroke fill"
       id="path2263" />
    <path
       id="path2265"
       style="display:inline;fill:#61aeb0;fill-opacity:1;stroke-width:0.277;stroke-linecap:square;paint-order:markers stroke fill"
       d="m 12.700229,111.76 a 2.54,2.54 0 0 1 -2.539897,2.5399 v 5.1e-4 a 2.54,2.54 0 0 1 2.539897,2.5399 h 5.17e-4 a 2.54,2.54 0 0 1 2.539897,-2.5399 v -5.1e-4 A 2.54,2.54 0 0 1 12.700746,111.76 Z" />
    <path
       d="M 2.5398966,116.84 A 2.54,2.54 0 0 1 -3.6666667e-7,119.3799 v 5.1e-4 A 2.54,2.54 0 0 1 2.5398966,121.92031 h 5.17e-4 a 2.54,2.54 0 0 1 2.5398967,-2.5399 v -5.1e-4 A 2.54,2.54 0 0 1 2.5404136,116.84 Z"
       style="display:inline;fill:#61aeb0;fill-opacity:1;stroke-width:0.277;stroke-linecap:square;paint-order:markers stroke fill"
       id="path2267" />
    <path
       id="path2269"
       style="display:inline;fill:#61aeb0;fill-opacity:1;stroke-width:0.277;stroke-linecap:square;paint-order:markers stroke fill"
       d="m 7.6202293,116.84 a 2.54,2.54 0 0 1 -2.539897,2.5399 v 5.1e-4 a 2.54,2.54 0 0 1 2.539897,2.5399 h 5.17e-4 a 2.54,2.54 0 0 1 2.5398967,-2.5399 v -5.1e-4 A 2.54,2.54 0 0 1 7.6207463,116.84 Z" />
    <path
       d="m 12.700229,116.84 a 2.54,2.54 0 0 1 -2.539897,2.5399 v 5.1e-4 a 2.54,2.54 0 0 1 2.539897,2.5399 h 5.17e-4 a 2.54,2.54 0 0 1 2.539897,-2.5399 v -5.1e-4 A 2.54,2.54 0 0 1 12.700746,116.84 Z"
       style="display:inline;fill:#61aeb0;fill-opacity:1;stroke-width:0.277;stroke-linecap:square;paint-order:markers stroke fill"
       id="path2271" />
    <path
       id="path2273"
       style="display:inline;fill:#61aeb0;fill-opacity:1;stroke-width:0.277;stroke-linecap:square;paint-order:markers stroke fill"
       d="M 2.5398966,121.92 A 2.54,2.54 0 0 1 -3.6666667e-7,124.4599 v 5.1e-4 A 2.54,2.54 0 0 1 2.5398966,127.00031 h 5.17e-4 a 2.54,2.54 0 0 1 2.5398967,-2.5399 v -5.1e-4 A 2.54,2.54 0 0 1 2.5404136,121.92 Z" />
    <path
       d="m 7.6202293,121.92 a 2.54,2.54 0 0 1 -2.539897,2.5399 v 5.1e-4 a 2.54,2.54 0 0 1 2.539897,2.5399 h 5.17e-4 a 2.54,2.54 0 0 1 2.5398967,-2.5399 v -5.1e-4 A 2.54,2.54 0 0 1 7.6207463,121.92 Z"
       style="display:inline;fill:#61aeb0;fill-opacity:1;stroke-width:0.277;stroke-linecap:square;paint-order:markers stroke fill"
       id="path2275" />
    <path
       id="path2277"
       style="display:inline;fill:#61aeb0;fill-opacity:1;stroke-width:0.277;stroke-linecap:square;paint-order:markers stroke fill"
       d="m 12.700229,121.92 a 2.54,2.54 0 0 1 -2.539897,2.5399 v 5.1e-4 a 2.54,2.54 0 0 1 2.539897,2.5399 h 5.17e-4 a 2.54,2.54 0 0 1 2.539897,-2.5399 v -5.1e-4 A 2.54,2.54 0 0 1 12.700746,121.92 Z" />
    <path
       d="M 2.5398966,127 A 2.54,2.54 0 0 1 -3.6666667e-7,129.5399 v 5.1e-4 A 2.54,2.54 0 0 1 2.5398966,132.08031 h 5.17e-4 a 2.54,2.54 0 0 1 2.5398967,-2.5399 v -5.1e-4 A 2.54,2.54 0 0 1 2.5404136,127 Z"
       style="display:inline;fill:#61aeb0;fill-opacity:1;stroke-width:0.277;stroke-linecap:square;paint-order:markers stroke fill"
       id="path2279" />
    <path
       id="path2281"
       style="display:inline;fill:#61aeb0;fill-opacity:1;stroke-width:0.277;stroke-linecap:square;paint-order:markers stroke fill"
       d="m 7.6202293,127 a 2.54,2.54 0 0 1 -2.539897,2.5399 v 5.1e-4 a 2.54,2.54 0 0 1 2.539897,2.5399 h 5.17e-4 a 2.54,2.54 0 0 1 2.5398967,-2.5399 v -5.1e-4 A 2.54,2.54 0 0 1 7.6207463,127 Z" />
    <path
       d="m 12.700229,127 a 2.54,2.54 0 0 1 -2.539897,2.5399 v 5.1e-4 a 2.54,2.54 0 0 1 2.539897,2.5399 h 5.17e-4 a 2.54,2.54 0 0 1 2.539897,-2.5399 v -5.1e-4 A 2.54,2.54 0 0 1 12.700746,127 Z"
       style="display:inline;fill:#61aeb0;fill-opacity:1;stroke-width:0.277;stroke-linecap:square;paint-order:markers stroke fill"
       id="path2283" />
  </g>
  <g
     inkscape:groupmode="layer"
     id="layer2"
     inkscape:label="Frick"
     style="display:inline">
    <path
       inkscape:original-d="m 26.458334,121.92 c 5.080091,0 10.160182,0 15.240272,0 0,5.07992 0,10.15984 0,15.23976 -5.08009,0 -10.160181,0 -15.240272,0 0,-5.07992 0,-10.15984 0,-15.23976 z m 0,-15.24 c 5.080091,0 10.160182,0 15.240272,0 0,5.07992 0,10.15985 0,15.23977 -5.08009,0 -10.160181,0 -15.240272,0 0,-5.07992 0,-10.15985 0,-15.23977 z m 0,-15.239998 c 5.080091,0 10.160182,0 15.240272,0 0,5.079923 0,10.159848 0,15.239768 -5.08009,0 -10.160181,0 -15.240272,0 0,-5.07992 0,-10.159845 0,-15.239768 z m 0,-15.240002 c 5.080091,0 10.160182,0 15.240272,0 0,5.079922 0,10.159843 0,15.239765 -5.08009,0 -10.160181,0 -15.240272,0 0,-5.079922 0,-10.159843 0,-15.239765 z m 0,-15.24 c 5.080091,0 10.160182,0 15.240272,0 0,5.079922 0,10.159843 0,15.239765 -5.08009,0 -10.160181,0 -15.240272,0 0,-5.079922 0,-10.159843 0,-15.239765 z m 0,-15.24 c 5.080091,0 10.160182,0 15.240272,0 0,5.079922 0,10.159843 0,15.239765 -5.08009,0 -10.160181,0 -15.240272,0 0,-5.079922 0,-10.159843 0,-15.239765 z m 0,-15.24 c 5.080091,0 10.160182,0 15.240272,0 0,5.079922 0,10.159843 0,15.239765 -5.08009,0 -10.160181,0 -15.240272,0 0,-5.079922 0,-10.159843 0,-15.239765 z m 0,-15.24 c 5.080091,0 10.160182,0 15.240272,0 0,5.079922 0,10.159843 0,15.239765 -5.08009,0 -10.160181,0 -15.240272,0 0,-5.079922 0,-10.159843 0,-15.239765 z m 0,-15.24 c 5.080091,0 10.160182,0 15.240272,0 0,5.0799217 0,10.159843 0,15.239765 -5.08009,0 -10.160181,0 -15.240272,0 0,-5.079922 0,-10.1598433 0,-15.239765 z"
       inkscape:path-effect="#path-effect1094"
       mask="url(#mask-powermask-path-effect1094)"
       id="path1886"
       style="display:inline;fill:none;stroke:none;stroke-width:0.264583"
       d="m 26.458334,121.92 c 5.080091,0 10.160182,0 15.240272,0 0,5.07992 0,10.15984 0,15.23976 -5.08009,0 -10.160181,0 -15.240272,0 0,-5.07992 0,-10.15984 0,-15.23976 z m 0,-15.24 c 5.080091,0 10.160182,0 15.240272,0 0,5.07992 0,10.15985 0,15.23977 -5.08009,0 -10.160181,0 -15.240272,0 0,-5.07992 0,-10.15985 0,-15.23977 z m 0,-15.239998 c 5.080091,0 10.160182,0 15.240272,0 0,5.079923 0,10.159848 0,15.239768 -5.08009,0 -10.160181,0 -15.240272,0 0,-5.07992 0,-10.159845 0,-15.239768 z m 0,-15.240002 c 5.080091,0 10.160182,0 15.240272,0 0,5.079922 0,10.159843 0,15.239765 -5.08009,0 -10.160181,0 -15.240272,0 0,-5.079922 0,-10.159843 0,-15.239765 z m 0,-15.24 c 5.080091,0 10.160182,0 15.240272,0 0,5.079922 0,10.159843 0,15.239765 -5.08009,0 -10.160181,0 -15.240272,0 0,-5.079922 0,-10.159843 0,-15.239765 z m 0,-15.24 c 5.080091,0 10.160182,0 15.240272,0 0,5.079922 0,10.159843 0,15.239765 -5.08009,0 -10.160181,0 -15.240272,0 0,-5.079922 0,-10.159843 0,-15.239765 z m 0,-15.24 c 5.080091,0 10.160182,0 15.240272,0 0,5.079922 0,10.159843 0,15.239765 -5.08009,0 -10.160181,0 -15.240272,0 0,-5.079922 0,-10.159843 0,-15.239765 z m 0,-15.24 c 5.080091,0 10.160182,0 15.240272,0 0,5.079922 0,10.159843 0,15.239765 -5.08009,0 -10.160181,0 -15.240272,0 0,-5.079922 0,-10.159843 0,-15.239765 z m 0,-15.24 c 5.080091,0 10.160182,0 15.240272,0 0,5.0799217 0,10.159843 0,15.239765 -5.08009,0 -10.160181,0 -15.240272,0 0,-5.079922 0,-10.1598433 0,-15.239765 z" />
  </g>
  <g
     inkscape:groupmode="layer"
     id="layer9"
     inkscape:label="BG Labels"
     style="display:inline">
    <rect
       y="5.0000153"
       x="0"
       height="10"
       width="15.24"
       id="rect7671"
       style="display:inline;opacity:0.98;fill:url(#linearGradient7673);fill-opacity:1;stroke:none;stroke-width:0.602358;stroke-miterlimit:4;stroke-dasharray:none;stroke-opacity:1;paint-order:stroke fill markers;enable-background:new" />
    <rect
       style="display:inline;opacity:0.98;fill:url(#Pink);fill-opacity:1;stroke:none;stroke-width:0.34641;stroke-miterlimit:4;stroke-dasharray:none;stroke-opacity:1;paint-order:stroke fill markers;enable-background:new"
       id="rect7491"
       width="15.24"
       height="8"
       x="1.5894572e-07"
       y="6.0000153" />
    <g
       style="font-size:4.58611px;line-height:1.25;font-family:sans-serif;text-align:center;letter-spacing:-0.264583px;text-anchor:middle;fill:#0e6977;fill-opacity:1;stroke-width:0.264583"
       id="text1922"
       aria-label="Rotatoes">
      <path
         id="path2087"
         style="letter-spacing:-0.381px;fill:#0e6977;fill-opacity:1"
         d="M 0.49334859,11.573067 V 8.1334842 L 1.308458,8.1066124 q 0.2821533,0 0.5150417,0.055983 0.2328884,0.053743 0.3985974,0.172427 0.1679484,0.1164442 0.2575209,0.2978285 0.091812,0.1813842 0.091812,0.4321871 0,0.1679484 -0.035829,0.3023071 -0.035829,0.1343587 -0.1007691,0.2396063 -0.06494,0.1052476 -0.1567518,0.1858629 -0.089572,0.080615 -0.1992987,0.1433159 0,0.00224 0.026872,0.067179 0.026872,0.06494 0.069419,0.170188 0.044786,0.105248 0.09853,0.239606 0.055983,0.134359 0.1142049,0.273196 0.136598,0.32694 0.3112643,0.741213 L 2.0384736,11.606656 1.4249022,10.039138 H 1.1629028 v 1.480185 z M 1.1629028,9.5420112 h 0.2284097 q 0.1007691,0 0.1925808,-0.015675 0.091812,-0.017914 0.1612305,-0.067179 0.071658,-0.051504 0.1119655,-0.1433159 0.042547,-0.091812 0.042547,-0.244085 0,-0.1209228 -0.03359,-0.201538 -0.03135,-0.082854 -0.089573,-0.1321194 -0.055983,-0.051504 -0.1343587,-0.071658 -0.076137,-0.022393 -0.165709,-0.022393 H 1.1629028 Z" />
      <path
         id="path2089"
         style="letter-spacing:-0.333375px;fill:#0e6977;fill-opacity:1"
         d="m 3.507145,11.606656 q -0.2418457,0 -0.4232299,-0.09853 Q 2.9025309,11.407358 2.781608,11.230452 2.6606852,11.051307 2.6002238,10.802744 2.5397624,10.55418 2.5397624,10.254112 q 0,-0.2888709 0.060461,-0.5307166 0.060461,-0.244085 0.1813842,-0.4187513 0.1209229,-0.1769056 0.3023071,-0.273196 0.1813842,-0.09853 0.4232299,-0.09853 0.2351277,0 0.4165119,0.09853 0.1813843,0.09629 0.3023071,0.273196 0.1231621,0.1746663 0.1858629,0.4187513 0.062701,0.2418457 0.062701,0.5307166 0,0.300068 -0.062701,0.548632 -0.062701,0.248563 -0.1858629,0.427708 -0.1209228,0.176906 -0.3023071,0.277675 -0.1813842,0.09853 -0.4165119,0.09853 z m -0.00448,-0.479212 q 0.078376,0 0.1343587,-0.04255 0.055983,-0.04255 0.091812,-0.111966 0.035829,-0.07166 0.055983,-0.16123 0.020154,-0.09181 0.029111,-0.188102 0.00896,-0.09853 0.011197,-0.192581 0.00224,-0.09629 0.00224,-0.176906 0,-0.07838 -0.00224,-0.172427 -0.00224,-0.094051 -0.011197,-0.1903412 -0.00896,-0.09629 -0.029111,-0.1858629 -0.020154,-0.091812 -0.055983,-0.1612304 -0.035829,-0.071658 -0.091812,-0.1142049 -0.053743,-0.042547 -0.1321194,-0.042547 -0.080615,0 -0.136598,0.042547 -0.053743,0.042547 -0.089573,0.1142049 -0.035829,0.069419 -0.055983,0.1612304 -0.017915,0.089573 -0.026872,0.1858629 -0.00896,0.09629 -0.011197,0.1903412 0,0.09405 0,0.172427 0,0.08062 0,0.176906 0.00224,0.09405 0.011197,0.192581 0.00896,0.09629 0.026872,0.188102 0.020154,0.08957 0.053743,0.16123 0.035829,0.06942 0.089573,0.111966 0.055983,0.04255 0.1365987,0.04255 z" />
      <path
         id="path2091"
         style="font-style:normal;font-variant:normal;font-weight:normal;font-stretch:normal;font-size:4.58611px;font-family:'Francois One';-inkscape-font-specification:'Francois One';fill:#0e6977;fill-opacity:1;stroke-width:0.264583"
         d="M 4.7390488,8.9665081 4.8039889,8.4066802 5.3638168,8.326065 V 8.9665081 H 5.8922943 L 5.8654225,9.4501994 H 5.3660561 v 1.4219626 q 0,0.07614 0.03135,0.125402 0.03135,0.04702 0.078376,0.0739 0.049265,0.02687 0.107487,0.03583 0.058222,0.009 0.1119656,0.009 0.069419,0 0.1142049,-0.0067 0.024632,-0.0045 0.047026,-0.009 v 0.443384 q -0.049265,0.01791 -0.1209228,0.03135 -0.060461,0.0112 -0.1522732,0.02015 -0.091812,0.0112 -0.2194525,0.0112 -0.1052477,0 -0.2194526,-0.03135 Q 5.0323989,11.546218 4.9383479,11.476798 4.8442969,11.405138 4.781596,11.288696 4.721135,11.172252 4.721135,10.999825 V 9.4501994 H 4.3606052 l 0.026872,-0.4836913 z" />
      <path
         id="path2093"
         style="letter-spacing:-0.312208px;fill:#0e6977;fill-opacity:1"
         d="m 5.7978991,10.81394 q 0,-0.183623 0.051504,-0.320221 0.053744,-0.138838 0.1410766,-0.237367 0.089572,-0.100769 0.2060167,-0.167949 0.1164442,-0.06718 0.2418457,-0.1074868 0.1276407,-0.042547 0.2552815,-0.062701 0.1276407,-0.022393 0.2396063,-0.029111 0,-0.089573 -0.00224,-0.1746663 Q 6.9287515,9.627105 6.910837,9.5599257 6.8929225,9.490507 6.8548542,9.4479601 6.8167859,9.4054132 6.7473673,9.4054132 q -0.058222,0 -0.1007691,0.026872 -0.040308,0.024632 -0.069419,0.067179 -0.026872,0.040308 -0.042547,0.094051 -0.013436,0.051504 -0.020154,0.1030084 L 5.8874716,9.5867974 Q 5.912104,9.3942166 5.9971979,9.2688152 6.0822917,9.1411744 6.2009752,9.0672771 6.3218981,8.9933798 6.4629747,8.9642688 q 0.1433159,-0.03135 0.2843926,-0.03135 0.2194525,0 0.3762043,0.062701 0.1567518,0.060461 0.2575208,0.1679484 0.1007691,0.107487 0.1477946,0.2530422 0.049265,0.143316 0.049265,0.309025 v 1.3346296 q 0,0.07614 0.00896,0.156752 0.011197,0.08062 0.024632,0.147795 0.015675,0.07838 0.035829,0.154512 l -0.6270072,0.05374 -0.071658,-0.315743 q -0.038068,0.06942 -0.100769,0.132119 -0.060461,0.0627 -0.136598,0.111966 -0.076137,0.04702 -0.1612305,0.07614 -0.085094,0.02911 -0.1679483,0.02911 -0.1321194,0 -0.2396064,-0.06046 -0.1074869,-0.05822 -0.1858628,-0.16347 -0.076137,-0.107487 -0.1186835,-0.250803 -0.040308,-0.145555 -0.040308,-0.317982 z m 0.6314859,-0.009 q 0,0.152273 0.060461,0.246324 0.062701,0.09405 0.1948201,0.09405 0.044786,0 0.087333,-0.02239 0.044786,-0.02463 0.080615,-0.05374 0.040308,-0.03359 0.080615,-0.07614 v -0.718819 q -0.1074869,0 -0.1992987,0.02687 -0.091812,0.02687 -0.1612304,0.08957 -0.067179,0.0627 -0.1052477,0.165709 -0.038068,0.100769 -0.038068,0.248564 z" />
      <path
         id="path2095"
         style="font-style:normal;font-variant:normal;font-weight:normal;font-stretch:normal;font-size:4.58611px;font-family:'Francois One';-inkscape-font-specification:'Francois One';fill:#0e6977;fill-opacity:1;stroke-width:0.264583"
         d="M 7.9690875,8.9665081 8.0340275,8.4066802 8.5938554,8.326065 V 8.9665081 H 9.1223329 L 9.0954612,9.4501994 H 8.5960947 v 1.4219626 q 0,0.07614 0.03135,0.125402 0.03135,0.04702 0.078376,0.0739 0.049265,0.02687 0.1074869,0.03583 0.058222,0.009 0.1119656,0.009 0.069419,0 0.1142049,-0.0067 0.024632,-0.0045 0.047026,-0.009 v 0.443384 q -0.049265,0.01791 -0.1209228,0.03135 -0.060461,0.0112 -0.1522732,0.02015 -0.091812,0.0112 -0.2194525,0.0112 -0.1052477,0 -0.2194525,-0.03135 Q 8.2624373,11.546195 8.1683862,11.476776 8.0743351,11.405118 8.0116344,11.288674 7.951173,11.17223 7.951173,10.999803 V 9.4501994 H 7.5906438 l 0.026872,-0.4836913 z" />
      <path
         id="path2097"
         style="font-style:normal;font-variant:normal;font-weight:normal;font-stretch:normal;font-size:4.58611px;font-family:'Francois One';-inkscape-font-specification:'Francois One';fill:#0e6977;fill-opacity:1;stroke-width:0.264583"
         d="m 10.026671,11.606656 q -0.2418459,0 -0.4232301,-0.09853 Q 9.4220566,11.407358 9.3011338,11.230452 9.180211,11.051307 9.1197496,10.802744 9.0592882,10.55418 9.0592882,10.254112 q 0,-0.2888709 0.060461,-0.5307166 0.060461,-0.244085 0.1813842,-0.4187513 0.1209228,-0.1769056 0.3023071,-0.273196 0.1813842,-0.09853 0.4232305,-0.09853 0.235127,0 0.416512,0.09853 0.181384,0.09629 0.302307,0.273196 0.123162,0.1746663 0.185863,0.4187513 0.0627,0.2418457 0.0627,0.5307166 0,0.300068 -0.0627,0.548632 -0.0627,0.248563 -0.185863,0.427708 -0.120923,0.176906 -0.302307,0.277675 -0.181385,0.09853 -0.416512,0.09853 z m -0.0045,-0.479212 q 0.07838,0 0.134359,-0.04255 0.05598,-0.04255 0.09181,-0.111966 0.03583,-0.07166 0.05598,-0.16123 0.02015,-0.09181 0.02911,-0.188102 0.009,-0.09853 0.0112,-0.192581 0.0022,-0.09629 0.0022,-0.176906 0,-0.07838 -0.0022,-0.172427 -0.0022,-0.094051 -0.0112,-0.1903412 -0.009,-0.09629 -0.02911,-0.1858629 -0.02015,-0.091812 -0.05598,-0.1612304 -0.03583,-0.071658 -0.09181,-0.1142049 -0.05374,-0.042547 -0.13212,-0.042547 -0.080615,0 -0.1365976,0.042547 -0.053743,0.042547 -0.089572,0.1142049 -0.035829,0.069419 -0.055983,0.1612304 -0.017914,0.089573 -0.026872,0.1858629 -0.00896,0.09629 -0.011197,0.1903412 0,0.09405 0,0.172427 0,0.08062 0,0.176906 0.00224,0.09405 0.011197,0.192581 0.00896,0.09629 0.026872,0.188102 0.020154,0.08957 0.053744,0.16123 0.035829,0.06942 0.089572,0.111966 0.055983,0.04255 0.1365976,0.04255 z" />
      <path
         id="path2099"
         style="letter-spacing:-0.248708px;fill:#0e6977;fill-opacity:1"
         d="m 11.685656,10.345924 q 0,0.120923 0.01567,0.25976 0.01567,0.138837 0.0515,0.255282 0.03807,0.116444 0.09853,0.19482 0.06046,0.07614 0.147795,0.07614 0.07614,0 0.138837,-0.06046 0.0627,-0.06046 0.109726,-0.136598 0.04703,-0.07614 0.0739,-0.143316 0.02911,-0.06718 0.03583,-0.08061 l 0.488169,0.185863 q -0.04479,0.156751 -0.118683,0.286632 -0.0739,0.12988 -0.179145,0.223931 -0.105248,0.09405 -0.244085,0.145555 -0.138837,0.05374 -0.315743,0.05374 -0.235128,0 -0.414273,-0.09853 -0.176905,-0.09853 -0.295589,-0.275436 -0.116444,-0.176905 -0.176905,-0.423229 -0.05822,-0.246325 -0.05822,-0.539675 0,-0.2955887 0.06046,-0.541913 0.06046,-0.2463242 0.181384,-0.4232299 0.120923,-0.1769056 0.302307,-0.273196 0.181385,-0.09853 0.42323,-0.09853 0.230649,0 0.403076,0.09853 0.172427,0.09629 0.288872,0.273196 0.116444,0.1769057 0.174666,0.4232299 0.05822,0.2463243 0.05822,0.541913 l -0.009,0.03135 q -0.0045,0.01344 -0.0067,0.02687 -0.0022,0.0112 -0.0022,0.01791 z m 0.615811,-0.3717257 q 0,-0.1276408 -0.01792,-0.237367 -0.01567,-0.1097263 -0.0515,-0.1881022 -0.03583,-0.080615 -0.09405,-0.1254014 -0.05598,-0.047026 -0.138837,-0.047026 -0.05822,0 -0.116445,0.047026 -0.05598,0.044786 -0.100769,0.1254014 -0.04255,0.078376 -0.06942,0.1881022 -0.02687,0.1097262 -0.02687,0.237367 z" />
      <path
         id="path2101"
         style="font-style:normal;font-variant:normal;font-weight:normal;font-stretch:normal;font-size:4.58611px;font-family:'Francois One';-inkscape-font-specification:'Francois One';fill:#0e6977;fill-opacity:1;stroke-width:0.264583"
         d="m 13.427696,10.791547 q 0.02015,0.08733 0.06942,0.154513 0.04031,0.05822 0.114205,0.105247 0.0739,0.04703 0.19258,0.04703 0.04479,0 0.100769,-0.009 0.05822,-0.0112 0.107487,-0.03583 0.04927,-0.02463 0.08286,-0.0627 0.03359,-0.04031 0.03359,-0.100769 0,-0.08286 -0.05822,-0.136598 -0.05822,-0.05374 -0.136598,-0.08509 l -0.539675,-0.219453 q -0.217213,-0.08733 -0.333657,-0.270956 -0.114205,-0.1858632 -0.114205,-0.4545806 0,-0.1925808 0.0739,-0.3403754 0.0739,-0.1477945 0.194821,-0.2463242 0.120922,-0.1007691 0.277674,-0.1522732 0.156752,-0.051504 0.3247,-0.051504 0.138838,0 0.273196,0.040308 0.136598,0.040308 0.253043,0.1209229 0.116444,0.078376 0.201538,0.1948201 0.08733,0.1164442 0.12988,0.266478 l -0.528478,0.1634698 q -0.02463,-0.085094 -0.06718,-0.1545125 -0.03807,-0.058222 -0.100769,-0.1052477 -0.0627,-0.049265 -0.156752,-0.049265 -0.0515,0 -0.100769,0.011196 -0.04927,0.011197 -0.08957,0.038068 -0.03807,0.024632 -0.0627,0.06494 -0.02463,0.038068 -0.02463,0.091812 0,0.042547 0.02239,0.078376 0.02463,0.03359 0.05822,0.060461 0.03583,0.026872 0.0739,0.047026 0.03807,0.020154 0.06942,0.03359 l 0.459059,0.1903408 q 0.107487,0.04926 0.201538,0.114205 0.09629,0.06494 0.165709,0.154513 0.07166,0.08957 0.111966,0.210495 0.04031,0.118684 0.04031,0.275435 0,0.208256 -0.07838,0.362769 -0.07838,0.154512 -0.206017,0.257521 -0.127641,0.103008 -0.288871,0.154512 -0.161231,0.0515 -0.32694,0.0515 -0.197059,0 -0.351572,-0.04702 -0.154512,-0.04479 -0.268717,-0.12988 -0.114205,-0.08509 -0.188102,-0.206017 -0.0739,-0.120923 -0.107487,-0.270957 z" />
    </g>
  </g>
  <g
     style="display:inline"
     inkscape:groupmode="layer"
     id="layer4"
     inkscape:label="Labels">
    <text
       id="text2862"
       y="60.746178"
       x="-13.352248"
       style="font-size:3.175px;line-height:1.25;font-family:sans-serif;text-align:center;letter-spacing:-0.132292px;text-anchor:middle;display:inline;fill:#0e6977;fill-opacity:1;stroke-width:0.264583"
       xml:space="preserve"><tspan
         style="font-style:normal;font-variant:normal;font-weight:normal;font-stretch:normal;font-size:3.175px;font-family:'Nova Flat';-inkscape-font-specification:'Nova Flat';fill:#0e6977;fill-opacity:1;stroke-width:0.264583"
         y="60.746178"
         x="-13.418394"
         id="tspan2860"
         sodipodi:role="line">Reference</tspan></text>
    <g
       transform="translate(1.8555908e-7,-12.176552)"
       style="font-size:3.175px;line-height:1.25;font-family:sans-serif;text-align:center;letter-spacing:-0.132292px;text-anchor:middle;display:inline;fill:#0e6977;fill-opacity:1;stroke-width:0.264583"
       id="text2866"
       aria-label="Ext. Scale">
      <path
         id="path2868"
         style="font-style:normal;font-variant:normal;font-weight:normal;font-stretch:normal;font-size:3.175px;font-family:'Nova Flat';-inkscape-font-specification:'Nova Flat';fill:#0e6977;fill-opacity:1;stroke-width:0.264583"
         d="m 1.0529604,39.579506 v -2.263428 l 0.164331,-0.07751 h 0.9828858 v 0.0155 l -0.1255738,0.26665 H 1.363019 v 0.747241 h 0.8371582 v 0.0155 l -0.1255738,0.26665 H 1.363019 v 0.747242 h 1.0960571 v 0.0155 l -0.1255737,0.26665 z" />
      <path
         id="path2870"
         style="font-style:normal;font-variant:normal;font-weight:normal;font-stretch:normal;font-size:3.175px;font-family:'Nova Flat';-inkscape-font-specification:'Nova Flat';fill:#0e6977;fill-opacity:1;stroke-width:0.264583"
         d="M 2.8120258,39.641518 H 2.7965229 L 2.5267719,39.514394 3.0073627,38.726845 2.5267719,37.940846 2.7980732,37.812172 h 0.015503 l 0.3767212,0.661975 0.3751709,-0.661975 h 0.015503 l 0.2713013,0.128674 -0.4805908,0.785999 0.4805908,0.787549 -0.269751,0.127124 H 3.5670185 L 3.1902973,38.977992 Z" />
      <path
         id="path2872"
         style="font-style:normal;font-variant:normal;font-weight:normal;font-stretch:normal;font-size:3.175px;font-family:'Nova Flat';-inkscape-font-specification:'Nova Flat';fill:#0e6977;fill-opacity:1;stroke-width:0.264583"
         d="M 4.2827367,39.641518 V 38.156337 H 3.8843114 v -0.0155 l 0.1255738,-0.26665 h 0.2728515 v -0.558106 l 0.2945557,-0.139526 h 0.015503 v 0.697632 h 0.3984253 v 0.0155 L 4.865647,38.156337 H 4.5927953 v 1.345654 l -0.2945556,0.139527 z" />
      <path
         id="path2874"
         style="font-style:normal;font-variant:normal;font-weight:normal;font-stretch:normal;font-size:3.175px;font-family:'Nova Flat';-inkscape-font-specification:'Nova Flat';fill:#0e6977;fill-opacity:1;stroke-width:0.264583"
         d="m 5.230999,39.554701 q -0.05426,-0.05581 -0.05426,-0.133325 0,-0.07906 0.05426,-0.134875 0.05426,-0.05581 0.1317749,-0.05581 0.077515,0 0.1317749,0.05581 0.05426,0.05581 0.05426,0.134875 0,0.07751 -0.05426,0.133325 -0.05426,0.05581 -0.1317749,0.05581 -0.077515,0 -0.1317749,-0.05581 z" />
      <path
         id="path2876"
         style="font-style:normal;font-variant:normal;font-weight:normal;font-stretch:normal;font-size:3.175px;font-family:'Nova Flat';-inkscape-font-specification:'Nova Flat';fill:#0e6977;fill-opacity:1;stroke-width:0.264583"
         d="m 7.051559,38.866371 0.2945556,-0.139526 h 0.015503 v 0.37207 q 0,0.10697 0.1875854,0.181384 0.1302246,0.05116 0.2852539,0.05116 0.1550293,0 0.2852539,-0.05116 0.1875855,-0.07441 0.1875855,-0.181384 V 38.64778 q 0,-0.108521 -0.1875855,-0.181384 -0.1302246,-0.05116 -0.2852539,-0.05116 -0.1968872,0 -0.3534668,-0.06046 -0.2899048,-0.114721 -0.2899048,-0.31936 v -0.448035 q 0,-0.207739 0.2899048,-0.31936 0.1565796,-0.06046 0.3534668,-0.06046 0.1968872,0 0.3534668,0.06046 0.2899048,0.114722 0.2899048,0.31936 v 0.198438 L 8.1832728,37.925343 H 8.1677699 V 37.64164 q 0,-0.07752 -0.097668,-0.116272 -0.096118,-0.03876 -0.2356445,-0.03876 -0.1395264,0 -0.2371948,0.03876 -0.096118,0.03876 -0.096118,0.116272 v 0.339514 q 0,0.07752 0.096118,0.116272 0.097668,0.03876 0.2371948,0.03876 0.2340942,0 0.4309814,0.08217 0.3519165,0.145727 0.3519165,0.429431 v 0.451135 q 0,0.282153 -0.3519165,0.429431 -0.1968872,0.08217 -0.4309814,0.08217 -0.2340942,0 -0.4309814,-0.08217 -0.351917,-0.145734 -0.351917,-0.429438 z" />
      <path
         id="path2878"
         style="font-style:normal;font-variant:normal;font-weight:normal;font-stretch:normal;font-size:3.175px;font-family:'Nova Flat';-inkscape-font-specification:'Nova Flat';fill:#0e6977;fill-opacity:1;stroke-width:0.264583"
         d="m 10.255497,38.892726 v 0.337964 q 0,0.204639 -0.2899043,0.31936 -0.1565796,0.06046 -0.3534668,0.06046 -0.1968872,0 -0.3534668,-0.06046 Q 8.9687543,39.435329 8.9687543,39.23069 V 38.223 q 0,-0.204639 0.2899048,-0.319361 0.1565796,-0.06046 0.3534668,-0.06046 0.1968872,0 0.3534668,0.06046 0.2899043,0.114722 0.2899043,0.319361 v 0.198437 L 9.9609418,38.560963 H 9.9454388 V 38.27726 q 0,-0.07751 -0.097668,-0.116272 -0.096118,-0.03876 -0.2356445,-0.03876 -0.1395264,0 -0.2371949,0.03876 -0.096118,0.03876 -0.096118,0.116272 v 0.89917 q 0,0.07751 0.096118,0.116272 0.097668,0.03876 0.2371949,0.03876 0.1395263,0 0.2356445,-0.03876 0.097668,-0.03876 0.097668,-0.116272 v -0.144177 l 0.2945562,-0.139527 z" />
      <path
         id="path2880"
         style="font-style:normal;font-variant:normal;font-weight:normal;font-stretch:normal;font-size:3.175px;font-family:'Nova Flat';-inkscape-font-specification:'Nova Flat';fill:#0e6977;fill-opacity:1;stroke-width:0.264583"
         d="m 11.769616,39.501991 -0.294556,0.139527 h -0.0155 v -0.08372 q -0.148829,0.05271 -0.317811,0.05271 -0.181384,0 -0.337963,-0.06046 -0.289905,-0.114721 -0.289905,-0.31936 v -0.418579 q 0,-0.207739 0.289905,-0.31936 0.156579,-0.06046 0.337963,-0.06046 0.170533,0 0.317811,0.05271 V 38.27726 q 0,-0.07751 -0.09767,-0.116272 -0.09612,-0.03876 -0.235644,-0.03876 h -0.376722 v -0.0155 l 0.124024,-0.26355 h 0.252698 q 0.196887,0 0.353466,0.06046 0.289905,0.111621 0.289905,0.319361 z M 10.823937,39.17643 q 0,0.07751 0.09612,0.116272 0.09767,0.03876 0.221691,0.03876 0.124024,0 0.220142,-0.03876 0.09767,-0.03876 0.09767,-0.116272 v -0.310059 q 0,-0.07751 -0.09767,-0.116272 -0.09612,-0.03876 -0.220142,-0.03876 -0.124023,0 -0.221691,0.03876 -0.09612,0.03876 -0.09612,0.116272 z" />
      <path
         id="path2882"
         style="font-style:normal;font-variant:normal;font-weight:normal;font-stretch:normal;font-size:3.175px;font-family:'Nova Flat';-inkscape-font-specification:'Nova Flat';fill:#0e6977;fill-opacity:1;stroke-width:0.264583"
         d="m 12.179927,39.641518 v -2.32544 l 0.294556,-0.139526 h 0.0155 v 2.325439 l -0.294555,0.139527 z" />
      <path
         id="path2884"
         style="font-style:normal;font-variant:normal;font-weight:normal;font-stretch:normal;font-size:3.175px;font-family:'Nova Flat';-inkscape-font-specification:'Nova Flat';fill:#0e6977;fill-opacity:1;stroke-width:0.264583"
         d="m 14.187039,38.892726 v 0.337964 q 0,0.204639 -0.289904,0.31936 -0.15658,0.06046 -0.353467,0.06046 -0.196887,0 -0.353467,-0.06046 -0.289905,-0.114721 -0.289905,-0.31936 V 38.223 q 0,-0.204639 0.289905,-0.319361 0.15658,-0.06046 0.353467,-0.06046 0.196887,0 0.353467,0.06046 0.289904,0.114722 0.289904,0.319361 v 0.198437 l -0.976684,0.754993 q 0,0.07751 0.09612,0.116272 0.09767,0.03876 0.237195,0.03876 0.139526,0 0.235644,-0.03876 0.09767,-0.03876 0.09767,-0.116272 v -0.144177 l 0.294555,-0.139527 z m -0.976684,-0.04341 0.666626,-0.536401 v -0.03566 q 0,-0.07751 -0.09767,-0.116272 -0.09612,-0.03876 -0.235644,-0.03876 -0.139527,0 -0.237195,0.03876 -0.09612,0.03876 -0.09612,0.116272 z" />
    </g>
    <g
       id="g2917">
      <rect
         style="fill:none;fill-opacity:1;stroke:#0e6977;stroke-width:0.277;stroke-linecap:square;stroke-miterlimit:4;stroke-dasharray:none;stroke-opacity:1;paint-order:markers stroke fill"
         id="rect2905"
         width="12.277"
         height="21"
         x="1.4815"
         y="93.138496"
         rx="3"
         ry="3" />
      <rect
         ry="3"
         rx="3"
         y="103.12799"
         x="2.6199999"
         height="10"
         width="10"
         id="rect2907"
         style="display:inline;fill:#0e6977;fill-opacity:1;stroke:none;stroke-width:0.276754;stroke-linejoin:round;stroke-miterlimit:4;stroke-dasharray:none;stroke-opacity:1;paint-order:fill markers stroke" />
    </g>
    <g
       transform="translate(4.9757441e-8,-20.999996)"
       id="g2923">
      <rect
         ry="3"
         rx="3"
         y="93.138496"
         x="1.4815"
         height="21"
         width="12.277"
         id="rect2919"
         style="fill:none;fill-opacity:1;stroke:#0e6977;stroke-width:0.277;stroke-linecap:square;stroke-miterlimit:4;stroke-dasharray:none;stroke-opacity:1;paint-order:markers stroke fill" />
      <rect
         style="display:inline;fill:#0e6977;fill-opacity:1;stroke:none;stroke-width:0.276754;stroke-linejoin:round;stroke-miterlimit:4;stroke-dasharray:none;stroke-opacity:1;paint-order:fill markers stroke"
         id="rect2921"
         width="10"
         height="10"
         x="2.6199999"
         y="103.12799"
         rx="3"
         ry="3" />
    </g>
    <g
       id="g2929"
       transform="translate(4.9757441e-8,-41.999996)">
      <rect
         style="fill:none;fill-opacity:1;stroke:#0e6977;stroke-width:0.277;stroke-linecap:square;stroke-miterlimit:4;stroke-dasharray:none;stroke-opacity:1;paint-order:markers stroke fill"
         id="rect2925"
         width="12.277"
         height="21"
         x="1.4815"
         y="93.138496"
         rx="3"
         ry="3" />
      <rect
         ry="3"
         rx="3"
         y="103.12799"
         x="2.6199999"
         height="10"
         width="10"
         id="rect2927"
         style="display:inline;fill:#0e6977;fill-opacity:1;stroke:none;stroke-width:0.276754;stroke-linejoin:round;stroke-miterlimit:4;stroke-dasharray:none;stroke-opacity:1;paint-order:fill markers stroke" />
    </g>
    <g
       transform="translate(4.9757441e-8,-62.999996)"
       id="g2935">
      <rect
         ry="3"
         rx="3"
         y="93.138496"
         x="1.4815"
         height="21"
         width="12.277"
         id="rect2931"
         style="fill:none;fill-opacity:1;stroke:#0e6977;stroke-width:0.277;stroke-linecap:square;stroke-miterlimit:4;stroke-dasharray:none;stroke-opacity:1;paint-order:markers stroke fill" />
      <rect
         style="display:inline;fill:#0e6977;fill-opacity:1;stroke:none;stroke-width:0.276754;stroke-linejoin:round;stroke-miterlimit:4;stroke-dasharray:none;stroke-opacity:1;paint-order:fill markers stroke"
         id="rect2933"
         width="10"
         height="10"
         x="2.6199999"
         y="103.12799"
         rx="3"
         ry="3" />
    </g>
    <rect
       y="37.799999"
       x="11"
       height="2.2"
       width="2.2"
       id="rect2937"
       style="fill:#0e6977;fill-opacity:1;stroke:none;stroke-width:0.18591;stroke-linecap:square;stroke-miterlimit:4;stroke-dasharray:none;stroke-opacity:1;paint-order:markers stroke fill" />
    <rect
       style="fill:#0e6977;fill-opacity:1;stroke:none;stroke-width:0.18591;stroke-linecap:square;stroke-miterlimit:4;stroke-dasharray:none;stroke-opacity:1;paint-order:markers stroke fill"
       id="rect2941"
       width="2.2"
       height="2.2"
       x="11"
       y="58.799999" />
    <rect
       y="79.800003"
       x="11"
       height="2.2"
       width="2.2"
       id="rect2943"
       style="fill:#0e6977;fill-opacity:1;stroke:none;stroke-width:0.18591;stroke-linecap:square;stroke-miterlimit:4;stroke-dasharray:none;stroke-opacity:1;paint-order:markers stroke fill" />
    <rect
       style="fill:#0e6977;fill-opacity:1;stroke:none;stroke-width:0.18591;stroke-linecap:square;stroke-miterlimit:4;stroke-dasharray:none;stroke-opacity:1;paint-order:markers stroke fill"
       id="rect2945"
       width="2.2"
       height="2.2"
       x="11"
       y="100.8" />
  </g>
</svg>
