<?xml version="1.0" encoding="UTF-8" standalone="no"?>
<svg
   xmlns:osb="http://www.openswatchbook.org/uri/2009/osb"
   xmlns:dc="http://purl.org/dc/elements/1.1/"
   xmlns:cc="http://creativecommons.org/ns#"
   xmlns:rdf="http://www.w3.org/1999/02/22-rdf-syntax-ns#"
   xmlns:svg="http://www.w3.org/2000/svg"
   xmlns="http://www.w3.org/2000/svg"
   xmlns:xlink="http://www.w3.org/1999/xlink"
   xmlns:sodipodi="http://sodipodi.sourceforge.net/DTD/sodipodi-0.dtd"
   xmlns:inkscape="http://www.inkscape.org/namespaces/inkscape"
   sodipodi:docname="Solomon.svg"
   inkscape:version="1.0 (4035a4fb49, 2020-05-01)"
   id="svg888"
   version="1.1"
   viewBox="0 0 254 128.5"
   height="128.5mm"
   width="254mm">
  <defs
     id="defs882">
    <linearGradient
       gradientTransform="matrix(16.666664,0,0,0.8,1.0000212,32.2)"
       osb:paint="solid"
       id="Pink">
      <stop
         id="stop7599"
         offset="0"
         style="stop-color:#fcaebb;stop-opacity:1;" />
    </linearGradient>
    <linearGradient
       y2="194.23528"
       x2="39.55172"
       y1="194.23528"
       x1="24.31172"
       gradientTransform="matrix(16.666665,0,0,1,-405.19533,-15.73531)"
       gradientUnits="userSpaceOnUse"
       id="linearGradient7673"
       xlink:href="#YellowYay"
       inkscape:collect="always" />
    <linearGradient
       gradientTransform="translate(-17.933197,-0.87182918)"
       osb:paint="solid"
       id="YellowYay">
      <stop
         id="stop7643"
         offset="0"
         style="stop-color:#ffcc03;stop-opacity:1;" />
    </linearGradient>
    <linearGradient
       gradientTransform="matrix(10.666667,0,0,1,-8.1333333e-6,3.2424141e-5)"
       gradientUnits="userSpaceOnUse"
       y2="295.98538"
       x2="3.8719248e-15"
       y1="273.23123"
       x1="2.4786801e-15"
       id="linearGradient7669"
       xlink:href="#linearGradient7667"
       inkscape:collect="always" />
    <linearGradient
       id="linearGradient7667"
       inkscape:collect="always">
      <stop
         id="stop7663"
         offset="0"
         style="stop-color:#76bfbe;stop-opacity:1;" />
      <stop
         id="stop7665"
         offset="1"
         style="stop-color:#469ca9;stop-opacity:1" />
    </linearGradient>
    <linearGradient
       gradientUnits="userSpaceOnUse"
       y2="39.200001"
       x2="2.6600001"
       y1="53.200001"
       x1="2.6600001"
       id="linearGradient1982-2"
       xlink:href="#linearGradient1980"
       inkscape:collect="always"
       gradientTransform="translate(1.3400131,26.199985)" />
    <linearGradient
       id="linearGradient1980"
       inkscape:collect="always">
      <stop
         id="stop1976"
         offset="0"
         style="stop-color:#c1f0f2;stop-opacity:1;" />
      <stop
         id="stop1978"
         offset="1"
         style="stop-color:#c1f0f2;stop-opacity:0;" />
    </linearGradient>
    <linearGradient
       gradientTransform="matrix(0.49504945,0,0,0.90277701,50.683169,44.972261)"
       inkscape:collect="always"
       xlink:href="#linearGradient1980"
       id="linearGradient1982"
       x1="2.6600001"
       y1="53.200001"
       x2="2.6600001"
       y2="39.200001"
       gradientUnits="userSpaceOnUse" />
    <linearGradient
       inkscape:collect="always"
       xlink:href="#linearGradient1980"
       id="linearGradient3904"
       gradientUnits="userSpaceOnUse"
       gradientTransform="matrix(0.49504945,0,0,0.90277701,75.683169,44.972261)"
       x1="2.6600001"
       y1="53.200001"
       x2="2.6600001"
       y2="39.200001" />
    <linearGradient
       inkscape:collect="always"
       xlink:href="#linearGradient1980"
       id="linearGradient3918"
       gradientUnits="userSpaceOnUse"
       gradientTransform="matrix(0.49504945,0,0,0.90277701,125.68317,44.972261)"
       x1="2.6600001"
       y1="53.200001"
       x2="2.6600001"
       y2="39.200001" />
    <linearGradient
       inkscape:collect="always"
       xlink:href="#linearGradient1980"
       id="linearGradient3920"
       gradientUnits="userSpaceOnUse"
       gradientTransform="matrix(0.49504945,0,0,0.90277701,100.68317,44.972261)"
       x1="2.6600001"
       y1="53.200001"
       x2="2.6600001"
       y2="39.200001" />
    <linearGradient
       inkscape:collect="always"
       xlink:href="#linearGradient1980"
       id="linearGradient3946"
       gradientUnits="userSpaceOnUse"
       gradientTransform="matrix(0.49504945,0,0,0.90277701,225.68317,44.972261)"
       x1="2.6600001"
       y1="53.200001"
       x2="2.6600001"
       y2="39.200001" />
    <linearGradient
       inkscape:collect="always"
       xlink:href="#linearGradient1980"
       id="linearGradient3948"
       gradientUnits="userSpaceOnUse"
       gradientTransform="matrix(0.49504945,0,0,0.90277701,200.68317,44.972261)"
       x1="2.6600001"
       y1="53.200001"
       x2="2.6600001"
       y2="39.200001" />
    <linearGradient
       inkscape:collect="always"
       xlink:href="#linearGradient1980"
       id="linearGradient3950"
       gradientUnits="userSpaceOnUse"
       gradientTransform="matrix(0.49504945,0,0,0.90277701,175.68317,44.972261)"
       x1="2.6600001"
       y1="53.200001"
       x2="2.6600001"
       y2="39.200001" />
    <linearGradient
       inkscape:collect="always"
       xlink:href="#linearGradient1980"
       id="linearGradient3952"
       gradientUnits="userSpaceOnUse"
       gradientTransform="matrix(0.49504945,0,0,0.90277701,150.68317,44.972261)"
       x1="2.6600001"
       y1="53.200001"
       x2="2.6600001"
       y2="39.200001" />
  </defs>
  <sodipodi:namedview
     inkscape:document-rotation="0"
     inkscape:window-maximized="1"
     inkscape:window-y="442"
     inkscape:window-x="1076"
     inkscape:window-height="1019"
     inkscape:window-width="1920"
     showgrid="false"
     inkscape:current-layer="layer1"
     inkscape:document-units="mm"
     inkscape:cy="274.53154"
     inkscape:cx="371.85035"
     inkscape:zoom="2.8"
     inkscape:pageshadow="2"
     inkscape:pageopacity="0.0"
     borderopacity="1.0"
     bordercolor="#666666"
     pagecolor="#ffffff"
     id="base" />
  <metadata
     id="metadata885">
    <rdf:RDF>
      <cc:Work
         rdf:about="">
        <dc:format>image/svg+xml</dc:format>
        <dc:type
           rdf:resource="http://purl.org/dc/dcmitype/StillImage" />
        <dc:title />
      </cc:Work>
    </rdf:RDF>
  </metadata>
  <g
     style="display:inline"
     transform="translate(0,-168.5)"
     id="layer1"
     inkscape:groupmode="layer"
     inkscape:label="BG">
    <g
       id="g1065"
       transform="scale(1.5625,1)">
      <rect
         style="display:inline;opacity:1;vector-effect:none;fill:url(#linearGradient7669);fill-opacity:1;fill-rule:evenodd;stroke:none;stroke-width:1.16161;stroke-linecap:butt;stroke-linejoin:miter;stroke-miterlimit:4;stroke-dasharray:none;stroke-dashoffset:0;stroke-opacity:1;paint-order:normal;enable-background:new"
         id="rect420"
         width="162.56"
         height="128.5"
         x="1.5894572e-07"
         y="168.5" />
    </g>
    <rect
       style="display:inline;opacity:0.98;fill:url(#linearGradient7673);fill-opacity:1;stroke:none;stroke-width:2.45911;stroke-miterlimit:4;stroke-dasharray:none;stroke-opacity:1;paint-order:stroke fill markers;enable-background:new"
       id="rect7671"
       width="254"
       height="10"
       x="0"
       y="173.50002" />
    <rect
       y="174.50002"
       x="0"
       height="8"
       width="254"
       id="rect7491"
       style="display:inline;opacity:0.98;fill:url(#Pink);fill-opacity:1;stroke:none;stroke-width:1.41421;stroke-miterlimit:4;stroke-dasharray:none;stroke-opacity:1;paint-order:stroke fill markers;enable-background:new" />
    <g
       aria-label="Lesser Module of Solomon"
       id="text869"
       style="font-style:normal;font-weight:normal;font-size:4.58611px;line-height:1.25;font-family:sans-serif;fill:#0e6977;fill-opacity:1;stroke:none;stroke-width:0.264583"
       transform="translate(45.720001)">
      <path
         d="m 57.270102,176.37966 v 2.90215 h 1.164442 l -0.107486,0.53743 h -1.72651 v -3.38583 z"
         style="font-style:normal;font-variant:normal;font-weight:normal;font-stretch:normal;font-size:4.58611px;font-family:'Francois One';-inkscape-font-specification:'Francois One';fill:#0e6977;fill-opacity:1;stroke-width:0.264583"
         id="path1946" />
      <path
         d="m 59.258611,178.61897 q 0,0.12093 0.01567,0.25976 0.01568,0.13884 0.05151,0.25529 0.03807,0.11644 0.09853,0.19482 0.06046,0.0761 0.147795,0.0761 0.07614,0 0.138837,-0.0605 0.0627,-0.0605 0.109726,-0.1366 0.04703,-0.0761 0.0739,-0.14331 0.02911,-0.0672 0.03583,-0.0806 l 0.48817,0.18586 q -0.04479,0.15676 -0.118684,0.28664 -0.0739,0.12988 -0.179145,0.22393 -0.105247,0.0941 -0.244085,0.14555 -0.138837,0.0537 -0.315743,0.0537 -0.235127,0 -0.414272,-0.0985 -0.176906,-0.0985 -0.295589,-0.27544 -0.116445,-0.1769 -0.176906,-0.42323 -0.05822,-0.24632 -0.05822,-0.53967 0,-0.29559 0.06046,-0.54192 0.06046,-0.24632 0.181384,-0.42323 0.120923,-0.1769 0.302308,-0.27319 0.181384,-0.0985 0.423229,-0.0985 0.23065,0 0.403077,0.0985 0.172427,0.0963 0.288871,0.27319 0.116444,0.17691 0.174666,0.42323 0.05822,0.24633 0.05822,0.54192 l -0.009,0.0313 q -0.0045,0.0134 -0.0067,0.0269 -0.0022,0.0112 -0.0022,0.0179 z m 0.615811,-0.37172 q 0,-0.12764 -0.01792,-0.23737 -0.01568,-0.10973 -0.0515,-0.1881 -0.03583,-0.0806 -0.09405,-0.1254 -0.05598,-0.047 -0.138837,-0.047 -0.05822,0 -0.116444,0.047 -0.05598,0.0448 -0.100769,0.1254 -0.04255,0.0784 -0.06942,0.1881 -0.02687,0.10973 -0.02687,0.23737 z"
         style="font-style:normal;font-variant:normal;font-weight:normal;font-stretch:normal;font-size:4.58611px;font-family:'Francois One';-inkscape-font-specification:'Francois One';fill:#0e6977;fill-opacity:1;stroke-width:0.264583"
         id="path1948" />
      <path
         d="m 61.249359,179.0646 q 0.02015,0.0873 0.06942,0.15451 0.04031,0.0582 0.114205,0.10525 0.0739,0.047 0.19258,0.047 0.04479,0 0.100769,-0.009 0.05822,-0.0112 0.107487,-0.0358 0.04926,-0.0246 0.08286,-0.0627 0.03359,-0.0403 0.03359,-0.10077 0,-0.0829 -0.05822,-0.1366 -0.05822,-0.0538 -0.136598,-0.0851 l -0.539674,-0.21945 q -0.217213,-0.0873 -0.333657,-0.27095 -0.114205,-0.18587 -0.114205,-0.45459 0,-0.19258 0.0739,-0.34037 0.0739,-0.1478 0.19482,-0.24632 0.120923,-0.10077 0.277675,-0.15228 0.156752,-0.0515 0.3247,-0.0515 0.138838,0 0.273196,0.0403 0.136598,0.0403 0.253042,0.12092 0.116445,0.0784 0.201539,0.19482 0.08733,0.11644 0.12988,0.26648 l -0.528478,0.16347 q -0.02463,-0.0851 -0.06718,-0.15452 -0.03807,-0.0582 -0.100769,-0.10524 -0.0627,-0.0493 -0.156752,-0.0493 -0.0515,0 -0.100769,0.0112 -0.04927,0.0112 -0.08957,0.0381 -0.03807,0.0246 -0.0627,0.0649 -0.02463,0.0381 -0.02463,0.0918 0,0.0425 0.02239,0.0784 0.02463,0.0336 0.05822,0.0605 0.03583,0.0269 0.0739,0.047 0.03807,0.0202 0.06942,0.0336 l 0.459059,0.19034 q 0.107487,0.0493 0.201538,0.11421 0.09629,0.0649 0.165709,0.15451 0.07166,0.0896 0.111966,0.21049 0.04031,0.11869 0.04031,0.27544 0,0.20826 -0.07838,0.36277 -0.07838,0.15451 -0.206017,0.25752 -0.127641,0.10301 -0.288871,0.15451 -0.161231,0.0515 -0.32694,0.0515 -0.197059,0 -0.351572,-0.047 -0.154512,-0.0448 -0.268717,-0.12988 -0.114205,-0.0851 -0.188102,-0.20602 -0.0739,-0.12092 -0.107487,-0.27095 z"
         style="font-style:normal;font-variant:normal;font-weight:normal;font-stretch:normal;font-size:4.58611px;font-family:'Francois One';-inkscape-font-specification:'Francois One';fill:#0e6977;fill-opacity:1;stroke-width:0.264583"
         id="path1950" />
      <path
         d="m 63.32744,179.0646 q 0.02015,0.0873 0.06942,0.15451 0.04031,0.0582 0.114205,0.10525 0.0739,0.047 0.192581,0.047 0.04479,0 0.100769,-0.009 0.05822,-0.0112 0.107487,-0.0358 0.04926,-0.0246 0.08285,-0.0627 0.03359,-0.0403 0.03359,-0.10077 0,-0.0829 -0.05822,-0.1366 -0.05822,-0.0538 -0.136598,-0.0851 l -0.539674,-0.21945 q -0.217214,-0.0873 -0.333658,-0.27095 -0.114205,-0.18587 -0.114205,-0.45459 0,-0.19258 0.0739,-0.34037 0.0739,-0.1478 0.194821,-0.24632 0.120922,-0.10077 0.277674,-0.15228 0.156752,-0.0515 0.3247,-0.0515 0.138838,0 0.273196,0.0403 0.136598,0.0403 0.253043,0.12092 0.116444,0.0784 0.201538,0.19482 0.08733,0.11644 0.12988,0.26648 l -0.528478,0.16347 q -0.02463,-0.0851 -0.06718,-0.15452 -0.03807,-0.0582 -0.100769,-0.10524 -0.0627,-0.0493 -0.156752,-0.0493 -0.0515,0 -0.100769,0.0112 -0.04926,0.0112 -0.08957,0.0381 -0.03807,0.0246 -0.0627,0.0649 -0.02463,0.0381 -0.02463,0.0918 0,0.0425 0.02239,0.0784 0.02463,0.0336 0.05822,0.0605 0.03583,0.0269 0.0739,0.047 0.03807,0.0202 0.06942,0.0336 l 0.459058,0.19034 q 0.107487,0.0493 0.201538,0.11421 0.09629,0.0649 0.16571,0.15451 0.07166,0.0896 0.111965,0.21049 0.04031,0.11869 0.04031,0.27544 0,0.20826 -0.07838,0.36277 -0.07838,0.15451 -0.206017,0.25752 -0.127641,0.10301 -0.288871,0.15451 -0.16123,0.0515 -0.32694,0.0515 -0.197059,0 -0.351571,-0.047 -0.154513,-0.0448 -0.268718,-0.12988 -0.114205,-0.0851 -0.188102,-0.20602 -0.0739,-0.12092 -0.107487,-0.27095 z"
         style="font-style:normal;font-variant:normal;font-weight:normal;font-stretch:normal;font-size:4.58611px;font-family:'Francois One';-inkscape-font-specification:'Francois One';fill:#0e6977;fill-opacity:1;stroke-width:0.264583"
         id="path1952" />
      <path
         d="m 65.57347,178.61897 q 0,0.12093 0.01568,0.25976 0.01568,0.13884 0.0515,0.25529 0.03807,0.11644 0.09853,0.19482 0.06046,0.0761 0.147794,0.0761 0.07614,0 0.138838,-0.0605 0.0627,-0.0605 0.109726,-0.1366 0.04703,-0.0761 0.0739,-0.14331 0.02911,-0.0672 0.03583,-0.0806 l 0.48817,0.18586 q -0.04479,0.15676 -0.118683,0.28664 -0.0739,0.12988 -0.179145,0.22393 -0.105248,0.0941 -0.244085,0.14555 -0.138838,0.0537 -0.315743,0.0537 -0.235128,0 -0.414273,-0.0985 -0.176906,-0.0985 -0.295589,-0.27544 -0.116444,-0.1769 -0.176906,-0.42323 -0.05822,-0.24632 -0.05822,-0.53967 0,-0.29559 0.06046,-0.54192 0.06046,-0.24632 0.181384,-0.42323 0.120923,-0.1769 0.302307,-0.27319 0.181384,-0.0985 0.42323,-0.0985 0.230649,0 0.403076,0.0985 0.172427,0.0963 0.288871,0.27319 0.116444,0.17691 0.174666,0.42323 0.05822,0.24633 0.05822,0.54192 l -0.009,0.0313 q -0.0045,0.0134 -0.0067,0.0269 -0.0022,0.0112 -0.0022,0.0179 z m 0.61581,-0.37172 q 0,-0.12764 -0.01791,-0.23737 -0.01568,-0.10973 -0.0515,-0.1881 -0.03583,-0.0806 -0.09405,-0.1254 -0.05598,-0.047 -0.138838,-0.047 -0.05822,0 -0.116444,0.047 -0.05598,0.0448 -0.100769,0.1254 -0.04255,0.0784 -0.06942,0.1881 -0.02687,0.10973 -0.02687,0.23737 z"
         style="font-style:normal;font-variant:normal;font-weight:normal;font-stretch:normal;font-size:4.58611px;font-family:'Francois One';-inkscape-font-specification:'Francois One';fill:#0e6977;fill-opacity:1;stroke-width:0.264583"
         id="path1954" />
      <path
         d="m 67.210406,177.2933 0.644922,-0.0537 v 0.41427 q 0.05598,-0.0739 0.132119,-0.15227 0.07614,-0.0806 0.172427,-0.14556 0.09853,-0.0649 0.217214,-0.10749 0.118683,-0.0425 0.25976,-0.0425 0.0112,0 0.02463,0.002 0.01344,0 0.02463,0.002 0.01343,0.002 0.02911,0.004 v 0.76808 q -0.105248,-0.0314 -0.212735,-0.0649 -0.107487,-0.0336 -0.217213,-0.0336 -0.107487,0 -0.212735,0.047 -0.105247,0.047 -0.217213,0.16795 v 1.69292 l -0.644922,0.0538 z"
         style="font-style:normal;font-variant:normal;font-weight:normal;font-stretch:normal;font-size:4.58611px;font-family:'Francois One';-inkscape-font-specification:'Francois One';fill:#0e6977;fill-opacity:1;stroke-width:0.264583"
         id="path1956" />
      <path
         d="m 70.788826,177.25747 v 2.5349 l -0.555349,0.0269 v -3.40823 l 0.983058,-0.0269 0.568785,2.12735 0.546392,-2.05121 0.897964,-0.0538 v 3.38584 l -0.694187,0.0538 v -2.57969 l -0.642682,2.55281 h -0.414273 z"
         style="font-style:normal;font-variant:normal;font-weight:normal;font-stretch:normal;font-size:4.58611px;font-family:'Francois One';-inkscape-font-specification:'Francois One';fill:#0e6977;fill-opacity:1;stroke-width:0.264583"
         id="path1958" />
      <path
         d="m 74.649399,179.87971 q -0.241845,0 -0.42323,-0.0985 -0.181384,-0.10077 -0.302307,-0.27768 -0.120923,-0.17914 -0.181384,-0.42771 -0.06046,-0.24856 -0.06046,-0.54863 0,-0.28887 0.06046,-0.53072 0.06046,-0.24408 0.181384,-0.41875 0.120923,-0.1769 0.302307,-0.27319 0.181385,-0.0985 0.42323,-0.0985 0.235128,0 0.416512,0.0985 0.181384,0.0963 0.302307,0.27319 0.123162,0.17467 0.185863,0.41875 0.0627,0.24185 0.0627,0.53072 0,0.30007 -0.0627,0.54863 -0.0627,0.24857 -0.185863,0.42771 -0.120923,0.17691 -0.302307,0.27768 -0.181384,0.0985 -0.416512,0.0985 z m -0.0045,-0.47922 q 0.07838,0 0.134358,-0.0425 0.05598,-0.0425 0.09181,-0.11197 0.03583,-0.0717 0.05598,-0.16123 0.02015,-0.0918 0.02911,-0.1881 0.009,-0.0985 0.0112,-0.19258 0.0022,-0.0963 0.0022,-0.17691 0,-0.0784 -0.0022,-0.17243 -0.0022,-0.094 -0.0112,-0.19034 -0.009,-0.0963 -0.02911,-0.18586 -0.02015,-0.0918 -0.05598,-0.16123 -0.03583,-0.0717 -0.09181,-0.11421 -0.05374,-0.0425 -0.132119,-0.0425 -0.08061,0 -0.136598,0.0425 -0.05374,0.0426 -0.08957,0.11421 -0.03583,0.0694 -0.05598,0.16123 -0.01792,0.0896 -0.02687,0.18586 -0.009,0.0963 -0.0112,0.19034 0,0.0941 0,0.17243 0,0.0806 0,0.17691 0.0022,0.0941 0.0112,0.19258 0.009,0.0963 0.02687,0.1881 0.02015,0.0896 0.05374,0.16123 0.03583,0.0694 0.08957,0.11197 0.05598,0.0425 0.136599,0.0425 z"
         style="font-style:normal;font-variant:normal;font-weight:normal;font-stretch:normal;font-size:4.58611px;font-family:'Francois One';-inkscape-font-specification:'Francois One';fill:#0e6977;fill-opacity:1;stroke-width:0.264583"
         id="path1960" />
      <path
         d="m 77.399275,179.84612 -0.156752,-0.34934 q -0.02911,0.10749 -0.09853,0.19258 -0.02911,0.0358 -0.07166,0.0717 -0.04031,0.0336 -0.09629,0.0605 -0.05598,0.0269 -0.127641,0.0426 -0.06942,0.0157 -0.158991,0.0157 -0.176905,0 -0.315743,-0.0784 -0.136598,-0.0806 -0.232888,-0.24632 -0.09405,-0.16795 -0.143316,-0.42099 -0.04927,-0.25529 -0.04927,-0.60462 0,-0.35605 0.03807,-0.60685 0.04031,-0.25304 0.125402,-0.41204 0.08733,-0.15899 0.221692,-0.23064 0.134358,-0.0739 0.3247,-0.0739 0.05374,0 0.107487,0.0157 0.05598,0.0157 0.107487,0.0426 0.0515,0.0269 0.09853,0.0605 0.04927,0.0336 0.08957,0.0694 0.09629,0.0829 0.181384,0.18586 v -1.11965 l 0.644922,-0.0806 v 3.41271 z m -0.156752,-1.96164 q -0.04703,-0.0582 -0.09853,-0.10301 -0.04479,-0.0381 -0.100769,-0.0694 -0.05598,-0.0336 -0.114204,-0.0336 -0.118684,0 -0.185863,0.0672 -0.06718,0.0649 -0.100769,0.18139 -0.03359,0.1142 -0.04255,0.27095 -0.0067,0.15452 -0.0067,0.33142 0,0.17915 0.0067,0.34038 0.009,0.16123 0.04255,0.28439 0.03359,0.12092 0.100769,0.19258 0.06718,0.0717 0.185863,0.0717 0.05822,0 0.114204,-0.0291 0.05598,-0.0314 0.100769,-0.10525 0.04479,-0.0761 0.07166,-0.20602 0.02687,-0.13212 0.02687,-0.33366 z"
         style="font-style:normal;font-variant:normal;font-weight:normal;font-stretch:normal;font-size:4.58611px;font-family:'Francois One';-inkscape-font-specification:'Francois One';fill:#0e6977;fill-opacity:1;stroke-width:0.264583"
         id="path1962" />
      <path
         d="m 79.069801,178.96607 q 0,0.19034 0.05822,0.26647 0.05822,0.0761 0.154513,0.0761 0.04479,0 0.09405,-0.0157 0.0515,-0.0179 0.107487,-0.047 0.05598,-0.0291 0.114205,-0.0649 0.05822,-0.0358 0.116444,-0.0739 v -1.81384 l 0.644922,-0.0537 v 2.55281 l -0.644922,0.0538 v -0.32918 q -0.188102,0.16795 -0.371726,0.26648 -0.183623,0.0963 -0.344854,0.0963 -0.125401,0 -0.230649,-0.047 -0.105248,-0.0448 -0.181384,-0.12764 -0.07614,-0.0851 -0.118684,-0.20602 -0.04255,-0.12092 -0.04255,-0.27095 v -1.93477 l 0.644922,-0.0537 z"
         style="font-style:normal;font-variant:normal;font-weight:normal;font-stretch:normal;font-size:4.58611px;font-family:'Francois One';-inkscape-font-specification:'Francois One';fill:#0e6977;fill-opacity:1;stroke-width:0.264583"
         id="path1964" />
      <path
         d="m 80.914994,176.46028 0.644922,-0.0806 v 3.41271 l -0.644922,0.0538 z"
         style="font-style:normal;font-variant:normal;font-weight:normal;font-stretch:normal;font-size:4.58611px;font-family:'Francois One';-inkscape-font-specification:'Francois One';fill:#0e6977;fill-opacity:1;stroke-width:0.264583"
         id="path1966" />
      <path
         d="m 82.637023,178.61897 q 0,0.12093 0.01568,0.25976 0.01568,0.13884 0.0515,0.25529 0.03807,0.11644 0.09853,0.19482 0.06046,0.0761 0.147794,0.0761 0.07614,0 0.138837,-0.0605 0.0627,-0.0605 0.109727,-0.1366 0.04703,-0.0761 0.0739,-0.14331 0.02911,-0.0672 0.03583,-0.0806 l 0.48817,0.18586 q -0.04479,0.15676 -0.118684,0.28664 -0.0739,0.12988 -0.179145,0.22393 -0.105247,0.0941 -0.244085,0.14555 -0.138837,0.0537 -0.315742,0.0537 -0.235128,0 -0.414273,-0.0985 -0.176906,-0.0985 -0.295589,-0.27544 -0.116444,-0.1769 -0.176906,-0.42323 -0.05822,-0.24632 -0.05822,-0.53967 0,-0.29559 0.06046,-0.54192 0.06046,-0.24632 0.181385,-0.42323 0.120923,-0.1769 0.302307,-0.27319 0.181384,-0.0985 0.42323,-0.0985 0.230649,0 0.403076,0.0985 0.172427,0.0963 0.288871,0.27319 0.116444,0.17691 0.174666,0.42323 0.05822,0.24633 0.05822,0.54192 l -0.009,0.0313 q -0.0045,0.0134 -0.0067,0.0269 -0.0022,0.0112 -0.0022,0.0179 z m 0.615811,-0.37172 q 0,-0.12764 -0.01791,-0.23737 -0.01568,-0.10973 -0.0515,-0.1881 -0.03583,-0.0806 -0.09405,-0.1254 -0.05598,-0.047 -0.138837,-0.047 -0.05822,0 -0.116444,0.047 -0.05598,0.0448 -0.100769,0.1254 -0.04255,0.0784 -0.06942,0.1881 -0.02687,0.10973 -0.02687,0.23737 z"
         style="font-style:normal;font-variant:normal;font-weight:normal;font-stretch:normal;font-size:4.58611px;font-family:'Francois One';-inkscape-font-specification:'Francois One';fill:#0e6977;fill-opacity:1;stroke-width:0.264583"
         id="path1968" />
      <path
         d="m 86.240076,179.87971 q -0.241845,0 -0.423229,-0.0985 -0.181385,-0.10077 -0.302308,-0.27768 -0.120922,-0.17914 -0.181384,-0.42771 -0.06046,-0.24856 -0.06046,-0.54863 0,-0.28887 0.06046,-0.53072 0.06046,-0.24408 0.181384,-0.41875 0.120923,-0.1769 0.302308,-0.27319 0.181384,-0.0985 0.423229,-0.0985 0.235128,0 0.416512,0.0985 0.181385,0.0963 0.302307,0.27319 0.123163,0.17467 0.185863,0.41875 0.0627,0.24185 0.0627,0.53072 0,0.30007 -0.0627,0.54863 -0.0627,0.24857 -0.185863,0.42771 -0.120922,0.17691 -0.302307,0.27768 -0.181384,0.0985 -0.416512,0.0985 z m -0.0045,-0.47922 q 0.07838,0 0.134358,-0.0425 0.05598,-0.0425 0.09181,-0.11197 0.03583,-0.0717 0.05598,-0.16123 0.02015,-0.0918 0.02911,-0.1881 0.009,-0.0985 0.0112,-0.19258 0.0022,-0.0963 0.0022,-0.17691 0,-0.0784 -0.0022,-0.17243 -0.0022,-0.094 -0.0112,-0.19034 -0.009,-0.0963 -0.02911,-0.18586 -0.02015,-0.0918 -0.05598,-0.16123 -0.03583,-0.0717 -0.09181,-0.11421 -0.05374,-0.0425 -0.132119,-0.0425 -0.08061,0 -0.136598,0.0425 -0.05374,0.0426 -0.08957,0.11421 -0.03583,0.0694 -0.05598,0.16123 -0.01792,0.0896 -0.02687,0.18586 -0.009,0.0963 -0.0112,0.19034 0,0.0941 0,0.17243 0,0.0806 0,0.17691 0.0022,0.0941 0.0112,0.19258 0.009,0.0963 0.02687,0.1881 0.02015,0.0896 0.05374,0.16123 0.03583,0.0694 0.08957,0.11197 0.05598,0.0425 0.136599,0.0425 z"
         style="font-style:normal;font-variant:normal;font-weight:normal;font-stretch:normal;font-size:4.58611px;font-family:'Francois One';-inkscape-font-specification:'Francois One';fill:#0e6977;fill-opacity:1;stroke-width:0.264583"
         id="path1970" />
      <path
         d="M 87.749372,177.72325 H 87.43139 l 0.02687,-0.48369 h 0.29111 v -0.0493 q 0,-0.15675 0.0112,-0.30454 0.01344,-0.15004 0.0739,-0.26648 0.0627,-0.11869 0.192581,-0.19034 0.12988,-0.0717 0.362768,-0.0717 0.118684,0 0.201538,0.0112 0.08285,0.0112 0.134359,0.0224 0.06046,0.0157 0.100769,0.0336 v 0.38516 h -0.141077 q -0.100769,0 -0.158991,0.0336 -0.05822,0.0336 -0.08733,0.0873 -0.02911,0.0538 -0.03807,0.12316 -0.0067,0.0694 -0.0067,0.13884 v 0.047 h 0.45458 l -0.02687,0.48369 h -0.427708 v 2.06912 l -0.644922,0.0538 z"
         style="font-style:normal;font-variant:normal;font-weight:normal;font-stretch:normal;font-size:4.58611px;font-family:'Francois One';-inkscape-font-specification:'Francois One';fill:#0e6977;fill-opacity:1;stroke-width:0.264583"
         id="path1972" />
      <path
         d="m 91.679365,177.26419 q -0.04031,-0.0851 -0.07614,-0.16123 -0.03359,-0.0761 -0.08061,-0.13436 -0.04479,-0.0582 -0.109727,-0.0918 -0.06494,-0.0336 -0.165709,-0.0336 -0.07838,0 -0.138837,0.0291 -0.05822,0.0291 -0.09629,0.0784 -0.03807,0.0493 -0.05822,0.1142 -0.01792,0.0649 -0.01792,0.1366 0,0.0582 0.01792,0.10973 0.01791,0.0515 0.04703,0.0941 0.03135,0.0425 0.06942,0.0784 0.03807,0.0336 0.07614,0.056 l 0.55535,0.3247 q 0.197059,0.11196 0.32246,0.23512 0.125402,0.12317 0.194821,0.24409 0.07166,0.12092 0.09853,0.23513 0.02687,0.11196 0.03135,0.20377 0,0.24857 -0.08509,0.45458 -0.08285,0.20378 -0.230649,0.34934 -0.147795,0.14555 -0.349333,0.22617 -0.199299,0.0784 -0.432187,0.0784 -0.214974,0 -0.394119,-0.0649 -0.179145,-0.0649 -0.320221,-0.17914 -0.138838,-0.11645 -0.241846,-0.2732 -0.100769,-0.15899 -0.16347,-0.34261 l 0.568785,-0.26648 q 0.04927,0.0806 0.107487,0.17914 0.05822,0.0963 0.12988,0.18139 0.07166,0.0829 0.16347,0.13884 0.09181,0.056 0.212735,0.056 0.06046,0 0.114205,-0.0269 0.05598,-0.0291 0.09629,-0.0761 0.04255,-0.0493 0.06718,-0.10973 0.02687,-0.0627 0.02687,-0.12988 0,-0.13659 -0.06718,-0.2396 -0.06494,-0.10301 -0.161231,-0.16571 l -0.602375,-0.35605 q -0.125401,-0.0717 -0.230649,-0.16347 -0.103008,-0.0918 -0.181384,-0.20154 -0.07614,-0.11197 -0.118683,-0.23961 -0.04255,-0.12764 -0.04255,-0.27319 0,-0.22841 0.08061,-0.41651 0.08285,-0.19035 0.223931,-0.32694 0.143316,-0.1366 0.338136,-0.2105 0.19706,-0.0761 0.425469,-0.0761 0.349333,0 0.597897,0.17915 0.248563,0.1769 0.367247,0.51952 l -0.568785,0.25752 z"
         style="font-style:normal;font-variant:normal;font-weight:normal;font-stretch:normal;font-size:4.58611px;font-family:'Francois One';-inkscape-font-specification:'Francois One';fill:#0e6977;fill-opacity:1;stroke-width:0.264583"
         id="path1974" />
      <path
         d="m 93.593975,179.87971 q -0.241845,0 -0.423229,-0.0985 -0.181385,-0.10077 -0.302308,-0.27768 -0.120922,-0.17914 -0.181384,-0.42771 -0.06046,-0.24856 -0.06046,-0.54863 0,-0.28887 0.06046,-0.53072 0.06046,-0.24408 0.181384,-0.41875 0.120923,-0.1769 0.302308,-0.27319 0.181384,-0.0985 0.423229,-0.0985 0.235128,0 0.416512,0.0985 0.181385,0.0963 0.302307,0.27319 0.123163,0.17467 0.185863,0.41875 0.0627,0.24185 0.0627,0.53072 0,0.30007 -0.0627,0.54863 -0.0627,0.24857 -0.185863,0.42771 -0.120922,0.17691 -0.302307,0.27768 -0.181384,0.0985 -0.416512,0.0985 z m -0.0045,-0.47922 q 0.07838,0 0.134358,-0.0425 0.05598,-0.0425 0.09181,-0.11197 0.03583,-0.0717 0.05598,-0.16123 0.02015,-0.0918 0.02911,-0.1881 0.009,-0.0985 0.0112,-0.19258 0.0022,-0.0963 0.0022,-0.17691 0,-0.0784 -0.0022,-0.17243 -0.0022,-0.094 -0.0112,-0.19034 -0.009,-0.0963 -0.02911,-0.18586 -0.02015,-0.0918 -0.05598,-0.16123 -0.03583,-0.0717 -0.09181,-0.11421 -0.05374,-0.0425 -0.132119,-0.0425 -0.08061,0 -0.136598,0.0425 -0.05374,0.0426 -0.08957,0.11421 -0.03583,0.0694 -0.05598,0.16123 -0.01792,0.0896 -0.02687,0.18586 -0.009,0.0963 -0.0112,0.19034 0,0.0941 0,0.17243 0,0.0806 0,0.17691 0.0022,0.0941 0.0112,0.19258 0.009,0.0963 0.02687,0.1881 0.02015,0.0896 0.05374,0.16123 0.03583,0.0694 0.08957,0.11197 0.05598,0.0425 0.136599,0.0425 z"
         style="font-style:normal;font-variant:normal;font-weight:normal;font-stretch:normal;font-size:4.58611px;font-family:'Francois One';-inkscape-font-specification:'Francois One';fill:#0e6977;fill-opacity:1;stroke-width:0.264583"
         id="path1976" />
      <path
         d="m 94.995784,176.46028 0.644922,-0.0806 v 3.41271 l -0.644922,0.0538 z"
         style="font-style:normal;font-variant:normal;font-weight:normal;font-stretch:normal;font-size:4.58611px;font-family:'Francois One';-inkscape-font-specification:'Francois One';fill:#0e6977;fill-opacity:1;stroke-width:0.264583"
         id="path1978" />
      <path
         d="m 97.042515,179.87971 q -0.241846,0 -0.42323,-0.0985 -0.181384,-0.10077 -0.302307,-0.27768 -0.120923,-0.17914 -0.181384,-0.42771 -0.06046,-0.24856 -0.06046,-0.54863 0,-0.28887 0.06046,-0.53072 0.06046,-0.24408 0.181384,-0.41875 0.120923,-0.1769 0.302307,-0.27319 0.181384,-0.0985 0.42323,-0.0985 0.235128,0 0.416512,0.0985 0.181384,0.0963 0.302307,0.27319 0.123162,0.17467 0.185863,0.41875 0.0627,0.24185 0.0627,0.53072 0,0.30007 -0.0627,0.54863 -0.0627,0.24857 -0.185863,0.42771 -0.120923,0.17691 -0.302307,0.27768 -0.181384,0.0985 -0.416512,0.0985 z m -0.0045,-0.47922 q 0.07837,0 0.134358,-0.0425 0.05598,-0.0425 0.09181,-0.11197 0.03583,-0.0717 0.05598,-0.16123 0.02015,-0.0918 0.02911,-0.1881 0.009,-0.0985 0.0112,-0.19258 0.0022,-0.0963 0.0022,-0.17691 0,-0.0784 -0.0022,-0.17243 -0.0022,-0.094 -0.0112,-0.19034 -0.009,-0.0963 -0.02911,-0.18586 -0.02015,-0.0918 -0.05598,-0.16123 -0.03583,-0.0717 -0.09181,-0.11421 -0.05374,-0.0425 -0.132119,-0.0425 -0.08062,0 -0.136598,0.0425 -0.05374,0.0426 -0.08957,0.11421 -0.03583,0.0694 -0.05598,0.16123 -0.01792,0.0896 -0.02687,0.18586 -0.009,0.0963 -0.0112,0.19034 0,0.0941 0,0.17243 0,0.0806 0,0.17691 0.0022,0.0941 0.0112,0.19258 0.009,0.0963 0.02687,0.1881 0.02015,0.0896 0.05374,0.16123 0.03583,0.0694 0.08957,0.11197 0.05598,0.0425 0.136599,0.0425 z"
         style="font-style:normal;font-variant:normal;font-weight:normal;font-stretch:normal;font-size:4.58611px;font-family:'Francois One';-inkscape-font-specification:'Francois One';fill:#0e6977;fill-opacity:1;stroke-width:0.264583"
         id="path1980" />
      <path
         d="m 100.59406,178.02332 q 0,-0.12988 -0.0381,-0.19706 -0.0358,-0.0694 -0.094,-0.0694 -0.0649,0 -0.11868,0.0291 -0.0537,0.0291 -0.094,0.0627 -0.047,0.0403 -0.0851,0.0918 v 1.85191 l -0.644917,0.0538 v -1.82728 q 0,-0.14108 -0.03359,-0.20154 -0.03135,-0.0605 -0.07614,-0.0605 -0.0627,0 -0.120923,0.0291 -0.05598,0.0291 -0.100769,0.0627 -0.05374,0.0403 -0.09853,0.0918 v 1.85191 l -0.644921,0.0538 v -2.55282 l 0.644921,-0.0537 v 0.32918 q 0.136598,-0.16123 0.304547,-0.262 0.170187,-0.10077 0.360529,-0.10077 0.132119,0 0.230649,0.0918 0.100774,0.0918 0.150034,0.30902 0.14108,-0.18586 0.29783,-0.29335 0.15899,-0.10748 0.36501,-0.10748 0.12764,0 0.2105,0.0537 0.0851,0.0515 0.13659,0.15227 0.0515,0.10077 0.0717,0.24633 0.0224,0.14555 0.0224,0.33142 v 1.80264 l -0.64492,0.0538 z"
         style="font-style:normal;font-variant:normal;font-weight:normal;font-stretch:normal;font-size:4.58611px;font-family:'Francois One';-inkscape-font-specification:'Francois One';fill:#0e6977;fill-opacity:1;stroke-width:0.264583"
         id="path1982" />
      <path
         d="m 102.62288,179.87971 q -0.24185,0 -0.42323,-0.0985 -0.18138,-0.10077 -0.30231,-0.27768 -0.12092,-0.17914 -0.18138,-0.42771 -0.0605,-0.24856 -0.0605,-0.54863 0,-0.28887 0.0605,-0.53072 0.0605,-0.24408 0.18138,-0.41875 0.12093,-0.1769 0.30231,-0.27319 0.18138,-0.0985 0.42323,-0.0985 0.23513,0 0.41651,0.0985 0.18139,0.0963 0.30231,0.27319 0.12316,0.17467 0.18586,0.41875 0.0627,0.24185 0.0627,0.53072 0,0.30007 -0.0627,0.54863 -0.0627,0.24857 -0.18586,0.42771 -0.12092,0.17691 -0.30231,0.27768 -0.18138,0.0985 -0.41651,0.0985 z m -0.004,-0.47922 q 0.0784,0 0.13436,-0.0425 0.056,-0.0425 0.0918,-0.11197 0.0358,-0.0717 0.056,-0.16123 0.0202,-0.0918 0.0291,-0.1881 0.009,-0.0985 0.0112,-0.19258 0.002,-0.0963 0.002,-0.17691 0,-0.0784 -0.002,-0.17243 -0.002,-0.094 -0.0112,-0.19034 -0.009,-0.0963 -0.0291,-0.18586 -0.0202,-0.0918 -0.056,-0.16123 -0.0358,-0.0717 -0.0918,-0.11421 -0.0537,-0.0425 -0.13212,-0.0425 -0.0806,0 -0.1366,0.0425 -0.0537,0.0426 -0.0896,0.11421 -0.0358,0.0694 -0.056,0.16123 -0.0179,0.0896 -0.0269,0.18586 -0.009,0.0963 -0.0112,0.19034 0,0.0941 0,0.17243 0,0.0806 0,0.17691 0.002,0.0941 0.0112,0.19258 0.009,0.0963 0.0269,0.1881 0.0202,0.0896 0.0537,0.16123 0.0358,0.0694 0.0896,0.11197 0.056,0.0425 0.1366,0.0425 z"
         style="font-style:normal;font-variant:normal;font-weight:normal;font-stretch:normal;font-size:4.58611px;font-family:'Francois One';-inkscape-font-specification:'Francois One';fill:#0e6977;fill-opacity:1;stroke-width:0.264583"
         id="path1984" />
      <path
         d="m 105.31453,178.09721 q 0,-0.19034 -0.0649,-0.26647 -0.0649,-0.0761 -0.17019,-0.0761 -0.0851,0 -0.19258,0.056 -0.10524,0.056 -0.21721,0.12316 v 1.85863 l -0.64492,0.0538 v -2.55282 l 0.64492,-0.0537 v 0.32918 q 0.19258,-0.16795 0.38292,-0.26424 0.19034,-0.0985 0.35605,-0.0985 0.12093,0 0.22169,0.047 0.10077,0.0448 0.17243,0.12988 0.0739,0.0829 0.11421,0.20378 0.0425,0.12092 0.0425,0.27096 v 1.93476 l -0.64492,0.0538 z"
         style="font-style:normal;font-variant:normal;font-weight:normal;font-stretch:normal;font-size:4.58611px;font-family:'Francois One';-inkscape-font-specification:'Francois One';fill:#0e6977;fill-opacity:1;stroke-width:0.264583"
         id="path1986" />
    </g>
  </g>
  <g
     inkscape:groupmode="layer"
     id="layer2"
     inkscape:label="LCD"
     style="display:inline">
    <rect
       rx="1.01"
       ry="1"
       y="65"
       x="4"
       height="10"
       width="40.400002"
       id="rect1974-3"
       style="display:inline;fill:#000000;fill-opacity:1;stroke:none;stroke-width:1.07808;stroke-miterlimit:4;stroke-dasharray:none;stroke-opacity:1" />
    <rect
       style="display:inline;fill:url(#linearGradient1982-2);fill-opacity:1;stroke:none;stroke-width:1.07808;stroke-miterlimit:4;stroke-dasharray:none;stroke-opacity:1"
       id="rect1970-2"
       width="40.400002"
       height="10"
       x="4"
       y="65.400009"
       ry="1"
       rx="1.01" />
    <rect
       rx="1"
       ry="1"
       y="65.199944"
       x="4.2000122"
       height="10"
       width="40"
       id="rect1238-6-5"
       style="display:inline;fill:#083d45;fill-opacity:1;stroke:none;stroke-width:1.07273;stroke-miterlimit:4;stroke-dasharray:none;stroke-opacity:1" />
    <rect
       y="67.199989"
       x="6.2000198"
       height="6"
       width="36"
       id="rect1968-7"
       style="display:inline;fill:#0e6977;fill-opacity:1;stroke:none;stroke-width:0.8601;stroke-miterlimit:4;stroke-dasharray:none;stroke-opacity:1" />
  </g>
  <g
     inkscape:groupmode="layer"
     id="layer3"
     inkscape:label="SegmentDisplay">
    <rect
       style="display:inline;fill:#000000;fill-opacity:1;stroke:none;stroke-width:0.720719;stroke-miterlimit:4;stroke-dasharray:none;stroke-opacity:1"
       id="rect1974"
       width="20"
       height="12.638878"
       x="52"
       y="80"
       ry="1"
       rx="1" />
    <rect
       rx="1"
       ry="1"
       y="80.361122"
       x="52"
       height="12.638878"
       width="20"
       id="rect1970"
       style="display:inline;fill:url(#linearGradient1982);fill-opacity:1;stroke:none;stroke-width:0.720719;stroke-miterlimit:4;stroke-dasharray:none;stroke-opacity:1" />
    <rect
       style="display:inline;fill:#083d45;fill-opacity:1;stroke:none;stroke-width:0.717141;stroke-miterlimit:4;stroke-dasharray:none;stroke-opacity:1"
       id="rect1238"
       width="19.801977"
       height="12.638878"
       x="52.09901"
       y="80.180557"
       ry="1"
       rx="1" />
    <rect
       rx="1"
       ry="1"
       y="80"
       x="77"
       height="12.638878"
       width="20"
       id="rect3898"
       style="display:inline;fill:#000000;fill-opacity:1;stroke:none;stroke-width:0.720719;stroke-miterlimit:4;stroke-dasharray:none;stroke-opacity:1" />
    <rect
       style="display:inline;fill:url(#linearGradient3904);fill-opacity:1;stroke:none;stroke-width:0.720719;stroke-miterlimit:4;stroke-dasharray:none;stroke-opacity:1"
       id="rect3900"
       width="20"
       height="12.638878"
       x="77"
       y="80.361122"
       ry="1"
       rx="1" />
    <rect
       rx="1"
       ry="1"
       y="80.180557"
       x="77.099014"
       height="12.638878"
       width="19.801977"
       id="rect3902"
       style="display:inline;fill:#083d45;fill-opacity:1;stroke:none;stroke-width:0.717141;stroke-miterlimit:4;stroke-dasharray:none;stroke-opacity:1" />
    <rect
       rx="1"
       ry="1"
       y="80"
       x="102"
       height="12.638878"
       width="20"
       id="rect3906"
       style="display:inline;fill:#000000;fill-opacity:1;stroke:none;stroke-width:0.720719;stroke-miterlimit:4;stroke-dasharray:none;stroke-opacity:1" />
    <rect
       style="display:inline;fill:url(#linearGradient3920);fill-opacity:1;stroke:none;stroke-width:0.720719;stroke-miterlimit:4;stroke-dasharray:none;stroke-opacity:1"
       id="rect3908"
       width="20"
       height="12.638878"
       x="102"
       y="80.361122"
       ry="1"
       rx="1" />
    <rect
       rx="1"
       ry="1"
       y="80.180557"
       x="102.09901"
       height="12.638878"
       width="19.801977"
       id="rect3910"
       style="display:inline;fill:#083d45;fill-opacity:1;stroke:none;stroke-width:0.717141;stroke-miterlimit:4;stroke-dasharray:none;stroke-opacity:1" />
    <rect
       style="display:inline;fill:#000000;fill-opacity:1;stroke:none;stroke-width:0.720719;stroke-miterlimit:4;stroke-dasharray:none;stroke-opacity:1"
       id="rect3912"
       width="20"
       height="12.638878"
       x="127"
       y="80"
       ry="1"
       rx="1" />
    <rect
       rx="1"
       ry="1"
       y="80.361122"
       x="127"
       height="12.638878"
       width="20"
       id="rect3914"
       style="display:inline;fill:url(#linearGradient3918);fill-opacity:1;stroke:none;stroke-width:0.720719;stroke-miterlimit:4;stroke-dasharray:none;stroke-opacity:1" />
    <rect
       style="display:inline;fill:#083d45;fill-opacity:1;stroke:none;stroke-width:0.717141;stroke-miterlimit:4;stroke-dasharray:none;stroke-opacity:1"
       id="rect3916"
       width="19.801977"
       height="12.638878"
       x="127.09901"
       y="80.180557"
       ry="1"
       rx="1" />
    <rect
       rx="1"
       ry="1"
       y="80"
       x="152"
       height="12.638878"
       width="20"
       id="rect3922"
       style="display:inline;fill:#000000;fill-opacity:1;stroke:none;stroke-width:0.720719;stroke-miterlimit:4;stroke-dasharray:none;stroke-opacity:1" />
    <rect
       style="display:inline;fill:url(#linearGradient3952);fill-opacity:1;stroke:none;stroke-width:0.720719;stroke-miterlimit:4;stroke-dasharray:none;stroke-opacity:1"
       id="rect3924"
       width="20"
       height="12.638878"
       x="152"
       y="80.361122"
       ry="1"
       rx="1" />
    <rect
       rx="1"
       ry="1"
       y="80.180557"
       x="152.09901"
       height="12.638878"
       width="19.801977"
       id="rect3926"
       style="display:inline;fill:#083d45;fill-opacity:1;stroke:none;stroke-width:0.717141;stroke-miterlimit:4;stroke-dasharray:none;stroke-opacity:1" />
    <rect
       style="display:inline;fill:#000000;fill-opacity:1;stroke:none;stroke-width:0.720719;stroke-miterlimit:4;stroke-dasharray:none;stroke-opacity:1"
       id="rect3928"
       width="20"
       height="12.638878"
       x="177"
       y="80"
       ry="1"
       rx="1" />
    <rect
       rx="1"
       ry="1"
       y="80.361122"
       x="177"
       height="12.638878"
       width="20"
       id="rect3930"
       style="display:inline;fill:url(#linearGradient3950);fill-opacity:1;stroke:none;stroke-width:0.720719;stroke-miterlimit:4;stroke-dasharray:none;stroke-opacity:1" />
    <rect
       style="display:inline;fill:#083d45;fill-opacity:1;stroke:none;stroke-width:0.717141;stroke-miterlimit:4;stroke-dasharray:none;stroke-opacity:1"
       id="rect3932"
       width="19.801977"
       height="12.638878"
       x="177.09901"
       y="80.180557"
       ry="1"
       rx="1" />
    <rect
       style="display:inline;fill:#000000;fill-opacity:1;stroke:none;stroke-width:0.720719;stroke-miterlimit:4;stroke-dasharray:none;stroke-opacity:1"
       id="rect3934"
       width="20"
       height="12.638878"
       x="202"
       y="80"
       ry="1"
       rx="1" />
    <rect
       rx="1"
       ry="1"
       y="80.361122"
       x="202"
       height="12.638878"
       width="20"
       id="rect3936"
       style="display:inline;fill:url(#linearGradient3948);fill-opacity:1;stroke:none;stroke-width:0.720719;stroke-miterlimit:4;stroke-dasharray:none;stroke-opacity:1" />
    <rect
       style="display:inline;fill:#083d45;fill-opacity:1;stroke:none;stroke-width:0.717141;stroke-miterlimit:4;stroke-dasharray:none;stroke-opacity:1"
       id="rect3938"
       width="19.801977"
       height="12.638878"
       x="202.099"
       y="80.180557"
       ry="1"
       rx="1" />
    <rect
       rx="1"
       ry="1"
       y="80"
       x="227"
       height="12.638878"
       width="20"
       id="rect3940"
       style="display:inline;fill:#000000;fill-opacity:1;stroke:none;stroke-width:0.720719;stroke-miterlimit:4;stroke-dasharray:none;stroke-opacity:1" />
    <rect
       style="display:inline;fill:url(#linearGradient3946);fill-opacity:1;stroke:none;stroke-width:0.720719;stroke-miterlimit:4;stroke-dasharray:none;stroke-opacity:1"
       id="rect3942"
       width="20"
       height="12.638878"
       x="227"
       y="80.361122"
       ry="1"
       rx="1" />
    <rect
       rx="1"
       ry="1"
       y="80.180557"
       x="227.09901"
       height="12.638878"
       width="19.801977"
       id="rect3944"
       style="display:inline;fill:#083d45;fill-opacity:1;stroke:none;stroke-width:0.717141;stroke-miterlimit:4;stroke-dasharray:none;stroke-opacity:1" />
    <path
       d="m 78.208,89.002446 h 9 v 3 h -9 z"
       style="display:inline;fill:#0b5763;fill-opacity:1;stroke-width:0.0628501"
       id="path4020" />
    <path
       id="path4022"
       style="display:inline;fill:#0b5763;fill-opacity:1;stroke-width:0.0592557"
       d="m 87.791668,89.002 h 8 v 3 h -8 z" />
    <g
       aria-label="QUEUE"
       id="text4026"
       style="font-style:normal;font-variant:normal;font-weight:normal;font-stretch:normal;font-size:2.82222px;line-height:1.25;font-family:'Noto Serif Armenian';-inkscape-font-specification:'Noto Serif Armenian';letter-spacing:-0.132292px;display:inline;fill:#083d45;fill-opacity:1;stroke:none;stroke-width:0.264583"
       transform="translate(0,4)">
      <path
         d="m 79.226391,86.915855 0.242535,-0.114377 h 0.01378 l 0.253559,0.362424 q 0.0124,-0.0441 0.0124,-0.103353 v -1.11621 q 0,-0.234266 -0.206705,-0.234266 h -0.42719 q -0.206705,0 -0.206705,0.234266 v 1.11621 q 0,0.234266 0.206705,0.234266 h 0.376204 z m -0.111621,0.627007 q -0.482313,0 -0.482313,-0.482313 v -1.11621 q 0,-0.482313 0.482313,-0.482313 h 0.427192 q 0.482313,0 0.482313,0.482313 v 1.11621 q 0,0.232888 -0.112999,0.354155 l 0.04823,0.0689 -0.242535,0.114377 h -0.01378 l -0.0441,-0.06339 q -0.05512,0.0083 -0.117133,0.0083 z"
         style="font-style:normal;font-variant:normal;font-weight:normal;font-stretch:normal;font-size:2.82222px;font-family:'Nova Square';-inkscape-font-specification:'Nova Square';fill:#083d45;fill-opacity:1;stroke-width:0.264583"
         id="path4052" />
      <path
         d="m 80.928267,87.542862 q -0.482313,0 -0.482313,-0.482313 v -1.529621 l 0.261827,-0.124024 h 0.01378 v 1.653645 q 0,0.234266 0.206706,0.234266 h 0.427191 q 0.206706,0 0.206706,-0.234266 v -1.529621 l 0.261827,-0.124024 h 0.01378 v 1.653645 q 0,0.482313 -0.482313,0.482313 z"
         style="font-style:normal;font-variant:normal;font-weight:normal;font-stretch:normal;font-size:2.82222px;font-family:'Nova Square';-inkscape-font-specification:'Nova Square';fill:#083d45;fill-opacity:1;stroke-width:0.264583"
         id="path4054" />
      <path
         d="m 82.25945,87.542862 v -2.011934 l 0.146072,-0.0689 h 0.873676 v 0.01378 l -0.111621,0.237023 h -0.63252 v 0.664214 h 0.744141 v 0.01378 l -0.111621,0.237022 h -0.63252 v 0.664214 h 0.974273 v 0.01378 l -0.111621,0.237022 z"
         style="font-style:normal;font-variant:normal;font-weight:normal;font-stretch:normal;font-size:2.82222px;font-family:'Nova Square';-inkscape-font-specification:'Nova Square';fill:#083d45;fill-opacity:1;stroke-width:0.264583"
         id="path4056" />
      <path
         d="m 84.202482,87.542862 q -0.482313,0 -0.482313,-0.482313 v -1.529621 l 0.261827,-0.124024 h 0.01378 v 1.653645 q 0,0.234266 0.206706,0.234266 h 0.427191 q 0.206706,0 0.206706,-0.234266 v -1.529621 l 0.261827,-0.124024 h 0.01378 v 1.653645 q 0,0.482313 -0.482313,0.482313 z"
         style="font-style:normal;font-variant:normal;font-weight:normal;font-stretch:normal;font-size:2.82222px;font-family:'Nova Square';-inkscape-font-specification:'Nova Square';fill:#083d45;fill-opacity:1;stroke-width:0.264583"
         id="path4058" />
      <path
         d="m 85.533666,87.542862 v -2.011934 l 0.146071,-0.0689 h 0.873676 v 0.01378 l -0.111621,0.237023 h -0.632519 v 0.664214 h 0.74414 v 0.01378 l -0.111621,0.237022 h -0.632519 v 0.664214 h 0.974272 v 0.01378 l -0.111621,0.237022 z"
         style="font-style:normal;font-variant:normal;font-weight:normal;font-stretch:normal;font-size:2.82222px;font-family:'Nova Square';-inkscape-font-specification:'Nova Square';fill:#083d45;fill-opacity:1;stroke-width:0.264583"
         id="path4060" />
    </g>
    <g
       aria-label="NEXT"
       id="text4030"
       style="font-style:normal;font-variant:normal;font-weight:normal;font-stretch:normal;font-size:2.82222px;line-height:1.25;font-family:'Noto Serif Armenian';-inkscape-font-specification:'Noto Serif Armenian';letter-spacing:-0.132292px;display:inline;fill:#083d45;fill-opacity:1;stroke:none;stroke-width:0.264583"
       transform="translate(0,4)">
      <path
         d="m 88.811664,87.597983 v -1.653644 q 0,-0.482313 0.482313,-0.482313 h 0.427191 q 0.482313,0 0.482313,0.482313 v 1.529621 l -0.261827,0.124023 h -0.01378 v -1.653644 q 0,-0.234266 -0.206706,-0.234266 h -0.427191 q -0.206706,0 -0.206706,0.234266 v 1.529621 l -0.261827,0.124023 z"
         style="font-style:normal;font-variant:normal;font-weight:normal;font-stretch:normal;font-size:2.82222px;font-family:'Nova Square';-inkscape-font-specification:'Nova Square';fill:#083d45;fill-opacity:1;stroke-width:0.264583"
         id="path4063" />
      <path
         d="m 90.62516,87.542862 v -2.011934 l 0.146072,-0.0689 h 0.873676 v 0.01378 l -0.111621,0.237023 h -0.632519 v 0.664214 h 0.74414 v 0.01378 l -0.111621,0.237022 h -0.632519 v 0.664214 h 0.974272 v 0.01378 l -0.111621,0.237022 z"
         style="font-style:normal;font-variant:normal;font-weight:normal;font-stretch:normal;font-size:2.82222px;font-family:'Nova Square';-inkscape-font-specification:'Nova Square';fill:#083d45;fill-opacity:1;stroke-width:0.264583"
         id="path4065" />
      <path
         d="m 92.121708,87.597983 -0.239778,-0.112999 0.581531,-0.98254 -0.581531,-0.981163 0.241156,-0.114377 h 0.01378 l 0.487825,0.851627 0.487825,-0.851627 h 0.01378 l 0.241157,0.114377 -0.581532,0.981163 0.581532,0.98254 -0.239779,0.112999 h -0.01378 l -0.489203,-0.851627 -0.489203,0.851627 z"
         style="font-style:normal;font-variant:normal;font-weight:normal;font-stretch:normal;font-size:2.82222px;font-family:'Nova Square';-inkscape-font-specification:'Nova Square';fill:#083d45;fill-opacity:1;stroke-width:0.264583"
         id="path4067" />
      <path
         d="m 93.906266,87.597983 v -1.885154 h -0.5898 v -0.01378 l 0.111621,-0.237022 h 1.343586 v 0.01378 l -0.111621,0.237023 h -0.478178 v 1.761131 l -0.261828,0.124023 z"
         style="font-style:normal;font-variant:normal;font-weight:normal;font-stretch:normal;font-size:2.82222px;font-family:'Nova Square';-inkscape-font-specification:'Nova Square';fill:#083d45;fill-opacity:1;stroke-width:0.264583"
         id="path4069" />
    </g>
    <path
       id="path4072"
       style="display:inline;fill:#0b5763;fill-opacity:1;stroke-width:0.0628501"
       d="m 103.208,89.002446 h 9 v 3 h -9 z" />
    <path
       d="m 112.79167,89.002 h 8 v 3 h -8 z"
       style="display:inline;fill:#0b5763;fill-opacity:1;stroke-width:0.0592557"
       id="path4074" />
    <g
       style="font-style:normal;font-variant:normal;font-weight:normal;font-stretch:normal;font-size:2.82222px;line-height:1.25;font-family:'Noto Serif Armenian';-inkscape-font-specification:'Noto Serif Armenian';letter-spacing:-0.132292px;display:inline;fill:#083d45;fill-opacity:1;stroke:none;stroke-width:0.264583"
       id="g4086"
       aria-label="QUEUE"
       transform="translate(25,4)">
      <path
         id="path4076"
         style="font-style:normal;font-variant:normal;font-weight:normal;font-stretch:normal;font-size:2.82222px;font-family:'Nova Square';-inkscape-font-specification:'Nova Square';fill:#083d45;fill-opacity:1;stroke-width:0.264583"
         d="m 79.226391,86.915855 0.242535,-0.114377 h 0.01378 l 0.253559,0.362424 q 0.0124,-0.0441 0.0124,-0.103353 v -1.11621 q 0,-0.234266 -0.206705,-0.234266 h -0.42719 q -0.206705,0 -0.206705,0.234266 v 1.11621 q 0,0.234266 0.206705,0.234266 h 0.376204 z m -0.111621,0.627007 q -0.482313,0 -0.482313,-0.482313 v -1.11621 q 0,-0.482313 0.482313,-0.482313 h 0.427192 q 0.482313,0 0.482313,0.482313 v 1.11621 q 0,0.232888 -0.112999,0.354155 l 0.04823,0.0689 -0.242535,0.114377 h -0.01378 l -0.0441,-0.06339 q -0.05512,0.0083 -0.117133,0.0083 z" />
      <path
         id="path4078"
         style="font-style:normal;font-variant:normal;font-weight:normal;font-stretch:normal;font-size:2.82222px;font-family:'Nova Square';-inkscape-font-specification:'Nova Square';fill:#083d45;fill-opacity:1;stroke-width:0.264583"
         d="m 80.928267,87.542862 q -0.482313,0 -0.482313,-0.482313 v -1.529621 l 0.261827,-0.124024 h 0.01378 v 1.653645 q 0,0.234266 0.206706,0.234266 h 0.427191 q 0.206706,0 0.206706,-0.234266 v -1.529621 l 0.261827,-0.124024 h 0.01378 v 1.653645 q 0,0.482313 -0.482313,0.482313 z" />
      <path
         id="path4080"
         style="font-style:normal;font-variant:normal;font-weight:normal;font-stretch:normal;font-size:2.82222px;font-family:'Nova Square';-inkscape-font-specification:'Nova Square';fill:#083d45;fill-opacity:1;stroke-width:0.264583"
         d="m 82.25945,87.542862 v -2.011934 l 0.146072,-0.0689 h 0.873676 v 0.01378 l -0.111621,0.237023 h -0.63252 v 0.664214 h 0.744141 v 0.01378 l -0.111621,0.237022 h -0.63252 v 0.664214 h 0.974273 v 0.01378 l -0.111621,0.237022 z" />
      <path
         id="path4082"
         style="font-style:normal;font-variant:normal;font-weight:normal;font-stretch:normal;font-size:2.82222px;font-family:'Nova Square';-inkscape-font-specification:'Nova Square';fill:#083d45;fill-opacity:1;stroke-width:0.264583"
         d="m 84.202482,87.542862 q -0.482313,0 -0.482313,-0.482313 v -1.529621 l 0.261827,-0.124024 h 0.01378 v 1.653645 q 0,0.234266 0.206706,0.234266 h 0.427191 q 0.206706,0 0.206706,-0.234266 v -1.529621 l 0.261827,-0.124024 h 0.01378 v 1.653645 q 0,0.482313 -0.482313,0.482313 z" />
      <path
         id="path4084"
         style="font-style:normal;font-variant:normal;font-weight:normal;font-stretch:normal;font-size:2.82222px;font-family:'Nova Square';-inkscape-font-specification:'Nova Square';fill:#083d45;fill-opacity:1;stroke-width:0.264583"
         d="m 85.533666,87.542862 v -2.011934 l 0.146071,-0.0689 h 0.873676 v 0.01378 l -0.111621,0.237023 h -0.632519 v 0.664214 h 0.74414 v 0.01378 l -0.111621,0.237022 h -0.632519 v 0.664214 h 0.974272 v 0.01378 l -0.111621,0.237022 z" />
    </g>
    <g
       style="font-style:normal;font-variant:normal;font-weight:normal;font-stretch:normal;font-size:2.82222px;line-height:1.25;font-family:'Noto Serif Armenian';-inkscape-font-specification:'Noto Serif Armenian';letter-spacing:-0.132292px;display:inline;fill:#083d45;fill-opacity:1;stroke:none;stroke-width:0.264583"
       id="g4096"
       aria-label="NEXT"
       transform="translate(25,4)">
      <path
         id="path4088"
         style="font-style:normal;font-variant:normal;font-weight:normal;font-stretch:normal;font-size:2.82222px;font-family:'Nova Square';-inkscape-font-specification:'Nova Square';fill:#083d45;fill-opacity:1;stroke-width:0.264583"
         d="m 88.811664,87.597983 v -1.653644 q 0,-0.482313 0.482313,-0.482313 h 0.427191 q 0.482313,0 0.482313,0.482313 v 1.529621 l -0.261827,0.124023 h -0.01378 v -1.653644 q 0,-0.234266 -0.206706,-0.234266 h -0.427191 q -0.206706,0 -0.206706,0.234266 v 1.529621 l -0.261827,0.124023 z" />
      <path
         id="path4090"
         style="font-style:normal;font-variant:normal;font-weight:normal;font-stretch:normal;font-size:2.82222px;font-family:'Nova Square';-inkscape-font-specification:'Nova Square';fill:#083d45;fill-opacity:1;stroke-width:0.264583"
         d="m 90.62516,87.542862 v -2.011934 l 0.146072,-0.0689 h 0.873676 v 0.01378 l -0.111621,0.237023 h -0.632519 v 0.664214 h 0.74414 v 0.01378 l -0.111621,0.237022 h -0.632519 v 0.664214 h 0.974272 v 0.01378 l -0.111621,0.237022 z" />
      <path
         id="path4092"
         style="font-style:normal;font-variant:normal;font-weight:normal;font-stretch:normal;font-size:2.82222px;font-family:'Nova Square';-inkscape-font-specification:'Nova Square';fill:#083d45;fill-opacity:1;stroke-width:0.264583"
         d="m 92.121708,87.597983 -0.239778,-0.112999 0.581531,-0.98254 -0.581531,-0.981163 0.241156,-0.114377 h 0.01378 l 0.487825,0.851627 0.487825,-0.851627 h 0.01378 l 0.241157,0.114377 -0.581532,0.981163 0.581532,0.98254 -0.239779,0.112999 h -0.01378 l -0.489203,-0.851627 -0.489203,0.851627 z" />
      <path
         id="path4094"
         style="font-style:normal;font-variant:normal;font-weight:normal;font-stretch:normal;font-size:2.82222px;font-family:'Nova Square';-inkscape-font-specification:'Nova Square';fill:#083d45;fill-opacity:1;stroke-width:0.264583"
         d="m 93.906266,87.597983 v -1.885154 h -0.5898 v -0.01378 l 0.111621,-0.237022 h 1.343586 v 0.01378 l -0.111621,0.237023 h -0.478178 v 1.761131 l -0.261828,0.124023 z" />
    </g>
    <path
       d="m 128.208,89.002446 h 9 v 3 h -9 z"
       style="display:inline;fill:#0b5763;fill-opacity:1;stroke-width:0.0628501"
       id="path4098" />
    <path
       id="path4100"
       style="display:inline;fill:#0b5763;fill-opacity:1;stroke-width:0.0592557"
       d="m 137.79167,89.002 h 8 v 3 h -8 z" />
    <g
       transform="translate(50,4)"
       aria-label="QUEUE"
       id="g4112"
       style="font-style:normal;font-variant:normal;font-weight:normal;font-stretch:normal;font-size:2.82222px;line-height:1.25;font-family:'Noto Serif Armenian';-inkscape-font-specification:'Noto Serif Armenian';letter-spacing:-0.132292px;display:inline;fill:#083d45;fill-opacity:1;stroke:none;stroke-width:0.264583">
      <path
         d="m 79.226391,86.915855 0.242535,-0.114377 h 0.01378 l 0.253559,0.362424 q 0.0124,-0.0441 0.0124,-0.103353 v -1.11621 q 0,-0.234266 -0.206705,-0.234266 h -0.42719 q -0.206705,0 -0.206705,0.234266 v 1.11621 q 0,0.234266 0.206705,0.234266 h 0.376204 z m -0.111621,0.627007 q -0.482313,0 -0.482313,-0.482313 v -1.11621 q 0,-0.482313 0.482313,-0.482313 h 0.427192 q 0.482313,0 0.482313,0.482313 v 1.11621 q 0,0.232888 -0.112999,0.354155 l 0.04823,0.0689 -0.242535,0.114377 h -0.01378 l -0.0441,-0.06339 q -0.05512,0.0083 -0.117133,0.0083 z"
         style="font-style:normal;font-variant:normal;font-weight:normal;font-stretch:normal;font-size:2.82222px;font-family:'Nova Square';-inkscape-font-specification:'Nova Square';fill:#083d45;fill-opacity:1;stroke-width:0.264583"
         id="path4102" />
      <path
         d="m 80.928267,87.542862 q -0.482313,0 -0.482313,-0.482313 v -1.529621 l 0.261827,-0.124024 h 0.01378 v 1.653645 q 0,0.234266 0.206706,0.234266 h 0.427191 q 0.206706,0 0.206706,-0.234266 v -1.529621 l 0.261827,-0.124024 h 0.01378 v 1.653645 q 0,0.482313 -0.482313,0.482313 z"
         style="font-style:normal;font-variant:normal;font-weight:normal;font-stretch:normal;font-size:2.82222px;font-family:'Nova Square';-inkscape-font-specification:'Nova Square';fill:#083d45;fill-opacity:1;stroke-width:0.264583"
         id="path4104" />
      <path
         d="m 82.25945,87.542862 v -2.011934 l 0.146072,-0.0689 h 0.873676 v 0.01378 l -0.111621,0.237023 h -0.63252 v 0.664214 h 0.744141 v 0.01378 l -0.111621,0.237022 h -0.63252 v 0.664214 h 0.974273 v 0.01378 l -0.111621,0.237022 z"
         style="font-style:normal;font-variant:normal;font-weight:normal;font-stretch:normal;font-size:2.82222px;font-family:'Nova Square';-inkscape-font-specification:'Nova Square';fill:#083d45;fill-opacity:1;stroke-width:0.264583"
         id="path4106" />
      <path
         d="m 84.202482,87.542862 q -0.482313,0 -0.482313,-0.482313 v -1.529621 l 0.261827,-0.124024 h 0.01378 v 1.653645 q 0,0.234266 0.206706,0.234266 h 0.427191 q 0.206706,0 0.206706,-0.234266 v -1.529621 l 0.261827,-0.124024 h 0.01378 v 1.653645 q 0,0.482313 -0.482313,0.482313 z"
         style="font-style:normal;font-variant:normal;font-weight:normal;font-stretch:normal;font-size:2.82222px;font-family:'Nova Square';-inkscape-font-specification:'Nova Square';fill:#083d45;fill-opacity:1;stroke-width:0.264583"
         id="path4108" />
      <path
         d="m 85.533666,87.542862 v -2.011934 l 0.146071,-0.0689 h 0.873676 v 0.01378 l -0.111621,0.237023 h -0.632519 v 0.664214 h 0.74414 v 0.01378 l -0.111621,0.237022 h -0.632519 v 0.664214 h 0.974272 v 0.01378 l -0.111621,0.237022 z"
         style="font-style:normal;font-variant:normal;font-weight:normal;font-stretch:normal;font-size:2.82222px;font-family:'Nova Square';-inkscape-font-specification:'Nova Square';fill:#083d45;fill-opacity:1;stroke-width:0.264583"
         id="path4110" />
    </g>
    <g
       transform="translate(50,4)"
       aria-label="NEXT"
       id="g4122"
       style="font-style:normal;font-variant:normal;font-weight:normal;font-stretch:normal;font-size:2.82222px;line-height:1.25;font-family:'Noto Serif Armenian';-inkscape-font-specification:'Noto Serif Armenian';letter-spacing:-0.132292px;display:inline;fill:#083d45;fill-opacity:1;stroke:none;stroke-width:0.264583">
      <path
         d="m 88.811664,87.597983 v -1.653644 q 0,-0.482313 0.482313,-0.482313 h 0.427191 q 0.482313,0 0.482313,0.482313 v 1.529621 l -0.261827,0.124023 h -0.01378 v -1.653644 q 0,-0.234266 -0.206706,-0.234266 h -0.427191 q -0.206706,0 -0.206706,0.234266 v 1.529621 l -0.261827,0.124023 z"
         style="font-style:normal;font-variant:normal;font-weight:normal;font-stretch:normal;font-size:2.82222px;font-family:'Nova Square';-inkscape-font-specification:'Nova Square';fill:#083d45;fill-opacity:1;stroke-width:0.264583"
         id="path4114" />
      <path
         d="m 90.62516,87.542862 v -2.011934 l 0.146072,-0.0689 h 0.873676 v 0.01378 l -0.111621,0.237023 h -0.632519 v 0.664214 h 0.74414 v 0.01378 l -0.111621,0.237022 h -0.632519 v 0.664214 h 0.974272 v 0.01378 l -0.111621,0.237022 z"
         style="font-style:normal;font-variant:normal;font-weight:normal;font-stretch:normal;font-size:2.82222px;font-family:'Nova Square';-inkscape-font-specification:'Nova Square';fill:#083d45;fill-opacity:1;stroke-width:0.264583"
         id="path4116" />
      <path
         d="m 92.121708,87.597983 -0.239778,-0.112999 0.581531,-0.98254 -0.581531,-0.981163 0.241156,-0.114377 h 0.01378 l 0.487825,0.851627 0.487825,-0.851627 h 0.01378 l 0.241157,0.114377 -0.581532,0.981163 0.581532,0.98254 -0.239779,0.112999 h -0.01378 l -0.489203,-0.851627 -0.489203,0.851627 z"
         style="font-style:normal;font-variant:normal;font-weight:normal;font-stretch:normal;font-size:2.82222px;font-family:'Nova Square';-inkscape-font-specification:'Nova Square';fill:#083d45;fill-opacity:1;stroke-width:0.264583"
         id="path4118" />
      <path
         d="m 93.906266,87.597983 v -1.885154 h -0.5898 v -0.01378 l 0.111621,-0.237022 h 1.343586 v 0.01378 l -0.111621,0.237023 h -0.478178 v 1.761131 l -0.261828,0.124023 z"
         style="font-style:normal;font-variant:normal;font-weight:normal;font-stretch:normal;font-size:2.82222px;font-family:'Nova Square';-inkscape-font-specification:'Nova Square';fill:#083d45;fill-opacity:1;stroke-width:0.264583"
         id="path4120" />
    </g>
    <path
       d="m 153.208,89.002446 h 9 v 3 h -9 z"
       style="display:inline;fill:#0b5763;fill-opacity:1;stroke-width:0.0628501"
       id="path4124" />
    <path
       id="path4126"
       style="display:inline;fill:#0b5763;fill-opacity:1;stroke-width:0.0592557"
       d="m 162.79167,89.002 h 8 v 3 h -8 z" />
    <g
       transform="translate(75,4)"
       aria-label="QUEUE"
       id="g4138"
       style="font-style:normal;font-variant:normal;font-weight:normal;font-stretch:normal;font-size:2.82222px;line-height:1.25;font-family:'Noto Serif Armenian';-inkscape-font-specification:'Noto Serif Armenian';letter-spacing:-0.132292px;display:inline;fill:#083d45;fill-opacity:1;stroke:none;stroke-width:0.264583">
      <path
         d="m 79.226391,86.915855 0.242535,-0.114377 h 0.01378 l 0.253559,0.362424 q 0.0124,-0.0441 0.0124,-0.103353 v -1.11621 q 0,-0.234266 -0.206705,-0.234266 h -0.42719 q -0.206705,0 -0.206705,0.234266 v 1.11621 q 0,0.234266 0.206705,0.234266 h 0.376204 z m -0.111621,0.627007 q -0.482313,0 -0.482313,-0.482313 v -1.11621 q 0,-0.482313 0.482313,-0.482313 h 0.427192 q 0.482313,0 0.482313,0.482313 v 1.11621 q 0,0.232888 -0.112999,0.354155 l 0.04823,0.0689 -0.242535,0.114377 h -0.01378 l -0.0441,-0.06339 q -0.05512,0.0083 -0.117133,0.0083 z"
         style="font-style:normal;font-variant:normal;font-weight:normal;font-stretch:normal;font-size:2.82222px;font-family:'Nova Square';-inkscape-font-specification:'Nova Square';fill:#083d45;fill-opacity:1;stroke-width:0.264583"
         id="path4128" />
      <path
         d="m 80.928267,87.542862 q -0.482313,0 -0.482313,-0.482313 v -1.529621 l 0.261827,-0.124024 h 0.01378 v 1.653645 q 0,0.234266 0.206706,0.234266 h 0.427191 q 0.206706,0 0.206706,-0.234266 v -1.529621 l 0.261827,-0.124024 h 0.01378 v 1.653645 q 0,0.482313 -0.482313,0.482313 z"
         style="font-style:normal;font-variant:normal;font-weight:normal;font-stretch:normal;font-size:2.82222px;font-family:'Nova Square';-inkscape-font-specification:'Nova Square';fill:#083d45;fill-opacity:1;stroke-width:0.264583"
         id="path4130" />
      <path
         d="m 82.25945,87.542862 v -2.011934 l 0.146072,-0.0689 h 0.873676 v 0.01378 l -0.111621,0.237023 h -0.63252 v 0.664214 h 0.744141 v 0.01378 l -0.111621,0.237022 h -0.63252 v 0.664214 h 0.974273 v 0.01378 l -0.111621,0.237022 z"
         style="font-style:normal;font-variant:normal;font-weight:normal;font-stretch:normal;font-size:2.82222px;font-family:'Nova Square';-inkscape-font-specification:'Nova Square';fill:#083d45;fill-opacity:1;stroke-width:0.264583"
         id="path4132" />
      <path
         d="m 84.202482,87.542862 q -0.482313,0 -0.482313,-0.482313 v -1.529621 l 0.261827,-0.124024 h 0.01378 v 1.653645 q 0,0.234266 0.206706,0.234266 h 0.427191 q 0.206706,0 0.206706,-0.234266 v -1.529621 l 0.261827,-0.124024 h 0.01378 v 1.653645 q 0,0.482313 -0.482313,0.482313 z"
         style="font-style:normal;font-variant:normal;font-weight:normal;font-stretch:normal;font-size:2.82222px;font-family:'Nova Square';-inkscape-font-specification:'Nova Square';fill:#083d45;fill-opacity:1;stroke-width:0.264583"
         id="path4134" />
      <path
         d="m 85.533666,87.542862 v -2.011934 l 0.146071,-0.0689 h 0.873676 v 0.01378 l -0.111621,0.237023 h -0.632519 v 0.664214 h 0.74414 v 0.01378 l -0.111621,0.237022 h -0.632519 v 0.664214 h 0.974272 v 0.01378 l -0.111621,0.237022 z"
         style="font-style:normal;font-variant:normal;font-weight:normal;font-stretch:normal;font-size:2.82222px;font-family:'Nova Square';-inkscape-font-specification:'Nova Square';fill:#083d45;fill-opacity:1;stroke-width:0.264583"
         id="path4136" />
    </g>
    <g
       transform="translate(75,4)"
       aria-label="NEXT"
       id="g4148"
       style="font-style:normal;font-variant:normal;font-weight:normal;font-stretch:normal;font-size:2.82222px;line-height:1.25;font-family:'Noto Serif Armenian';-inkscape-font-specification:'Noto Serif Armenian';letter-spacing:-0.132292px;display:inline;fill:#083d45;fill-opacity:1;stroke:none;stroke-width:0.264583">
      <path
         d="m 88.811664,87.597983 v -1.653644 q 0,-0.482313 0.482313,-0.482313 h 0.427191 q 0.482313,0 0.482313,0.482313 v 1.529621 l -0.261827,0.124023 h -0.01378 v -1.653644 q 0,-0.234266 -0.206706,-0.234266 h -0.427191 q -0.206706,0 -0.206706,0.234266 v 1.529621 l -0.261827,0.124023 z"
         style="font-style:normal;font-variant:normal;font-weight:normal;font-stretch:normal;font-size:2.82222px;font-family:'Nova Square';-inkscape-font-specification:'Nova Square';fill:#083d45;fill-opacity:1;stroke-width:0.264583"
         id="path4140" />
      <path
         d="m 90.62516,87.542862 v -2.011934 l 0.146072,-0.0689 h 0.873676 v 0.01378 l -0.111621,0.237023 h -0.632519 v 0.664214 h 0.74414 v 0.01378 l -0.111621,0.237022 h -0.632519 v 0.664214 h 0.974272 v 0.01378 l -0.111621,0.237022 z"
         style="font-style:normal;font-variant:normal;font-weight:normal;font-stretch:normal;font-size:2.82222px;font-family:'Nova Square';-inkscape-font-specification:'Nova Square';fill:#083d45;fill-opacity:1;stroke-width:0.264583"
         id="path4142" />
      <path
         d="m 92.121708,87.597983 -0.239778,-0.112999 0.581531,-0.98254 -0.581531,-0.981163 0.241156,-0.114377 h 0.01378 l 0.487825,0.851627 0.487825,-0.851627 h 0.01378 l 0.241157,0.114377 -0.581532,0.981163 0.581532,0.98254 -0.239779,0.112999 h -0.01378 l -0.489203,-0.851627 -0.489203,0.851627 z"
         style="font-style:normal;font-variant:normal;font-weight:normal;font-stretch:normal;font-size:2.82222px;font-family:'Nova Square';-inkscape-font-specification:'Nova Square';fill:#083d45;fill-opacity:1;stroke-width:0.264583"
         id="path4144" />
      <path
         d="m 93.906266,87.597983 v -1.885154 h -0.5898 v -0.01378 l 0.111621,-0.237022 h 1.343586 v 0.01378 l -0.111621,0.237023 h -0.478178 v 1.761131 l -0.261828,0.124023 z"
         style="font-style:normal;font-variant:normal;font-weight:normal;font-stretch:normal;font-size:2.82222px;font-family:'Nova Square';-inkscape-font-specification:'Nova Square';fill:#083d45;fill-opacity:1;stroke-width:0.264583"
         id="path4146" />
    </g>
    <path
       id="path4150"
       style="display:inline;fill:#0b5763;fill-opacity:1;stroke-width:0.0628501"
       d="m 178.208,89.002446 h 9 v 3 h -9 z" />
    <path
       d="m 187.79167,89.002 h 8 v 3 h -8 z"
       style="display:inline;fill:#0b5763;fill-opacity:1;stroke-width:0.0592557"
       id="path4152" />
    <g
       style="font-style:normal;font-variant:normal;font-weight:normal;font-stretch:normal;font-size:2.82222px;line-height:1.25;font-family:'Noto Serif Armenian';-inkscape-font-specification:'Noto Serif Armenian';letter-spacing:-0.132292px;display:inline;fill:#083d45;fill-opacity:1;stroke:none;stroke-width:0.264583"
       id="g4164"
       aria-label="QUEUE"
       transform="translate(100,4)">
      <path
         id="path4154"
         style="font-style:normal;font-variant:normal;font-weight:normal;font-stretch:normal;font-size:2.82222px;font-family:'Nova Square';-inkscape-font-specification:'Nova Square';fill:#083d45;fill-opacity:1;stroke-width:0.264583"
         d="m 79.226391,86.915855 0.242535,-0.114377 h 0.01378 l 0.253559,0.362424 q 0.0124,-0.0441 0.0124,-0.103353 v -1.11621 q 0,-0.234266 -0.206705,-0.234266 h -0.42719 q -0.206705,0 -0.206705,0.234266 v 1.11621 q 0,0.234266 0.206705,0.234266 h 0.376204 z m -0.111621,0.627007 q -0.482313,0 -0.482313,-0.482313 v -1.11621 q 0,-0.482313 0.482313,-0.482313 h 0.427192 q 0.482313,0 0.482313,0.482313 v 1.11621 q 0,0.232888 -0.112999,0.354155 l 0.04823,0.0689 -0.242535,0.114377 h -0.01378 l -0.0441,-0.06339 q -0.05512,0.0083 -0.117133,0.0083 z" />
      <path
         id="path4156"
         style="font-style:normal;font-variant:normal;font-weight:normal;font-stretch:normal;font-size:2.82222px;font-family:'Nova Square';-inkscape-font-specification:'Nova Square';fill:#083d45;fill-opacity:1;stroke-width:0.264583"
         d="m 80.928267,87.542862 q -0.482313,0 -0.482313,-0.482313 v -1.529621 l 0.261827,-0.124024 h 0.01378 v 1.653645 q 0,0.234266 0.206706,0.234266 h 0.427191 q 0.206706,0 0.206706,-0.234266 v -1.529621 l 0.261827,-0.124024 h 0.01378 v 1.653645 q 0,0.482313 -0.482313,0.482313 z" />
      <path
         id="path4158"
         style="font-style:normal;font-variant:normal;font-weight:normal;font-stretch:normal;font-size:2.82222px;font-family:'Nova Square';-inkscape-font-specification:'Nova Square';fill:#083d45;fill-opacity:1;stroke-width:0.264583"
         d="m 82.25945,87.542862 v -2.011934 l 0.146072,-0.0689 h 0.873676 v 0.01378 l -0.111621,0.237023 h -0.63252 v 0.664214 h 0.744141 v 0.01378 l -0.111621,0.237022 h -0.63252 v 0.664214 h 0.974273 v 0.01378 l -0.111621,0.237022 z" />
      <path
         id="path4160"
         style="font-style:normal;font-variant:normal;font-weight:normal;font-stretch:normal;font-size:2.82222px;font-family:'Nova Square';-inkscape-font-specification:'Nova Square';fill:#083d45;fill-opacity:1;stroke-width:0.264583"
         d="m 84.202482,87.542862 q -0.482313,0 -0.482313,-0.482313 v -1.529621 l 0.261827,-0.124024 h 0.01378 v 1.653645 q 0,0.234266 0.206706,0.234266 h 0.427191 q 0.206706,0 0.206706,-0.234266 v -1.529621 l 0.261827,-0.124024 h 0.01378 v 1.653645 q 0,0.482313 -0.482313,0.482313 z" />
      <path
         id="path4162"
         style="font-style:normal;font-variant:normal;font-weight:normal;font-stretch:normal;font-size:2.82222px;font-family:'Nova Square';-inkscape-font-specification:'Nova Square';fill:#083d45;fill-opacity:1;stroke-width:0.264583"
         d="m 85.533666,87.542862 v -2.011934 l 0.146071,-0.0689 h 0.873676 v 0.01378 l -0.111621,0.237023 h -0.632519 v 0.664214 h 0.74414 v 0.01378 l -0.111621,0.237022 h -0.632519 v 0.664214 h 0.974272 v 0.01378 l -0.111621,0.237022 z" />
    </g>
    <g
       style="font-style:normal;font-variant:normal;font-weight:normal;font-stretch:normal;font-size:2.82222px;line-height:1.25;font-family:'Noto Serif Armenian';-inkscape-font-specification:'Noto Serif Armenian';letter-spacing:-0.132292px;display:inline;fill:#083d45;fill-opacity:1;stroke:none;stroke-width:0.264583"
       id="g4174"
       aria-label="NEXT"
       transform="translate(100,4)">
      <path
         id="path4166"
         style="font-style:normal;font-variant:normal;font-weight:normal;font-stretch:normal;font-size:2.82222px;font-family:'Nova Square';-inkscape-font-specification:'Nova Square';fill:#083d45;fill-opacity:1;stroke-width:0.264583"
         d="m 88.811664,87.597983 v -1.653644 q 0,-0.482313 0.482313,-0.482313 h 0.427191 q 0.482313,0 0.482313,0.482313 v 1.529621 l -0.261827,0.124023 h -0.01378 v -1.653644 q 0,-0.234266 -0.206706,-0.234266 h -0.427191 q -0.206706,0 -0.206706,0.234266 v 1.529621 l -0.261827,0.124023 z" />
      <path
         id="path4168"
         style="font-style:normal;font-variant:normal;font-weight:normal;font-stretch:normal;font-size:2.82222px;font-family:'Nova Square';-inkscape-font-specification:'Nova Square';fill:#083d45;fill-opacity:1;stroke-width:0.264583"
         d="m 90.62516,87.542862 v -2.011934 l 0.146072,-0.0689 h 0.873676 v 0.01378 l -0.111621,0.237023 h -0.632519 v 0.664214 h 0.74414 v 0.01378 l -0.111621,0.237022 h -0.632519 v 0.664214 h 0.974272 v 0.01378 l -0.111621,0.237022 z" />
      <path
         id="path4170"
         style="font-style:normal;font-variant:normal;font-weight:normal;font-stretch:normal;font-size:2.82222px;font-family:'Nova Square';-inkscape-font-specification:'Nova Square';fill:#083d45;fill-opacity:1;stroke-width:0.264583"
         d="m 92.121708,87.597983 -0.239778,-0.112999 0.581531,-0.98254 -0.581531,-0.981163 0.241156,-0.114377 h 0.01378 l 0.487825,0.851627 0.487825,-0.851627 h 0.01378 l 0.241157,0.114377 -0.581532,0.981163 0.581532,0.98254 -0.239779,0.112999 h -0.01378 l -0.489203,-0.851627 -0.489203,0.851627 z" />
      <path
         id="path4172"
         style="font-style:normal;font-variant:normal;font-weight:normal;font-stretch:normal;font-size:2.82222px;font-family:'Nova Square';-inkscape-font-specification:'Nova Square';fill:#083d45;fill-opacity:1;stroke-width:0.264583"
         d="m 93.906266,87.597983 v -1.885154 h -0.5898 v -0.01378 l 0.111621,-0.237022 h 1.343586 v 0.01378 l -0.111621,0.237023 h -0.478178 v 1.761131 l -0.261828,0.124023 z" />
    </g>
    <path
       id="path4176"
       style="display:inline;fill:#0b5763;fill-opacity:1;stroke-width:0.0628501"
       d="m 203.208,89.002446 h 9 v 3 h -9 z" />
    <path
       d="m 212.79167,89.002 h 8 v 3 h -8 z"
       style="display:inline;fill:#0b5763;fill-opacity:1;stroke-width:0.0592557"
       id="path4178" />
    <g
       style="font-style:normal;font-variant:normal;font-weight:normal;font-stretch:normal;font-size:2.82222px;line-height:1.25;font-family:'Noto Serif Armenian';-inkscape-font-specification:'Noto Serif Armenian';letter-spacing:-0.132292px;display:inline;fill:#083d45;fill-opacity:1;stroke:none;stroke-width:0.264583"
       id="g4190"
       aria-label="QUEUE"
       transform="translate(125,4)">
      <path
         id="path4180"
         style="font-style:normal;font-variant:normal;font-weight:normal;font-stretch:normal;font-size:2.82222px;font-family:'Nova Square';-inkscape-font-specification:'Nova Square';fill:#083d45;fill-opacity:1;stroke-width:0.264583"
         d="m 79.226391,86.915855 0.242535,-0.114377 h 0.01378 l 0.253559,0.362424 q 0.0124,-0.0441 0.0124,-0.103353 v -1.11621 q 0,-0.234266 -0.206705,-0.234266 h -0.42719 q -0.206705,0 -0.206705,0.234266 v 1.11621 q 0,0.234266 0.206705,0.234266 h 0.376204 z m -0.111621,0.627007 q -0.482313,0 -0.482313,-0.482313 v -1.11621 q 0,-0.482313 0.482313,-0.482313 h 0.427192 q 0.482313,0 0.482313,0.482313 v 1.11621 q 0,0.232888 -0.112999,0.354155 l 0.04823,0.0689 -0.242535,0.114377 h -0.01378 l -0.0441,-0.06339 q -0.05512,0.0083 -0.117133,0.0083 z" />
      <path
         id="path4182"
         style="font-style:normal;font-variant:normal;font-weight:normal;font-stretch:normal;font-size:2.82222px;font-family:'Nova Square';-inkscape-font-specification:'Nova Square';fill:#083d45;fill-opacity:1;stroke-width:0.264583"
         d="m 80.928267,87.542862 q -0.482313,0 -0.482313,-0.482313 v -1.529621 l 0.261827,-0.124024 h 0.01378 v 1.653645 q 0,0.234266 0.206706,0.234266 h 0.427191 q 0.206706,0 0.206706,-0.234266 v -1.529621 l 0.261827,-0.124024 h 0.01378 v 1.653645 q 0,0.482313 -0.482313,0.482313 z" />
      <path
         id="path4184"
         style="font-style:normal;font-variant:normal;font-weight:normal;font-stretch:normal;font-size:2.82222px;font-family:'Nova Square';-inkscape-font-specification:'Nova Square';fill:#083d45;fill-opacity:1;stroke-width:0.264583"
         d="m 82.25945,87.542862 v -2.011934 l 0.146072,-0.0689 h 0.873676 v 0.01378 l -0.111621,0.237023 h -0.63252 v 0.664214 h 0.744141 v 0.01378 l -0.111621,0.237022 h -0.63252 v 0.664214 h 0.974273 v 0.01378 l -0.111621,0.237022 z" />
      <path
         id="path4186"
         style="font-style:normal;font-variant:normal;font-weight:normal;font-stretch:normal;font-size:2.82222px;font-family:'Nova Square';-inkscape-font-specification:'Nova Square';fill:#083d45;fill-opacity:1;stroke-width:0.264583"
         d="m 84.202482,87.542862 q -0.482313,0 -0.482313,-0.482313 v -1.529621 l 0.261827,-0.124024 h 0.01378 v 1.653645 q 0,0.234266 0.206706,0.234266 h 0.427191 q 0.206706,0 0.206706,-0.234266 v -1.529621 l 0.261827,-0.124024 h 0.01378 v 1.653645 q 0,0.482313 -0.482313,0.482313 z" />
      <path
         id="path4188"
         style="font-style:normal;font-variant:normal;font-weight:normal;font-stretch:normal;font-size:2.82222px;font-family:'Nova Square';-inkscape-font-specification:'Nova Square';fill:#083d45;fill-opacity:1;stroke-width:0.264583"
         d="m 85.533666,87.542862 v -2.011934 l 0.146071,-0.0689 h 0.873676 v 0.01378 l -0.111621,0.237023 h -0.632519 v 0.664214 h 0.74414 v 0.01378 l -0.111621,0.237022 h -0.632519 v 0.664214 h 0.974272 v 0.01378 l -0.111621,0.237022 z" />
    </g>
    <g
       style="font-style:normal;font-variant:normal;font-weight:normal;font-stretch:normal;font-size:2.82222px;line-height:1.25;font-family:'Noto Serif Armenian';-inkscape-font-specification:'Noto Serif Armenian';letter-spacing:-0.132292px;display:inline;fill:#083d45;fill-opacity:1;stroke:none;stroke-width:0.264583"
       id="g4200"
       aria-label="NEXT"
       transform="translate(125,4)">
      <path
         id="path4192"
         style="font-style:normal;font-variant:normal;font-weight:normal;font-stretch:normal;font-size:2.82222px;font-family:'Nova Square';-inkscape-font-specification:'Nova Square';fill:#083d45;fill-opacity:1;stroke-width:0.264583"
         d="m 88.811664,87.597983 v -1.653644 q 0,-0.482313 0.482313,-0.482313 h 0.427191 q 0.482313,0 0.482313,0.482313 v 1.529621 l -0.261827,0.124023 h -0.01378 v -1.653644 q 0,-0.234266 -0.206706,-0.234266 h -0.427191 q -0.206706,0 -0.206706,0.234266 v 1.529621 l -0.261827,0.124023 z" />
      <path
         id="path4194"
         style="font-style:normal;font-variant:normal;font-weight:normal;font-stretch:normal;font-size:2.82222px;font-family:'Nova Square';-inkscape-font-specification:'Nova Square';fill:#083d45;fill-opacity:1;stroke-width:0.264583"
         d="m 90.62516,87.542862 v -2.011934 l 0.146072,-0.0689 h 0.873676 v 0.01378 l -0.111621,0.237023 h -0.632519 v 0.664214 h 0.74414 v 0.01378 l -0.111621,0.237022 h -0.632519 v 0.664214 h 0.974272 v 0.01378 l -0.111621,0.237022 z" />
      <path
         id="path4196"
         style="font-style:normal;font-variant:normal;font-weight:normal;font-stretch:normal;font-size:2.82222px;font-family:'Nova Square';-inkscape-font-specification:'Nova Square';fill:#083d45;fill-opacity:1;stroke-width:0.264583"
         d="m 92.121708,87.597983 -0.239778,-0.112999 0.581531,-0.98254 -0.581531,-0.981163 0.241156,-0.114377 h 0.01378 l 0.487825,0.851627 0.487825,-0.851627 h 0.01378 l 0.241157,0.114377 -0.581532,0.981163 0.581532,0.98254 -0.239779,0.112999 h -0.01378 l -0.489203,-0.851627 -0.489203,0.851627 z" />
      <path
         id="path4198"
         style="font-style:normal;font-variant:normal;font-weight:normal;font-stretch:normal;font-size:2.82222px;font-family:'Nova Square';-inkscape-font-specification:'Nova Square';fill:#083d45;fill-opacity:1;stroke-width:0.264583"
         d="m 93.906266,87.597983 v -1.885154 h -0.5898 v -0.01378 l 0.111621,-0.237022 h 1.343586 v 0.01378 l -0.111621,0.237023 h -0.478178 v 1.761131 l -0.261828,0.124023 z" />
    </g>
    <path
       d="m 228.208,89.002446 h 9 v 3 h -9 z"
       style="display:inline;fill:#0b5763;fill-opacity:1;stroke-width:0.0628501"
       id="path4202" />
    <path
       id="path4204"
       style="display:inline;fill:#0b5763;fill-opacity:1;stroke-width:0.0592557"
       d="m 237.79167,89.002 h 8 v 3 h -8 z" />
    <g
       transform="translate(150,4)"
       aria-label="QUEUE"
       id="g4216"
       style="font-style:normal;font-variant:normal;font-weight:normal;font-stretch:normal;font-size:2.82222px;line-height:1.25;font-family:'Noto Serif Armenian';-inkscape-font-specification:'Noto Serif Armenian';letter-spacing:-0.132292px;display:inline;fill:#083d45;fill-opacity:1;stroke:none;stroke-width:0.264583">
      <path
         d="m 79.226391,86.915855 0.242535,-0.114377 h 0.01378 l 0.253559,0.362424 q 0.0124,-0.0441 0.0124,-0.103353 v -1.11621 q 0,-0.234266 -0.206705,-0.234266 h -0.42719 q -0.206705,0 -0.206705,0.234266 v 1.11621 q 0,0.234266 0.206705,0.234266 h 0.376204 z m -0.111621,0.627007 q -0.482313,0 -0.482313,-0.482313 v -1.11621 q 0,-0.482313 0.482313,-0.482313 h 0.427192 q 0.482313,0 0.482313,0.482313 v 1.11621 q 0,0.232888 -0.112999,0.354155 l 0.04823,0.0689 -0.242535,0.114377 h -0.01378 l -0.0441,-0.06339 q -0.05512,0.0083 -0.117133,0.0083 z"
         style="font-style:normal;font-variant:normal;font-weight:normal;font-stretch:normal;font-size:2.82222px;font-family:'Nova Square';-inkscape-font-specification:'Nova Square';fill:#083d45;fill-opacity:1;stroke-width:0.264583"
         id="path4206" />
      <path
         d="m 80.928267,87.542862 q -0.482313,0 -0.482313,-0.482313 v -1.529621 l 0.261827,-0.124024 h 0.01378 v 1.653645 q 0,0.234266 0.206706,0.234266 h 0.427191 q 0.206706,0 0.206706,-0.234266 v -1.529621 l 0.261827,-0.124024 h 0.01378 v 1.653645 q 0,0.482313 -0.482313,0.482313 z"
         style="font-style:normal;font-variant:normal;font-weight:normal;font-stretch:normal;font-size:2.82222px;font-family:'Nova Square';-inkscape-font-specification:'Nova Square';fill:#083d45;fill-opacity:1;stroke-width:0.264583"
         id="path4208" />
      <path
         d="m 82.25945,87.542862 v -2.011934 l 0.146072,-0.0689 h 0.873676 v 0.01378 l -0.111621,0.237023 h -0.63252 v 0.664214 h 0.744141 v 0.01378 l -0.111621,0.237022 h -0.63252 v 0.664214 h 0.974273 v 0.01378 l -0.111621,0.237022 z"
         style="font-style:normal;font-variant:normal;font-weight:normal;font-stretch:normal;font-size:2.82222px;font-family:'Nova Square';-inkscape-font-specification:'Nova Square';fill:#083d45;fill-opacity:1;stroke-width:0.264583"
         id="path4210" />
      <path
         d="m 84.202482,87.542862 q -0.482313,0 -0.482313,-0.482313 v -1.529621 l 0.261827,-0.124024 h 0.01378 v 1.653645 q 0,0.234266 0.206706,0.234266 h 0.427191 q 0.206706,0 0.206706,-0.234266 v -1.529621 l 0.261827,-0.124024 h 0.01378 v 1.653645 q 0,0.482313 -0.482313,0.482313 z"
         style="font-style:normal;font-variant:normal;font-weight:normal;font-stretch:normal;font-size:2.82222px;font-family:'Nova Square';-inkscape-font-specification:'Nova Square';fill:#083d45;fill-opacity:1;stroke-width:0.264583"
         id="path4212" />
      <path
         d="m 85.533666,87.542862 v -2.011934 l 0.146071,-0.0689 h 0.873676 v 0.01378 l -0.111621,0.237023 h -0.632519 v 0.664214 h 0.74414 v 0.01378 l -0.111621,0.237022 h -0.632519 v 0.664214 h 0.974272 v 0.01378 l -0.111621,0.237022 z"
         style="font-style:normal;font-variant:normal;font-weight:normal;font-stretch:normal;font-size:2.82222px;font-family:'Nova Square';-inkscape-font-specification:'Nova Square';fill:#083d45;fill-opacity:1;stroke-width:0.264583"
         id="path4214" />
    </g>
    <g
       transform="translate(150,4)"
       aria-label="NEXT"
       id="g4226"
       style="font-style:normal;font-variant:normal;font-weight:normal;font-stretch:normal;font-size:2.82222px;line-height:1.25;font-family:'Noto Serif Armenian';-inkscape-font-specification:'Noto Serif Armenian';letter-spacing:-0.132292px;display:inline;fill:#083d45;fill-opacity:1;stroke:none;stroke-width:0.264583">
      <path
         d="m 88.811664,87.597983 v -1.653644 q 0,-0.482313 0.482313,-0.482313 h 0.427191 q 0.482313,0 0.482313,0.482313 v 1.529621 l -0.261827,0.124023 h -0.01378 v -1.653644 q 0,-0.234266 -0.206706,-0.234266 h -0.427191 q -0.206706,0 -0.206706,0.234266 v 1.529621 l -0.261827,0.124023 z"
         style="font-style:normal;font-variant:normal;font-weight:normal;font-stretch:normal;font-size:2.82222px;font-family:'Nova Square';-inkscape-font-specification:'Nova Square';fill:#083d45;fill-opacity:1;stroke-width:0.264583"
         id="path4218" />
      <path
         d="m 90.62516,87.542862 v -2.011934 l 0.146072,-0.0689 h 0.873676 v 0.01378 l -0.111621,0.237023 h -0.632519 v 0.664214 h 0.74414 v 0.01378 l -0.111621,0.237022 h -0.632519 v 0.664214 h 0.974272 v 0.01378 l -0.111621,0.237022 z"
         style="font-style:normal;font-variant:normal;font-weight:normal;font-stretch:normal;font-size:2.82222px;font-family:'Nova Square';-inkscape-font-specification:'Nova Square';fill:#083d45;fill-opacity:1;stroke-width:0.264583"
         id="path4220" />
      <path
         d="m 92.121708,87.597983 -0.239778,-0.112999 0.581531,-0.98254 -0.581531,-0.981163 0.241156,-0.114377 h 0.01378 l 0.487825,0.851627 0.487825,-0.851627 h 0.01378 l 0.241157,0.114377 -0.581532,0.981163 0.581532,0.98254 -0.239779,0.112999 h -0.01378 l -0.489203,-0.851627 -0.489203,0.851627 z"
         style="font-style:normal;font-variant:normal;font-weight:normal;font-stretch:normal;font-size:2.82222px;font-family:'Nova Square';-inkscape-font-specification:'Nova Square';fill:#083d45;fill-opacity:1;stroke-width:0.264583"
         id="path4222" />
      <path
         d="m 93.906266,87.597983 v -1.885154 h -0.5898 v -0.01378 l 0.111621,-0.237022 h 1.343586 v 0.01378 l -0.111621,0.237023 h -0.478178 v 1.761131 l -0.261828,0.124023 z"
         style="font-style:normal;font-variant:normal;font-weight:normal;font-stretch:normal;font-size:2.82222px;font-family:'Nova Square';-inkscape-font-specification:'Nova Square';fill:#083d45;fill-opacity:1;stroke-width:0.264583"
         id="path4224" />
    </g>
    <path
       id="path2234"
       style="display:inline;fill:#0b5763;fill-opacity:1;stroke-width:0.0628501"
       d="m 53.208,89.002446 h 9 v 3 h -9 z" />
    <path
       d="m 62.791668,89.002 h 8 v 3 h -8 z"
       style="display:inline;fill:#0b5763;fill-opacity:1;stroke-width:0.0592557"
       id="path2236" />
    <g
       transform="translate(-25,4)"
       style="font-style:normal;font-variant:normal;font-weight:normal;font-stretch:normal;font-size:2.82222px;line-height:1.25;font-family:'Noto Serif Armenian';-inkscape-font-specification:'Noto Serif Armenian';letter-spacing:-0.132292px;display:inline;fill:#083d45;fill-opacity:1;stroke:none;stroke-width:0.264583"
       id="g2248"
       aria-label="QUEUE">
      <path
         id="path2238"
         style="font-style:normal;font-variant:normal;font-weight:normal;font-stretch:normal;font-size:2.82222px;font-family:'Nova Square';-inkscape-font-specification:'Nova Square';fill:#083d45;fill-opacity:1;stroke-width:0.264583"
         d="m 79.226391,86.915855 0.242535,-0.114377 h 0.01378 l 0.253559,0.362424 q 0.0124,-0.0441 0.0124,-0.103353 v -1.11621 q 0,-0.234266 -0.206705,-0.234266 h -0.42719 q -0.206705,0 -0.206705,0.234266 v 1.11621 q 0,0.234266 0.206705,0.234266 h 0.376204 z m -0.111621,0.627007 q -0.482313,0 -0.482313,-0.482313 v -1.11621 q 0,-0.482313 0.482313,-0.482313 h 0.427192 q 0.482313,0 0.482313,0.482313 v 1.11621 q 0,0.232888 -0.112999,0.354155 l 0.04823,0.0689 -0.242535,0.114377 h -0.01378 l -0.0441,-0.06339 q -0.05512,0.0083 -0.117133,0.0083 z" />
      <path
         id="path2240"
         style="font-style:normal;font-variant:normal;font-weight:normal;font-stretch:normal;font-size:2.82222px;font-family:'Nova Square';-inkscape-font-specification:'Nova Square';fill:#083d45;fill-opacity:1;stroke-width:0.264583"
         d="m 80.928267,87.542862 q -0.482313,0 -0.482313,-0.482313 v -1.529621 l 0.261827,-0.124024 h 0.01378 v 1.653645 q 0,0.234266 0.206706,0.234266 h 0.427191 q 0.206706,0 0.206706,-0.234266 v -1.529621 l 0.261827,-0.124024 h 0.01378 v 1.653645 q 0,0.482313 -0.482313,0.482313 z" />
      <path
         id="path2242"
         style="font-style:normal;font-variant:normal;font-weight:normal;font-stretch:normal;font-size:2.82222px;font-family:'Nova Square';-inkscape-font-specification:'Nova Square';fill:#083d45;fill-opacity:1;stroke-width:0.264583"
         d="m 82.25945,87.542862 v -2.011934 l 0.146072,-0.0689 h 0.873676 v 0.01378 l -0.111621,0.237023 h -0.63252 v 0.664214 h 0.744141 v 0.01378 l -0.111621,0.237022 h -0.63252 v 0.664214 h 0.974273 v 0.01378 l -0.111621,0.237022 z" />
      <path
         id="path2244"
         style="font-style:normal;font-variant:normal;font-weight:normal;font-stretch:normal;font-size:2.82222px;font-family:'Nova Square';-inkscape-font-specification:'Nova Square';fill:#083d45;fill-opacity:1;stroke-width:0.264583"
         d="m 84.202482,87.542862 q -0.482313,0 -0.482313,-0.482313 v -1.529621 l 0.261827,-0.124024 h 0.01378 v 1.653645 q 0,0.234266 0.206706,0.234266 h 0.427191 q 0.206706,0 0.206706,-0.234266 v -1.529621 l 0.261827,-0.124024 h 0.01378 v 1.653645 q 0,0.482313 -0.482313,0.482313 z" />
      <path
         id="path2246"
         style="font-style:normal;font-variant:normal;font-weight:normal;font-stretch:normal;font-size:2.82222px;font-family:'Nova Square';-inkscape-font-specification:'Nova Square';fill:#083d45;fill-opacity:1;stroke-width:0.264583"
         d="m 85.533666,87.542862 v -2.011934 l 0.146071,-0.0689 h 0.873676 v 0.01378 l -0.111621,0.237023 h -0.632519 v 0.664214 h 0.74414 v 0.01378 l -0.111621,0.237022 h -0.632519 v 0.664214 h 0.974272 v 0.01378 l -0.111621,0.237022 z" />
    </g>
    <g
       transform="translate(-25,4)"
       style="font-style:normal;font-variant:normal;font-weight:normal;font-stretch:normal;font-size:2.82222px;line-height:1.25;font-family:'Noto Serif Armenian';-inkscape-font-specification:'Noto Serif Armenian';letter-spacing:-0.132292px;display:inline;fill:#083d45;fill-opacity:1;stroke:none;stroke-width:0.264583"
       id="g2258"
       aria-label="NEXT">
      <path
         id="path2250"
         style="font-style:normal;font-variant:normal;font-weight:normal;font-stretch:normal;font-size:2.82222px;font-family:'Nova Square';-inkscape-font-specification:'Nova Square';fill:#083d45;fill-opacity:1;stroke-width:0.264583"
         d="m 88.811664,87.597983 v -1.653644 q 0,-0.482313 0.482313,-0.482313 h 0.427191 q 0.482313,0 0.482313,0.482313 v 1.529621 l -0.261827,0.124023 h -0.01378 v -1.653644 q 0,-0.234266 -0.206706,-0.234266 h -0.427191 q -0.206706,0 -0.206706,0.234266 v 1.529621 l -0.261827,0.124023 z" />
      <path
         id="path2252"
         style="font-style:normal;font-variant:normal;font-weight:normal;font-stretch:normal;font-size:2.82222px;font-family:'Nova Square';-inkscape-font-specification:'Nova Square';fill:#083d45;fill-opacity:1;stroke-width:0.264583"
         d="m 90.62516,87.542862 v -2.011934 l 0.146072,-0.0689 h 0.873676 v 0.01378 l -0.111621,0.237023 h -0.632519 v 0.664214 h 0.74414 v 0.01378 l -0.111621,0.237022 h -0.632519 v 0.664214 h 0.974272 v 0.01378 l -0.111621,0.237022 z" />
      <path
         id="path2254"
         style="font-style:normal;font-variant:normal;font-weight:normal;font-stretch:normal;font-size:2.82222px;font-family:'Nova Square';-inkscape-font-specification:'Nova Square';fill:#083d45;fill-opacity:1;stroke-width:0.264583"
         d="m 92.121708,87.597983 -0.239778,-0.112999 0.581531,-0.98254 -0.581531,-0.981163 0.241156,-0.114377 h 0.01378 l 0.487825,0.851627 0.487825,-0.851627 h 0.01378 l 0.241157,0.114377 -0.581532,0.981163 0.581532,0.98254 -0.239779,0.112999 h -0.01378 l -0.489203,-0.851627 -0.489203,0.851627 z" />
      <path
         id="path2256"
         style="font-style:normal;font-variant:normal;font-weight:normal;font-stretch:normal;font-size:2.82222px;font-family:'Nova Square';-inkscape-font-specification:'Nova Square';fill:#083d45;fill-opacity:1;stroke-width:0.264583"
         d="m 93.906266,87.597983 v -1.885154 h -0.5898 v -0.01378 l 0.111621,-0.237022 h 1.343586 v 0.01378 l -0.111621,0.237023 h -0.478178 v 1.761131 l -0.261828,0.124023 z" />
    </g>
  </g>
</svg>
