<?xml version="1.0" encoding="UTF-8" standalone="no"?>
<!-- Created with Inkscape (http://www.inkscape.org/) -->

<svg
   xmlns:osb="http://www.openswatchbook.org/uri/2009/osb"
   xmlns:dc="http://purl.org/dc/elements/1.1/"
   xmlns:cc="http://creativecommons.org/ns#"
   xmlns:rdf="http://www.w3.org/1999/02/22-rdf-syntax-ns#"
   xmlns:svg="http://www.w3.org/2000/svg"
   xmlns="http://www.w3.org/2000/svg"
   xmlns:xlink="http://www.w3.org/1999/xlink"
   xmlns:sodipodi="http://sodipodi.sourceforge.net/DTD/sodipodi-0.dtd"
   xmlns:inkscape="http://www.inkscape.org/namespaces/inkscape"
   width="15.24mm"
   height="128.5mm"
   viewBox="0 0 15.240001 128.50002"
   version="1.1"
   id="svg8"
   inkscape:version="0.92.4 (5da689c313, 2019-01-14)"
   sodipodi:docname="Splirge.svg"
   style="enable-background:new">
  <defs
     id="defs2">
    <linearGradient
       id="PanelDecoration"
       osb:paint="solid">
      <stop
         style="stop-color:#61aeb0;stop-opacity:1;"
         offset="0"
         id="stop9346" />
    </linearGradient>
    <linearGradient
       id="linearGradient9340">
      <stop
         style="stop-color:#61aeb0;stop-opacity:1;"
         offset="0"
         id="stop9338" />
    </linearGradient>
    <linearGradient
       id="Decoration">
      <stop
         style="stop-color:#151515;stop-opacity:1;"
         offset="0"
         id="stop9332" />
    </linearGradient>
    <linearGradient
       id="Input"
       osb:paint="solid">
      <stop
         style="stop-color:#00ff00;stop-opacity:1;"
         offset="0"
         id="stop916" />
    </linearGradient>
    <linearGradient
       id="Output"
       osb:paint="solid">
      <stop
         style="stop-color:#0000ff;stop-opacity:1;"
         offset="0"
         id="stop910" />
    </linearGradient>
    <linearGradient
       inkscape:collect="always"
       id="linearGradient7667">
      <stop
         style="stop-color:#76bfbe;stop-opacity:1;"
         offset="0"
         id="stop7663" />
      <stop
         style="stop-color:#469ca9;stop-opacity:1"
         offset="1"
         id="stop7665" />
    </linearGradient>
    <linearGradient
       id="YellowYay"
       osb:paint="solid"
       gradientTransform="translate(3.2334699,2.1281701)">
      <stop
         style="stop-color:#ffcc03;stop-opacity:1;"
         offset="0"
         id="stop7643" />
    </linearGradient>
    <linearGradient
       id="DarkestBlue"
       osb:paint="solid">
      <stop
         style="stop-color:#083d45;stop-opacity:1;"
         offset="0"
         id="stop7635" />
    </linearGradient>
    <linearGradient
       id="DarkerBlue"
       osb:paint="solid"
       gradientTransform="matrix(-0.00129663,0,0,-0.00129663,28.427591,50.471823)">
      <stop
         style="stop-color:#0e6977;stop-opacity:1;"
         offset="0"
         id="stop7623" />
    </linearGradient>
    <linearGradient
       id="DarkBlue"
       osb:paint="solid"
       gradientTransform="matrix(0.11938174,0,0,0.11938174,0.74012818,36.159418)">
      <stop
         style="stop-color:#469ca9;stop-opacity:1;"
         offset="0"
         id="stop7617" />
    </linearGradient>
    <linearGradient
       id="LightBlue"
       osb:paint="solid"
       gradientTransform="translate(-62.499998,-5.3071643)">
      <stop
         style="stop-color:#76bfbe;stop-opacity:1;"
         offset="0"
         id="stop7611" />
    </linearGradient>
    <linearGradient
       id="LightestBlue"
       osb:paint="solid">
      <stop
         style="stop-color:#c1f0f2;stop-opacity:1;"
         offset="0"
         id="stop7605" />
    </linearGradient>
    <linearGradient
       id="Pink"
       osb:paint="solid"
       gradientTransform="matrix(1,0,0,0.8,1.9227906e-7,31.699973)">
      <stop
         style="stop-color:#fcaebb;stop-opacity:1;"
         offset="0"
         id="stop7599" />
    </linearGradient>
    <linearGradient
       inkscape:collect="always"
       xlink:href="#linearGradient7667"
       id="linearGradient7669"
       x1="2.4786801e-15"
       y1="273.23123"
       x2="3.8719248e-15"
       y2="295.98538"
       gradientUnits="userSpaceOnUse" />
    <linearGradient
       inkscape:collect="always"
       xlink:href="#YellowYay"
       id="linearGradient7673"
       gradientUnits="userSpaceOnUse"
       gradientTransform="translate(-24.31172,-15.735334)"
       x1="24.31172"
       y1="194.23528"
       x2="39.55172"
       y2="194.23528" />
    <linearGradient
       inkscape:collect="always"
       xlink:href="#PanelDecoration"
       id="linearGradient9352"
       gradientUnits="userSpaceOnUse"
       x1="-0.00828637"
       y1="65.226334"
       x2="15.275944"
       y2="65.226334" />
  </defs>
  <sodipodi:namedview
     id="base"
     pagecolor="#ffffff"
     bordercolor="#666666"
     borderopacity="1.0"
     inkscape:pageopacity="0.0"
     inkscape:pageshadow="2"
     inkscape:zoom="8.0000004"
     inkscape:cx="22.965771"
     inkscape:cy="248.38892"
     inkscape:document-units="mm"
     inkscape:current-layer="layer4"
     showgrid="false"
     units="mm"
     inkscape:snap-bbox="true"
     inkscape:snap-page="true"
     inkscape:bbox-nodes="false"
     inkscape:snap-bbox-edge-midpoints="false"
     inkscape:window-width="1920"
     inkscape:window-height="1019"
     inkscape:window-x="-4"
     inkscape:window-y="387"
     inkscape:window-maximized="1"
     inkscape:snap-bbox-midpoints="true"
     inkscape:snap-nodes="false"
     showguides="false" />
  <metadata
     id="metadata5">
    <rdf:RDF>
      <cc:Work
         rdf:about="">
        <dc:format>image/svg+xml</dc:format>
        <dc:type
           rdf:resource="http://purl.org/dc/dcmitype/StillImage" />
        <dc:title />
      </cc:Work>
    </rdf:RDF>
  </metadata>
  <g
     inkscape:label="Background"
     inkscape:groupmode="layer"
     id="layer1"
     transform="translate(0,-168.49998)"
     style="display:inline">
    <rect
       style="display:inline;opacity:1;vector-effect:none;fill:url(#linearGradient7669);fill-opacity:1;fill-rule:evenodd;stroke:none;stroke-width:0.45916572;stroke-linecap:butt;stroke-linejoin:miter;stroke-miterlimit:4;stroke-dasharray:none;stroke-dashoffset:0;stroke-opacity:1;paint-order:normal"
       id="rect420"
       width="15.24"
       height="128.5"
       x="7.9472858e-07"
       y="168.49997" />
    <flowRoot
       xml:space="preserve"
       id="flowRoot7228"
       style="font-style:normal;font-variant:normal;font-weight:normal;font-stretch:normal;font-size:40px;line-height:1.25;font-family:'Segoe UI Historic';-inkscape-font-specification:'Segoe UI Historic';letter-spacing:0px;word-spacing:0px;fill:#000000;fill-opacity:1;stroke:none"
       transform="matrix(0.26458333,0,0,0.26458333,0,168.49998)"><flowRegion
         id="flowRegion7230"><rect
           id="rect7232"
           width="224.28572"
           height="60.714287"
           x="5.7142859"
           y="92.097855" /></flowRegion><flowPara
         id="flowPara7234" /></flowRoot>    <flowRoot
       xml:space="preserve"
       id="flowRoot7236"
       style="font-style:normal;font-variant:normal;font-weight:normal;font-stretch:normal;font-size:40px;line-height:1.25;font-family:'Segoe UI Historic';-inkscape-font-specification:'Segoe UI Historic';letter-spacing:0px;word-spacing:0px;fill:#000000;fill-opacity:1;stroke:none"><flowRegion
         id="flowRegion7238"><rect
           id="rect7240"
           width="356.42856"
           height="270.71429"
           x="100.71429"
           y="71.383568" /></flowRegion><flowPara
         id="flowPara7242" /></flowRoot>    <rect
       y="173.49998"
       x="0"
       height="10"
       width="15.24"
       id="rect7671"
       style="display:inline;opacity:0.98000004;fill:url(#linearGradient7673);fill-opacity:1;stroke:none;stroke-width:0.77764034;stroke-miterlimit:4;stroke-dasharray:none;stroke-opacity:1;paint-order:stroke fill markers;enable-background:new" />
    <rect
       style="opacity:0.98000004;fill:url(#Pink);fill-opacity:1;stroke:none;stroke-width:0.44721359;stroke-miterlimit:4;stroke-dasharray:none;stroke-opacity:1;paint-order:stroke fill markers"
       id="rect7491"
       width="15.24"
       height="8"
       x="3.1086242e-16"
       y="174.49998" />
    <g
       aria-label="Splirge"
       style="font-style:normal;font-variant:normal;font-weight:normal;font-stretch:normal;font-size:4.23333311px;line-height:1.25;font-family:'Segoe UI Historic';-inkscape-font-specification:'Segoe UI Historic';letter-spacing:0px;word-spacing:0px;fill:url(#DarkerBlue);fill-opacity:1;stroke:none;stroke-width:0.26458332"
       id="text7677">
      <path
         d="m 2.4415907,177.33554 q -0.040308,-0.0851 -0.076137,-0.16123 -0.03359,-0.0761 -0.080615,-0.13436 -0.044786,-0.0582 -0.1097263,-0.0918 -0.06494,-0.0336 -0.1657091,-0.0336 -0.078376,0 -0.1388373,0.0291 -0.058222,0.0291 -0.096291,0.0784 -0.038068,0.0493 -0.058222,0.1142 -0.017915,0.0649 -0.017915,0.1366 0,0.0582 0.017915,0.10972 0.017915,0.0515 0.047026,0.0941 0.03135,0.0425 0.069419,0.0784 0.038068,0.0336 0.076137,0.056 l 0.5553494,0.32471 q 0.1970594,0.11196 0.3224609,0.23512 0.1254015,0.12316 0.1948201,0.24409 0.071658,0.12092 0.09853,0.23513 0.026872,0.11196 0.03135,0.20377 0,0.24857 -0.085094,0.45458 -0.082855,0.20378 -0.2306492,0.34934 -0.1477946,0.14555 -0.3493326,0.22617 -0.1992988,0.0784 -0.4321873,0.0784 -0.2149739,0 -0.3941189,-0.0649 -0.1791449,-0.0649 -0.3202216,-0.17914 -0.1388374,-0.11645 -0.2418457,-0.2732 -0.10076905,-0.15899 -0.16346978,-0.34261 l 0.56878528,-0.26648 q 0.049265,0.0806 0.107487,0.17914 0.058222,0.0963 0.1298801,0.18139 0.071658,0.0829 0.1634697,0.13884 0.091812,0.056 0.2127347,0.056 0.060461,0 0.1142049,-0.0269 0.055983,-0.0291 0.09629,-0.0761 0.042547,-0.0493 0.067179,-0.10973 0.026872,-0.0627 0.026872,-0.12988 0,-0.13659 -0.067179,-0.2396 -0.06494,-0.10301 -0.1612305,-0.16571 l -0.602375,-0.35605 q -0.1254014,-0.0717 -0.2306491,-0.16347 -0.1030084,-0.0918 -0.1813843,-0.20154 -0.076137,-0.11197 -0.1186835,-0.23961 -0.0425469,-0.12764 -0.0425469,-0.27319 0,-0.22841 0.0806152,-0.41652 0.082855,-0.19034 0.2239312,-0.32693 0.143316,-0.1366 0.3381361,-0.2105 0.1970595,-0.0761 0.4254693,-0.0761 0.3493327,0 0.5978963,0.17915 0.2485637,0.1769 0.3672472,0.51952 l -0.5687853,0.25752 z"
         style="font-style:normal;font-variant:normal;font-weight:normal;font-stretch:normal;font-size:4.58611107px;line-height:13.22916603px;font-family:'Francois One';-inkscape-font-specification:'Francois One';text-align:center;text-anchor:middle;fill:url(#DarkerBlue);stroke-width:0.26458332"
         id="path9354"
         inkscape:connector-curvature="0" />
      <path
         d="m 3.5097425,177.36465 0.6449219,-0.0537 v 0.24856 q 0.053744,-0.0537 0.1142049,-0.10301 0.062701,-0.0515 0.1298801,-0.0896 0.069419,-0.0403 0.1455553,-0.0649 0.076137,-0.0246 0.1567519,-0.0246 0.1769056,0 0.2955891,0.0627 0.1209229,0.0605 0.1970595,0.16347 0.076137,0.10301 0.1142049,0.2396 0.040308,0.13436 0.055983,0.28216 0.015675,0.14555 0.015675,0.29559 0.00224,0.14779 0.00224,0.27991 0,0.12092 -0.00448,0.26872 -0.00448,0.14779 -0.026872,0.29783 -0.020154,0.15003 -0.06494,0.29111 -0.044786,0.14107 -0.1276408,0.2508 -0.080615,0.10973 -0.2037774,0.17691 -0.1231622,0.0649 -0.3023071,0.0649 -0.1254015,0 -0.2172133,-0.0448 -0.091812,-0.0426 -0.1545125,-0.0963 -0.073897,-0.0605 -0.1254015,-0.14108 v 0.89797 l -0.6449219,0.1254 z m 0.9203573,0.3762 q -0.062701,0 -0.1142049,0.0291 -0.049265,0.0269 -0.085094,0.0605 -0.042547,0.0403 -0.076137,0.0896 v 1.33239 q 0.026872,0.0582 0.067179,0.10301 0.03359,0.0381 0.085094,0.0717 0.053743,0.0313 0.1276408,0.0313 0.067179,0 0.1209229,-0.0336 0.055983,-0.0336 0.09629,-0.12764 0.040308,-0.0941 0.062701,-0.262 0.022393,-0.16795 0.022393,-0.43443 0,-0.24184 -0.020154,-0.40531 -0.020154,-0.16571 -0.058222,-0.26648 -0.038068,-0.10077 -0.09629,-0.14332 -0.058222,-0.0448 -0.1321194,-0.0448 z"
         style="font-style:normal;font-variant:normal;font-weight:normal;font-stretch:normal;font-size:4.58611107px;line-height:13.22916603px;font-family:'Francois One';-inkscape-font-specification:'Francois One';text-align:center;text-anchor:middle;fill:url(#DarkerBlue);stroke-width:0.26458332"
         id="path9356"
         inkscape:connector-curvature="0" />
      <path
         d="m 5.8475845,176.53163 0.6449219,-0.0806 v 3.41271 l -0.6449219,0.0538 z"
         style="font-style:normal;font-variant:normal;font-weight:normal;font-stretch:normal;font-size:4.58611107px;line-height:13.22916603px;font-family:'Francois One';-inkscape-font-specification:'Francois One';text-align:center;text-anchor:middle;fill:url(#DarkerBlue);stroke-width:0.26458332"
         id="path9358"
         inkscape:connector-curvature="0" />
      <path
         d="m 7.0478557,177.36465 0.6449218,-0.0537 v 2.55281 l -0.6449218,0.0538 z m 0.6449218,-1.05695 v 0.64492 l -0.6449218,0.0269 v -0.66732 z"
         style="font-style:normal;font-variant:normal;font-weight:normal;font-stretch:normal;font-size:4.58611107px;line-height:13.22916603px;font-family:'Francois One';-inkscape-font-specification:'Francois One';text-align:center;text-anchor:middle;fill:url(#DarkerBlue);stroke-width:0.26458332"
         id="path9360"
         inkscape:connector-curvature="0" />
      <path
         d="m 8.2481268,177.36465 0.6449219,-0.0537 v 0.41427 q 0.055983,-0.0739 0.1321194,-0.15227 0.076137,-0.0806 0.172427,-0.14556 0.09853,-0.0649 0.2172133,-0.10749 0.1186835,-0.0425 0.2597602,-0.0425 0.011196,0 0.024632,0.002 0.013436,0 0.024632,0.002 0.013436,0.002 0.029111,0.004 v 0.76809 q -0.1052477,-0.0314 -0.2127347,-0.0649 -0.1074869,-0.0336 -0.2172132,-0.0336 -0.107487,0 -0.2127347,0.047 -0.1052476,0.047 -0.2172132,0.16795 v 1.69292 l -0.6449219,0.0538 z"
         style="font-style:normal;font-variant:normal;font-weight:normal;font-stretch:normal;font-size:4.58611107px;line-height:13.22916603px;font-family:'Francois One';-inkscape-font-specification:'Francois One';text-align:center;text-anchor:middle;fill:url(#DarkerBlue);stroke-width:0.26458332"
         id="path9362"
         inkscape:connector-curvature="0" />
      <path
         d="m 9.9141747,180.16603 q 0,-0.0649 0.017914,-0.12092 0.020154,-0.056 0.051504,-0.10525 0.03359,-0.047 0.073898,-0.0851 0.04031,-0.0403 0.08285,-0.0717 0.09853,-0.0739 0.226171,-0.12316 -0.107487,-0.0291 -0.192581,-0.0761 -0.03583,-0.0202 -0.07166,-0.047 -0.03359,-0.0269 -0.06046,-0.0582 -0.02687,-0.0336 -0.044787,-0.0739 -0.015675,-0.0403 -0.015675,-0.0873 0,-0.0627 0.020154,-0.12092 0.02239,-0.0605 0.05598,-0.11197 0.03359,-0.0515 0.07614,-0.0963 0.04479,-0.047 0.08957,-0.0851 0.107487,-0.0896 0.244085,-0.15675 -0.116444,-0.0694 -0.206017,-0.16795 -0.03807,-0.0426 -0.07614,-0.0941 -0.03583,-0.0537 -0.06494,-0.11645 -0.02911,-0.0649 -0.04702,-0.13884 -0.01792,-0.0761 -0.01792,-0.16346 0,-0.19259 0.08286,-0.34038 0.08509,-0.14779 0.219453,-0.24632 0.134358,-0.10077 0.302307,-0.15004 0.170187,-0.0515 0.342614,-0.0515 0.123163,0 0.223932,0.0179 0.100769,0.0179 0.179145,0.047 0.08061,0.0291 0.141076,0.0627 0.0627,0.0336 0.109727,0.0649 0.03359,-0.0314 0.08957,-0.0806 0.05822,-0.0515 0.132119,-0.10077 0.0739,-0.0493 0.158992,-0.0829 0.08733,-0.0358 0.174666,-0.0358 0.0112,0 0.02239,0.002 0.0112,0 0.02239,0.002 0.0112,0.002 0.02463,0.004 v 0.54191 q -0.06046,-0.0224 -0.114205,-0.0426 -0.04479,-0.0179 -0.09405,-0.0313 -0.04703,-0.0134 -0.0739,-0.0134 -0.02463,0 -0.04702,0.007 -0.02015,0.007 -0.03807,0.0134 -0.02239,0.009 -0.04031,0.0179 0.02687,0.0672 0.04927,0.13435 0.01791,0.0582 0.03359,0.12541 0.01568,0.0649 0.01568,0.12316 0,0.14108 -0.05822,0.28663 -0.05598,0.14556 -0.167948,0.26648 -0.111966,0.11868 -0.279914,0.19482 -0.165709,0.0739 -0.385162,0.047 -0.08733,0 -0.154512,-0.004 -0.06718,-0.004 -0.114205,-0.004 -0.09405,0.0269 -0.13212,0.0605 -0.03583,0.0314 -0.03583,0.15227 0,0.0649 0.04703,0.10973 0.04703,0.0425 0.114205,0.0515 l 0.609093,0.047 q 0.174666,0.0134 0.313503,0.056 0.141077,0.0403 0.239607,0.12988 0.100769,0.0896 0.152273,0.21274 0.05374,0.12092 0.05374,0.27543 0,0.14556 -0.05374,0.25976 -0.05374,0.11421 -0.145555,0.19706 -0.08957,0.0851 -0.210496,0.14108 -0.118683,0.0582 -0.250802,0.0918 -0.129881,0.0358 -0.264239,0.0515 -0.134359,0.0157 -0.255282,0.0157 -0.261999,0 -0.463537,-0.0403 -0.201539,-0.0381 -0.338137,-0.10749 -0.136598,-0.0694 -0.208258,-0.16571 -0.069419,-0.0963 -0.069419,-0.21273 z m 0.5866993,-0.19482 q 0,0.056 0.02911,0.10077 0.03135,0.0448 0.09853,0.0761 0.06942,0.0336 0.176906,0.0493 0.109726,0.0179 0.266478,0.0179 0.230649,0 0.351572,-0.0761 0.123162,-0.0761 0.123162,-0.2105 0,-0.0739 -0.05374,-0.11644 -0.05374,-0.0448 -0.12988,-0.0649 -0.0739,-0.0224 -0.154513,-0.0291 -0.07838,-0.007 -0.127641,-0.007 h -0.376204 q -0.03583,0.0112 -0.0739,0.0313 -0.03583,0.0202 -0.06494,0.0537 -0.02911,0.0314 -0.04703,0.0761 -0.01792,0.0426 -0.01792,0.0985 z m 0.199299,-1.93029 q 0,0.0739 0.0112,0.15228 0.0112,0.0784 0.04255,0.14331 0.03359,0.0649 0.09181,0.10749 0.06046,0.0403 0.156751,0.0403 0.13212,0 0.208256,-0.10973 0.07838,-0.11197 0.07838,-0.32022 0,-0.10077 -0.02463,-0.17243 -0.02239,-0.0739 -0.0627,-0.12092 -0.04031,-0.047 -0.09405,-0.0694 -0.0515,-0.0246 -0.109726,-0.0246 -0.07838,0 -0.134359,0.0358 -0.05598,0.0336 -0.09181,0.0873 -0.03583,0.0537 -0.05374,0.12092 -0.01792,0.0672 -0.01792,0.12988 z"
         style="font-style:normal;font-variant:normal;font-weight:normal;font-stretch:normal;font-size:4.58611107px;line-height:13.22916603px;font-family:'Francois One';-inkscape-font-specification:'Francois One';text-align:center;text-anchor:middle;fill:url(#DarkerBlue);stroke-width:0.26458332"
         id="path9364"
         inkscape:connector-curvature="0" />
      <path
         d="m 13.096238,178.69032 q 0,0.12093 0.01567,0.25976 0.01567,0.13884 0.0515,0.25528 0.03807,0.11645 0.09853,0.19483 0.06046,0.0761 0.147794,0.0761 0.07614,0 0.138838,-0.0605 0.0627,-0.0605 0.109726,-0.1366 0.04703,-0.0761 0.0739,-0.14331 0.02911,-0.0672 0.03583,-0.0806 l 0.48817,0.18586 q -0.04479,0.15676 -0.118683,0.28664 -0.0739,0.12988 -0.179145,0.22393 -0.105248,0.0941 -0.244085,0.14555 -0.138838,0.0538 -0.315743,0.0538 -0.235128,0 -0.414273,-0.0985 -0.176906,-0.0985 -0.295589,-0.27544 -0.116444,-0.1769 -0.176906,-0.42323 -0.05822,-0.24632 -0.05822,-0.53967 0,-0.29559 0.06046,-0.54192 0.06046,-0.24632 0.181384,-0.42323 0.120923,-0.1769 0.302307,-0.27319 0.181384,-0.0985 0.42323,-0.0985 0.230649,0 0.403076,0.0985 0.172427,0.0963 0.288871,0.27319 0.116445,0.17691 0.174667,0.42323 0.05822,0.24633 0.05822,0.54192 l -0.009,0.0314 q -0.0045,0.0134 -0.0067,0.0269 -0.0022,0.0112 -0.0022,0.0179 z m 0.61581,-0.37172 q 0,-0.12764 -0.01791,-0.23737 -0.01567,-0.10973 -0.0515,-0.1881 -0.03583,-0.0806 -0.09405,-0.1254 -0.05598,-0.047 -0.138838,-0.047 -0.05822,0 -0.116444,0.047 -0.05598,0.0448 -0.100769,0.1254 -0.04255,0.0784 -0.06942,0.1881 -0.02687,0.10973 -0.02687,0.23737 z"
         style="font-style:normal;font-variant:normal;font-weight:normal;font-stretch:normal;font-size:4.58611107px;line-height:13.22916603px;font-family:'Francois One';-inkscape-font-specification:'Francois One';text-align:center;text-anchor:middle;fill:url(#DarkerBlue);stroke-width:0.26458332"
         id="path9366"
         inkscape:connector-curvature="0" />
    </g>
  </g>
  <g
     inkscape:groupmode="layer"
     id="layer4"
     inkscape:label="Decoration"
     style="display:inline">
    <path
       style="fill:url(#linearGradient9352);fill-opacity:1;stroke-width:1"
       d="m 12.68802,114.20269 c -4.0340207,-1.7322 -9.4119454,-3.89678 -11.69886737,-4.70872 -0.956133,-0.33945 -0.987757,-0.35725 -0.98844299667,-0.55606 -5.75e-4,-0.16668 0.0229899967,-0.19603 0.12509299667,-0.1558 0.06919,0.0273 0.708085,0.26147 1.41976397,0.52044 2.301145,0.83736 7.0264777,2.74332 10.9986794,4.43631 1.22567,0.52239 2.333625,0.99189 2.462123,1.04334 0.187816,0.0752 0.233632,0.13412 0.233632,0.30048 0,0.11381 -0.0081,0.20546 -0.01797,0.20367 -0.0099,-0.002 -1.150189,-0.48945 -2.534009,-1.08366 z m 1.761226,0.0725 c -0.415146,-0.20097 -1.191524,-0.56911 -1.725283,-0.81811 -0.533759,-0.24899 -1.746849,-0.81483 -2.695755,-1.25743 -2.2095147,-1.03058 -5.1039557,-2.31925 -7.8356604,-3.48863 -1.186132,-0.50775 -2.16712497,-0.93065 -2.17998397,-0.93977 -0.0128599967,-0.009 -0.0128599967,-0.0995 0,-0.20076 l 0.02338,-0.18417 1.18613197,0.50991 c 4.3361277,1.86408 5.9653447,2.58828 8.9858484,3.99432 5.474695,2.54845 5.032076,2.32429 5.032076,2.54846 0,0.112 -0.0081,0.20318 -0.01797,0.20261 -0.0099,-7.2e-4 -0.357637,-0.16546 -0.772784,-0.36643 z m -3.270849,-2.38604 c -4.6899807,-2.32186 -5.3418657,-2.62501 -8.6264154,-4.0115 l -2.51603697,-1.06209 -0.02182,-0.32551 -0.02182,-0.32553 0.381252,0.16871 c 0.451615,0.19985 4.36383667,1.99794 5.95247767,2.73582 1.122536,0.52139 6.1067117,2.93731 7.9075477,3.83293 0.925679,0.46038 0.971511,0.49344 0.992998,0.71629 0.01239,0.1285 -0.0038,0.23242 -0.03594,0.23095 -0.03216,-0.002 -1.837668,-0.8835 -4.012243,-1.96007 z m 2.192547,-2.34319 c -3.298174,-1.5229 -7.2714337,-3.2248 -10.1719814,-4.35709 -0.790754,-0.30868 -1.825924,-0.71421 -2.30037697,-0.90118 l -0.862641,-0.33993 -0.0221,-0.29568 c -0.01216,-0.16262 0.0028,-0.29567 0.03321,-0.29567 0.208041,0 6.47742267,2.65241 10.16087537,4.2988 5.555754,2.48326 5.032076,2.22278 5.032076,2.50293 0,0.13375 -0.0081,0.24115 -0.01797,0.23869 -0.0099,-0.002 -0.842873,-0.38537 -1.851085,-0.85089 z m 1.545566,-4.90979 C 14.409076,104.36855 11.298349,102.92953 9.7406613,102.2418 7.3660213,101.1934 3.5373346,99.701331 1.1326776,98.887213 0.04921863,98.520404 9.0163333e-4,98.495833 4.6063333e-4,98.311558 L 6.3333334e-7,98.11906 1.1322176,98.501469 c 3.7749417,1.274969 7.7951747,2.908801 11.9511794,4.856971 0.69191,0.32435 1.4602,0.68334 1.707311,0.79777 0.40457,0.18733 0.449293,0.22944 0.449293,0.42299 0,0.11822 -0.0081,0.21351 -0.01797,0.21177 -0.0099,-0.002 -0.147368,-0.0714 -0.305519,-0.15482 z m -1.186132,-2.5481 C 11.654045,100.97216 5.6423793,97.983079 3.3786796,96.941036 -0.23042637,95.279675 6.3333334e-7,95.399216 6.3333334e-7,95.188321 c 0,-0.145463 0.0282299966667,-0.178854 0.12580199666666,-0.148784 0.219751,0.06772 4.42680497,2.034662 6.73938667,3.150906 1.836428,0.886415 4.6710717,2.328347 7.8530847,3.994727 0.45346,0.23748 0.520702,0.29816 0.52118,0.47034 2.87e-4,0.10873 -0.02372,0.19504 -0.05337,0.1918 -0.02965,-0.003 -0.684722,-0.34491 -1.455708,-0.75926 z m 1.186132,-1.14299 C 11.230647,99.205542 3.3027346,95.650395 0.73684063,94.586406 0.09476763,94.320166 6.3333333e-7,94.258897 6.3333333e-7,94.110055 c 0,-0.09395 0.0275799966667,-0.170817 0.0612899966667,-0.170817 0.168044,0 7.92196367,3.398038 11.11710437,4.871912 4.289159,1.97852 4.024075,1.8442 4.048407,2.05128 0.02562,0.2181 -0.0056,0.22642 -0.310294,0.0826 z M 14.053869,98.535831 C 12.257815,97.649898 7.2913333,95.435885 3.7381136,93.937153 -0.07839937,92.327371 6.3333333e-7,92.365032 6.3333333e-7,92.141658 v -0.19904 L 2.0667456,92.824777 c 1.13671,0.485185 2.7299017,1.164544 3.5404247,1.50968 1.786107,0.76057 6.4327097,2.870929 8.2849527,3.762807 1.230265,0.59239 1.347878,0.665111 1.347878,0.833419 0,0.101425 -0.0081,0.181723 -0.01797,0.178452 -0.0099,-0.0033 -0.535557,-0.261258 -1.16816,-0.573304 z M 13.658491,93.746574 C 9.0365423,91.606518 6.2323043,90.47254 1.3125576,88.754144 0.13726863,88.343634 0.00118063,88.279346 6.2363333e-4,88.134379 c -3.43e-4,-0.08896 0.0325899967,-0.161745 0.0731899967,-0.161745 0.0406,0 1.17936597,0.387031 2.53059597,0.860061 1.35123,0.473036 2.4651807,0.851671 2.4754457,0.841406 0.02022,-0.02022 -3.4349977,-1.47373 -4.43287467,-1.864787 -0.53836,-0.21098 -0.613744,-0.26253 -0.633785,-0.433448 -0.0125099967,-0.106695 -0.0086,-0.193987 0.0087,-0.193987 0.06583,0 2.57630397,1.008658 3.53771697,1.421389 0.552841,0.237327 1.7535277,0.741483 2.6681927,1.120341 2.427462,1.005459 3.719865,1.574062 6.5140967,2.865918 l 2.498066,1.154926 v 0.348996 c 0,0.191945 -0.02426,0.345956 -0.05391,0.342232 -0.02965,-0.0037 -0.717071,-0.313815 -1.527595,-0.689107 z m -8.2669807,-3.97677 c -0.05931,-0.03833 -0.140179,-0.06969 -0.179717,-0.06969 -0.03954,0 -0.02336,0.03136 0.03594,0.06969 0.05931,0.03833 0.140179,0.06969 0.179717,0.06969 0.03954,0 0.02336,-0.03136 -0.03594,-0.06969 z M 13.11934,89.08033 C 8.8406603,87.239762 5.2095493,85.885832 1.3464926,84.690585 0.11588063,84.309829 6.3333333e-7,84.259904 6.3333333e-7,84.110473 c 0,-0.08992 0.0213199966667,-0.1635 0.0473799966667,-0.1635 0.115868,0 2.80902097,0.857056 4.44554097,1.414725 1.9896297,0.677993 3.7625357,1.328483 5.3801227,1.973983 1.0216917,0.407713 5.3058457,2.213064 5.3543897,2.256354 0.01286,0.01147 0.01286,0.102805 0,0.202965 -0.02328,0.181327 -0.03242,0.178229 -2.108097,-0.71467 z m 0.970472,-0.759419 C 11.013714,86.832279 6.2125343,84.800852 1.4557086,82.975301 0.13271263,82.467564 6.3333333e-7,82.401191 6.3333333e-7,82.247275 c 0,-0.09314 0.0292299966667,-0.169359 0.0649599966667,-0.169359 0.03573,0 1.22455497,0.448279 2.64183997,0.996179 3.8615837,1.492823 8.6489654,3.523172 11.1853234,4.743745 1.230364,0.592081 1.347878,0.664708 1.347878,0.833031 0,0.101425 -0.02426,0.182169 -0.05391,0.179437 -0.02965,-0.0027 -0.522977,-0.231957 -1.096274,-0.509397 z M 13.191227,86.288448 C 12.123708,85.91977 9.8754493,85.13 8.1950953,84.533411 6.5147413,83.936816 3.9835796,83.067481 2.5702906,82.601561 0.05469563,81.772232 6.6863333e-4,81.750429 3.3763333e-4,81.564472 L 6.3333333e-7,81.374511 1.4557086,81.842329 c 1.830987,0.588422 4.7051797,1.575335 8.5365567,2.931206 1.6408157,0.580658 3.4847117,1.226015 4.0975467,1.43412 1.037479,0.35231 1.115813,0.391481 1.136992,0.568473 0.01251,0.104553 -0.0037,0.188416 -0.03594,0.186367 -0.03228,-0.0021 -0.932114,-0.305368 -1.999633,-0.674047 z M 14.70085,85.22576 C 13.167264,84.61033 5.1376753,81.870135 0.64698163,80.42971 c -0.560155,-0.179673 -0.613011,-0.21282 -0.634738,-0.39803 -0.01697,-0.144614 0.0035,-0.191772 0.07189,-0.165936 0.05257,0.01985 0.97830097,0.316705 2.05717297,0.659662 2.336414,0.74272 8.4958704,2.824289 10.6186024,3.588531 2.543046,0.915565 2.441192,0.870851 2.466898,1.083025 0.02707,0.223475 -0.03268,0.226746 -0.525954,0.0288 z M 14.089812,83.655731 C 13.516515,83.424859 12.675439,83.099974 12.220756,82.933765 11.766072,82.767548 10.650029,82.341497 9.7406613,81.98698 6.9936483,80.916046 3.9590956,79.862365 0.34146263,78.723312 0.00256863,78.616603 6.3333333e-7,78.613433 6.3333333e-7,78.301516 V 77.987234 L 1.8870286,78.636818 c 1.037866,0.35727 2.631057,0.904781 3.5404247,1.216698 0.909368,0.31191 3.488444,1.239228 5.7312797,2.060707 l 4.077883,1.493599 0.0017,0.341462 c 9.28e-4,0.187805 -0.02257,0.338034 -0.05222,0.333836 -0.02965,-0.0042 -0.522976,-0.196517 -1.096273,-0.427389 z M 13.11934,79.669105 C 9.7244173,78.539059 4.9761153,77.017215 2.4261796,76.241916 0.16526263,75.554492 6.3333333e-7,75.493093 6.3333333e-7,75.340513 c 0,-0.09005 0.0381299966667,-0.163729 0.0847399966667,-0.163729 0.198608,0 4.72898767,1.396768 8.46978767,2.611331 1.284976,0.417202 3.3148797,1.074607 4.5108957,1.460898 2.164327,0.699034 2.174576,0.70329 2.174576,0.902984 0,0.110347 -0.02426,0.197596 -0.05391,0.193872 -0.02965,-0.0037 -0.959689,-0.308265 -2.066746,-0.676764 z m 1.293963,-0.694764 C 13.064617,78.527888 8.8175343,77.235636 5.3915103,76.229286 -0.20027337,74.586773 0.04011063,74.667171 0.01256463,74.430233 c -0.02101,-0.180731 -0.0064,-0.195957 0.143773,-0.150301 0.09193,0.02793 0.458295,0.141983 0.814135,0.253444 0.64583597,0.202289 4.72386967,1.410987 6.90113167,2.045445 1.387637,0.404356 3.4340247,1.031209 5.4274527,1.66254 0.810524,0.256694 1.578814,0.499585 1.707312,0.539762 0.179188,0.05602 0.233632,0.113617 0.233632,0.247183 0,0.213504 -0.02328,0.21198 -0.826698,-0.05397 z m 0.251603,-1.352888 C 11.095052,76.457613 2.9246896,74.044085 0.30551963,73.379686 0.07626763,73.321526 6.3333333e-7,73.266989 6.3333333e-7,73.161186 c 0,-0.07755 0.0439899966667,-0.141006 0.0977699966667,-0.141006 0.229828,0 7.14336667,1.976995 10.19980537,2.916728 4.423867,1.360177 4.942429,1.537615 4.942429,1.691223 0,0.162594 -0.05796,0.161918 -0.575095,-0.0067 z M 12.90368,75.5401 C 6.5679243,73.403646 5.2288283,72.9718 1.1681616,71.755505 0.40848463,71.527961 6.3333334e-7,71.371687 6.3333334e-7,71.308599 6.3333334e-7,71.173598 0.05243063,71.187465 3.2315246,72.16334 8.8155963,73.877466 15.190968,76.028391 15.2273,76.21048 c 0.01278,0.06407 0.01278,0.113977 0,0.110907 -0.01278,-0.0031 -1.058412,-0.354653 -2.32362,-0.781287 z M 12.86774,73.811711 C 11.701373,73.504496 9.4207653,72.897153 7.7997173,72.462058 6.1786703,72.026971 3.9142366,71.45629 2.7676426,71.193885 -0.11694037,70.533729 -0.04997437,70.550523 0.08584763,70.521326 c 0.270134,-0.05807 5.40249667,1.19257 9.76264367,2.37894 1.0872877,0.295843 2.6885657,0.719544 3.5583967,0.941559 0.86983,0.222008 1.646207,0.433089 1.725283,0.469068 l 0.143773,0.0654 -0.143773,-0.003 C 15.053091,74.371593 14.0341,74.118912 12.867737,73.81169 Z M 6.3333333e-7,59.907873 C 6.3333333e-7,59.549113 0.01506063,59.514195 0.19768963,59.449545 4.5876396,57.895501 7.4115763,57.00913 10.209927,56.306928 c 1.565936,-0.392947 2.650433,-0.706601 3.837692,-1.109923 0.589629,-0.200301 1.099127,-0.364184 1.132217,-0.364184 0.03309,0 0.06016,0.138892 0.06016,0.308649 v 0.308648 l -1.311934,0.310946 c -1.308338,0.310094 -2.057758,0.539526 -4.4390047,1.358981 -2.553991,0.878902 -9.37553567,3.176172 -9.43136967,3.176172 -0.03173,0 -0.057689996667,-0.174755 -0.057689996667,-0.388344 z M 3.9537746,58.636411 c 1.4826647,-0.5058 2.6531157,-0.921545 2.6010017,-0.923878 -0.115014,-0.0051 -5.4649267,1.776825 -5.61904167,1.871615 -0.235292,0.144719 0.40612197,-0.0567 3.01803997,-0.947737 z M 6.3333333e-7,55.874903 c 0,-0.15456 0.16038999666667,-0.23281 1.83098596666667,-0.893288 1.007042,-0.398139 1.869683,-0.723889 1.916981,-0.723889 0.0473,0 0.06646,-0.01954 0.04258,-0.04341 -0.04345,-0.04345 -1.66811,0.478648 -3.05370897,0.981346 L -1.3666667e-6,55.462985 v -0.200494 c 0,-0.227981 -0.2136330033333,-0.134768 2.1566039666667,-0.940975 0.810524,-0.27569 2.9132117,-0.933991 4.6726417,-1.462891 1.759429,-0.528901 3.6194997,-1.111977 4.1334907,-1.295725 2.52717,-0.903446 4.162333,-1.474608 4.221616,-1.474608 0.03611,0 0.05531,0.07279 0.04268,0.161746 -0.01888,0.132935 -0.13821,0.202526 -0.669953,0.390701 -0.355839,0.125927 -0.624726,0.231061 -0.597526,0.233633 0.05303,0.005 0.942412,-0.191898 1.160057,-0.256841 0.107582,-0.0321 0.126999,-0.0043 0.10783,0.154331 -0.02303,0.19062 -0.05211,0.2007 -1.964323,0.680932 -1.067519,0.268097 -2.355085,0.60504 -2.861258,0.748763 C 9.1148433,52.566992 3.5597466,54.600647 0.88061163,55.68717 0.00870463,56.040773 -1.3666667e-6,56.042628 -1.3666667e-6,55.874903 Z M 0.01383063,50.893271 c 0.02139,-0.182157 0.08746,-0.207035 1.99900397,-0.752699 2.647232,-0.755669 7.6525707,-2.015198 10.6380904,-2.676938 1.335886,-0.296098 2.464927,-0.538361 2.508981,-0.538361 0.04405,0 0.0801,0.06213 0.0801,0.138062 0,0.09801 -0.06778,0.151968 -0.233632,0.185992 -3.790801,0.777694 -11.3109634,2.680882 -14.45339237,3.657835 l -0.561268,0.174493 z M 6.3333333e-7,50.169505 C 6.3333333e-7,49.972087 0.02943063,49.95889 2.1745766,49.194291 5.6936923,47.939965 8.9541043,46.87373 13.494913,45.49226 c 0.918244,-0.279362 1.688683,-0.50793 1.712086,-0.50793 0.0234,0 0.03232,0.08495 0.0198,0.188772 -0.02102,0.174426 -0.08557,0.207525 -0.849445,0.435529 -4.5304207,1.352256 -9.6551817,3.040584 -13.67646237,4.505645 L 6.3333333e-7,50.369631 Z m 0,-3.127868 C 6.3333333e-7,46.890185 0.08079063,46.841519 0.70089663,46.619435 2.4196476,46.003885 6.4368723,44.75728 9.6687743,43.836568 c 2.0788817,-0.592237 5.3123967,-1.440163 5.4919717,-1.440163 0.04359,0 0.07925,0.07711 0.07925,0.171359 0,0.163272 -0.067,0.187432 -1.419764,0.51197 -3.070071,0.73653 -7.6425787,2.080322 -11.7341004,3.448476 -1.12604597,0.376536 -2.05608097,0.68461 -2.06674597,0.68461 -0.01067,0 -0.019389996667,-0.07703 -0.019389996667,-0.171183 z M 0.01080063,46.670683 c 0.0178,-0.09242 0.333985,-0.26729 1.05846097,-0.58538 2.440355,-1.071465 6.0206417,-2.514558 8.5635697,-3.451684 1.7497937,-0.644839 5.5609367,-1.960806 5.5911477,-1.930594 0.07807,0.07807 -0.05837,0.240687 -0.24023,0.28633 -0.379269,0.09519 -5.6212847,1.976735 -7.2050717,2.586154 -2.077101,0.799239 -3.4328247,1.353556 -5.7299017,2.342792 -1.027982,0.4427 -1.91277397,0.822744 -1.96620697,0.844543 -0.06484,0.02645 -0.08871,-0.0042 -0.07177,-0.09216 z m 0.0024,-4.320219 c 0.02145,-0.178937 0.08401,-0.207672 1.10104897,-0.505794 3.182727,-0.932944 8.4148557,-2.269314 11.7666184,-3.005385 1.000992,-0.219825 1.941294,-0.42791 2.08956,-0.462411 0.248407,-0.0578 0.269576,-0.05039 0.269576,0.09436 0,0.146236 -0.10805,0.180721 -1.563538,0.499019 -3.199735,0.699744 -8.9043777,2.178495 -12.3980624,3.213812 -0.66093297,0.19586 -1.22110197,0.35611 -1.24482197,0.35611 -0.02372,0 -0.0328899967,-0.08537 -0.02038,-0.189715 z M 6.3333333e-7,41.638405 c 0,-0.09709 0.0108099966667,-0.176528 0.0240299966667,-0.176528 0.01322,0 0.83003,-0.286372 1.81514197,-0.636382 1.976075,-0.702099 2.127498,-0.752391 7.6858287,-2.552649 4.2850467,-1.387861 5.5035067,-1.771158 5.6303167,-1.771158 0.04658,0 0.08468,0.06331 0.08468,0.140687 0,0.115931 -0.129651,0.180116 -0.73684,0.36478 -3.018879,0.918125 -11.4235954,3.699122 -14.19764137,4.69779 L 1.6333333e-6,41.814933 Z m 0,-3.439686 C 6.3333333e-7,37.964741 0.03259063,37.870093 0.12580263,37.833415 3.2562916,36.601537 6.7773843,35.439583 11.322171,34.138632 c 1.321155,-0.378182 3.758673,-1.015624 3.883651,-1.015624 0.0243,0 0.03384,0.06896 0.02121,0.153247 -0.02037,0.135896 -0.206079,0.201348 -1.640424,0.578157 -3.8301677,1.0062 -10.8173844,3.203366 -12.1037124,3.806073 -0.163218,0.07648 -0.232062,0.119405 -0.152986,0.0954 1.729222,-0.524939 5.9223087,-1.678839 7.9075467,-2.176088 2.3887987,-0.598329 5.7419627,-1.378488 5.9248167,-1.378488 0.04275,0 0.07773,0.08026 0.07773,0.178348 0,0.126287 -0.04721,0.188929 -0.161745,0.214599 -0.08896,0.01994 -0.905774,0.200942 -1.815142,0.40223 -3.3632187,0.744447 -7.3608417,1.792772 -11.2124274,2.940316 -1.06646697,0.317743 -1.96415297,0.577715 -1.99485797,0.577715 -0.0307,0 -0.0558299966667,-0.14211 -0.0558299966667,-0.315798 z M 5.2063333e-4,34.730181 C 0.00103563,34.526497 0.01276063,34.521079 1.4202846,34.074013 3.5436026,33.399594 11.445711,31.022229 13.335001,30.489448 c 0.909368,-0.256443 1.710007,-0.482659 1.779198,-0.502703 0.09661,-0.02799 0.125802,0.0064 0.125802,0.148117 0,0.109354 -0.04059,0.184561 -0.0996,0.184561 -0.222219,0 -7.8326467,2.227751 -7.7823277,2.278071 0.01345,0.01345 0.360937,-0.05458 0.772199,-0.151169 1.9710207,-0.46292 6.7003347,-1.408034 7.0457537,-1.408034 0.03519,0 0.06398,0.07744 0.06398,0.172097 0,0.1636 -0.04348,0.179875 -0.880613,0.329619 -2.492692,0.445885 -5.8603297,1.172514 -8.6803307,1.87294 -1.6538117,0.410769 -5.31664567,1.383544 -5.55741867,1.475936 -0.09683,0.03716 -0.12153199667,0.0048 -0.12111799667,-0.158702 z M 6.3333333e-7,32.047477 c 0,-0.102475 0.0736599966667,-0.160272 0.26957599666667,-0.211524 0.148266,-0.03879 0.81950897,-0.217098 1.49165097,-0.396247 1.574856,-0.419754 4.6894527,-1.164283 6.9730187,-1.666865 1.7373967,-0.382378 6.3181837,-1.322474 6.4439877,-1.322474 0.03397,0 0.06177,0.05998 0.06177,0.133294 0,0.116562 -0.214307,0.17576 -1.707312,0.47161 C 9.6802653,29.818659 4.6139206,30.975116 1.5553556,31.789252 0.73044663,32.008827 0.04302863,32.18848 0.02776063,32.18848 0.01249063,32.18848 6.333333e-7,32.12503 6.3333333e-7,32.047477 Z m 0,-0.600189 C 6.3333333e-7,31.282072 0.05959063,31.24622 0.66495363,31.047236 2.4712786,30.453493 5.3839253,29.598262 7.5638933,29.021525 c 3.0475847,-0.806277 7.4789497,-1.937007 7.5911887,-1.937007 0.0467,0 0.08492,0.07684 0.08492,0.170749 0,0.16455 -0.09461,0.194539 -2.605896,0.826011 -2.6657877,0.670323 -6.7082047,1.73367 -7.6739157,2.018604 -0.6894737,0.203429 -4.75132167,1.450333 -4.87033067,1.495091 -0.05708,0.02147 -0.0898599966667,-0.0324 -0.0898599966667,-0.147685 z m 0,-2.41337 c 0,-0.192215 0.0260499966667,-0.2045 1.06032996666667,-0.500066 2.170665,-0.620307 13.7504574,-3.462165 14.1073784,-3.462165 0.03976,0 0.07229,0.04593 0.07229,0.102069 0,0.06745 -0.164561,0.138576 -0.485236,0.209719 -0.26688,0.05921 -0.967241,0.213841 -1.556359,0.343627 -0.589118,0.129786 -1.037347,0.247234 -0.996063,0.260995 0.04128,0.01376 0.539464,-0.05616 1.107067,-0.155377 0.567604,-0.09922 1.234187,-0.201998 1.481298,-0.228397 0.444714,-0.04751 0.449293,-0.04616 0.449293,0.13272 0,0.166566 -0.03237,0.184446 -0.413349,0.228296 -0.541226,0.06229 -2.903475,0.475524 -4.784566,0.836966 -2.8916737,0.555621 -6.9113724,1.517758 -9.55684937,2.287485 L -1.3666667e-6,29.230973 Z M 12.057511,26.034671 c -0.02389,-0.02389 -0.08589,-0.02644 -0.137783,-0.0057 -0.05735,0.02295 -0.04031,0.03998 0.04343,0.04343 0.07578,0.0031 0.118239,-0.01387 0.09435,-0.03776 z M -1.3666667e-6,26.838489 c 0,-0.199148 0.046289996667,-0.218461 1.2220759666667,-0.50985 0.415146,-0.102883 2.00025,-0.53811 3.5224527,-0.96717 8.2484627,-2.324979 10.4431557,-2.909562 10.4855867,-2.792962 0.04722,0.129759 -0.08506,0.17754 -1.427851,0.515758 -1.333825,0.335959 -5.6208497,1.541807 -5.5145777,1.551131 0.03116,0.0027 0.694312,-0.125613 1.473679,-0.285214 1.2623477,-0.258508 4.3616457,-0.838266 5.1731157,-0.967688 0.248455,-0.03963 0.305519,-0.02802 0.305519,0.06216 0,0.06893 -0.08841,0.12612 -0.233632,0.151134 -3.59849,0.619828 -8.7252107,1.683291 -11.1244814,2.30761 -0.533759,0.13889 -1.592172,0.445285 -2.352029,0.680878 -0.75985597,0.235593 -1.41492497,0.428351 -1.45570697,0.428351 -0.04078,0 -0.0741499966667,-0.07836 -0.0741499966667,-0.174142 z m 0,-2.797932 c 0,-0.257889 9.4976276666667,-2.106388 14.0358963666667,-2.731769 0.927991,-0.127879 1.204104,-0.145172 1.204104,-0.07541 0,0.114037 -0.10056,0.141396 -0.898585,0.244474 -2.695854,0.348215 -9.2478867,1.545314 -12.7552264,2.330463 -0.80794997,0.180867 -1.49536697,0.328849 -1.52759397,0.328849 -0.03223,0 -0.058589996667,-0.04347 -0.058589996667,-0.0966 z M 0.01621863,23.621221 c 0.06555,-0.196663 5.92335667,-1.391976 12.44443737,-2.539348 2.436916,-0.42877 2.896115,-0.488096 2.765269,-0.357249 -0.04387,0.04387 -0.185322,0.07 -4.083478,0.75418 -3.5043437,0.615064 -7.8437444,1.467108 -9.7080954,1.90619 -1.54262597,0.363311 -1.45566597,0.348825 -1.41813297,0.236227 z M -1.3666667e-6,20.594314 c 0,-0.129912 4.8218956666667,-0.984403 8.1591506666667,-1.445887 2.2162657,-0.306471 6.9967007,-0.798437 7.0677757,-0.727361 0.104256,0.104255 -0.195472,0.164859 -1.382193,0.279473 -0.70809,0.06839 -1.918387,0.203626 -2.689549,0.30053 -1.4412547,0.181108 -1.6806277,0.207101 -2.5939887,0.281682 -0.292866,0.02391 -0.563369,0.06257 -0.601119,0.0859 -0.03775,0.02333 -0.24958,0.056 -0.470735,0.0726 -0.221155,0.0166 -0.439238,0.06101 -0.484628,0.09868 -0.04539,0.03767 -0.160051,0.06673 -0.2548,0.06458 -0.09475,-0.0022 -0.576635,0.06406 -1.070857,0.147146 -2.0418007,0.343252 -5.61479167,0.934942 -5.64576367,0.934942 -0.01831,0 -0.033289996667,-0.04153 -0.033289996667,-0.09228 z m 0,-1.680729 c 0,-0.131903 0.013389996667,-0.239823 0.029749996667,-0.239823 0.01636,0 1.05961997,-0.19075 2.31834897,-0.423889 1.258729,-0.23314 2.8061827,-0.508488 3.4387867,-0.611884 8.8515557,-1.446753 9.1953107,-1.500436 9.3608897,-1.461851 0.138146,0.03219 0.02316,0.05914 -0.986078,0.231105 l -0.611038,0.104115 0.503208,-0.03493 c 0.276764,-0.01921 0.661139,-0.05499 0.854167,-0.07951 0.279387,-0.03549 0.344244,-0.02444 0.31803,0.05421 -0.02393,0.0718 -0.424289,0.142554 -1.465206,0.258951 -3.079516,0.344355 -5.6323777,0.718935 -8.0818027,1.185841 -0.652373,0.124355 -1.1516397,0.237732 -1.1094827,0.251951 0.04216,0.01422 1.4169917,-0.167047 3.0551877,-0.402814 3.7503857,-0.539749 7.5504487,-1.029109 7.6007567,-0.978802 0.02114,0.02115 0.02195,0.05494 0.0018,0.0751 -0.02016,0.02016 -1.052634,0.163838 -2.294386,0.319284 C 7.9725803,17.781596 2.2776336,18.627053 0.88061063,18.9499 L -2.3666667e-6,19.153407 Z M 1.4557066,18.626153 c -0.04942,-0.01994 -0.130295,-0.01994 -0.179717,0 -0.04942,0.01994 -0.009,0.03626 0.08986,0.03626 0.09884,0 0.13928,-0.01632 0.08986,-0.03626 z m 0.393879,-0.06771 c -0.02389,-0.02389 -0.08589,-0.02644 -0.137783,-0.0057 -0.05735,0.02295 -0.04031,0.03998 0.04343,0.04343 0.07578,0.0031 0.118239,-0.01387 0.09435,-0.03776 z m 2.553481,-0.363612 c -0.04942,-0.01994 -0.130295,-0.01994 -0.179717,0 -0.04942,0.01994 -0.009,0.03626 0.08986,0.03626 0.09884,0 0.139281,-0.01632 0.08986,-0.03626 z m 9.0591044,-1.65294 c -0.04867,-0.01969 -0.145717,-0.02089 -0.215661,-0.0027 -0.06994,0.01823 -0.03012,0.03434 0.08849,0.0358 0.118613,0.0015 0.175839,-0.01345 0.12717,-0.03314 z M 6.3333333e-7,17.097965 c 0,-0.0803 0.0971399966667,-0.101301 1.50962296666667,-0.326322 3.4858847,-0.555334 6.1576157,-0.910988 9.4531134,-1.258376 3.425037,-0.361041 4.45267,-0.424437 4.271273,-0.263496 -0.01647,0.01462 -0.644585,0.08125 -1.395802,0.148076 C 9.7889443,15.758053 5.6449853,16.275251 1.6665436,16.916964 -0.05167737,17.194109 6.3333334e-7,17.188496 6.3333333e-7,17.097965 Z"
       id="path7201"
       inkscape:connector-curvature="0" />
    <path
       style="fill:url(#DarkerBlue);stroke-width:1"
       d="m 8.2996966,109.32892 c -0.147637,-0.0596 -0.101807,-0.23445 0.07189,-0.27431 0.08896,-0.0204 0.582283,-0.11773 1.096274,-0.21626 1.7913994,-0.34339 2.3460174,-0.82678 3.1765744,-2.76861 0.90105,-2.10664 1.295863,-4.09476 1.366899,-6.88316 0.02342,-0.919252 0.02209,-1.671368 -0.003,-1.671368 -0.02504,0 -0.14207,0.191248 -0.260065,0.424995 -0.580485,1.14993 -1.914361,2.206883 -3.166212,2.508873 -0.576199,0.139 -1.2686144,0.18455 -1.3286514,0.0874 -0.09623,-0.15571 0.12956,-0.26896 0.717614,-0.35993 1.3692464,-0.211822 2.4641314,-0.893558 3.1985454,-1.9916 0.641234,-0.958726 0.882529,-2.092237 0.892407,-4.192201 0.0036,-0.770986 -0.02064,-1.654805 -0.05393,-1.964048 l -0.06053,-0.562262 -0.334848,0.340391 c -0.411723,0.418532 -0.849607,0.624452 -1.73664,0.81667 -0.375608,0.08139 -0.98359,0.247995 -1.35107,0.370231 -0.44085,0.146642 -0.7321684,0.206179 -0.8563444,0.175008 -0.184644,-0.04634 -0.185602,-0.04971 -0.05072,-0.178322 0.16524,-0.157561 1.4981774,-0.597789 2.2836394,-0.754207 0.310559,-0.06185 0.698748,-0.173183 0.862641,-0.247406 0.568568,-0.257506 1.047919,-0.926053 1.29494,-1.806055 0.357158,-1.27236 0.427794,-4.798961 0.141519,-7.065602 l -0.04347,-0.344187 -0.236025,0.350477 c -0.577519,0.857566 -1.905195,1.601048 -3.1644,1.772024 -0.27577,0.03744 -0.385338,0.02435 -0.450178,-0.05377 -0.130713,-0.157504 0.02907,-0.248829 0.641025,-0.366385 1.602085,-0.307762 2.681611,-1.160656 3.072481,-2.427445 0.41876,-1.357186 0.206186,-2.509647 -0.756707,-4.10245 -0.453733,-0.750563 -0.937057,-1.282511 -1.636439,-1.801073 -0.71748,-0.531977 -2.3555304,-1.348704 -2.8070854,-1.3996 -0.285532,-0.03218 -0.327005,-0.05763 -0.308232,-0.189163 0.01867,-0.130827 0.06873,-0.151379 0.359667,-0.147677 0.266444,0.0034 0.5461,0.106551 1.3213364,0.487436 2.008632,0.986854 2.91086,1.846994 3.799803,3.622541 0.577318,1.153114 0.72679,2.049384 0.515597,3.091664 -0.110215,0.543931 -0.110286,0.649598 -9.85e-4,1.470523 0.154187,1.158032 0.21537,4.386418 0.107644,5.679913 -0.04468,0.53644 -0.140416,1.208409 -0.212754,1.493254 -0.122928,0.484064 -0.124874,0.593813 -0.02979,1.679419 0.0697,0.795722 0.08711,1.56903 0.05527,2.45548 -0.02556,0.71168 -0.05381,2.474703 -0.06278,3.917831 -0.01421,2.284771 -0.03616,2.746101 -0.169858,3.569631 -0.434005,2.67338 -1.321348,5.10255 -2.248756,6.15613 -0.597707,0.67904 -1.026798,0.8883 -2.3982124,1.16955 -0.848586,0.17403 -1.075633,0.19725 -1.248133,0.12764 z"
       id="path9681"
       inkscape:connector-curvature="0" />
    <path
       style="fill:url(#DarkerBlue);stroke-width:1"
       d="m 11.675651,73.611542 c -0.281478,-0.11729 -0.315805,-0.226817 -0.24581,-0.784256 0.03619,-0.288245 0.08452,-0.554348 0.107383,-0.591355 0.08598,-0.139116 0.389354,-0.06706 0.513157,0.121891 l 0.123945,0.189163 0.228431,-0.272084 c 0.15513,-0.184778 0.265828,-0.257736 0.344976,-0.227364 0.177827,0.06824 0.141261,0.210147 -0.138318,0.536772 -0.251445,0.293751 -0.253315,0.300745 -0.139411,0.521006 0.0635,0.122797 0.105402,0.293859 0.09312,0.380145 -0.0192,0.134895 -0.07269,0.158992 -0.381767,0.17196 -0.197689,0.0083 -0.425255,-0.01235 -0.505704,-0.04588 z"
       id="path9679"
       inkscape:connector-curvature="0" />
    <path
       style="fill:url(#DarkerBlue);stroke-width:1"
       d="m 12.912003,71.667378 c 0,-0.243836 0.305625,-0.792681 0.441403,-0.792681 0.208825,0 0.212996,0.110199 0.02011,0.531511 -0.131,0.286136 -0.224675,0.403017 -0.323012,0.403017 -0.08995,0 -0.138504,-0.04972 -0.138504,-0.141847 z"
       id="path9675"
       inkscape:connector-curvature="0" />
    <path
       style="fill:url(#DarkerBlue);stroke-width:1"
       d="m 13.39518,69.994084 c -0.01703,-0.04942 -0.0079,-0.332477 0.02023,-0.62901 0.04518,-0.475884 0.06914,-0.541712 0.204176,-0.560974 0.110642,-0.01578 0.164875,0.02555 0.195942,0.149326 0.0432,0.172115 -0.05227,0.927572 -0.13391,1.05967 -0.06204,0.100387 -0.249583,0.08794 -0.286436,-0.01901 z"
       id="path9673"
       inkscape:connector-curvature="0" />
    <path
       style="fill:url(#DarkerBlue);stroke-width:1"
       d="m 13.658983,67.507866 c -0.08848,-0.08848 -0.116121,-0.680645 -0.04092,-0.876618 0.05805,-0.151278 0.223537,-0.144634 0.301168,0.01209 0.03427,0.06919 0.04843,0.278114 0.03147,0.464273 -0.03399,0.373058 -0.15411,0.537863 -0.29172,0.400253 z"
       id="path9671"
       inkscape:connector-curvature="0" />
    <path
       style="fill:url(#DarkerBlue);stroke-width:1"
       d="m 13.691303,65.444893 c -0.06636,-0.172939 -0.05263,-0.62908 0.02252,-0.747838 0.05497,-0.08688 0.08377,-0.08789 0.181971,-0.0064 0.161706,0.134204 0.127341,0.816986 -0.04275,0.849289 -0.06422,0.01219 -0.137002,-0.03058 -0.161746,-0.09507 z"
       id="path9669"
       inkscape:connector-curvature="0" />
    <path
       style="fill:url(#DarkerBlue);stroke-width:1"
       d="m 13.88055,63.915889 c -0.08832,-0.05737 -0.17734,-0.630242 -0.120822,-0.777523 0.05493,-0.143145 0.221151,-0.121493 0.307617,0.04007 0.170476,0.318537 0.02888,0.877547 -0.186795,0.737453 z"
       id="path9667"
       inkscape:connector-curvature="0" />
    <path
       style="fill:url(#DarkerBlue);stroke-width:1"
       d="m 13.7389,62.185765 c -0.0423,-0.07903 -0.0769,-0.196466 -0.0769,-0.260971 0,-0.06451 0.0346,-0.181942 0.0769,-0.260972 0.10928,-0.204191 0.282534,-0.04416 0.282534,0.260972 0,0.305131 -0.173254,0.465163 -0.282534,0.260971 z"
       id="path9663"
       inkscape:connector-curvature="0" />
    <path
       style="fill:url(#DarkerBlue);stroke-width:1"
       d="m 13.875145,60.61286 c -0.03507,-0.06919 -0.04851,-0.3459 -0.02985,-0.614909 0.03116,-0.449362 0.04636,-0.48733 0.187044,-0.467264 0.134752,0.01922 0.155687,0.07556 0.174485,0.469529 0.02852,0.597755 -0.161398,0.948555 -0.331677,0.612644 z"
       id="path9661"
       inkscape:connector-curvature="0" />
    <path
       style="fill:url(#DarkerBlue);stroke-width:1"
       d="m 14.011851,58.769132 c -0.105169,-0.12672 -0.075,-1.063328 0.03542,-1.099763 0.213314,-0.07039 0.348366,0.953917 0.147726,1.120434 -0.07449,0.06182 -0.118844,0.05681 -0.183148,-0.02067 z"
       id="path9659"
       inkscape:connector-curvature="0" />
    <path
       style="fill:url(#DarkerBlue);stroke-width:1"
       d="m 13.831528,56.551256 c -0.01426,-0.04942 -0.09555,-0.313254 -0.180641,-0.586292 -0.105223,-0.337638 -0.131242,-0.519901 -0.08134,-0.569801 0.120128,-0.120128 0.354531,0.153467 0.472859,0.551921 0.151166,0.509029 0.140792,0.69403 -0.03891,0.69403 -0.08032,0 -0.157699,-0.04044 -0.171961,-0.08986 z"
       id="path9657"
       inkscape:connector-curvature="0" />
    <path
       style="fill:url(#DarkerBlue);stroke-width:1"
       d="m 12.891499,54.727946 c -0.07907,-0.06112 -0.299497,-0.191014 -0.489826,-0.28865 -0.364305,-0.186883 -0.438659,-0.402028 -0.153134,-0.443097 0.224315,-0.03227 0.976668,0.491018 0.951228,0.661604 -0.02729,0.182985 -0.13158,0.206715 -0.308268,0.07014 z"
       id="path9655"
       inkscape:connector-curvature="0" />
    <path
       style="fill:url(#DarkerBlue);stroke-width:1"
       d="m 2.6153931,49.695773 c -0.31164,-0.235814 -0.620804,-0.470345 -0.68703,-0.521179 -0.06623,-0.05083 -0.141041,-0.195092 -0.166253,-0.320573 -0.03923,-0.19527 -0.01568,-0.250443 0.163424,-0.382863 l 0.209264,-0.154716 -0.174373,-0.479778 c -0.09591,-0.263878 -0.206632,-0.653787 -0.246059,-0.866465 -0.09969,-0.537732 0.05283,-3.882697 0.231477,-5.07671 0.127898,-0.854815 0.132564,-1.047965 0.05471,-2.264434 -0.07919,-1.237302 -0.0736,-1.437525 0.0803,-2.875472 0.188706,-1.763222 0.184845,-1.668164 0.08321,-2.048773 -0.302158,-1.131578 -0.581725,-3.585627 -0.581448,-5.103963 3.1e-4,-1.673748 0.181574,-4.276983 0.351506,-5.048052 0.168879,-0.766294 0.516108,-1.761868 0.834344,-2.392231 0.365125,-0.72324 1.056292,-1.73037 1.409335,-2.053605 0.4915619,-0.450057 2.1111312,-1.174134 2.8862032,-1.290363 0.391185,-0.05866 0.699768,0.08526 0.699768,0.326379 0,0.165782 0.0099,0.163155 -0.260318,0.06895 -0.310782,-0.10834 -1.17325,0.135613 -2.1468703,0.60725 -0.947498,0.458983 -1.2004979,0.70773 -1.8915479,1.859744 -0.738157,1.230545 -1.176815,2.550132 -1.307146,3.93221 -0.243325,2.580286 -0.277981,4.52344 -0.107697,6.038491 0.139476,1.240951 0.330339,2.444151 0.387712,2.444151 0.02452,0 0.117059,-0.348478 0.205638,-0.774395 0.246613,-1.185784 0.706081,-2.641018 1.062541,-3.365292 0.41056,-0.834198 0.8676999,-1.302447 1.6494799,-1.689567 1.0023673,-0.496348 2.1566043,-0.626131 2.1566043,-0.24249 0,0.123855 -0.05619,0.143003 -0.460147,0.156806 -0.7944,0.02715 -1.7381713,0.398885 -2.2795083,0.897872 -0.7830009,0.721746 -1.3044059,2.0968 -1.9278409,5.084129 -0.361152,1.730538 -0.674064,4.955056 -0.497937,5.131182 0.0255,0.0255 0.149869,-0.191754 0.276383,-0.48278 0.277862,-0.639179 0.807107,-1.574502 1.227907,-2.170054 0.5766219,-0.816086 1.0773699,-1.135164 2.1749222,-1.385867 0.795772,-0.18177 1.28634,-0.195197 1.506169,-0.04122 0.309222,0.216588 0.173099,0.438113 -0.185937,0.302592 -0.172897,-0.06526 -0.348601,-0.06307 -0.782029,0.0098 C 5.322171,35.733176 4.72275,36.04303 4.2275371,36.73233 c -0.648362,0.902473 -1.367873,2.298339 -1.568224,3.042385 -0.09649,0.358324 -0.407289,2.478318 -0.463445,3.161175 -0.02439,0.296533 -0.06161,0.708249 -0.08272,0.914926 l -0.03838,0.375775 0.633979,-0.616588 c 1.130604,-1.09959 1.334426,-1.192801 2.9001509,-1.326276 0.8056723,-0.06868 1.1021163,-0.06811 1.4243953,0.0027 0.497173,0.109286 1.089903,0.354186 1.089903,0.450319 0,0.04042 -0.05391,0.04712 -0.125802,0.01564 -0.06919,-0.0303 -0.360711,-0.103347 -0.647822,-0.162326 -0.483052,-0.09923 -0.613355,-0.09593 -1.7455213,0.04415 -0.993671,0.122945 -1.287215,0.186071 -1.5626949,0.336053 -0.459036,0.249917 -1.542874,1.317583 -1.730048,1.704234 -0.327678,0.676893 -0.36597,2.003221 -0.08169,2.829498 0.188036,0.546535 0.190306,0.548499 0.450762,0.389691 0.290016,-0.176831 0.528584,-0.180397 0.620168,-0.0093 0.03889,0.07267 0.108392,0.558267 0.154443,1.079101 0.08581,0.970511 0.0557,1.161037 -0.18346,1.161037 -0.04924,0 -0.344511,-0.19294 -0.656151,-0.428755 z"
       id="path7216" />
  </g>
  <g
     inkscape:groupmode="layer"
     id="layer3"
     inkscape:label="Front"
     style="display:inline">
    <rect
       style="display:inline;opacity:1;fill:#0e6977;fill-opacity:1;stroke:none;stroke-width:0.25402117;stroke-miterlimit:4;stroke-dasharray:none;stroke-opacity:1;enable-background:new"
       id="rect7339"
       width="10"
       height="13.5"
       x="2.6199996"
       y="49"
       ry="3.0000002"
       rx="3" />
    <rect
       rx="3"
       ry="3"
       y="80"
       x="2.6199987"
       height="34"
       width="10"
       id="rect937"
       style="display:inline;opacity:1;fill:#0e6977;fill-opacity:1;stroke:none;stroke-width:0.46839193;stroke-miterlimit:4;stroke-dasharray:none;stroke-opacity:1;enable-background:new" />
    <g
       aria-label="Merge"
       style="font-style:normal;font-variant:normal;font-weight:normal;font-stretch:normal;font-size:10.58333302px;line-height:1.25;font-family:Amiri;-inkscape-font-specification:Amiri;text-align:center;letter-spacing:-0.13229167px;word-spacing:0px;text-anchor:middle;fill:url(#LightBlue);fill-opacity:1;stroke:none;stroke-width:0.26458332"
       id="text898">
      <path
         d="m 3.2244025,60.895386 v -1.922364 q 0,-0.283703 0.3519165,-0.429431 0.1968872,-0.08216 0.4309815,-0.08216 0.2356445,0 0.4309814,0.08216 0.1178223,0.04961 0.1968872,0.113172 0.079065,-0.06356 0.1968872,-0.113172 0.1953369,-0.08216 0.4309815,-0.08216 0.2340942,0 0.4309814,0.08216 0.3519165,0.145728 0.3519165,0.429431 v 1.782837 L 5.75138,60.895386 h -0.015503 v -1.922364 q 0,-0.10697 -0.1875854,-0.181384 -0.1302246,-0.05116 -0.2852539,-0.05116 -0.1550293,0 -0.2852539,0.05116 -0.1875855,0.07441 -0.1875855,0.181384 v 1.782837 l -0.2945556,0.139527 h -0.015503 v -1.922364 q 0,-0.10697 -0.1875854,-0.181384 -0.1302246,-0.05116 -0.2852539,-0.05116 -0.1550293,0 -0.2852539,0.05116 -0.1875855,0.07441 -0.1875855,0.181384 v 1.782837 l -0.2945556,0.139527 z"
         style="font-style:normal;font-variant:normal;font-weight:normal;font-stretch:normal;font-size:3.17499995px;font-family:'Nova Flat';-inkscape-font-specification:'Nova Flat';letter-spacing:-0.13229167px;fill:url(#LightBlue);stroke-width:0.26458332"
         id="path900" />
      <path
         d="m 7.7429896,60.146594 v 0.337964 q 0,0.204639 -0.2899047,0.31936 -0.1565796,0.06046 -0.3534668,0.06046 -0.1968872,0 -0.3534668,-0.06046 -0.2899048,-0.114721 -0.2899048,-0.31936 v -1.00769 q 0,-0.204639 0.2899048,-0.319361 0.1565796,-0.06046 0.3534668,-0.06046 0.1968872,0 0.3534668,0.06046 0.2899047,0.114722 0.2899047,0.319361 v 0.198437 l -0.9766845,0.754993 q 0,0.07751 0.096118,0.116272 0.097669,0.03876 0.2371949,0.03876 0.1395263,0 0.2356445,-0.03876 0.097668,-0.03876 0.097668,-0.116272 V 60.286121 L 7.7274867,60.146594 Z M 6.7663051,60.103186 7.432931,59.566785 v -0.03566 q 0,-0.07752 -0.097668,-0.116272 -0.096118,-0.03876 -0.2356445,-0.03876 -0.1395264,0 -0.2371949,0.03876 -0.096118,0.03876 -0.096118,0.116272 z"
         style="font-style:normal;font-variant:normal;font-weight:normal;font-stretch:normal;font-size:3.17499995px;font-family:'Nova Flat';-inkscape-font-specification:'Nova Flat';letter-spacing:-0.13229167px;fill:url(#LightBlue);stroke-width:0.26458332"
         id="path902" />
      <path
         d="m 8.0788866,60.895386 v -1.418518 q 0,-0.20774 0.2899048,-0.319361 0.1565796,-0.06046 0.3534668,-0.06046 h 0.2092895 v 0.0155 l -0.1240234,0.26355 h -0.085266 q -0.1395264,0 -0.2371948,0.03876 -0.096118,0.03876 -0.096118,0.116272 v 1.224731 l -0.2945556,0.139527 z"
         style="font-style:normal;font-variant:normal;font-weight:normal;font-stretch:normal;font-size:3.17499995px;font-family:'Nova Flat';-inkscape-font-specification:'Nova Flat';letter-spacing:-0.13229167px;fill:url(#LightBlue);stroke-width:0.26458332"
         id="path904" />
      <path
         d="m 9.0628058,60.484558 v -1.00769 q 0,-0.20774 0.2899048,-0.319361 0.1565795,-0.06046 0.3534667,-0.06046 0.1968872,0 0.3534667,0.06046 0.289905,0.114722 0.289905,0.319361 v 1.64331 q 0,0.207739 -0.289905,0.319361 Q 9.9030645,61.5 9.7061773,61.5 H 9.2240362 v -0.0155 l 0.1240235,-0.26355 h 0.3581176 q 0.1395264,0 0.2356446,-0.03876 0.097668,-0.03876 0.097668,-0.116272 V 60.81167 q -0.1488278,0.05271 -0.3333127,0.05271 -0.1968872,0 -0.3534667,-0.06046 -0.2899048,-0.114721 -0.2899048,-0.31936 z m 0.3100586,-0.05426 q 0,0.07751 0.096118,0.116272 0.097669,0.03876 0.2371948,0.03876 0.1410767,0 0.2371949,-0.03876 0.096118,-0.03876 0.096118,-0.116272 v -0.89917 q 0,-0.07752 -0.097668,-0.116272 -0.096118,-0.03876 -0.2356446,-0.03876 -0.1395263,0 -0.2371948,0.03876 -0.096118,0.03876 -0.096118,0.116272 z"
         style="font-style:normal;font-variant:normal;font-weight:normal;font-stretch:normal;font-size:3.17499995px;font-family:'Nova Flat';-inkscape-font-specification:'Nova Flat';letter-spacing:-0.13229167px;fill:url(#LightBlue);stroke-width:0.26458332"
         id="path906" />
      <path
         d="m 12.015597,60.146594 v 0.337964 q 0,0.204639 -0.289905,0.31936 -0.156579,0.06046 -0.353467,0.06046 -0.196887,0 -0.353466,-0.06046 -0.289905,-0.114721 -0.289905,-0.31936 v -1.00769 q 0,-0.204639 0.289905,-0.319361 0.156579,-0.06046 0.353466,-0.06046 0.196888,0 0.353467,0.06046 0.289905,0.114722 0.289905,0.319361 v 0.198437 l -0.976685,0.754993 q 0,0.07751 0.09612,0.116272 0.09767,0.03876 0.237194,0.03876 0.139527,0 0.235645,-0.03876 0.09767,-0.03876 0.09767,-0.116272 v -0.144177 l 0.294556,-0.139527 z m -0.976685,-0.04341 0.666626,-0.536401 v -0.03566 q 0,-0.07752 -0.09767,-0.116272 -0.09612,-0.03876 -0.235645,-0.03876 -0.139526,0 -0.237194,0.03876 -0.09612,0.03876 -0.09612,0.116272 z"
         style="font-style:normal;font-variant:normal;font-weight:normal;font-stretch:normal;font-size:3.17499995px;font-family:'Nova Flat';-inkscape-font-specification:'Nova Flat';letter-spacing:-0.13229167px;fill:url(#LightBlue);stroke-width:0.26458332"
         id="path908" />
    </g>
    <g
       aria-label="Sort"
       transform="matrix(1.0000112,0,0,0.99998878,0,-3.700004)"
       style="font-style:normal;font-variant:normal;font-weight:normal;font-stretch:normal;font-size:3.17503572px;line-height:1.25;font-family:'Nova Flat';-inkscape-font-specification:'Nova Flat';text-align:center;letter-spacing:-0.13229316px;word-spacing:0px;text-anchor:middle;fill:url(#DarkerBlue);fill-opacity:1;stroke:none;stroke-width:0.26458332"
       id="text913">
      <path
         d="m 6.4999271,69.725639 0.294559,-0.139528 h 0.015503 v 0.372075 q 0,0.106971 0.1875876,0.181386 0.130226,0.05116 0.2852571,0.05116 0.155031,0 0.2852571,-0.05116 0.1875876,-0.07442 0.1875876,-0.181386 v -0.451141 q 0,-0.108522 -0.1875876,-0.181386 -0.1302261,-0.05116 -0.2852571,-0.05116 -0.1968894,0 -0.3534708,-0.06046 -0.289908,-0.114723 -0.289908,-0.319364 v -0.44804 q 0,-0.207742 0.289908,-0.319364 0.1565814,-0.06046 0.3534708,-0.06046 0.1968894,0 0.3534708,0.06046 0.289908,0.114723 0.289908,0.319364 v 0.19844 l -0.294559,0.139528 h -0.015503 v -0.283707 q 0,-0.07752 -0.09767,-0.116274 -0.096119,-0.03876 -0.2356472,-0.03876 -0.139528,0 -0.2371975,0.03876 -0.096119,0.03876 -0.096119,0.116274 v 0.339518 q 0,0.07752 0.096119,0.116273 0.097669,0.03876 0.2371975,0.03876 0.2340969,0 0.4309863,0.08217 0.3519204,0.145729 0.3519204,0.429436 v 0.451141 q 0,0.282156 -0.3519204,0.429435 -0.1968894,0.08217 -0.4309863,0.08217 -0.2340969,0 -0.4309863,-0.08217 Q 6.4999266,70.2419 6.4999266,69.958194 Z"
         style="font-style:normal;font-variant:normal;font-weight:normal;font-stretch:normal;font-size:3.17503572px;font-family:'Nova Flat';-inkscape-font-specification:'Nova Flat';letter-spacing:-0.13229316px;fill:url(#DarkerBlue);stroke-width:0.26458332"
         id="path930"
         inkscape:connector-curvature="0" />
      <path
         d="m 8.7272063,70.035701 q 0,0.07752 0.096119,0.116273 0.09767,0.03876 0.2371975,0.03876 0.139528,0 0.2356472,-0.03876 0.09767,-0.03876 0.09767,-0.116273 v -0.89918 q 0,-0.07752 -0.09767,-0.116273 -0.096119,-0.03876 -0.2356472,-0.03876 -0.1395279,0 -0.2371975,0.03876 -0.096119,0.03876 -0.096119,0.116273 z m -0.3100621,0.05426 V 69.08226 q 0,-0.204641 0.2899081,-0.319364 0.1565813,-0.06046 0.3534707,-0.06046 0.1968894,0 0.3534708,0.06046 0.289908,0.114723 0.289908,0.319364 v 1.007702 q 0,0.204641 -0.289908,0.319364 -0.1565814,0.06046 -0.3534708,0.06046 -0.1968894,0 -0.3534707,-0.06046 -0.2899081,-0.114723 -0.2899081,-0.319365 z"
         style="font-style:normal;font-variant:normal;font-weight:normal;font-stretch:normal;font-size:3.17503572px;font-family:'Nova Flat';-inkscape-font-specification:'Nova Flat';letter-spacing:-0.13229316px;fill:url(#DarkerBlue);stroke-width:0.26458332"
         id="path932"
         inkscape:connector-curvature="0" />
      <path
         d="M 10.039802,70.500794 V 69.08226 q 0,-0.207741 0.289909,-0.319364 0.156581,-0.06046 0.35347,-0.06046 h 0.209292 v 0.0155 l -0.124025,0.263553 h -0.08527 q -0.139528,0 -0.237197,0.03876 -0.09612,0.03876 -0.09612,0.116273 v 1.224745 l -0.294559,0.139528 z"
         style="font-style:normal;font-variant:normal;font-weight:normal;font-stretch:normal;font-size:3.17503572px;font-family:'Nova Flat';-inkscape-font-specification:'Nova Flat';letter-spacing:-0.13229316px;fill:url(#DarkerBlue);stroke-width:0.26458332"
         id="path934"
         inkscape:connector-curvature="0" />
      <path
         d="m 11.228374,70.500794 v -1.485197 h -0.39843 v -0.0155 l 0.125575,-0.266654 h 0.272855 v -0.558111 l 0.294559,-0.139528 h 0.0155 v 0.697639 h 0.398429 v 0.0155 l -0.125575,0.266654 h -0.272854 v 1.345669 l -0.294559,0.139528 z"
         style="font-style:normal;font-variant:normal;font-weight:normal;font-stretch:normal;font-size:3.17503572px;font-family:'Nova Flat';-inkscape-font-specification:'Nova Flat';letter-spacing:-0.13229316px;fill:url(#DarkerBlue);stroke-width:0.26458332"
         id="path936"
         inkscape:connector-curvature="0" />
    </g>
    <g
       aria-label="Split"
       style="font-style:normal;font-variant:normal;font-weight:normal;font-stretch:normal;font-size:3.17499995px;line-height:1.25;font-family:'Nova Flat';-inkscape-font-specification:'Nova Flat';text-align:center;letter-spacing:-0.13229167px;word-spacing:0px;text-anchor:middle;fill:url(#DarkerBlue);fill-opacity:1;stroke:none;stroke-width:0.26458332"
       id="text917">
      <path
         d="m 4.5584297,78.589233 0.2945557,-0.139526 h 0.015503 v 0.37207 q 0,0.106971 0.1875855,0.181385 0.1302246,0.05116 0.2852539,0.05116 0.1550293,0 0.2852539,-0.05116 0.1875854,-0.07441 0.1875854,-0.181385 v -0.451135 q 0,-0.10852 -0.1875854,-0.181384 -0.1302246,-0.05116 -0.2852539,-0.05116 -0.1968872,0 -0.3534668,-0.06046 -0.2899048,-0.114722 -0.2899048,-0.319361 v -0.448034 q 0,-0.20774 0.2899048,-0.319361 0.1565796,-0.06046 0.3534668,-0.06046 0.1968872,0 0.3534667,0.06046 0.2899048,0.114722 0.2899048,0.319361 v 0.198437 l -0.2945556,0.139527 h -0.015503 v -0.283704 q 0,-0.07752 -0.097668,-0.116272 -0.096118,-0.03876 -0.2356445,-0.03876 -0.1395264,0 -0.2371949,0.03876 -0.096118,0.03876 -0.096118,0.116272 v 0.339514 q 0,0.07752 0.096118,0.116272 0.097668,0.03876 0.2371949,0.03876 0.2340942,0 0.4309814,0.08217 0.3519165,0.145727 0.3519165,0.429431 v 0.451135 q 0,0.282154 -0.3519165,0.429431 -0.1968872,0.08217 -0.4309814,0.08217 -0.2340943,0 -0.4309815,-0.08217 -0.3519165,-0.145727 -0.3519165,-0.429431 z"
         style="font-style:normal;font-variant:normal;font-weight:normal;font-stretch:normal;font-size:3.17499995px;font-family:'Nova Flat';-inkscape-font-specification:'Nova Flat';letter-spacing:-0.13229167px;fill:url(#DarkerBlue);stroke-width:0.26458332"
         id="path919" />
      <path
         d="m 7.8398832,77.945862 q 0,0 0,1.00769 0,0.20774 -0.2899048,0.319361 -0.1565796,0.06046 -0.3534668,0.06046 -0.1844848,0 -0.333313,-0.05271 v 0.57981 L 6.568643,80 H 6.55314 v -2.054138 q 0,-0.207739 0.2899048,-0.319361 0.1565796,-0.06046 0.3534668,-0.06046 0.1968872,0 0.3534668,0.06046 0.2899048,0.114722 0.2899048,0.319361 z m -0.3100586,0.05426 q 0,-0.07752 -0.097669,-0.116272 -0.096118,-0.03876 -0.2356445,-0.03876 -0.1395263,0 -0.2371948,0.03876 -0.096118,0.03876 -0.096118,0.116272 v 0.89917 q 0,0.07751 0.096118,0.116272 0.097669,0.03876 0.2371948,0.03876 0.1395264,0 0.2356445,-0.03876 0.097669,-0.03876 0.097669,-0.116272 z"
         style="font-style:normal;font-variant:normal;font-weight:normal;font-stretch:normal;font-size:3.17499995px;font-family:'Nova Flat';-inkscape-font-specification:'Nova Flat';letter-spacing:-0.13229167px;fill:url(#DarkerBlue);stroke-width:0.26458332"
         id="path921" />
      <path
         d="m 8.2501941,79.36438 v -2.32544 l 0.2945556,-0.139526 h 0.015503 v 2.32544 L 8.265697,79.36438 Z"
         style="font-style:normal;font-variant:normal;font-weight:normal;font-stretch:normal;font-size:3.17499995px;font-family:'Nova Flat';-inkscape-font-specification:'Nova Flat';letter-spacing:-0.13229167px;fill:url(#DarkerBlue);stroke-width:0.26458332"
         id="path923" />
      <path
         d="m 9.0713325,77.254431 q -0.05426,-0.05581 -0.05426,-0.133325 0,-0.07906 0.05426,-0.134875 0.05426,-0.05581 0.1317749,-0.05581 0.077515,0 0.1317749,0.05581 0.05426,0.05581 0.05426,0.134875 0,0.07752 -0.05426,0.133325 -0.05426,0.05581 -0.1317749,0.05581 -0.077515,0 -0.1317749,-0.05581 z m -0.023254,2.109949 v -1.689819 l 0.2945556,-0.139527 h 0.015503 v 1.68982 L 9.063581,79.36438 Z"
         style="font-style:normal;font-variant:normal;font-weight:normal;font-stretch:normal;font-size:3.17499995px;font-family:'Nova Flat';-inkscape-font-specification:'Nova Flat';letter-spacing:-0.13229167px;fill:url(#DarkerBlue);stroke-width:0.26458332"
         id="path925" />
      <path
         d="M 9.9730865,79.36438 V 77.879199 H 9.5746613 v -0.0155 L 9.700235,77.597046 H 9.9730865 V 77.03894 l 0.2945555,-0.139526 h 0.0155 v 0.697632 h 0.398425 v 0.0155 l -0.125573,0.26665 h -0.272852 v 1.345655 L 9.9885895,79.36438 Z"
         style="font-style:normal;font-variant:normal;font-weight:normal;font-stretch:normal;font-size:3.17499995px;font-family:'Nova Flat';-inkscape-font-specification:'Nova Flat';letter-spacing:-0.13229167px;fill:url(#DarkerBlue);stroke-width:0.26458332"
         id="path927" />
    </g>
  </g>
</svg>
