<svg xmlns="http://www.w3.org/2000/svg" viewBox="0 -0.5 67 10" shape-rendering="crispEdges">
<metadata>Made with Pixels to Svg https://codepen.io/shshaw/pen/XbxvNj</metadata>
<path stroke="#c1f0f2" d="M0 0h67M0 1h1M6 1h5M16 1h5M28 1h1M36 1h5M46 1h5M56 1h5M66 1h1M0 2h1M6 2h1M10 2h1M16 2h5M28 2h1M36 2h5M46 2h5M56 2h5M66 2h1M0 3h1M6 3h1M10 3h1M16 3h5M28 3h1M36 3h5M46 3h5M56 3h5M66 3h1M0 4h1M2 4h3M6 4h1M10 4h1M12 4h3M16 4h5M28 4h1M36 4h5M46 4h5M56 4h5M66 4h1M0 5h1M2 5h3M6 5h5M12 5h3M16 5h5M28 5h1M36 5h5M46 5h5M56 5h5M66 5h1M0 6h1M2 6h3M8 6h1M12 6h3M18 6h1M28 6h1M38 6h1M48 6h1M58 6h1M66 6h1M0 7h1M8 7h1M18 7h1M28 7h1M38 7h1M48 7h1M58 7h1M66 7h1M0 8h1M8 8h1M18 8h1M28 8h1M38 8h1M48 8h1M58 8h1M66 8h1M0 9h67" />
</svg>