<svg xmlns="http://www.w3.org/2000/svg" viewBox="0 -0.5 65 10" shape-rendering="crispEdges">
<metadata>Made with Pixels to Svg https://codepen.io/shshaw/pen/XbxvNj</metadata>
<path stroke="#c1f0f2" d="M0 0h65M0 1h1M6 1h5M16 1h5M27 1h1M34 1h5M44 1h5M54 1h5M64 1h1M0 2h1M6 2h1M10 2h1M16 2h5M27 2h1M34 2h5M44 2h5M54 2h5M64 2h1M0 3h1M6 3h1M10 3h1M16 3h5M27 3h1M34 3h5M44 3h5M54 3h5M64 3h1M0 4h1M2 4h3M6 4h1M10 4h1M12 4h3M16 4h5M27 4h1M34 4h5M44 4h5M54 4h5M64 4h1M0 5h1M2 5h3M6 5h5M12 5h3M16 5h5M27 5h1M34 5h5M44 5h5M54 5h5M64 5h1M0 6h1M2 6h3M8 6h1M12 6h3M18 6h1M27 6h1M36 6h1M46 6h1M56 6h1M64 6h1M0 7h1M8 7h1M18 7h1M27 7h1M36 7h1M46 7h1M56 7h1M64 7h1M0 8h1M8 8h1M18 8h1M27 8h1M36 8h1M46 8h1M56 8h1M64 8h1M0 9h65" />
</svg>