<?xml version="1.0" encoding="UTF-8" standalone="no"?>
<!-- Created with Inkscape (http://www.inkscape.org/) -->

<svg
   xmlns:dc="http://purl.org/dc/elements/1.1/"
   xmlns:cc="http://creativecommons.org/ns#"
   xmlns:rdf="http://www.w3.org/1999/02/22-rdf-syntax-ns#"
   xmlns:svg="http://www.w3.org/2000/svg"
   xmlns="http://www.w3.org/2000/svg"
   xmlns:xlink="http://www.w3.org/1999/xlink"
   xmlns:sodipodi="http://sodipodi.sourceforge.net/DTD/sodipodi-0.dtd"
   xmlns:inkscape="http://www.inkscape.org/namespaces/inkscape"
   width="8mm"
   height="8mm"
   viewBox="0 0 8 8"
   version="1.1"
   id="svg2386"
   sodipodi:docname="08-lit.svg"
   inkscape:version="0.92.4 (5da689c313, 2019-01-14)">
  <defs
     id="defs2380">
    <linearGradient
       inkscape:collect="always"
       xlink:href="#linearGradient1946"
       id="linearGradient1898"
       gradientUnits="userSpaceOnUse"
       gradientTransform="translate(-31.36742,44.70878)"
       x1="75.500244"
       y1="42.599998"
       x2="75.500244"
       y2="50.599998" />
    <linearGradient
       id="linearGradient1946"
       inkscape:collect="always">
      <stop
         id="stop1942"
         offset="0"
         style="stop-color:#ffcc03;stop-opacity:1" />
      <stop
         id="stop1944"
         offset="1"
         style="stop-color:#d3a900;stop-opacity:1" />
    </linearGradient>
    <linearGradient
       inkscape:collect="always"
       xlink:href="#linearGradient1952"
       id="linearGradient1924"
       gradientUnits="userSpaceOnUse"
       gradientTransform="translate(-31.367664,44.70878)"
       x1="75.500244"
       y1="42.599998"
       x2="75.500244"
       y2="48.029541" />
    <linearGradient
       inkscape:collect="always"
       id="linearGradient1952">
      <stop
         style="stop-color:#fcaebb;stop-opacity:0.02525252"
         offset="0"
         id="stop1948" />
      <stop
         style="stop-color:#fcaebb;stop-opacity:1"
         offset="1"
         id="stop1950" />
    </linearGradient>
  </defs>
  <sodipodi:namedview
     id="base"
     pagecolor="#ffffff"
     bordercolor="#666666"
     borderopacity="1.0"
     inkscape:pageopacity="0.0"
     inkscape:pageshadow="2"
     inkscape:zoom="9.5762943"
     inkscape:cx="26.649656"
     inkscape:cy="1.1075713"
     inkscape:document-units="mm"
     inkscape:current-layer="layer1"
     showgrid="false"
     inkscape:window-width="1920"
     inkscape:window-height="1019"
     inkscape:window-x="1076"
     inkscape:window-y="442"
     inkscape:window-maximized="1" />
  <metadata
     id="metadata2383">
    <rdf:RDF>
      <cc:Work
         rdf:about="">
        <dc:format>image/svg+xml</dc:format>
        <dc:type
           rdf:resource="http://purl.org/dc/dcmitype/StillImage" />
        <dc:title></dc:title>
      </cc:Work>
    </rdf:RDF>
  </metadata>
  <g
     inkscape:label="Layer 1"
     inkscape:groupmode="layer"
     id="layer1"
     transform="translate(0,-289)">
    <g
       transform="translate(-44.132576,201.69123)"
       style="display:inline"
       id="g2303">
      <rect
         ry="1"
         rx="1"
         style="display:inline;opacity:1;fill:url(#linearGradient1898);fill-opacity:1;stroke:none;stroke-width:0.86176169;stroke-linejoin:round;stroke-miterlimit:4;stroke-dasharray:none;stroke-opacity:0.89949796;paint-order:fill markers stroke"
         id="rect1610"
         width="8"
         height="8"
         x="44.132824"
         y="87.308769" />
      <path
         inkscape:connector-curvature="0"
         id="path1628"
         d="m 51.729777,87.509027 c 0.125831,0.167233 0.203089,0.373634 0.203089,0.599964 v 5.999633 c 0,0.554001 -0.445939,0.99994 -0.99994,0.99994 h -6.000152 c -0.225358,0 -0.430511,-0.07617 -0.597379,-0.201022 0.182132,0.242625 0.469808,0.40101 0.797886,0.40101 h 5.999633 c 0.554001,0 0.99994,-0.445939 0.99994,-0.99994 v -5.999633 c 0,-0.329129 -0.15912,-0.617935 -0.403077,-0.799952 z"
         style="display:inline;opacity:1;fill:#fcaebb;fill-opacity:1;stroke:none;stroke-width:0.86176163;stroke-linejoin:round;stroke-miterlimit:4;stroke-dasharray:none;stroke-opacity:0.89949796;paint-order:fill markers stroke" />
      <path
         inkscape:connector-curvature="0"
         id="path1630"
         d="m 45.133281,87.308523 c -0.554001,0 -1.000456,0.446455 -1.000456,1.000456 v 5.999633 c 0,0.32834 0.159083,0.616297 0.402042,0.798402 -0.125156,-0.166982 -0.202054,-0.372753 -0.202054,-0.598414 v -5.999633 c 0,-0.554001 0.446455,-0.99994 1.000455,-0.99994 h 5.999634 c 0.22566,0 0.431432,0.07638 0.598413,0.201538 -0.182105,-0.242959 -0.470061,-0.402042 -0.798401,-0.402042 z"
         style="display:inline;opacity:1;fill:#083d45;fill-opacity:1;stroke:none;stroke-width:0.86176163;stroke-linejoin:round;stroke-miterlimit:4;stroke-dasharray:none;stroke-opacity:0.89949796;paint-order:fill markers stroke" />
      <g
         aria-label="08"
         style="font-style:normal;font-variant:normal;font-weight:normal;font-stretch:normal;font-size:4.58611107px;line-height:1.25;font-family:'Nova Cut';-inkscape-font-specification:'Nova Cut';text-align:center;letter-spacing:-0.13229166px;word-spacing:0px;text-anchor:middle;fill:#fcaebb;fill-opacity:1;stroke:none;stroke-width:0.26458332"
         id="g1700"
         transform="translate(-47.36742,52.708777)">
        <path
           d="m 93.330928,41.696926 q 0.320221,0 0.521759,-0.230649 0.161231,-0.185863 0.161231,-0.485931 v -1.321194 q 0,-0.300068 -0.161231,-0.485931 -0.199299,-0.230649 -0.521759,-0.230649 -0.324701,0 -0.52176,0.230649 -0.161231,0.185863 -0.161231,0.485931 v 1.321194 q 0,0.295589 0.161231,0.485931 0.19482,0.230649 0.52176,0.230649 z m 0,0.403076 q -0.510564,0 -0.828546,-0.3247 -0.302307,-0.309025 -0.302307,-0.794956 v -1.567519 l 1.130853,-0.873331 q 0.510563,0 0.828545,0.3247 0.302307,0.309025 0.302307,0.794956 v 1.567518 z"
           style="font-style:normal;font-variant:normal;font-weight:normal;font-stretch:normal;font-family:'Nova Cut';-inkscape-font-specification:'Nova Cut';text-align:start;text-anchor:start;fill:#fcaebb;fill-opacity:1;stroke-width:0.26458332"
           id="path1696"
           inkscape:connector-curvature="0" />
        <path
           d="m 96.270972,41.696926 q 0.320222,0 0.52176,-0.230649 0.16123,-0.185863 0.16123,-0.485931 0,-0.291111 -0.132119,-0.441145 -0.190342,-0.210495 -0.55311,-0.210495 -0.288871,0 -0.519521,0.22841 -0.16123,0.156752 -0.16123,0.436666 0,0.284392 0.16123,0.472495 0.194821,0.230649 0.52176,0.230649 z m 0,0.403076 q -0.528478,0 -0.835263,-0.360529 -0.291111,-0.342615 -0.295589,-0.909161 l 0.741212,-0.573264 q -0.176906,-0.06718 -0.315743,-0.197059 -0.223931,-0.210496 -0.223931,-0.588939 v -0.212735 l 0.929314,-0.718819 q 0.42323,0.02911 0.65164,0.214974 0.277675,0.22617 0.277675,0.77928 l -0.559828,0.429948 q 0.282153,0.06046 0.459059,0.217213 0.302307,0.268718 0.302307,0.794956 v 0.250803 z m -0.0022,-2.174372 q 0.22617,0 0.35605,-0.136598 0.127641,-0.136598 0.127641,-0.387401 0,-0.255282 -0.145555,-0.385162 -0.138837,-0.123162 -0.335897,-0.123162 -0.219452,0 -0.349333,0.136598 -0.132119,0.136598 -0.132119,0.38964 0,0.248564 0.100769,0.356051 0.138837,0.150034 0.378444,0.150034 z"
           style="font-style:normal;font-variant:normal;font-weight:normal;font-stretch:normal;font-family:'Nova Cut';-inkscape-font-specification:'Nova Cut';text-align:start;text-anchor:start;fill:#fcaebb;fill-opacity:1;stroke-width:0.26458332"
           id="path1698"
           inkscape:connector-curvature="0" />
      </g>
      <g
         id="g1796"
         style="font-style:normal;font-variant:normal;font-weight:normal;font-stretch:normal;font-size:4.58611107px;line-height:1.25;font-family:'Nova Cut';-inkscape-font-specification:'Nova Cut';text-align:center;letter-spacing:-0.13229166px;word-spacing:0px;text-anchor:middle;fill:#0e6977;fill-opacity:1;stroke:none;stroke-width:0.26458332"
         aria-label="08"
         transform="translate(-47.16442,52.408777)">
        <path
           inkscape:connector-curvature="0"
           id="path1792"
           style="font-style:normal;font-variant:normal;font-weight:normal;font-stretch:normal;font-family:'Nova Cut';-inkscape-font-specification:'Nova Cut';text-align:start;text-anchor:start;fill:#0e6977;fill-opacity:1;stroke-width:0.26458332"
           d="m 93.330928,41.696926 q 0.320221,0 0.521759,-0.230649 0.161231,-0.185863 0.161231,-0.485931 v -1.321194 q 0,-0.300068 -0.161231,-0.485931 -0.199299,-0.230649 -0.521759,-0.230649 -0.324701,0 -0.52176,0.230649 -0.161231,0.185863 -0.161231,0.485931 v 1.321194 q 0,0.295589 0.161231,0.485931 0.19482,0.230649 0.52176,0.230649 z m 0,0.403076 q -0.510564,0 -0.828546,-0.3247 -0.302307,-0.309025 -0.302307,-0.794956 v -1.567519 l 1.130853,-0.873331 q 0.510563,0 0.828545,0.3247 0.302307,0.309025 0.302307,0.794956 v 1.567518 z" />
        <path
           inkscape:connector-curvature="0"
           id="path1794"
           style="font-style:normal;font-variant:normal;font-weight:normal;font-stretch:normal;font-family:'Nova Cut';-inkscape-font-specification:'Nova Cut';text-align:start;text-anchor:start;fill:#0e6977;fill-opacity:1;stroke-width:0.26458332"
           d="m 96.270972,41.696926 q 0.320222,0 0.52176,-0.230649 0.16123,-0.185863 0.16123,-0.485931 0,-0.291111 -0.132119,-0.441145 -0.190342,-0.210495 -0.55311,-0.210495 -0.288871,0 -0.519521,0.22841 -0.16123,0.156752 -0.16123,0.436666 0,0.284392 0.16123,0.472495 0.194821,0.230649 0.52176,0.230649 z m 0,0.403076 q -0.528478,0 -0.835263,-0.360529 -0.291111,-0.342615 -0.295589,-0.909161 l 0.741212,-0.573264 q -0.176906,-0.06718 -0.315743,-0.197059 -0.223931,-0.210496 -0.223931,-0.588939 v -0.212735 l 0.929314,-0.718819 q 0.42323,0.02911 0.65164,0.214974 0.277675,0.22617 0.277675,0.77928 l -0.559828,0.429948 q 0.282153,0.06046 0.459059,0.217213 0.302307,0.268718 0.302307,0.794956 v 0.250803 z m -0.0022,-2.174372 q 0.22617,0 0.35605,-0.136598 0.127641,-0.136598 0.127641,-0.387401 0,-0.255282 -0.145555,-0.385162 -0.138837,-0.123162 -0.335897,-0.123162 -0.219452,0 -0.349333,0.136598 -0.132119,0.136598 -0.132119,0.38964 0,0.248564 0.100769,0.356051 0.138837,0.150034 0.378444,0.150034 z" />
      </g>
      <rect
         ry="1"
         rx="1"
         style="display:inline;opacity:0.58200001;fill:url(#linearGradient1924);fill-opacity:1;stroke:none;stroke-width:0.86176169;stroke-linejoin:round;stroke-miterlimit:4;stroke-dasharray:none;stroke-opacity:0.89949796;paint-order:fill markers stroke"
         id="rect1860"
         width="8"
         height="8"
         x="44.132576"
         y="87.308769" />
    </g>
  </g>
</svg>
