<?xml version="1.0" encoding="UTF-8" standalone="no"?>
<!-- Created with Inkscape (http://www.inkscape.org/) -->

<svg
   xmlns:dc="http://purl.org/dc/elements/1.1/"
   xmlns:cc="http://creativecommons.org/ns#"
   xmlns:rdf="http://www.w3.org/1999/02/22-rdf-syntax-ns#"
   xmlns:svg="http://www.w3.org/2000/svg"
   xmlns="http://www.w3.org/2000/svg"
   xmlns:xlink="http://www.w3.org/1999/xlink"
   xmlns:sodipodi="http://sodipodi.sourceforge.net/DTD/sodipodi-0.dtd"
   xmlns:inkscape="http://www.inkscape.org/namespaces/inkscape"
   width="8mm"
   height="8mm"
   viewBox="0 0 8 8"
   version="1.1"
   id="svg2386"
   sodipodi:docname="16.svg"
   inkscape:version="0.92.4 (5da689c313, 2019-01-14)">
  <defs
     id="defs2380">
    <linearGradient
       inkscape:collect="always"
       xlink:href="#linearGradient1376"
       id="linearGradient1486"
       gradientUnits="userSpaceOnUse"
       gradientTransform="translate(-31.36742,-40.082886)"
       x1="75.500244"
       y1="42.599998"
       x2="75.500244"
       y2="50.599998" />
    <linearGradient
       inkscape:collect="always"
       id="linearGradient1376">
      <stop
         style="stop-color:#0e6977;stop-opacity:1;"
         offset="0"
         id="stop1372" />
      <stop
         style="stop-color:#469ca9;stop-opacity:1"
         offset="1"
         id="stop1374" />
    </linearGradient>
    <linearGradient
       inkscape:collect="always"
       xlink:href="#linearGradient1397"
       id="linearGradient1556"
       gradientUnits="userSpaceOnUse"
       gradientTransform="translate(-31.367664,-40.082886)"
       x1="75.500244"
       y1="42.599998"
       x2="75.500244"
       y2="48.029541" />
    <linearGradient
       id="linearGradient1397"
       inkscape:collect="always">
      <stop
         id="stop1393"
         offset="0"
         style="stop-color:#c1f0f2;stop-opacity:0.875" />
      <stop
         id="stop1395"
         offset="1"
         style="stop-color:#c1f0f2;stop-opacity:0;" />
    </linearGradient>
  </defs>
  <sodipodi:namedview
     id="base"
     pagecolor="#ffffff"
     bordercolor="#666666"
     borderopacity="1.0"
     inkscape:pageopacity="0.0"
     inkscape:pageshadow="2"
     inkscape:zoom="9.5762943"
     inkscape:cx="26.649656"
     inkscape:cy="1.1075713"
     inkscape:document-units="mm"
     inkscape:current-layer="layer1"
     showgrid="false"
     inkscape:window-width="1920"
     inkscape:window-height="1019"
     inkscape:window-x="1076"
     inkscape:window-y="442"
     inkscape:window-maximized="1" />
  <metadata
     id="metadata2383">
    <rdf:RDF>
      <cc:Work
         rdf:about="">
        <dc:format>image/svg+xml</dc:format>
        <dc:type
           rdf:resource="http://purl.org/dc/dcmitype/StillImage" />
        <dc:title></dc:title>
      </cc:Work>
    </rdf:RDF>
  </metadata>
  <g
     inkscape:label="Layer 1"
     inkscape:groupmode="layer"
     id="layer1"
     transform="translate(0,-289)">
    <g
       transform="translate(-44.13258,286.48289)"
       style="display:inline"
       id="g2015">
      <rect
         ry="1"
         rx="1"
         style="display:inline;opacity:1;fill:url(#linearGradient1486);fill-opacity:1;stroke:none;stroke-width:0.86176169;stroke-linejoin:round;stroke-miterlimit:4;stroke-dasharray:none;stroke-opacity:0.89949796;paint-order:fill markers stroke"
         id="rect1470"
         width="8"
         height="8"
         x="44.132824"
         y="2.5171089" />
      <path
         inkscape:connector-curvature="0"
         id="path25296"
         d="m 51.729777,2.7173565 c 0.125831,0.167233 0.203089,0.373634 0.203089,0.599964 v 5.999633 c 0,0.554001 -0.445939,0.9999405 -0.99994,0.9999405 h -6.000152 c -0.225358,0 -0.430511,-0.07617 -0.597379,-0.201022 0.182132,0.242625 0.469808,0.40101 0.797886,0.40101 h 5.999633 c 0.554001,0 0.99994,-0.445939 0.99994,-0.9999405 v -5.999633 c 0,-0.329129 -0.15912,-0.617935 -0.403077,-0.799952 z"
         style="display:inline;opacity:1;fill:#083d45;fill-opacity:1;stroke:none;stroke-width:0.86176163;stroke-linejoin:round;stroke-miterlimit:4;stroke-dasharray:none;stroke-opacity:0.89949796;paint-order:fill markers stroke" />
      <path
         inkscape:connector-curvature="0"
         id="path25298"
         d="m 45.133281,2.5168525 c -0.554001,0 -1.000456,0.446455 -1.000456,1.000456 v 5.999633 c 0,0.32834 0.159083,0.6162975 0.402042,0.7984025 -0.125156,-0.166982 -0.202054,-0.3727535 -0.202054,-0.5984145 v -5.999633 c 0,-0.554001 0.446455,-0.99994 1.000455,-0.99994 h 5.999634 c 0.22566,0 0.431432,0.07638 0.598413,0.201538 -0.182105,-0.242959 -0.470061,-0.402042 -0.798401,-0.402042 z"
         style="display:inline;opacity:1;fill:#76bfbe;fill-opacity:1;stroke:none;stroke-width:0.86176163;stroke-linejoin:round;stroke-miterlimit:4;stroke-dasharray:none;stroke-opacity:0.89949796;paint-order:fill markers stroke" />
      <g
         transform="translate(-47.36742,-16.082891)"
         id="text25464"
         style="font-style:normal;font-variant:normal;font-weight:normal;font-stretch:normal;font-size:4.58611107px;line-height:1.25;font-family:'Nova Cut';-inkscape-font-specification:'Nova Cut';text-align:center;letter-spacing:-0.13229166px;word-spacing:0px;text-anchor:middle;fill:#0e6977;fill-opacity:1;stroke:none;stroke-width:0.26458332"
         aria-label="16">
        <path
           inkscape:connector-curvature="0"
           id="path25530"
           style="font-style:normal;font-variant:normal;font-weight:normal;font-stretch:normal;font-family:'Nova Cut';-inkscape-font-specification:'Nova Cut';text-align:start;text-anchor:start;fill:#0e6977;fill-opacity:1;stroke-width:0.26458332"
           d="M 92.743392,26.100002 V 23.005273 L 92.197,23.260554 v -0.257521 l 0.971862,-0.463537 h 0.02239 v 3.358968 l -0.425469,0.201538 z" />
        <path
           inkscape:connector-curvature="0"
           id="path25532"
           style="font-style:normal;font-variant:normal;font-weight:normal;font-stretch:normal;font-family:'Nova Cut';-inkscape-font-specification:'Nova Cut';text-align:start;text-anchor:start;fill:#0e6977;fill-opacity:1;stroke-width:0.26458332"
           d="m 95.201985,26.100002 q -0.52176,0 -0.828546,-0.3247 -0.302307,-0.320222 -0.302307,-0.794956 v -1.567519 l 1.130853,-0.873331 q 0.539674,0 0.828545,0.302307 0.288871,0.300068 0.288871,0.620289 l -0.412033,0.19706 h -0.02239 q 0,-0.297829 -0.161231,-0.485931 -0.201538,-0.230649 -0.521759,-0.230649 -0.320222,0 -0.52176,0.230649 -0.16123,0.185863 -0.16123,0.485931 v 0.725537 l 0.68299,-0.528478 q 0.521759,0 0.828545,0.3247 0.302307,0.320222 0.302307,0.794956 v 0.250803 z m 0,-0.403076 q 0.315743,0 0.521759,-0.230649 0.161231,-0.181385 0.161231,-0.485931 0,-0.302307 -0.161231,-0.490409 -0.197059,-0.23065 -0.521759,-0.23065 -0.320222,0 -0.52176,0.23065 -0.16123,0.185862 -0.16123,0.490409 0,0.297828 0.16123,0.485931 0.19706,0.230649 0.52176,0.230649 z" />
      </g>
      <g
         transform="translate(-47.16442,-16.382893)"
         aria-label="16"
         style="font-style:normal;font-variant:normal;font-weight:normal;font-stretch:normal;font-size:4.58611107px;line-height:1.25;font-family:'Nova Cut';-inkscape-font-specification:'Nova Cut';text-align:center;letter-spacing:-0.13229166px;word-spacing:0px;text-anchor:middle;fill:#c1f0f2;fill-opacity:1;stroke:none;stroke-width:0.26458332"
         id="g26456">
        <path
           d="M 92.743392,26.100002 V 23.005273 L 92.197,23.260554 v -0.257521 l 0.971862,-0.463537 h 0.02239 v 3.358968 l -0.425469,0.201538 z"
           style="font-style:normal;font-variant:normal;font-weight:normal;font-stretch:normal;font-family:'Nova Cut';-inkscape-font-specification:'Nova Cut';text-align:start;text-anchor:start;fill:#c1f0f2;fill-opacity:1;stroke-width:0.26458332"
           id="path26452"
           inkscape:connector-curvature="0" />
        <path
           d="m 95.201985,26.100002 q -0.52176,0 -0.828546,-0.3247 -0.302307,-0.320222 -0.302307,-0.794956 v -1.567519 l 1.130853,-0.873331 q 0.539674,0 0.828545,0.302307 0.288871,0.300068 0.288871,0.620289 l -0.412033,0.19706 h -0.02239 q 0,-0.297829 -0.161231,-0.485931 -0.201538,-0.230649 -0.521759,-0.230649 -0.320222,0 -0.52176,0.230649 -0.16123,0.185863 -0.16123,0.485931 v 0.725537 l 0.68299,-0.528478 q 0.521759,0 0.828545,0.3247 0.302307,0.320222 0.302307,0.794956 v 0.250803 z m 0,-0.403076 q 0.315743,0 0.521759,-0.230649 0.161231,-0.181385 0.161231,-0.485931 0,-0.302307 -0.161231,-0.490409 -0.197059,-0.23065 -0.521759,-0.23065 -0.320222,0 -0.52176,0.23065 -0.16123,0.185862 -0.16123,0.490409 0,0.297828 0.16123,0.485931 0.19706,0.230649 0.52176,0.230649 z"
           style="font-style:normal;font-variant:normal;font-weight:normal;font-stretch:normal;font-family:'Nova Cut';-inkscape-font-specification:'Nova Cut';text-align:start;text-anchor:start;fill:#c1f0f2;fill-opacity:1;stroke-width:0.26458332"
           id="path26454"
           inkscape:connector-curvature="0" />
      </g>
      <rect
         ry="1"
         rx="1"
         style="display:inline;opacity:0.58200001;fill:url(#linearGradient1556);fill-opacity:1;stroke:none;stroke-width:0.86176169;stroke-linejoin:round;stroke-miterlimit:4;stroke-dasharray:none;stroke-opacity:0.89949796;paint-order:fill markers stroke"
         id="rect1540"
         width="8"
         height="8"
         x="44.13258"
         y="2.5171089" />
    </g>
  </g>
</svg>
