<?xml version="1.0" encoding="UTF-8" standalone="no"?>
<svg
   xmlns:dc="http://purl.org/dc/elements/1.1/"
   xmlns:cc="http://creativecommons.org/ns#"
   xmlns:rdf="http://www.w3.org/1999/02/22-rdf-syntax-ns#"
   xmlns:svg="http://www.w3.org/2000/svg"
   xmlns="http://www.w3.org/2000/svg"
   xmlns:sodipodi="http://sodipodi.sourceforge.net/DTD/sodipodi-0.dtd"
   xmlns:inkscape="http://www.inkscape.org/namespaces/inkscape"
   width="8.1999998mm"
   height="8.1999998mm"
   viewBox="0 0 8.1999998 8.1999998"
   version="1.1"
   id="svg5888"
   sodipodi:docname="knob-820.svg"
   inkscape:version="0.92.4 (5da689c313, 2019-01-14)">
  <metadata
     id="metadata5894">
    <rdf:RDF>
      <cc:Work
         rdf:about="">
        <dc:format>image/svg+xml</dc:format>
        <dc:type
           rdf:resource="http://purl.org/dc/dcmitype/StillImage" />
        <dc:title></dc:title>
      </cc:Work>
    </rdf:RDF>
  </metadata>
  <defs
     id="defs5892" />
  <sodipodi:namedview
     pagecolor="#ffffff"
     bordercolor="#666666"
     borderopacity="1"
     objecttolerance="10"
     gridtolerance="10"
     guidetolerance="10"
     inkscape:pageopacity="0"
     inkscape:pageshadow="2"
     inkscape:window-width="1920"
     inkscape:window-height="1019"
     id="namedview5890"
     showgrid="false"
     inkscape:zoom="9.7308926"
     inkscape:cx="5.4245984"
     inkscape:cy="10.406911"
     inkscape:window-x="1076"
     inkscape:window-y="442"
     inkscape:window-maximized="1"
     inkscape:current-layer="svg5888" />
  <circle
     style="fill:#469ca9;fill-opacity:1;stroke-width:0.25619829"
     id="path901"
     cx="4.0999999"
     cy="4.0999999"
     r="4.0999999" />
  <path
     style="color:#000000;font-style:normal;font-variant:normal;font-weight:normal;font-stretch:normal;font-size:medium;line-height:normal;font-family:sans-serif;font-variant-ligatures:normal;font-variant-position:normal;font-variant-caps:normal;font-variant-numeric:normal;font-variant-alternates:normal;font-feature-settings:normal;text-indent:0;text-align:start;text-decoration:none;text-decoration-line:none;text-decoration-style:solid;text-decoration-color:#000000;letter-spacing:normal;word-spacing:normal;text-transform:none;writing-mode:lr-tb;direction:ltr;text-orientation:mixed;dominant-baseline:auto;baseline-shift:baseline;text-anchor:start;white-space:normal;shape-padding:0;clip-rule:nonzero;display:inline;overflow:visible;visibility:visible;opacity:1;isolation:auto;mix-blend-mode:normal;color-interpolation:sRGB;color-interpolation-filters:linearRGB;solid-color:#000000;solid-opacity:1;vector-effect:none;fill:#083d45;fill-opacity:1;fill-rule:nonzero;stroke:none;stroke-width:1;stroke-linecap:butt;stroke-linejoin:round;stroke-miterlimit:4;stroke-dasharray:none;stroke-dashoffset:0;stroke-opacity:1;paint-order:fill markers stroke;color-rendering:auto;image-rendering:auto;shape-rendering:auto;text-rendering:auto;enable-background:accumulate"
     d="M 4.0996094,1.8790631e-8 C 1.8411643,1.8790631e-8 -1.8790631e-8,1.8411643 -1.8790631e-8,4.0996094 -1.8790631e-8,6.3580542 1.8411643,8.1992192 4.0996094,8.1992192 c 2.2584451,0 4.0996094,-1.841165 4.0996094,-4.0996098 C 8.1992187,1.8411643 6.3580545,1.8790631e-8 4.0996094,1.8790631e-8 Z M 4.0996094,1 c 1.718005,0 3.0996094,1.3816044 3.0996094,3.0996094 0,1.7180048 -1.3816044,3.0996098 -3.0996094,3.0996098 -1.718005,0 -3.09960942,-1.381605 -3.09960942,-3.0996098 C 0.99999998,2.3816044 2.3816044,1 4.0996094,1 Z"
     id="path8075"
     inkscape:connector-curvature="0" />
  <rect
     style="opacity:1;fill:#fcaebb;fill-opacity:1;stroke:none;stroke-width:0.75000006;stroke-linecap:butt;stroke-linejoin:round;stroke-miterlimit:4;stroke-dasharray:none;stroke-opacity:1;paint-order:fill markers stroke"
     id="rect6264"
     width="0.60000002"
     height="3.2"
     x="3.7999997"
     y="0.89999974" />
  <g
     id="g6252"
     style="fill:#0e6977;fill-opacity:1">
    <g
       style="fill:#0e6977;fill-opacity:1;stroke:none;stroke-width:0.72296762"
       transform="matrix(1.3524658,0,0,1.4146078,4.1,4.1)"
       inkscape:label="Gear10"
       id="g6238" />
    <path
       style="opacity:1;fill:#0e6977;fill-opacity:1;stroke:none;stroke-width:2.83464551;stroke-linecap:butt;stroke-linejoin:round;stroke-miterlimit:4;stroke-dasharray:none;stroke-opacity:1;paint-order:fill markers stroke"
       d="M 10.947266,0 10.46875,0.16210938 9.6386719,3.4375 C 8.3248769,4.0769662 7.1265976,4.9148443 6.0957031,5.9277344 L 3.1074219,5.7558594 2.8125,6.1816406 3.8183594,8.9023438 C 2.9898945,10.36637 2.4348958,12.002114 2.2070312,13.742188 L 0,15.232422 v 0.527344 L 2.2070312,17.25 c 0.2279265,1.740546 0.7824933,3.375513 1.6113282,4.839844 L 2.8125,24.810547 3.1074219,25.236328 6.0957031,25.064453 c 1.0308945,1.01289 2.2291738,1.850768 3.5429688,2.490235 l 0.8300781,3.27539 0.478516,0.16211 2.529296,-2.154297 0.04297,-0.08594 c 0.646978,0.09583 1.302937,0.162109 1.976563,0.162109 0.673625,0 1.329584,-0.06628 1.976562,-0.162109 l 0.04297,0.08594 2.529297,2.154297 0.478516,-0.16211 0.830078,-3.277344 c 1.313157,-0.639374 2.512497,-1.475807 3.542968,-2.488281 l 2.988282,0.171875 0.294922,-0.425781 -1.00586,-2.720703 c 0.828833,-1.464331 1.3834,-3.099298 1.611326,-4.839844 l 2.207032,-1.490234 V 15.232422 L 28.785156,13.742188 C 28.557292,12.002114 28.002293,10.36637 27.173828,8.9023438 l 1.00586,-2.7207032 -0.294922,-0.4257812 -2.988282,0.171875 C 23.866013,4.9152603 22.666673,4.0788276 21.353516,3.4394531 L 20.523438,0.16210938 20.044922,0 17.515625,2.1542969 17.472656,2.2402344 C 16.825678,2.1444096 16.169719,2.078125 15.496094,2.078125 c -0.673626,0 -1.329585,0.066285 -1.976563,0.1621094 l -0.04297,-0.085937 z m 4.548828,4.1582031 A 11.338583,11.338582 0 0 1 26.833984,15.496094 11.338583,11.338582 0 0 1 15.496094,26.833984 11.338583,11.338582 0 0 1 4.1582031,15.496094 11.338583,11.338582 0 0 1 15.496094,4.1582031 Z"
       transform="scale(0.26458334)"
       id="path6244"
       inkscape:connector-curvature="0" />
  </g>
</svg>
