<?xml version="1.0" encoding="UTF-8" standalone="no"?>
<svg
   xmlns:dc="http://purl.org/dc/elements/1.1/"
   xmlns:cc="http://creativecommons.org/ns#"
   xmlns:rdf="http://www.w3.org/1999/02/22-rdf-syntax-ns#"
   xmlns:svg="http://www.w3.org/2000/svg"
   xmlns="http://www.w3.org/2000/svg"
   xmlns:xlink="http://www.w3.org/1999/xlink"
   xmlns:sodipodi="http://sodipodi.sourceforge.net/DTD/sodipodi-0.dtd"
   xmlns:inkscape="http://www.inkscape.org/namespaces/inkscape"
   width="8.2100201mm"
   height="8.5999804mm"
   viewBox="0 0 8.2100201 8.5999804"
   version="1.1"
   id="svg1789"
   inkscape:version="1.0 (4035a4fb49, 2020-05-01)"
   sodipodi:docname="label-button-bottom-on.svg">
  <defs
     id="defs1783">
    <linearGradient
       y2="38.198635"
       x2="37.650211"
       y1="38.278351"
       x1="33.703651"
       gradientTransform="rotate(90,13.756535,128.4317)"
       gradientUnits="userSpaceOnUse"
       id="linearGradient1608"
       xlink:href="#linearGradient2345-4"
       inkscape:collect="always" />
    <linearGradient
       inkscape:collect="always"
       id="linearGradient2345-4">
      <stop
         style="stop-color:#ffcc03;stop-opacity:1"
         offset="0"
         id="stop2341" />
      <stop
         style="stop-color:#f28a40;stop-opacity:1"
         offset="1"
         id="stop2343" />
    </linearGradient>
  </defs>
  <sodipodi:namedview
     id="base"
     pagecolor="#ffffff"
     bordercolor="#666666"
     borderopacity="1.0"
     inkscape:pageopacity="0.0"
     inkscape:pageshadow="2"
     inkscape:zoom="7.9195959"
     inkscape:cx="4.9186108"
     inkscape:cy="29.815933"
     inkscape:document-units="mm"
     inkscape:current-layer="layer1"
     inkscape:document-rotation="0"
     showgrid="false"
     fit-margin-top="0"
     fit-margin-left="0"
     fit-margin-right="0"
     fit-margin-bottom="0"
     inkscape:window-width="1920"
     inkscape:window-height="1019"
     inkscape:window-x="1076"
     inkscape:window-y="442"
     inkscape:window-maximized="1" />
  <metadata
     id="metadata1786">
    <rdf:RDF>
      <cc:Work
         rdf:about="">
        <dc:format>image/svg+xml</dc:format>
        <dc:type
           rdf:resource="http://purl.org/dc/dcmitype/StillImage" />
        <dc:title></dc:title>
      </cc:Work>
    </rdf:RDF>
  </metadata>
  <g
     inkscape:label="Layer 1"
     inkscape:groupmode="layer"
     id="layer1"
     transform="translate(-103.97821,-144.06666)">
    <path
       id="path1562"
       style="color:#000000;font-style:normal;font-variant:normal;font-weight:normal;font-stretch:normal;font-size:medium;line-height:normal;font-family:sans-serif;font-variant-ligatures:normal;font-variant-position:normal;font-variant-caps:normal;font-variant-numeric:normal;font-variant-alternates:normal;font-variant-east-asian:normal;font-feature-settings:normal;font-variation-settings:normal;text-indent:0;text-align:start;text-decoration:none;text-decoration-line:none;text-decoration-style:solid;text-decoration-color:#000000;letter-spacing:normal;word-spacing:normal;text-transform:none;writing-mode:lr-tb;direction:ltr;text-orientation:mixed;dominant-baseline:auto;baseline-shift:baseline;text-anchor:start;white-space:normal;shape-padding:0;shape-margin:0;inline-size:0;clip-rule:nonzero;display:inline;overflow:visible;visibility:visible;isolation:auto;mix-blend-mode:normal;color-interpolation:sRGB;color-interpolation-filters:linearRGB;solid-color:#000000;solid-opacity:1;vector-effect:none;fill:url(#linearGradient1608);fill-opacity:1;fill-rule:nonzero;stroke:none;stroke-width:0.289438;stroke-linecap:square;stroke-linejoin:miter;stroke-miterlimit:4;stroke-dasharray:none;stroke-dashoffset:0;stroke-opacity:1;paint-order:markers stroke fill;color-rendering:auto;image-rendering:auto;shape-rendering:auto;text-rendering:auto;enable-background:accumulate;stop-color:#000000"
       d="m 112.18823,144.06769 c 0,2.26226 -1.83721,4.09898 -4.10001,4.09898 -2.2628,0 -4.10001,-1.83672 -4.10001,-4.09898 0,-3.4e-4 0,-6.8e-4 0,-0.001 h -0.01 v 2.22674 1.53324 2.29546 c 0,1.18574 0.95876,2.14458 2.14457,2.14458 h 1.85518 0.21032 1.85519 c 1.18581,0 2.14457,-0.95884 2.14457,-2.14458 v -2.29546 -1.53324 z" />
    <path
       id="path1570"
       style="color:#000000;font-style:normal;font-variant:normal;font-weight:normal;font-stretch:normal;font-size:medium;line-height:normal;font-family:sans-serif;font-variant-ligatures:normal;font-variant-position:normal;font-variant-caps:normal;font-variant-numeric:normal;font-variant-alternates:normal;font-variant-east-asian:normal;font-feature-settings:normal;font-variation-settings:normal;text-indent:0;text-align:start;text-decoration:none;text-decoration-line:none;text-decoration-style:solid;text-decoration-color:#000000;letter-spacing:normal;word-spacing:normal;text-transform:none;writing-mode:lr-tb;direction:ltr;text-orientation:mixed;dominant-baseline:auto;baseline-shift:baseline;text-anchor:start;white-space:normal;shape-padding:0;shape-margin:0;inline-size:0;clip-rule:nonzero;display:inline;overflow:visible;visibility:visible;isolation:auto;mix-blend-mode:normal;color-interpolation:sRGB;color-interpolation-filters:linearRGB;solid-color:#000000;solid-opacity:1;vector-effect:none;fill:#083d45;fill-opacity:1;fill-rule:nonzero;stroke:none;stroke-width:0.289438;stroke-linecap:square;stroke-linejoin:miter;stroke-miterlimit:4;stroke-dasharray:none;stroke-dashoffset:0;stroke-opacity:1;paint-order:markers stroke fill;color-rendering:auto;image-rendering:auto;shape-rendering:auto;text-rendering:auto;enable-background:accumulate;stop-color:#000000"
       d="m 112.18823,144.06769 c 0,0.53119 -0.10457,1.03727 -0.28887,1.50327 v 0.72244 1.53324 2.29546 c 0,1.0304 -0.82575,1.85571 -1.85622,1.85571 h -3.90984 c -1.03046,0 -1.85622,-0.82531 -1.85622,-1.85571 v -2.29546 -1.53324 -0.72244 c -0.1843,-0.466 -0.28887,-0.97208 -0.28887,-1.50327 v 2.22571 1.53324 2.29546 c 0,1.18574 0.95928,2.14458 2.14509,2.14458 h 3.90984 c 1.18581,0 2.14509,-0.95884 2.14509,-2.14458 v -2.29546 -1.53324 z" />
    <g
       aria-label="Label"
       transform="translate(256.04986,40.28348)"
       id="text1613"
       style="font-style:normal;font-variant:normal;font-weight:normal;font-stretch:normal;font-size:3.175px;line-height:1.25;font-family:'Nova Flat';-inkscape-font-specification:'Nova Flat';text-align:center;letter-spacing:-0.132292px;text-anchor:middle;display:inline;fill:#083d45;fill-opacity:1;stroke-width:0.264583">
      <path
         d="m -151.33583,110.74197 v -2.26343 l 0.29456,-0.13953 h 0.0155 v 2.1208 h 1.06195 v 0.0155 l -0.12557,0.26665 z"
         style="letter-spacing:-0.0396894px;stroke-width:0.264583"
         id="path2441" />
      <path
         d="m -148.58189,110.66445 -0.29456,0.13953 h -0.0155 v -0.0837 q -0.14883,0.0527 -0.31781,0.0527 -0.18138,0 -0.33796,-0.0605 -0.28991,-0.11472 -0.28991,-0.31936 v -0.41858 q 0,-0.20774 0.28991,-0.31936 0.15658,-0.0605 0.33796,-0.0605 0.17053,0 0.31781,0.0527 v -0.20774 q 0,-0.0775 -0.0977,-0.11627 -0.0961,-0.0388 -0.23564,-0.0388 h -0.37672 v -0.0155 l 0.12402,-0.26355 h 0.2527 q 0.19689,0 0.35347,0.0605 0.2899,0.11162 0.2899,0.31936 z m -0.94568,-0.32556 q 0,0.0775 0.0961,0.11627 0.0977,0.0388 0.22169,0.0388 0.12403,0 0.22014,-0.0388 0.0977,-0.0388 0.0977,-0.11627 v -0.31006 q 0,-0.0775 -0.0977,-0.11627 -0.0961,-0.0388 -0.22014,-0.0388 -0.12402,0 -0.22169,0.0388 -0.0961,0.0388 -0.0961,0.11627 z"
         style="font-style:normal;font-variant:normal;font-weight:normal;font-stretch:normal;font-size:3.175px;font-family:'Nova Flat';-inkscape-font-specification:'Nova Flat';fill:#083d45;fill-opacity:1;stroke-width:0.264583"
         id="path2443" />
      <path
         d="m -148.17158,110.39315 v -1.91461 l 0.29456,-0.13953 h 0.0155 v 0.71934 q 0.14883,-0.0527 0.33331,-0.0527 0.19689,0 0.35347,0.0605 0.2899,0.11472 0.2899,0.31936 v 1.00769 q 0,0.20774 -0.2899,0.31936 -0.15658,0.0605 -0.35347,0.0605 -0.19688,0 -0.35346,-0.0605 -0.28991,-0.11472 -0.28991,-0.31936 z m 0.31006,-0.95343 v 0.89917 q 0,0.0775 0.0961,0.11627 0.0977,0.0388 0.23719,0.0388 0.13953,0 0.23565,-0.0388 0.0977,-0.0388 0.0977,-0.11627 v -0.89917 q 0,-0.0775 -0.0977,-0.11627 -0.0961,-0.0388 -0.23565,-0.0388 -0.13952,0 -0.23719,0.0388 -0.0961,0.0388 -0.0961,0.11627 z"
         style="font-style:normal;font-variant:normal;font-weight:normal;font-stretch:normal;font-size:3.175px;font-family:'Nova Flat';-inkscape-font-specification:'Nova Flat';fill:#083d45;fill-opacity:1;stroke-width:0.264583"
         id="path2445" />
      <path
         d="m -145.2653,110.05519 v 0.33796 q 0,0.20464 -0.2899,0.31936 -0.15658,0.0605 -0.35347,0.0605 -0.19689,0 -0.35346,-0.0605 -0.28991,-0.11472 -0.28991,-0.31936 v -1.00769 q 0,-0.20464 0.28991,-0.31936 0.15657,-0.0605 0.35346,-0.0605 0.19689,0 0.35347,0.0605 0.2899,0.11472 0.2899,0.31936 v 0.19844 l -0.97668,0.75499 q 0,0.0775 0.0961,0.11627 0.0977,0.0388 0.23719,0.0388 0.13953,0 0.23565,-0.0388 0.0977,-0.0388 0.0977,-0.11627 v -0.14418 l 0.29456,-0.13952 z m -0.97668,-0.0434 0.66662,-0.5364 v -0.0357 q 0,-0.0775 -0.0977,-0.11627 -0.0961,-0.0388 -0.23565,-0.0388 -0.13952,0 -0.23719,0.0388 -0.0961,0.0388 -0.0961,0.11627 z"
         style="font-style:normal;font-variant:normal;font-weight:normal;font-stretch:normal;font-size:3.175px;font-family:'Nova Flat';-inkscape-font-specification:'Nova Flat';fill:#083d45;fill-opacity:1;stroke-width:0.264583"
         id="path2447" />
      <path
         d="m -144.85189,110.80398 v -2.32544 l 0.29456,-0.13953 h 0.0155 v 2.32544 l -0.29455,0.13953 z"
         style="font-style:normal;font-variant:normal;font-weight:normal;font-stretch:normal;font-size:3.175px;font-family:'Nova Flat';-inkscape-font-specification:'Nova Flat';fill:#083d45;fill-opacity:1;stroke-width:0.264583"
         id="path2449" />
    </g>
    <path
       id="path1594"
       style="color:#000000;font-style:normal;font-variant:normal;font-weight:normal;font-stretch:normal;font-size:medium;line-height:normal;font-family:sans-serif;font-variant-ligatures:normal;font-variant-position:normal;font-variant-caps:normal;font-variant-numeric:normal;font-variant-alternates:normal;font-feature-settings:normal;text-indent:0;text-align:start;text-decoration:none;text-decoration-line:none;text-decoration-style:solid;text-decoration-color:#000000;letter-spacing:normal;word-spacing:normal;text-transform:none;writing-mode:lr-tb;direction:ltr;text-orientation:mixed;dominant-baseline:auto;baseline-shift:baseline;text-anchor:start;white-space:normal;shape-padding:0;clip-rule:nonzero;display:inline;overflow:visible;visibility:visible;isolation:auto;mix-blend-mode:normal;color-interpolation:sRGB;color-interpolation-filters:linearRGB;solid-color:#000000;solid-opacity:1;vector-effect:none;fill:#083d45;fill-opacity:1;fill-rule:nonzero;stroke:none;stroke-width:0.3;stroke-linecap:butt;stroke-linejoin:round;stroke-miterlimit:4;stroke-dasharray:none;stroke-dashoffset:0;stroke-opacity:1;paint-order:fill markers stroke;color-rendering:auto;image-rendering:auto;shape-rendering:auto;text-rendering:auto;enable-background:accumulate"
       d="m 112.18823,144.06666 h -0.29869 c 0,3.5e-4 0,6.9e-4 0,10e-4 0,2.10016 -1.70066,3.79822 -3.80132,3.79822 -2.10066,0 -3.79925,-1.69806 -3.79925,-3.79822 0,-3.4e-4 0,-6.8e-4 0,-10e-4 h -0.30076 c 0,3.5e-4 0,6.9e-4 0,10e-4 0,2.26226 1.83721,4.09898 4.10001,4.09898 2.2628,0 4.10001,-1.83672 4.10001,-4.09898 0,-3.4e-4 0,-6.8e-4 0,-10e-4 z" />
  </g>
</svg>
