<svg xmlns:osb="http://www.openswatchbook.org/uri/2009/osb" xmlns="http://www.w3.org/2000/svg" width="13.600759mm" height="10.261508mm" viewBox="0 0 13.60076 10.26151">
  <defs>
    <linearGradient id="b" osb:paint="solid" gradientTransform="matrix(.26458 0 0 .26458 117.58404 70.635626)">
      <stop offset="0" stop-color="#0e6977"/>
    </linearGradient>
    <linearGradient id="a" osb:paint="solid" gradientTransform="translate(-62.499998)">
      <stop offset="0" stop-color="#76bfbe"/>
    </linearGradient>
  </defs>
  <g transform="translate(-1.1 -282.63847)">
    <flowRoot xml:space="preserve" style="line-height:1.25;-inkscape-font-specification:'Segoe UI Historic'" font-style="normal" font-variant="normal" font-weight="400" font-stretch="normal" font-size="40" font-family="Segoe UI Historic" letter-spacing="0" word-spacing="0" fill="#000" fill-opacity="1" stroke="none">
      <flowRegion>
        <path d="M100.71429 71.383568h356.42856v270.71429H100.71429z"/>
      </flowRegion>
      <flowPara/>
    </flowRoot>
    <path d="M6.7890393 292.8941c-.04148-.0182-.02642-.0791.03166-.12797.205473-.1729 1.711607-.65712 3.067486-.9862.4462097-.1083.7364637-.16872 3.2556177-.67782 1.378251-.27854 1.619252-.32221 1.544921-.27992-.0159.009-.848771.21785-1.850811.46401-3.4297087.84252-4.2046827 1.04885-5.3244857 1.41758-.53517.17622-.673657.2126-.724385.19032zm-3.1666201-.088c-.1051533-.0297-.1776551-.0959-.3502558-.3195-.087959-.11397-.3509012-.44145-.5843154-.72775-.5066574-.62145-.5947341-.74704-.581976-.82981.0068-.0441-.00229-.0696-.036691-.10267-.054369-.0523-.057744-.0716-.086292-.49419-.012178-.18026-.038587-.46222-.058681-.62658-.047153-.38564-.047468-.48573-.00164-.52719.043678-.0395.058988-.0399.1008047-.002.030313.0275.048892.0196.2232298-.0942.2525324-.16487.5606817-.33372.6385718-.34991l.062822-.0131-.068736-.0803c-.1973476-.23075-.7263318-.62843-.8377128-.62978-.090112-.00071-.132282-.0231-.1796724-.0935-.046775-.0696-.047497-.0773-.063129-.67769-.0087-.33401-.016183-.71224-.016641-.8405-.0006013-.16952-.00813-.24201-.027574-.26543-.037185-.0448-.018679-.21259.045674-.41412.028254-.0884.047575-.16464.042942-.16929-.00465-.004-.1273064.0136-.2726025.0403-.1452953.0268-.2920302.0488-.3260782.0488-.1550794 0-.1979975-.13174-.065954-.20244.060254-.0322.078338-.0346.1107825-.0144.032644.0204.088328.0118.3523531-.0543l.3135791-.0785.1113389-.28313c.1565017-.39797.2923428-.69015.6196281-1.33277.3256102-.63932.3933158-.73368.5264152-.73368.06817 0 .087946.0103.1432473.0753.03529.0415.1261314.19977.2018741.35184.1117007.22426.1675693.37299.2957709.78738.1909516.61722.2006412.64207.2457198.62972.018771-.005.1056452-.0198.1930539-.0327.1477232-.0216.161644-.0277.1974748-.0857.1087145-.1759.4196662-.39297.6894802-.48129.08735-.0286.09988-.0389.09156-.075-.0053-.023-.0118-.10138-.01444-.17415-.004-.11001.0011-.13602.03006-.15424.04814-.0303.08289.0201.109645.15896.01148.0595.02475.1267.02948.14915.0076.0361.0253.0419.153825.0501.361001.0232.571831.27382.543657.64634-.01444.19091-.0929.35603-.243908.51328l-.115584.12038.110312.0539c.245224.11986.500118.34259.714547.62439.131134.17234.234413.3483.234413.39938 0 .0196.01899.0946.04221.1667.02321.0721.03642.13685.02934.14393-.0071.007-.04126-.0102-.07595-.0384-.03469-.0283-.106455-.0846-.159472-.12524-.06151-.0471-.145242-.14644-.231352-.27432-.171682-.25498-.436468-.52472-.622394-.63405-.07723-.0454-.143299-.0792-.146828-.0751-.0035.004.0051.0855.01911.1809.03535.24024.07344 1.05068.05046 1.07367-.01131.0113-.02596-.0131-.03898-.0651-.06144-.24507-.17902-.82608-.208014-1.02788-.02687-.18703-.04188-.24078-.0783-.28061-.05134-.0561-.05734-.11599-.01784-.17795.02375-.0373.02131-.0932-.01908-.43793-.07266-.62016-.06049-.5646-.120444-.54997-.09544.0232-.258036.10604-.381771.19433-.126849.0905-.154975.13161-.07949.11614.204092-.0418.256998-.0206.0964.0389-.2906784.10746-.2730426.0934-.3027714.24193-.018829.0941-.1324672.0848-.156973-.0128-.00658-.0261-.018006-.0476-.0254-.0476-.049678 0-.2522836.0854-.2522836.10635 0 .0297.1517077.46357.3355562.9598.06993.18874.1271454.36402.1271454.38949 0 .0547-.037858.14454-.060934.14454-.00891 0-.016183.21149-.016183.46999 0 .39423.00465.47384.028919.49398.015904.0132.028918.0469.028918.0751 0 .0564-.1179465.2738-.2547372.46948l-.088369.12641.066139.0641c.080845.0784.2347514.29929.3034856.43566.02794.0554.09413.16714.147091.24828.07729.1184.09629.16368.09629.22944 0 .0602-.0102.089-.03856.10838-.03693.0253-.03777.0371-.01984.27708.03013.40334.02535.94239-.0091 1.02478-.03769.0902-.03723.0931.01875.11859.09364.0427.08159.089-.111312.42789-.3744839.65794-.5933645 1.07123-.6976468 1.31732-.1111337.26226-.1542899.32143-.2344547.32143-.039145 0-.045888.008-.04124.051.00658.0604-.010305.0674-.1004866.0419zm.0091-.31936c.05118-.20392.80579-1.56357.9879061-1.78001l.04932-.0586-.0306-.13869c-.02305-.10448-.032608-.2868-.038765-.73913-.00451-.33024-.00128-.61161.00718-.62527.00992-.016-.013744-.0594-.066826-.12254-.045194-.0538-.119634-.16432-.1654133-.24573-.1252511-.22277-.2501497-.37892-.4378748-.54746-.093192-.0837-.2301698-.20993-.304395-.28059-.074225-.0707-.1513867-.13151-.1714702-.13528-.07971-.0149-.1053678-.09-.1275638-.37314-.04656-.59398-.056299-.78561-.05695-1.12065-.0007101-.36469.0092-.40998.083424-.38149.048549.0186.065832.1202.098111.57673.016497.23329.044872.5738.063058.75671l.033066.33257h.052986c.040096 0 .104642.0469.2653985.19279.1168287.10604.2202986.19279.2299318.19279.00963 0 .023019-.0144.029748-.0319.00672-.0175.068507-.11587.1372856-.21852l.1250509-.18666-.031722-.0851c-.0248-.0666-.034568-.1924-.044772-.57674l-.013048-.49163-.1405421-.37594c-.077298-.20677-.1828668-.50082-.2345971-.65344-.05173-.15263-.09712-.28057-.1008633-.2843-.00372-.004-.049492.005-.1016615.0211-.052174.0154-.3247603.0805-.6057551.14476-.2809959.0643-.6094533.13949-.7299047.16718l-.2190036.0504-.043907.0993c-.024149.0547-.07161.18906-.1054671.29878l-.061563.19948.021439.43629c.011792.23996.029605.51871.039581.61944.00998.10073.018378.30678.018664.45789l.0005463.27472h.066261c.1103942 0 .4951365.27796.841013.60761.1282856.12226.3171498.2863.4196987.36454.2663031.20317.4852809.43568.4852809.51527 0 .0529-.057529.0977-.1088074.0848-.054104-.0136-.053089-.0305-.016726.27852.057565.4893.106158.97615.1062038 1.06411.0000436.068-.011556.10397-.046531.1446l-.046581.054-.050035-.047c-.027517-.0259-.058052-.0778-.067856-.11568-.02706-.10434-.1017716-1.11831-.1009485-1.37008l.0007151-.22171-.061255-.0648c-.066855-.0708-.4094046-.34971-.4293809-.34971-.0068 0-.042184.0261-.078623.0582-.036442.032-.1445524.0975-.2402492.14556-.1306144.0655-.5807139.32698-.6299856.36584-.00329.003.01619.14662.043306.32005.027116.17343.068199.47583.091298.672.040475.34373.040761.35925.0079.42815l-.034096.0715.1705069.2106c.093778.11583.4004115.48128.6814073.81209.2809949.33082.5195321.61381.5300813.62886.028153.0402.042505.0338.057401-.0255zm-.6163998-7.45697c.371126-.091.6882298-.16932.7046757-.17406.025172-.007.00968-.0796-.097844-.45678-.070258-.24649-.1431859-.49588-.1620588-.5542-.042363-.13091-.2434192-.5591-.2625259-.5591-.037235 0-.7083323 1.36533-.8649628 1.75974-.069715.17555-.069443.17386-.025801.16033.018557-.005.3373869-.0849.7085131-.17593zm2.6887299.0763c.04472-.0485.103154-.13593.129863-.19427.04064-.0888.04734-.12776.04105-.23894-.0089-.15798-.04622-.21995-.170584-.2835-.07566-.0387-.230958-.0606-.230958-.0326 0 .025.0982.75454.106891.79415.01351.0616.03177.055.123732-.0448zm-.712275 6.94238c-.02726-.0329-.02084-.19395.0222-.55695.02158-.18207.02087-.19161-.01647-.22172-.08166-.0659-.06855-.16018.03013-.21682.04736-.0272.05743-.0514.08822-.21185.05925-.30883.179809-.76451.234509-.8864.05877-.13097.10443-.17197.191477-.17197.117743 0 .20092.15509.292096.54463.0506.21619.05527.22654.10224.22654.06539 0 .134915.0507.134915.0984 0 .0374-.06725.11951-.11038.13495-.01505.005-.01048.0593.0153.18118.07576.35783.08365.48468.04057.65234-.03875.15083-.0524.18224-.07107.16356-.01996-.0199-.103782-.37936-.145328-.6231-.02349-.13785-.04491-.25327-.0476-.25648-.0027-.003-.06442.0325-.137199.0794-.07278.047-.181628.1129-.241891.14674-.126228.0708-.112774.0333-.17886.49837-.02604.18319-.05862.3567-.07243.38558-.02906.0609-.09398.0776-.130437.0336zm.601863-1.34563c.08762-.061.108685-.0855.101481-.11777-.06005-.26941-.128499-.54155-.142483-.56654-.01324-.0237-.0279.004-.06033.1123-.03854.12915-.172687.70037-.172994.73663-.000164.0163.105629-.0472.274321-.16462zm2.437506.93715c-.02782-.0278-.01041-.23803.03537-.42698.06415-.26479.06508-.25776-.02914-.22074-.06086.0239-.08754.0258-.125316.008-.05306-.0241-.06426-.0909-.0239-.14255.02061-.0264.146546-.10924.273043-.17972.02612-.0146.05888-.10618.119976-.33555.04622-.17354.104316-.35973.129093-.41376.08286-.18067.212164-.19294.302077-.0286l.0482.0881.106035-.0846c.125187-.0999.305093-.20447.425068-.24708.12446-.0442.597145-.13973.607613-.12279.0085.0137-.159055.10628-.685654.37853-.195014.10083-.394398.20835-.418798.22585-.0024.002.0069.0633.02071.13696l.025.13387.06605-.005.06605-.005-.05922.0483c-.05688.0463-.05865.0522-.04479.14964.02107.14797.01981.4233-.0029.62098-.01925.16807-.02773.20056-.04723.18105-.01314-.0132-.144324-.65228-.144561-.70432-.00011-.0232-.0087-.0475-.01915-.054-.01936-.0119-.226555.11917-.263005.16647-.01108.0144-.04393.11927-.07301.23312-.06387.25001-.161951.55517-.189091.58828-.0212.0259-.07753.0323-.09858.0112zm.592428-1.20275c-.0028-.0926-.04806-.35056-.05949-.33914-.0091.009-.120372.43167-.121229.46031-.000218.008.04079-.002.09116-.0203.08569-.0322.09145-.0387.08956-.10088zm-1.439862.84906c-.09616-.0757-.132504-.26801-.179382-.94946-.03231-.4697-.02878-.51553.03973-.51553.07264 0 .125239.16354.164328.5109.03632.32277.07906.59677.09576.61384.01902.0195.147363-.30424.231912-.58492.03354-.11133.07815-.25773.09913-.32533.04329-.13948.220804-.50367.245499-.50367.01756 0 .04121.22958.04121.39993 0 .34879-.264536 1.11151-.454578 1.31064-.0672.0705-.08995.0824-.156454.0824-.04879 0-.09622-.0145-.127152-.0389zm2.387691-.0207c-.0054-.015-.04098-.10974-.07911-.21048-.09126-.24106-.135551-.43532-.171429-.75189-.03206-.28285-.027-.33931.03204-.35805.05684-.018.107509.0434.12865.15576.08137.43277.152323 1.13927.117884 1.17371-.0115.0115-.02188.008-.02804-.009zm-3.143035-.0776c-.04701-.0413-.07688-.0907-.09613-.15906-.06944-.24663-.08744-1.01641-.02674-1.14307.02922-.061.08091-.0797.123173-.0446.02177.0181.028.0774.028.26681 0 .28759.04505.71128.08777.82541.03389.0906.06192.1046.284254.14225.0778.0132.128187.0307.124032.0432-.01108.0332-.285299.12687-.374887.12798-.06426.00071-.09554-.0115-.14947-.0589zm4.2579167-.25341c-.0749-.0769-.167091-.18315-.204875-.23617-.08799-.12347-.265521-.28674-.264654-.2434.000328.0172.01269.12677.02742.2434.03108.24601.01752.30432-.07327.31474-.06926.008-.114073-.0325-.163548-.14747-.1154357-.26834-.1312817-.79822-.03372-1.1278.104764-.35394.230565-.51433.403417-.51433.09403 0 .175354.0965.206237.24466.04319.20723-.01527.61723-.116232.81512l-.04063.0796.121875.13164c.133262.14393.198042.25073.272733.4496.03356.0893.04145.13014.02516.13014-.01304 0-.08499-.0629-.159894-.13978zm-.42903-.68441c.106082-.24435.171526-.70628.112671-.79527-.02809-.0425-.08329.0355-.143365.20244-.07276.2022-.08879.29307-.05645.31991.01913.0159.02675.0709.02675.19335 0 .0941.0047.17115.01032.17115.0057 0 .02821-.0412.05008-.0916zm1.091002.60368c-.106834-.14191-.120815-.19787-.187271-.74963-.03808-.31619-.03894-.34731-.01069-.39041.02118-.0323.04856-.0469.08836-.0469.0855 0 .124286.0799.162384.33434.01771.11832.04854.31307.06851.43277.03881.23273.03424.54475-.008.543-.01168-.00049-.06268-.0559-.113341-.12322zm.680303-.18157c-.111392-.0597-.15445-.16767-.154211-.38658.000219-.20245.06348-.55382.132308-.73481.120914-.31801.311235-.48125.426588-.3659.06042.0604.05917.0629-.103706.2086-.103785.0928-.204956.4919-.204467.80659.000164.10437.008.20186.0173.21662.02229.0352.163259.0574.374416.0588.123212.00071.168173.007.16261.0242-.0042.0127-.102554.0643-.218499.11459-.233642.10142-.327734.11403-.43234.0579zm1.281104-.14481c-.10707-.0498-.185136-.13143-.246338-.2574-.02206-.0454-.04616-.0825-.05357-.0825-.0075 0-.05123.0216-.09737.0479-.09649.0551-.173992.0616-.217483.0181-.0685-.0685-.02184-.14945.148616-.25782l.118312-.0752.0021-.20256.0021-.20257-.05853.0302c-.03219.0167-.108349.0777-.169241.13587-.09189.0876-.118933.10354-.159057.0935-.06508-.0163-.09451-.077-.07855-.16215.02807-.14963.373106-.41454.708928-.54427.259216-.10014.381526-.12069.64079-.10765.308664.0155.436582.0325.428478.0567-.0069.0207-.493947.19692-.835599.30229-.288851.0891-.285227.0851-.270309.29528.0068.0956.01547.17692.0193.18075.0039.004.148955-.0413.322497-.1002.173543-.0589.328427-.10467.344187-.10164.0352.007-.06288.0884-.365218.30407-.121941.087-.224473.16554-.227848.17461-.01215.0326.06023.15472.114628.19345.08219.0585.150228.0735.478603.10554.163848.016.301936.033.306862.038.02064.0206-.03105.0382-.291603.0989-.328695.0767-.432579.0801-.564582.0186zm-2.276998-1.34106c-.121373-.074-.128744-.27595-.01339-.36669.104094-.0819.181123-.0431.238143.11979.04486.1282.03626.19059-.0339.24579-.06102.0479-.113461.0483-.190858.002zm.157577-.19582c.02511-.0791-.06843-.10817-.108309-.0337-.01841.0344-.01648.0461.01084.0662.04088.0299.08202.0162.09747-.0325zm-2.6439577-2.18722c-.04343-.0663-.03006-.17803.07034-.58785.04439-.1812.07758-.33244.07375-.3361-.0038-.004-.07202.005-.151544.0194-.167087.0301-.306882.0346-.343894.011-.01418-.009-.02285-.037-.01928-.0623.0074-.0522.043-.066.350552-.13612.104398-.0238.200667-.0522.213934-.0634.01327-.0111.04387-.0981.06801-.19359.06794-.26862.204425-.67287.280779-.83162.038-.079.10614-.18231.151419-.22957.07406-.0773.09122-.0859.170906-.0859.112295 0 .195363.0653.25669.20181.02398.0533.08555.26923.136835.4797l.09324.38268.07712-.0111c.04241-.006.2313907-.0404.4199477-.0762.188557-.0357.346893-.0585.351857-.0505.0096.0154-.15216.0767-.554913.20998-.135197.0448-.2458117.0854-.2458117.0903 0 .005.03482.14741.07738.31668.04256.16927.082.37058.08763.44736.0093.12695.0044.15348-.05363.29236-.03514.084-.07342.15593-.08507.15981-.01332.004-.0263-.0452-.03499-.13346-.0076-.0773-.04652-.25331-.08651-.39116-.03998-.13786-.09229-.33088-.116226-.42897-.02394-.0981-.04906-.17816-.05582-.17795-.0068.00021-.163422.0423-.348122.0935l-.33582.0932-.102428.37398c-.05633.20569-.111982.42604-.123659.48967-.01168.0636-.03487.13085-.05154.14941-.04572.0509-.132928.0432-.171117-.0151zm.818176-1.30903c.141288-.0359.261672-.07.267519-.0759.01448-.0145-.16303-.7426-.195405-.80154-.02565-.0467-.02635-.0461-.08366.0675-.03179.063-.0845.19031-.11715.28288-.05558.15758-.176395.55596-.176395.58164 0 .0198.04059.0127.305088-.0546zm-1.525881.9771c-.111729-.22518-.15162-.33101-.245254-.65068-.04349-.14845-.126153-.42801-.183713-.62124-.114703-.38508-.124545-.45604-.06749-.48657.05481-.0294.09451-.005.140015.0836.04348.0852.357697 1.02534.422895 1.26526.04606.1695.07365.57838.03903.57838-.01198 0-.05944-.076-.105478-.1687zm-.741765-2.12801c-.108639-.0538-.179691-.14899-.19188-.25712-.0056-.0494-.02504-.0997-.04582-.11855-.04783-.0433-.04592-.13551.0045-.21953.09427-.15701.187588-.21757.335291-.21757.117009 0 .194643.0371.279099.13325.08844.10074.122213.19112.12155.32532-.0016.31276-.242923.48281-.502757.3542zm.234899-.24577c.018-.0198.0377-.0668.04378-.10426.02136-.13161-.115382-.28952-.221539-.25582-.03007.01-.04096.0361-.05129.1252-.01456.12544.000328.16876.07946.23099.0631.0496.107154.0507.149592.004z" fill="url(#a)"/>
    <path d="M6.7890393 292.5941c-.04148-.0182-.02642-.0791.03166-.12797.205473-.1729 1.711607-.65712 3.067486-.9862.4462097-.1083.7364637-.16872 3.2556177-.67782 1.378251-.27854 1.619252-.32221 1.544921-.27992-.0159.009-.848771.21785-1.850811.46401-3.4297087.84252-4.2046827 1.04885-5.3244857 1.41758-.53517.17622-.673657.2126-.724385.19032zm-3.1666201-.088c-.1051533-.0297-.1776551-.0959-.3502558-.3195-.087959-.11397-.3509012-.44145-.5843154-.72775-.5066574-.62145-.5947341-.74704-.581976-.82981.0068-.0441-.00229-.0696-.036691-.10267-.054369-.0523-.057744-.0716-.086292-.49419-.012178-.18026-.038587-.46222-.058681-.62658-.047153-.38564-.047468-.48573-.00164-.52719.043678-.0395.058988-.0399.1008047-.002.030313.0275.048892.0196.2232298-.0942.2525324-.16487.5606817-.33372.6385718-.34991l.062822-.0131-.068736-.0803c-.1973476-.23075-.7263318-.62843-.8377128-.62978-.090112-.00071-.132282-.0231-.1796724-.0935-.046775-.0696-.047497-.0773-.063129-.67769-.0087-.33401-.016183-.71224-.016641-.8405-.0006013-.16952-.00813-.24201-.027574-.26543-.037185-.0448-.018679-.21259.045674-.41412.028254-.0884.047575-.16464.042942-.16929-.00465-.004-.1273064.0136-.2726025.0403-.1452953.0268-.2920302.0488-.3260782.0488-.1550794 0-.1979975-.13174-.065954-.20244.060254-.0322.078338-.0346.1107825-.0144.032644.0204.088328.0118.3523531-.0543l.3135791-.0785.1113389-.28313c.1565017-.39797.2923428-.69015.6196281-1.33277.3256102-.63932.3933158-.73368.5264152-.73368.06817 0 .087946.0103.1432473.0753.03529.0415.1261314.19977.2018741.35184.1117007.22426.1675693.37299.2957709.78738.1909516.61722.2006412.64207.2457198.62972.018771-.005.1056452-.0198.1930539-.0327.1477232-.0216.161644-.0277.1974748-.0857.1087145-.1759.4196662-.39297.6894802-.48129.08735-.0286.09988-.0389.09156-.075-.0053-.023-.0118-.10138-.01444-.17415-.004-.11001.0011-.13602.03006-.15424.04814-.0303.08289.0201.109645.15896.01148.0595.02475.1267.02948.14915.0076.0361.0253.0419.153825.0501.361001.0232.571831.27382.543657.64634-.01444.19091-.0929.35603-.243908.51328l-.115584.12038.110312.0539c.245224.11986.500118.34259.714547.62439.131134.17234.234413.3483.234413.39938 0 .0196.01899.0946.04221.1667.02321.0721.03642.13685.02934.14393-.0071.007-.04126-.0102-.07595-.0384-.03469-.0283-.106455-.0846-.159472-.12524-.06151-.0471-.145242-.14644-.231352-.27432-.171682-.25498-.436468-.52472-.622394-.63405-.07723-.0454-.143299-.0792-.146828-.0751-.0035.004.0051.0855.01911.1809.03535.24024.07344 1.05068.05046 1.07367-.01131.0113-.02596-.0131-.03898-.0651-.06144-.24507-.17902-.82608-.208014-1.02788-.02687-.18703-.04188-.24078-.0783-.28061-.05134-.0561-.05734-.11599-.01784-.17795.02375-.0373.02131-.0932-.01908-.43793-.07266-.62016-.06049-.5646-.120444-.54997-.09544.0232-.258036.10604-.381771.19433-.126849.0905-.154975.13161-.07949.11614.204092-.0418.256998-.0206.0964.0389-.2906784.10746-.2730426.0934-.3027714.24193-.018829.0941-.1324672.0848-.156973-.0128-.00658-.0261-.018006-.0476-.0254-.0476-.049678 0-.2522836.0854-.2522836.10635 0 .0297.1517077.46357.3355562.9598.06993.18874.1271454.36402.1271454.38949 0 .0547-.037858.14454-.060934.14454-.00891 0-.016183.21149-.016183.46999 0 .39423.00465.47384.028919.49398.015904.0132.028918.0469.028918.0751 0 .0564-.1179465.2738-.2547372.46948l-.088369.12641.066139.0641c.080845.0784.2347514.29929.3034856.43566.02794.0554.09413.16714.147091.24828.07729.1184.09629.16368.09629.22944 0 .0602-.0102.089-.03856.10838-.03693.0253-.03777.0371-.01984.27708.03013.40334.02535.94239-.0091 1.02478-.03769.0902-.03723.0931.01875.11859.09364.0427.08159.089-.111312.42789-.3744839.65794-.5933645 1.07123-.6976468 1.31732-.1111337.26226-.1542899.32143-.2344547.32143-.039145 0-.045888.008-.04124.051.00658.0604-.010305.0674-.1004866.0419zm.0091-.31936c.05118-.20392.80579-1.56357.9879061-1.78001l.04932-.0586-.0306-.13869c-.02305-.10448-.032608-.2868-.038765-.73913-.00451-.33024-.00128-.61161.00718-.62527.00992-.016-.013744-.0594-.066826-.12254-.045194-.0538-.119634-.16432-.1654133-.24573-.1252511-.22277-.2501497-.37892-.4378748-.54746-.093192-.0837-.2301698-.20993-.304395-.28059-.074225-.0707-.1513867-.13151-.1714702-.13528-.07971-.0149-.1053678-.09-.1275638-.37314-.04656-.59398-.056299-.78561-.05695-1.12065-.0007101-.36469.0092-.40998.083424-.38149.048549.0186.065832.1202.098111.57673.016497.23329.044872.5738.063058.75671l.033066.33257h.052986c.040096 0 .104642.0469.2653985.19279.1168287.10604.2202986.19279.2299318.19279.00963 0 .023019-.0144.029748-.0319.00672-.0175.068507-.11587.1372856-.21852l.1250509-.18666-.031722-.0851c-.0248-.0666-.034568-.1924-.044772-.57674l-.013048-.49163-.1405421-.37594c-.077298-.20677-.1828668-.50082-.2345971-.65344-.05173-.15263-.09712-.28057-.1008633-.2843-.00372-.004-.049492.005-.1016615.0211-.052174.0154-.3247603.0805-.6057551.14476-.2809959.0643-.6094533.13949-.7299047.16718l-.2190036.0504-.043907.0993c-.024149.0547-.07161.18906-.1054671.29878l-.061563.19948.021439.43629c.011792.23996.029605.51871.039581.61944.00998.10073.018378.30678.018664.45789l.0005463.27472h.066261c.1103942 0 .4951365.27796.841013.60761.1282856.12226.3171498.2863.4196987.36454.2663031.20317.4852809.43568.4852809.51527 0 .0529-.057529.0977-.1088074.0848-.054104-.0136-.053089-.0305-.016726.27852.057565.4893.106158.97615.1062038 1.06411.0000436.068-.011556.10397-.046531.1446l-.046581.054-.050035-.047c-.027517-.0259-.058052-.0778-.067856-.11568-.02706-.10434-.1017716-1.11831-.1009485-1.37008l.0007151-.22171-.061255-.0648c-.066855-.0708-.4094046-.34971-.4293809-.34971-.0068 0-.042184.0261-.078623.0582-.036442.032-.1445524.0975-.2402492.14556-.1306144.0655-.5807139.32698-.6299856.36584-.00329.003.01619.14662.043306.32005.027116.17343.068199.47583.091298.672.040475.34373.040761.35925.0079.42815l-.034096.0715.1705069.2106c.093778.11583.4004115.48128.6814073.81209.2809949.33082.5195321.61381.5300813.62886.028153.0402.042505.0338.057401-.0255zm-.6163998-7.45697c.371126-.091.6882298-.16932.7046757-.17406.025172-.007.00968-.0796-.097844-.45678-.070258-.24649-.1431859-.49588-.1620588-.5542-.042363-.13091-.2434192-.5591-.2625259-.5591-.037235 0-.7083323 1.36533-.8649628 1.75974-.069715.17555-.069443.17386-.025801.16033.018557-.005.3373869-.0849.7085131-.17593zm2.6887299.0763c.04472-.0485.103154-.13593.129863-.19427.04064-.0888.04734-.12776.04105-.23894-.0089-.15798-.04622-.21995-.170584-.2835-.07566-.0387-.230958-.0606-.230958-.0326 0 .025.0982.75454.106891.79415.01351.0616.03177.055.123732-.0448zm-.712275 6.94238c-.02726-.0329-.02084-.19395.0222-.55695.02158-.18207.02087-.19161-.01647-.22172-.08166-.0659-.06855-.16018.03013-.21682.04736-.0272.05743-.0514.08822-.21185.05925-.30883.179809-.76451.234509-.8864.05877-.13097.10443-.17197.191477-.17197.117743 0 .20092.15509.292096.54463.0506.21619.05527.22654.10224.22654.06539 0 .134915.0507.134915.0984 0 .0374-.06725.11951-.11038.13495-.01505.005-.01048.0593.0153.18118.07576.35783.08365.48468.04057.65234-.03875.15083-.0524.18224-.07107.16356-.01996-.0199-.103782-.37936-.145328-.6231-.02349-.13785-.04491-.25327-.0476-.25648-.0027-.003-.06442.0325-.137199.0794-.07278.047-.181628.1129-.241891.14674-.126228.0708-.112774.0333-.17886.49837-.02604.18319-.05862.3567-.07243.38558-.02906.0609-.09398.0776-.130437.0336zm.601863-1.34563c.08762-.061.108685-.0855.101481-.11777-.06005-.26941-.128499-.54155-.142483-.56654-.01324-.0237-.0279.004-.06033.1123-.03854.12915-.172687.70037-.172994.73663-.000164.0163.105629-.0472.274321-.16462zm2.437506.93715c-.02782-.0278-.01041-.23803.03537-.42698.06415-.26479.06508-.25776-.02914-.22074-.06086.0239-.08754.0258-.125316.008-.05306-.0241-.06426-.0909-.0239-.14255.02061-.0264.146546-.10924.273043-.17972.02612-.0146.05888-.10618.119976-.33555.04622-.17354.104316-.35973.129093-.41376.08286-.18067.212164-.19294.302077-.0286l.0482.0881.106035-.0846c.125187-.0999.305093-.20447.425068-.24708.12446-.0442.597145-.13973.607613-.12279.0085.0137-.159055.10628-.685654.37853-.195014.10083-.394398.20835-.418798.22585-.0024.002.0069.0633.02071.13696l.025.13387.06605-.005.06605-.005-.05922.0483c-.05688.0463-.05865.0522-.04479.14964.02107.14797.01981.4233-.0029.62098-.01925.16807-.02773.20056-.04723.18105-.01314-.0132-.144324-.65228-.144561-.70432-.00011-.0232-.0087-.0475-.01915-.054-.01936-.0119-.226555.11917-.263005.16647-.01108.0144-.04393.11927-.07301.23312-.06387.25001-.161951.55517-.189091.58828-.0212.0259-.07753.0323-.09858.0112zm.592428-1.20275c-.0028-.0926-.04806-.35056-.05949-.33914-.0091.009-.120372.43167-.121229.46031-.000218.008.04079-.002.09116-.0203.08569-.0322.09145-.0387.08956-.10088zm-1.439862.84906c-.09616-.0757-.132504-.26801-.179382-.94946-.03231-.4697-.02878-.51553.03973-.51553.07264 0 .125239.16354.164328.5109.03632.32277.07906.59677.09576.61384.01902.0195.147363-.30424.231912-.58492.03354-.11133.07815-.25773.09913-.32533.04329-.13948.220804-.50367.245499-.50367.01756 0 .04121.22958.04121.39993 0 .34879-.264536 1.11151-.454578 1.31064-.0672.0705-.08995.0824-.156454.0824-.04879 0-.09622-.0145-.127152-.0389zm2.387691-.0207c-.0054-.015-.04098-.10974-.07911-.21048-.09126-.24106-.135551-.43532-.171429-.75189-.03206-.28285-.027-.33931.03204-.35805.05684-.018.107509.0434.12865.15576.08137.43277.152323 1.13927.117884 1.17371-.0115.0115-.02188.008-.02804-.009zm-3.143035-.0776c-.04701-.0413-.07688-.0907-.09613-.15906-.06944-.24663-.08744-1.01641-.02674-1.14307.02922-.061.08091-.0797.123173-.0446.02177.0181.028.0774.028.26681 0 .28759.04505.71128.08777.82541.03389.0906.06192.1046.284254.14225.0778.0132.128187.0307.124032.0432-.01108.0332-.285299.12687-.374887.12798-.06426.00071-.09554-.0115-.14947-.0589zm4.2579167-.25341c-.0749-.0769-.167091-.18315-.204875-.23617-.08799-.12347-.265521-.28674-.264654-.2434.000328.0172.01269.12677.02742.2434.03108.24601.01752.30432-.07327.31474-.06926.008-.114073-.0325-.163548-.14747-.1154357-.26834-.1312817-.79822-.03372-1.1278.104764-.35394.230565-.51433.403417-.51433.09403 0 .175354.0965.206237.24466.04319.20723-.01527.61723-.116232.81512l-.04063.0796.121875.13164c.133262.14393.198042.25073.272733.4496.03356.0893.04145.13014.02516.13014-.01304 0-.08499-.0629-.159894-.13978zm-.42903-.68441c.106082-.24435.171526-.70628.112671-.79527-.02809-.0425-.08329.0355-.143365.20244-.07276.2022-.08879.29307-.05645.31991.01913.0159.02675.0709.02675.19335 0 .0941.0047.17115.01032.17115.0057 0 .02821-.0412.05008-.0916zm1.091002.60368c-.106834-.14191-.120815-.19787-.187271-.74963-.03808-.31619-.03894-.34731-.01069-.39041.02118-.0323.04856-.0469.08836-.0469.0855 0 .124286.0799.162384.33434.01771.11832.04854.31307.06851.43277.03881.23273.03424.54475-.008.543-.01168-.00049-.06268-.0559-.113341-.12322zm.680303-.18157c-.111392-.0597-.15445-.16767-.154211-.38658.000219-.20245.06348-.55382.132308-.73481.120914-.31801.311235-.48125.426588-.3659.06042.0604.05917.0629-.103706.2086-.103785.0928-.204956.4919-.204467.80659.000164.10437.008.20186.0173.21662.02229.0352.163259.0574.374416.0588.123212.00071.168173.007.16261.0242-.0042.0127-.102554.0643-.218499.11459-.233642.10142-.327734.11403-.43234.0579zm1.281104-.14481c-.10707-.0498-.185136-.13143-.246338-.2574-.02206-.0454-.04616-.0825-.05357-.0825-.0075 0-.05123.0216-.09737.0479-.09649.0551-.173992.0616-.217483.0181-.0685-.0685-.02184-.14945.148616-.25782l.118312-.0752.0021-.20256.0021-.20257-.05853.0302c-.03219.0167-.108349.0777-.169241.13587-.09189.0876-.118933.10354-.159057.0935-.06508-.0163-.09451-.077-.07855-.16215.02807-.14963.373106-.41454.708928-.54427.259216-.10014.381526-.12069.64079-.10765.308664.0155.436582.0325.428478.0567-.0069.0207-.493947.19692-.835599.30229-.288851.0891-.285227.0851-.270309.29528.0068.0956.01547.17692.0193.18075.0039.004.148955-.0413.322497-.1002.173543-.0589.328427-.10467.344187-.10164.0352.007-.06288.0884-.365218.30407-.121941.087-.224473.16554-.227848.17461-.01215.0326.06023.15472.114628.19345.08219.0585.150228.0735.478603.10554.163848.016.301936.033.306862.038.02064.0206-.03105.0382-.291603.0989-.328695.0767-.432579.0801-.564582.0186zm-2.276998-1.34106c-.121373-.074-.128744-.27595-.01339-.36669.104094-.0819.181123-.0431.238143.11979.04486.1282.03626.19059-.0339.24579-.06102.0479-.113461.0483-.190858.002zm.157577-.19582c.02511-.0791-.06843-.10817-.108309-.0337-.01841.0344-.01648.0461.01084.0662.04088.0299.08202.0162.09747-.0325zm-2.6439577-2.18722c-.04343-.0663-.03006-.17803.07034-.58785.04439-.1812.07758-.33244.07375-.3361-.0038-.004-.07202.005-.151544.0194-.167087.0301-.306882.0346-.343894.011-.01418-.009-.02285-.037-.01928-.0623.0074-.0522.043-.066.350552-.13612.104398-.0238.200667-.0522.213934-.0634.01327-.0111.04387-.0981.06801-.19359.06794-.26862.204425-.67287.280779-.83162.038-.079.10614-.18231.151419-.22957.07406-.0773.09122-.0859.170906-.0859.112295 0 .195363.0653.25669.20181.02398.0533.08555.26923.136835.4797l.09324.38268.07712-.0111c.04241-.006.2313907-.0404.4199477-.0762.188557-.0357.346893-.0585.351857-.0505.0096.0154-.15216.0767-.554913.20998-.135197.0448-.2458117.0854-.2458117.0903 0 .005.03482.14741.07738.31668.04256.16927.082.37058.08763.44736.0093.12695.0044.15348-.05363.29236-.03514.084-.07342.15593-.08507.15981-.01332.004-.0263-.0452-.03499-.13346-.0076-.0773-.04652-.25331-.08651-.39116-.03998-.13786-.09229-.33088-.116226-.42897-.02394-.0981-.04906-.17816-.05582-.17795-.0068.00021-.163422.0423-.348122.0935l-.33582.0932-.102428.37398c-.05633.20569-.111982.42604-.123659.48967-.01168.0636-.03487.13085-.05154.14941-.04572.0509-.132928.0432-.171117-.0151zm.818176-1.30903c.141288-.0359.261672-.07.267519-.0759.01448-.0145-.16303-.7426-.195405-.80154-.02565-.0467-.02635-.0461-.08366.0675-.03179.063-.0845.19031-.11715.28288-.05558.15758-.176395.55596-.176395.58164 0 .0198.04059.0127.305088-.0546zm-1.525881.9771c-.111729-.22518-.15162-.33101-.245254-.65068-.04349-.14845-.126153-.42801-.183713-.62124-.114703-.38508-.124545-.45604-.06749-.48657.05481-.0294.09451-.005.140015.0836.04348.0852.357697 1.02534.422895 1.26526.04606.1695.07365.57838.03903.57838-.01198 0-.05944-.076-.105478-.1687zm-.741765-2.12801c-.108639-.0538-.179691-.14899-.19188-.25712-.0056-.0494-.02504-.0997-.04582-.11855-.04783-.0433-.04592-.13551.0045-.21953.09427-.15701.187588-.21757.335291-.21757.117009 0 .194643.0371.279099.13325.08844.10074.122213.19112.12155.32532-.0016.31276-.242923.48281-.502757.3542zm.234899-.24577c.018-.0198.0377-.0668.04378-.10426.02136-.13161-.115382-.28952-.221539-.25582-.03007.01-.04096.0361-.05129.1252-.01456.12544.000328.16876.07946.23099.0631.0496.107154.0507.149592.004z" fill="url(#b)"/>
  </g>
</svg>
