<?xml version="1.0" encoding="UTF-8" standalone="no"?>
<svg
   xmlns:dc="http://purl.org/dc/elements/1.1/"
   xmlns:cc="http://creativecommons.org/ns#"
   xmlns:rdf="http://www.w3.org/1999/02/22-rdf-syntax-ns#"
   xmlns:svg="http://www.w3.org/2000/svg"
   xmlns="http://www.w3.org/2000/svg"
   xmlns:sodipodi="http://sodipodi.sourceforge.net/DTD/sodipodi-0.dtd"
   xmlns:inkscape="http://www.inkscape.org/namespaces/inkscape"
   sodipodi:docname="solomon-delay-lit.svg"
   inkscape:version="1.0 (4035a4fb49, 2020-05-01)"
   id="svg4983"
   version="1.1"
   viewBox="0 0 8 3"
   height="3mm"
   width="8mm">
  <defs
     id="defs4977" />
  <sodipodi:namedview
     inkscape:window-maximized="1"
     inkscape:window-y="442"
     inkscape:window-x="1076"
     inkscape:window-height="1019"
     inkscape:window-width="1920"
     showgrid="false"
     inkscape:document-rotation="0"
     inkscape:current-layer="layer1"
     inkscape:document-units="mm"
     inkscape:cy="9.5558824"
     inkscape:cx="11.878556"
     inkscape:zoom="11.2"
     inkscape:pageshadow="2"
     inkscape:pageopacity="0.0"
     borderopacity="1.0"
     bordercolor="#666666"
     pagecolor="#ffffff"
     id="base" />
  <metadata
     id="metadata4980">
    <rdf:RDF>
      <cc:Work
         rdf:about="">
        <dc:format>image/svg+xml</dc:format>
        <dc:type
           rdf:resource="http://purl.org/dc/dcmitype/StillImage" />
        <dc:title></dc:title>
      </cc:Work>
    </rdf:RDF>
  </metadata>
  <g
     transform="translate(-228.83333,-72.583333)"
     id="layer1"
     inkscape:groupmode="layer"
     inkscape:label="Layer 1">
    <path
       id="path4100"
       style="display:inline;fill:#c1f0f2;fill-opacity:1;stroke-width:0.0592558"
       d="m 228.83333,72.583333 h 8 v 3 h -8 z" />
    <g
       aria-label="DELAY"
       id="g4960"
       style="font-style:normal;font-variant:normal;font-weight:normal;font-stretch:normal;font-size:2.82222px;line-height:1.25;font-family:'Nova Square';-inkscape-font-specification:'Nova Square';text-align:center;letter-spacing:-0.185208px;text-anchor:middle;display:inline;fill:#083d45;fill-opacity:1;stroke-width:0.264583"
       transform="translate(166.0417,-8.7138907)">
      <path
         d="m 63.482569,83.590134 h 0.606336 q 0.206706,0 0.206706,-0.234266 v -1.116211 q 0,-0.234266 -0.206706,-0.234266 h -0.606336 z m -0.275607,0.248047 v -2.011935 l 0.146072,-0.0689 h 0.735871 q 0.482313,0 0.482313,0.482313 v 1.116211 q 0,0.482313 -0.482313,0.482313 z"
         style="letter-spacing:-0.370417px;fill:#083d45;fill-opacity:1"
         id="path4950" />
      <path
         d="m 64.754772,83.838181 v -2.011935 l 0.146072,-0.0689 h 0.873676 v 0.01378 l -0.111621,0.237022 H 65.03038 v 0.664214 h 0.74414 v 0.01378 l -0.111621,0.237023 H 65.03038 v 0.664214 h 0.974272 v 0.01378 l -0.111621,0.237023 z"
         style="font-style:normal;font-variant:normal;font-weight:normal;font-stretch:normal;font-size:2.82222px;font-family:'Nova Square';-inkscape-font-specification:'Nova Square';fill:#083d45;fill-opacity:1;stroke-width:0.264583"
         id="path4952" />
      <path
         d="m 66.162575,83.838181 v -2.011935 l 0.261827,-0.124023 h 0.01378 v 1.885155 h 0.943955 v 0.01378 l -0.111621,0.237023 z"
         style="letter-spacing:-0.15875px;fill:#083d45;fill-opacity:1"
         id="path4954" />
      <path
         d="m 67.508642,83.893302 v -1.653645 q 0,-0.482313 0.482313,-0.482313 h 0.427191 q 0.482313,0 0.482313,0.482313 v 1.529622 l -0.261827,0.124023 h -0.01378 v -0.970138 h -0.840603 v 0.846115 l -0.261827,0.124023 z m 0.275607,-1.220941 h 0.840603 v -0.432704 q 0,-0.234266 -0.206706,-0.234266 h -0.427191 q -0.206706,0 -0.206706,0.234266 z"
         style="letter-spacing:-0.370417px;fill:#083d45;fill-opacity:1"
         id="path4956" />
      <path
         d="m 69.573217,83.893302 v -0.719335 h -0.07579 q -0.482313,0 -0.482313,-0.482313 v -0.865408 l 0.261827,-0.124023 h 0.01378 v 0.989431 q 0,0.234266 0.206706,0.234266 h 0.427191 q 0.206706,0 0.206706,-0.234266 v -0.865408 l 0.261827,-0.124023 h 0.01378 v 0.989431 q 0,0.482313 -0.482313,0.482313 h -0.07579 v 0.595312 l -0.261827,0.124023 z"
         style="font-style:normal;font-variant:normal;font-weight:normal;font-stretch:normal;font-size:2.82222px;font-family:'Nova Square';-inkscape-font-specification:'Nova Square';fill:#083d45;fill-opacity:1;stroke-width:0.264583"
         id="path4958" />
    </g>
  </g>
</svg>
